<svg width="105" height="60" viewBox="0 0 105 60" fill="none" xmlns="http://www.w3.org/2000/svg">
    <path d="M104.588 34.0708C104.538 38.3805 102.558 41.4342 99.4554 43.8329C95.5791 46.8275 91.4024 48.7287 86.3785 46.8768C85.6643 46.6158 85.1915 46.6502 84.8713 47.5073C81.3743 56.8458 71.9668 57.9343 64.1355 53.1665C62.8894 52.408 62.4559 52.6395 61.6137 53.531C58.4861 56.831 54.8512 59.3429 50.2065 59.9143C45.2664 60.525 40.932 57.8308 39.2968 53.1714C38.9767 52.2553 38.6368 52.2553 37.9029 52.605C32.7264 55.0874 27.9832 53.9201 23.5307 50.7826C22.9446 50.3689 22.5604 50.4674 22.0334 50.7186C19.881 51.7529 17.6005 52.3883 15.2758 52.9153C11.7098 53.7231 8.33096 53.137 5.08021 51.6593C0.918268 49.768 -0.544569 46.1626 1.03155 41.9022C1.85409 39.6759 3.17901 37.7451 4.95215 36.2133C6.02588 35.2874 5.84857 34.8145 4.83394 34.1201C4.21335 33.6965 3.6814 33.135 3.13961 32.608C0.322297 29.8498 0.238568 26.7813 3.06573 24.0083C6.77454 20.3733 11.1286 17.758 16.1919 16.4577C17.3493 16.1621 17.9355 15.7878 18.0734 14.4383C18.3196 12.0642 19.0929 9.80348 20.6641 7.90229C22.3092 5.91243 24.3581 4.97168 26.9489 5.40512C29.5889 5.8484 32.2634 6.20795 34.6325 7.57228C35.3073 7.96139 35.5634 7.7496 35.8934 7.14871C37.2922 4.59243 39.42 2.75034 41.858 1.23825C43.7494 0.0660123 45.7688 -0.25415 47.9704 0.19406C51.4527 0.903314 54.7083 2.03616 57.1809 4.74512C57.7965 5.4199 58.3531 5.09482 58.954 4.84855C61.4807 3.80437 64.0468 3.26258 66.7903 3.97183C68.7358 4.47422 70.5582 5.17362 71.9373 6.69063C72.4249 7.2275 72.8189 7.33093 73.4789 6.95168C77.3552 4.72541 81.2069 5.51839 84.9403 7.30631C86.9942 8.29138 88.7821 9.73946 90.4469 11.3057C92.1855 12.941 93.0622 15.0195 93.2543 17.359C93.3282 18.2406 93.6878 18.5608 94.4709 18.7775C100.312 20.3684 103.046 24.6338 104.144 30.229C104.405 31.5638 104.46 32.938 104.583 34.061L104.588 34.0708Z" fill="#FB01A5"/>
    <path d="M20.1902 37.0409C20.1311 36.9523 20.067 36.8587 19.9932 36.7602C19.9193 36.6617 19.8454 36.5533 19.7764 36.4302C19.7075 36.3071 19.6484 36.1642 19.6188 36.0017C19.54 35.8884 19.4514 35.7357 19.3627 35.5535C19.274 35.3663 19.1706 35.1841 19.0475 35.0068C18.9244 34.8295 18.7914 34.6768 18.6436 34.5586C18.4958 34.4354 18.3432 34.3763 18.1806 34.3763C18.0821 34.3763 17.9737 34.4305 17.8506 34.5339C17.7275 34.6374 17.6093 34.8147 17.496 35.056C17.3334 35.2974 17.294 35.5929 17.1167 35.9081C16.9739 36.1642 16.7523 36.6666 16.5651 36.8833C16.3779 37.105 15.0333 39.282 14.8855 39.4544C14.8708 39.4741 14.8855 39.4938 14.8954 39.5086C14.8067 39.612 14.7772 39.7351 14.7673 39.8681C14.7427 40.1883 14.7132 40.5084 14.5851 40.8089C14.5506 40.8975 14.5112 40.9812 14.4521 41.0551C14.3191 41.2177 14.1221 41.2177 13.9743 41.0748C13.8266 40.9271 13.7527 40.7645 13.8217 40.5478C13.866 40.405 13.8808 40.2572 13.8857 40.0848C13.7773 40.2129 13.7035 40.336 13.6296 40.4591C13.5902 40.5232 13.5458 40.5921 13.4867 40.6365C13.3833 40.7153 13.2405 40.7153 13.1518 40.6365C13.0582 40.5527 13.0385 40.4247 13.1075 40.3015C13.142 40.2375 13.1863 40.1784 13.2208 40.1144C13.2306 40.0947 13.2552 40.07 13.2306 40.0503C13.206 40.0257 13.1764 40.0405 13.1567 40.0602C13.073 40.1242 12.9893 40.1932 12.9105 40.2572C12.8218 40.3262 12.7233 40.3902 12.6149 40.4247C12.482 40.469 12.349 40.4345 12.2751 40.3311C12.2012 40.2326 12.1963 40.1045 12.2702 39.9863C12.3145 39.9124 12.3687 39.8435 12.413 39.7745C12.4278 39.7499 12.4573 39.7253 12.4327 39.7006C12.413 39.676 12.3785 39.6957 12.3539 39.7006C12.2849 39.7154 12.2209 39.7351 12.152 39.7548C11.9993 39.7942 11.8761 39.7548 11.8022 39.6514C11.7284 39.548 11.7431 39.4297 11.8466 39.2918C11.8515 39.282 11.8564 39.2721 11.8663 39.2524C11.8072 39.2475 11.753 39.2426 11.6988 39.2377C11.5412 39.218 11.4329 39.0997 11.4279 38.952C11.4279 38.8141 11.5264 38.6909 11.6791 38.6663C11.7579 38.6515 11.8417 38.6565 11.9205 38.6466C12.147 38.622 12.3293 38.5087 12.5164 38.3905C12.6691 38.2477 12.7873 38.0753 12.8957 37.893C13.0927 37.6763 13.27 37.4448 13.4473 37.2133L14.457 35.9524C14.6343 35.7012 14.8117 35.4845 14.9939 35.3072C15.2057 34.9329 15.4323 34.6226 15.6736 34.3714C15.9149 34.1202 16.1464 33.8247 16.3533 33.4848C16.4814 33.3568 16.57 33.2287 16.6094 33.1056C16.6488 32.9824 16.7276 32.8839 16.8409 32.8002V32.2633C16.8409 32.1648 16.7917 32.0269 16.6932 31.8496C16.5947 31.6723 16.4814 31.49 16.3533 31.3029C16.2252 31.1157 13.4424 25.4466 13.1173 24.895C13.0829 24.8359 13.0385 24.8162 12.9794 24.8112C12.8021 24.7965 12.6248 24.7768 12.4475 24.7571C12.2406 24.7374 12.0584 24.6585 11.9008 24.5256C11.7973 24.4369 11.7333 24.3285 11.7629 24.1808C11.7924 24.0429 11.9008 23.9936 12.0239 23.9542C12.1717 23.9099 12.3145 23.905 12.4573 23.9542C12.5312 23.9788 12.6051 23.9887 12.7085 23.9887C12.6199 23.8902 12.5509 23.7966 12.4622 23.7277C12.1815 23.5011 11.9993 23.1957 11.7678 22.9297C11.7038 22.8558 11.6397 22.782 11.5609 22.7179C11.4131 22.5948 11.3787 22.4175 11.4772 22.2796C11.5757 22.1417 11.7579 22.1072 11.9205 22.2057C12.1667 22.3485 12.3243 22.585 12.4918 22.8017C12.6691 23.0233 12.8957 23.1908 13.0927 23.3878C13.0927 23.3977 13.1025 23.4124 13.1124 23.4026C13.1124 23.4026 13.1124 23.3829 13.1075 23.373C13.0139 23.0479 12.9154 22.7229 12.7578 22.4175C12.6002 22.1121 12.4819 21.787 12.4327 21.4423C12.4081 21.2797 12.4918 21.1467 12.6248 21.0975C12.7578 21.0482 12.9105 21.0975 13.004 21.2206C13.0336 21.26 13.0582 21.3044 13.0779 21.3487C13.1518 21.5211 13.2306 21.6935 13.2996 21.8658C13.4276 22.2205 13.6148 22.5456 13.7724 22.8854C13.7822 22.91 13.797 22.9297 13.8364 22.9494C13.8266 22.8115 13.8167 22.6736 13.8019 22.5406C13.7675 22.2402 13.7527 21.9447 13.7823 21.6442C13.7823 21.6097 13.7872 21.5703 13.7921 21.5359C13.8217 21.3487 13.9448 21.2305 14.1123 21.2305C14.2846 21.2305 14.4226 21.3487 14.4472 21.5359C14.4669 21.7033 14.4669 21.8757 14.4866 22.0432C14.5358 22.5012 14.5802 22.9593 14.7181 23.4026C14.723 23.4174 14.7329 23.4371 14.7476 23.4814C14.8067 23.1662 14.9151 22.8953 14.9939 22.6194C15.0136 22.5554 15.0382 22.4914 15.0727 22.4372C15.1417 22.3239 15.2697 22.2845 15.3879 22.3239C15.5012 22.3682 15.5751 22.4815 15.5406 22.6194C15.5061 22.7623 15.4618 22.9051 15.4027 23.0381C15.2254 23.437 15.1811 23.8656 15.1023 24.2891C15.0776 24.4123 15.117 24.5206 15.1958 24.6241C15.9149 25.55 17.6043 28.85 17.7423 29.1899C17.8802 29.5297 18.0427 29.8351 18.2299 30.1011C18.417 30.367 18.6239 30.505 18.8505 30.505C18.9637 30.505 19.146 30.3572 19.3972 30.0666C19.6484 29.776 19.9045 29.4362 20.1655 29.0569C20.4266 28.6776 20.6532 28.3082 20.8452 27.9635C21.0373 27.6138 22.8499 25.0526 23.2242 24.1956C23.2636 24.1611 23.2932 24.1118 23.3178 24.0675C23.5296 23.639 23.7611 23.2203 23.9187 22.7623C23.9729 22.6047 24.0467 22.447 24.1256 22.2993C24.2044 22.1417 24.3423 22.0826 24.4802 22.1269C24.6181 22.1712 24.6969 22.2944 24.6723 22.4717C24.623 22.8312 24.5146 23.176 24.362 23.506C24.3521 23.5306 24.3176 23.5503 24.3423 23.5996C24.426 23.5602 24.4752 23.4863 24.5196 23.4174C24.8791 22.9002 25.2288 22.3732 25.5391 21.8264C25.5785 21.7624 25.613 21.6935 25.6573 21.6294C25.7608 21.4767 25.8938 21.4324 26.0218 21.5014C26.145 21.5703 26.1843 21.7132 26.1154 21.8806C26.0317 22.0777 25.943 22.2747 25.8494 22.4667C25.7017 22.7623 25.549 23.0529 25.3421 23.3435C25.4406 23.3188 25.48 23.2548 25.5293 23.2055C25.9135 22.7869 26.3075 22.3781 26.6818 21.9496C26.8 21.8117 26.9576 21.792 27.0758 21.8856C27.1941 21.9841 27.2138 22.1466 27.0956 22.2944C26.8788 22.5751 26.6572 22.8509 26.4109 23.1021C26.2041 23.3188 26.012 23.5503 25.815 23.7769C25.7903 23.8015 25.7608 23.8261 25.7756 23.8705H25.7657C25.7657 23.8705 25.7706 23.8705 25.7756 23.8705C26.14 23.5848 26.5341 23.3336 26.9182 23.0775C27.0857 22.9691 27.2581 22.9987 27.3467 23.1366C27.4354 23.2696 27.396 23.442 27.2335 23.5553C26.7212 23.9099 26.2582 24.3285 25.7411 24.6733C25.7164 24.6881 25.6918 24.7127 25.6721 24.7423C25.8593 24.7078 26.0415 24.6684 26.2336 24.6487C26.2976 24.6438 26.3568 24.6339 26.4208 24.629C26.6079 24.6191 26.7508 24.7275 26.7705 24.89C26.7902 25.0526 26.672 25.2003 26.4799 25.2102C26.1647 25.225 25.8593 25.3038 25.5539 25.353C25.4653 25.3678 25.0614 25.6879 24.9333 25.7766C24.1058 26.3676 22.3081 28.6382 21.983 29.0273C21.6579 29.4165 21.3329 29.8253 21.0078 30.2439C20.6827 30.6675 20.3527 31.0468 20.0079 31.3866V32.0417C20.0079 32.1697 20.0424 32.3077 20.1163 32.4456C20.1902 32.5835 20.2788 32.7362 20.3823 32.8938C20.4857 33.0563 20.594 33.2238 20.6975 33.3912C20.8009 33.5636 20.8896 33.7262 20.9536 33.8887C21.0521 34.1153 21.2048 34.3862 21.4166 34.6915C21.6284 35.0018 21.8402 35.2678 22.052 35.4944C22.2145 35.6717 22.3623 35.8884 22.5002 36.1396C22.6381 36.3908 22.7858 36.6371 22.9385 36.8686L23.4163 37.9817C23.5444 38.2181 23.6872 38.4496 23.7857 38.7008C23.8596 38.8929 23.8596 38.8978 24.0665 38.8732C24.2339 38.8535 24.4014 38.8338 24.5393 38.9569C24.6526 39.2229 24.6033 39.3509 24.3275 39.4642C24.3275 39.5036 24.357 39.5135 24.3767 39.5332C24.4752 39.6366 24.5097 39.7499 24.4605 39.8878C24.4112 40.0208 24.3078 40.0947 24.1699 40.0996C24.0615 40.0996 24.0467 40.1242 24.1009 40.2178C24.1896 40.3902 24.165 40.533 24.0467 40.6217C23.9335 40.7054 23.7758 40.6857 23.6429 40.5527C23.5739 40.4838 23.5148 40.405 23.4508 40.3311C23.436 40.3114 23.4114 40.2868 23.3867 40.3015C23.3572 40.3163 23.372 40.3459 23.3818 40.3705C23.4261 40.533 23.4754 40.7005 23.4656 40.8729C23.4557 41.0207 23.367 41.1339 23.2341 41.1586C23.106 41.1881 22.9829 41.1192 22.9139 40.9812C22.8991 40.9468 22.8843 40.9123 22.8696 40.8729C22.8006 40.6709 22.6873 40.4887 22.5938 40.2769C22.5297 40.4345 22.5199 40.5724 22.5248 40.7153C22.5297 40.8138 22.5494 40.9123 22.5248 41.0108C22.4953 41.1635 22.3967 41.262 22.2539 41.2768C22.1061 41.2915 21.9781 41.2127 21.9288 41.065C21.8796 40.932 21.8697 40.7892 21.8549 40.6512C21.8402 40.4641 21.8106 40.2769 21.7269 40.1045C21.6579 39.8927 21.589 39.6809 21.5496 39.4642C21.5397 39.41 21.5102 39.3608 21.4757 39.3165C21.1358 38.8781 20.8797 38.3905 20.6384 37.893C20.4955 37.5975 20.3773 37.2823 20.1951 37.0114C20.1951 37.0114 20.2444 37.0902 20.1853 37.0015L20.1902 37.0409Z" fill="white"/>
    <path d="M34.2674 27.1902C34.558 27.1902 34.7698 27.2789 34.9077 27.4513C35.0456 27.6237 35.1145 27.8207 35.1145 28.0374L34.8535 29.4904V29.8352C34.8535 29.9928 34.8387 30.1553 34.8092 30.3228C34.7796 30.4902 34.7205 30.6429 34.6368 30.7907C34.5481 30.9335 34.4299 31.0566 34.2772 31.1502C34.1245 31.2438 33.9177 31.2931 33.6616 31.2931C33.5433 31.2931 33.4744 31.3374 33.4448 31.4211C33.4301 31.4655 33.4251 31.4999 33.4251 31.5295C33.2232 31.7314 33.0754 31.9284 32.9818 32.1255C32.8883 32.3225 32.8095 32.5146 32.7454 32.7116C32.6814 32.9086 32.6174 33.0957 32.5484 33.2878C32.4844 33.475 32.3908 33.6572 32.2775 33.8296C32.1889 33.9183 32.1101 34.0119 32.0263 34.1202C31.9475 34.2286 31.9081 34.3911 31.9081 34.6079C31.8195 34.7507 31.7505 34.8886 31.6914 35.0216C31.6175 35.1398 31.5535 35.2432 31.4944 35.3467C31.4353 35.4501 31.391 35.519 31.3663 35.5634C31.3072 35.7358 31.2481 35.8687 31.1939 35.9623C31.1348 36.0559 31.0757 36.1544 31.0117 36.2529C30.9477 36.3564 30.8787 36.4647 30.8048 36.578C30.731 36.6962 30.662 36.8587 30.5881 37.0755C30.529 37.2331 30.4748 37.3562 30.4256 37.4449C30.3763 37.5335 30.332 37.6123 30.2975 37.6813C30.2631 37.7552 30.2286 37.8241 30.199 37.898C30.1695 37.9719 30.1399 38.0556 30.1104 38.159L29.938 38.6368C29.8641 38.7501 29.8148 38.8437 29.7853 38.9077C29.7557 38.9717 29.6621 39.085 29.5045 39.2426C29.3469 39.4446 29.2041 39.6317 29.081 39.8041C28.9578 39.9765 28.8987 40.1095 28.8987 40.1932C28.6672 40.7695 28.2486 41.3999 27.6427 42.0796C27.3669 42.4392 27.1207 42.779 26.8941 43.0992C26.6675 43.4144 26.4557 43.6311 26.2538 43.7493C25.2441 44.3552 24.4413 44.9856 23.8502 45.6358C23.7468 45.6653 23.599 45.7293 23.4069 45.8328C23.2099 45.9313 23.0129 46.0396 22.8109 46.1579C22.5647 46.2859 22.3036 46.4337 22.0327 46.5913H21.7963C21.7077 46.5913 21.5796 46.6307 21.4072 46.7095C21.2348 46.7883 21.1018 46.8277 21.0181 46.8277H20.368C20.2941 46.8277 20.171 46.7883 19.9887 46.7095C19.8065 46.6307 19.6686 46.5913 19.5651 46.5913C19.5208 46.5913 19.4518 46.6061 19.3583 46.6356C19.2647 46.6652 19.1662 46.6947 19.0677 46.7243C18.9544 46.7686 18.8362 46.8031 18.7229 46.8326C18.5505 46.8326 18.3929 46.7785 18.255 46.6701C18.1171 46.5617 17.9545 46.414 17.7674 46.2268C17.6541 46.2268 17.5063 46.1776 17.3241 46.0741C17.1418 45.9707 17.0089 45.8623 16.9251 45.7491C16.9251 45.7195 16.9153 45.6555 16.8906 45.552C16.8709 45.4486 16.8463 45.3353 16.8266 45.2073C16.8069 45.0792 16.7872 44.9511 16.7724 44.828C16.7577 44.7049 16.7527 44.6162 16.7527 44.5571C16.7527 44.3552 16.8168 44.1581 16.9498 43.971C17.0778 43.7838 17.2403 43.6114 17.4275 43.4637C17.6147 43.3159 17.8117 43.1928 18.0136 43.1041C18.2156 43.0155 18.3978 42.9761 18.5554 42.9761C18.713 42.9761 18.8903 43.0204 19.0874 43.1041C19.2844 43.1928 19.4863 43.2913 19.703 43.4095C19.9789 43.5228 20.2251 43.6459 20.4517 43.769C20.6733 43.8922 20.8654 43.9513 21.028 43.9513L21.7421 44.0597C21.885 43.9562 22.0475 43.8922 22.2298 43.8626C22.412 43.8331 22.5893 43.8035 22.7716 43.774C22.9538 43.7444 23.1311 43.705 23.3035 43.6558C23.4759 43.6065 23.6433 43.4981 23.801 43.3405C24.1063 43.2519 24.4068 43.1041 24.7122 42.8973C25.0175 42.6855 25.313 42.4293 25.5987 42.1289C25.6972 42.0402 25.8204 41.9023 25.9681 41.7053C26.111 41.5083 26.2341 41.3113 26.3375 41.1093C26.5395 40.9074 26.7365 40.671 26.9335 40.3952C27.1305 40.1193 27.2684 39.8731 27.3571 39.6564C27.4999 39.5135 27.6477 39.3313 27.8004 39.1146C27.953 38.8979 28.0811 38.6713 28.1895 38.4299C28.2978 38.1935 28.3865 37.9472 28.4604 37.7059C28.5342 37.4596 28.5687 37.2281 28.5687 37.0114V36.1643C28.5983 36.0214 28.6278 35.8835 28.6574 35.7505C28.6869 35.6372 28.7066 35.524 28.7214 35.4156C28.7362 35.3072 28.7411 35.2186 28.7411 35.1447C28.7411 35.0462 28.7116 34.9674 28.6525 34.9181C28.5933 34.8689 28.5638 34.7408 28.5638 34.5389V34.3665C28.5195 34.3222 28.485 34.2729 28.4554 34.2138C28.3963 34.1005 28.3668 34.0069 28.3668 33.9331V33.7607C28.3668 33.4996 28.3175 33.2238 28.2141 32.9283C28.1107 32.6328 27.9826 32.3422 27.825 32.0614C27.6674 31.7807 27.4753 31.5196 27.2487 31.2832C27.0222 31.0468 26.7956 30.8449 26.5641 30.6872C26.4459 30.574 26.372 30.5444 26.3375 30.5986C26.303 30.6577 26.2341 30.6872 26.1306 30.6872H25.4805L25.1111 30.8596C24.9929 30.8596 24.8599 30.8153 24.6974 30.7168C24.5398 30.6232 24.461 30.4754 24.461 30.2735C24.461 30.2292 24.5496 30.1011 24.722 29.8844C24.8944 29.6677 25.0914 29.4313 25.318 29.1801C25.5396 28.9289 25.7563 28.6875 25.9583 28.4659C26.1602 28.2443 26.2833 28.1014 26.3277 28.0423C26.441 27.929 26.5887 27.8256 26.771 27.7369C26.9532 27.6483 27.1404 27.6089 27.3472 27.6089C27.6526 27.6089 27.8742 27.7074 28.0171 27.8995C28.1599 28.0965 28.3422 28.3428 28.5589 28.6481C28.7608 29.0668 28.9283 29.4362 29.0563 29.7514C29.1844 30.0716 29.3026 30.3819 29.4011 30.6823C29.4454 30.9286 29.4947 31.1355 29.5538 31.298C29.6129 31.4655 29.6671 31.6181 29.7163 31.7659C29.7656 31.9087 29.805 32.0565 29.8247 32.1993C29.8444 32.3422 29.8444 32.5244 29.8148 32.7411C29.7853 32.8446 29.7902 32.9579 29.8247 33.0859C29.8592 33.214 29.9134 33.3371 29.9774 33.4553C30.0414 33.5735 30.1202 33.6671 30.2039 33.7459C30.2926 33.8247 30.3616 33.8641 30.4207 33.8641C30.5093 33.8641 30.598 33.7705 30.6916 33.5834C30.7851 33.3962 30.8738 33.1844 30.9625 32.9431C31.0511 32.7067 31.1299 32.4653 31.1989 32.2289C31.2727 31.9925 31.3269 31.8152 31.3713 31.697C31.4845 31.5393 31.588 31.3916 31.6766 31.2537C31.7653 31.1158 31.849 30.9877 31.9377 30.8646C32.0263 30.7414 32.1199 30.6183 32.2283 30.4952C32.3366 30.372 32.4795 30.2341 32.6519 30.0716C32.7651 29.914 32.8489 29.7416 32.903 29.5495C32.9523 29.3623 33.0065 29.1752 33.0656 28.988C33.0951 28.8156 33.1395 28.6432 33.1937 28.4659C33.2528 28.2935 33.3316 28.1507 33.4301 28.0325C33.5433 27.8158 33.6616 27.6187 33.7748 27.4463C33.8881 27.274 34.0556 27.1853 34.2723 27.1853L34.2674 27.1902Z" fill="white"/>
    <path d="M39.666 24.6583C39.7103 24.6583 39.7842 24.6829 39.8925 24.7322C40.0009 24.7814 40.1093 24.8504 40.2176 24.9292C40.326 25.008 40.4245 25.1016 40.5082 25.2001C40.5969 25.3035 40.6363 25.402 40.6363 25.5054C40.5082 25.8256 40.3851 26.1211 40.2669 26.392C40.1634 26.6383 40.0649 26.8796 39.9615 27.116C39.8581 27.3525 39.7793 27.5396 39.7251 27.6677C39.6808 27.7268 39.602 27.845 39.4887 28.0272C39.3705 28.2095 39.2523 28.4016 39.1193 28.6134C38.9912 28.8252 38.8779 29.0271 38.7843 29.229C38.6908 29.431 38.6415 29.5738 38.6415 29.6625L38.8385 29.9678C38.9814 29.9678 39.203 29.825 39.4985 29.5344C39.794 29.2438 40.1093 28.9286 40.4393 28.5789C40.7693 28.2341 41.0943 27.914 41.4145 27.6234C41.7297 27.3328 41.9908 27.1899 42.1927 27.1899C42.4094 27.1899 42.5769 27.3032 42.6902 27.5249C42.8035 27.7465 42.897 27.9977 42.9611 28.2735C43.0251 28.5493 43.0645 28.8104 43.0793 29.0517C43.094 29.298 43.099 29.4408 43.099 29.4851C43.099 29.5738 43.0645 29.7413 43.0005 29.9925C42.9364 30.2437 42.8872 30.4752 42.8576 30.6771C42.7985 30.7214 42.769 30.7658 42.769 30.8199C42.769 30.8741 42.7739 30.9086 42.7887 30.9381C42.8034 30.9825 42.8231 31.0169 42.8527 31.0465C42.8379 31.2041 42.7788 31.4307 42.6705 31.7311C42.5621 32.0267 42.4439 32.3222 42.3109 32.6079C42.1828 32.8984 42.0597 33.1595 41.9415 33.4008C41.8233 33.6372 41.7445 33.7801 41.7051 33.8244C41.5475 34.0707 41.3751 34.2874 41.1978 34.4746C41.0155 34.6617 40.8234 34.844 40.6215 35.0164C40.4196 35.2035 40.1733 35.3907 39.8827 35.568C39.5921 35.7502 39.3557 35.9916 39.1685 36.292C38.9518 36.494 38.7252 36.6664 38.4839 36.8141C38.2475 36.9569 38.0258 37.1146 37.8239 37.282C37.622 37.4495 37.4643 37.6366 37.3461 37.8435C37.2279 38.0504 37.1934 38.3164 37.2378 38.6365V39.0699C37.223 39.2719 37.2033 39.4393 37.1737 39.5773C37.1442 39.7152 37.1146 39.858 37.0752 40.0107C37.0407 40.1634 37.0063 40.3308 36.9767 40.518C36.9472 40.7052 36.9324 40.9564 36.9324 41.2765C36.9176 41.5375 36.8979 41.7395 36.8782 41.8823C36.8585 42.0252 36.829 42.1434 36.7896 42.2271C36.7551 42.3158 36.7206 42.3847 36.691 42.4438C36.6615 42.5029 36.6418 42.5719 36.627 42.6605V43.1285C36.627 43.3255 36.6122 43.5717 36.5827 43.8771V44.3549C36.5827 44.6602 36.6566 44.8326 36.8093 44.8868C36.962 44.9361 37.1442 44.9607 37.3609 44.9607H37.7746C37.9914 44.9607 38.1736 45.0592 38.3263 45.2513C38.479 45.4434 38.5528 45.6502 38.5528 45.867C38.5528 45.9556 38.4987 46.0393 38.3903 46.128C38.282 46.2167 38.1391 46.3102 37.9667 46.4088C37.75 46.4088 37.5284 46.4728 37.3067 46.6058C37.0851 46.7388 36.8191 46.788 36.5137 46.7585H35.6666C35.3612 46.8323 35.0509 46.8767 34.7357 46.9013C34.4204 46.921 34.1052 46.9752 33.8048 47.0638C33.6472 47.049 33.529 47.049 33.4452 47.0638C33.3664 47.0786 33.2925 47.0983 33.2285 47.1279C33.1645 47.1574 33.1005 47.187 33.0315 47.2165C32.9675 47.2461 32.8837 47.2608 32.7803 47.2608C32.6916 47.2461 32.6128 47.2017 32.5291 47.1328C32.4503 47.0589 32.3863 46.9752 32.3321 46.8816C32.2828 46.788 32.2434 46.6994 32.2139 46.6107C32.1843 46.522 32.1696 46.458 32.1696 46.4137C32.1843 46.2413 32.2385 46.1132 32.3321 46.0344C32.4257 45.9556 32.539 45.8965 32.667 45.862C32.7951 45.8276 32.933 45.8079 33.066 45.8079H33.4255C33.4846 45.7635 33.5536 45.734 33.6324 45.7093C33.7112 45.6896 33.7851 45.6601 33.8491 45.6207C33.9131 45.5862 33.9722 45.5419 34.0215 45.4926C34.0708 45.4434 34.0954 45.3646 34.0954 45.2661C34.1397 45.1626 34.184 45.0296 34.2382 44.8523C34.2875 44.6799 34.3367 44.5125 34.381 44.3549C34.4254 44.1973 34.4648 44.0495 34.4993 43.9116C34.5337 43.7737 34.5584 43.685 34.5731 43.6407V43.4437C34.5731 43.3846 34.5928 43.2368 34.6372 43.0004C34.6815 42.764 34.7406 42.5128 34.8096 42.2517C34.8687 41.9464 34.9475 41.6065 35.046 41.2322C35.0755 41.1435 35.11 41.0647 35.1543 40.9958C35.1839 40.9219 35.2134 40.8529 35.243 40.7889C35.2725 40.7249 35.2873 40.6707 35.2873 40.6264C35.2873 40.5229 35.2972 40.3555 35.3218 40.1191C35.3464 39.8826 35.3563 39.4886 35.3563 38.9369L35.5927 38.3311L35.8291 36.9422L35.8931 36.3363C35.8931 36.292 35.9128 36.2231 35.9572 36.1295C36.0015 36.0359 36.0508 35.9325 36.1099 35.8143C36.169 35.701 36.2182 35.5778 36.2625 35.4449C36.3069 35.3168 36.3266 35.1937 36.3266 35.0755C36.3414 34.8735 36.3512 34.6864 36.3611 34.514C36.366 34.3416 36.3808 34.1741 36.3955 34.0165C36.4103 33.8589 36.4251 33.6914 36.4399 33.519C36.4842 33.3171 36.5334 33.1201 36.5925 32.9329C36.6369 32.7753 36.6812 32.6177 36.7206 32.4551C36.7649 32.2975 36.8142 32.1646 36.8733 32.0661L36.9176 30.8544C36.9176 30.5786 36.7797 30.4407 36.5039 30.4407C36.3857 30.4407 36.2773 30.4899 36.169 30.5934C36.0606 30.6968 35.9325 30.8052 35.7897 30.9184C35.4745 31.2386 35.2282 31.3962 35.0509 31.3962C34.977 31.3814 34.9376 31.3617 34.9228 31.342C34.9081 31.3223 34.8933 31.2977 34.8785 31.2681C34.8637 31.2386 34.8637 31.2041 34.8785 31.1598C34.8785 30.8692 34.9721 30.6081 35.1593 30.3668C35.3464 30.1255 35.5336 29.8743 35.7207 29.5984C35.9375 29.1946 36.1985 28.8054 36.499 28.4262C36.8043 28.0519 37.1146 27.6726 37.4299 27.2884C37.7451 26.9043 38.0455 26.5151 38.3312 26.1162C38.612 25.7172 38.8484 25.2887 39.0355 24.8257C39.1094 24.7962 39.1734 24.7666 39.2325 24.7371C39.3754 24.678 39.5084 24.6484 39.6217 24.6484L39.666 24.6583ZM40.4688 30.3767C40.3506 30.3767 40.2127 30.4259 40.0452 30.5293C39.8778 30.6328 39.7152 30.751 39.5478 30.8889C39.3803 31.0268 39.2424 31.1549 39.1242 31.278C39.006 31.4011 38.9518 31.4849 38.9518 31.5292C38.7499 31.9478 38.5873 32.3271 38.4642 32.667C38.3411 33.0068 38.1982 33.3713 38.0406 33.7604V34.3662C38.0406 34.4844 38.0652 34.6125 38.1145 34.7553C38.1637 34.8981 38.3411 34.9868 38.6464 35.0164C38.7351 35.0164 38.8582 34.9572 39.0257 34.844C39.1932 34.7307 39.3557 34.5928 39.5133 34.4302C39.7005 34.2578 39.8975 34.0559 40.0994 33.8244C40.2127 33.7505 40.3211 33.6619 40.4245 33.5535C40.523 33.4452 40.6412 33.3319 40.7693 33.2186C40.8579 33.0314 40.9072 32.9034 40.922 32.8393C40.9367 32.7753 40.9417 32.6423 40.9417 32.4404C40.9417 32.396 40.9367 32.3419 40.922 32.2778C40.9072 32.2138 40.8924 32.1449 40.8776 32.071C40.8481 31.9971 40.8284 31.9183 40.8136 31.8346V31.1746C40.8136 31.0662 40.8037 30.9578 40.7939 30.8495C40.7791 30.7411 40.7446 30.6426 40.6954 30.5441C40.6461 30.4505 40.5673 30.3963 40.4688 30.3816V30.3767Z" fill="white"/>
    <path d="M48.9594 26.7173C49.2648 26.7173 49.5209 26.7714 49.7278 26.8798C49.9346 26.9882 50.107 27.1359 50.2351 27.3231C50.3631 27.5102 50.4567 27.727 50.5158 27.9732C50.5749 28.2195 50.5946 28.4805 50.5799 28.7514C50.5799 29.1405 50.437 29.4558 50.1464 29.6922C49.8558 29.9286 49.5603 30.1355 49.2599 30.3079C48.984 30.495 48.6934 30.6625 48.3831 30.8053C48.0728 30.9482 47.7822 31.1107 47.5163 31.2831C47.2503 31.4555 47.0237 31.6574 46.8464 31.8889C46.6642 32.1204 46.5706 32.4159 46.5558 32.7755V33.6867C46.5263 33.9329 46.5755 34.1743 46.7085 34.4107C46.8366 34.6471 47.004 34.7703 47.206 34.7703C47.2207 34.785 47.2799 34.7653 47.3784 34.7062C47.4769 34.6471 47.5901 34.5782 47.7133 34.4994C47.8364 34.4206 47.9596 34.3368 48.0827 34.2482C48.2058 34.1595 48.2945 34.0955 48.3536 34.0512C48.5703 33.9526 48.7378 33.8689 48.8609 33.8C48.984 33.7359 49.0727 33.7162 49.1318 33.7458C49.2303 33.7458 49.319 33.7606 49.3928 33.7901C49.4667 33.8197 49.5012 33.928 49.5012 34.1152C49.4716 34.4353 49.3337 34.7407 49.0875 35.0362C48.8412 35.3318 48.5752 35.6076 48.2846 35.8588C47.994 36.11 47.7133 36.3316 47.4375 36.5188C47.1616 36.7059 46.9843 36.8438 46.8957 36.9325C46.6494 37.1492 46.4228 37.2625 46.211 37.2773C45.9993 37.292 45.7875 37.297 45.5707 37.297C45.4427 37.2822 45.3048 37.2231 45.1718 37.1246C45.0339 37.0212 44.9107 36.9029 44.8024 36.765C44.694 36.6271 44.6103 36.4892 44.5512 36.3415C44.4921 36.1986 44.4724 36.0755 44.4872 35.972V35.6026C44.4872 35.5041 44.4576 35.3958 44.3985 35.2776C44.369 35.2185 44.3394 35.1692 44.3098 35.1249L44.3739 34.6914V34.3467C44.3739 34.2876 44.3887 34.1349 44.4182 33.8788C44.4478 33.6276 44.4822 33.3517 44.5266 33.0562C44.5709 32.7607 44.6103 32.4799 44.6448 32.2091C44.6793 31.9431 44.7039 31.7658 44.7187 31.6771C44.7778 31.6328 44.8073 31.5885 44.8073 31.5491C44.8073 31.5097 44.8024 31.4604 44.7876 31.421C44.7728 31.3816 44.7679 31.3225 44.7679 31.2585C44.7679 31.1944 44.7975 31.1156 44.8566 31.0319C44.8566 30.8595 44.891 30.6773 44.9649 30.4901C45.0093 30.3916 45.0536 30.2882 45.093 30.1847L45.3984 29.4705C45.4279 29.1553 45.5806 28.8253 45.8515 28.4855C46.1273 28.1456 46.4475 27.8402 46.8169 27.5644C47.1863 27.2886 47.5655 27.0719 47.9546 26.9044C48.3437 26.737 48.6787 26.668 48.9496 26.6976L48.9594 26.7173ZM47.9842 28.3426C47.9103 28.3426 47.8414 28.3968 47.7675 28.5052C47.6936 28.6135 47.6246 28.7317 47.5508 28.8647C47.4769 29.0223 47.4079 29.1898 47.334 29.3622C47.3193 29.4361 47.2996 29.5198 47.27 29.6134C47.2404 29.707 47.2207 29.7956 47.206 29.8744C47.1912 29.9532 47.201 30.0173 47.2257 30.0714C47.2552 30.1207 47.3143 30.1453 47.3981 30.1453C47.4719 30.1601 47.5803 30.1453 47.7231 30.101C47.866 30.0567 48.0137 29.9926 48.1664 29.904C48.3191 29.8153 48.457 29.7119 48.5802 29.5888C48.7033 29.4656 48.7722 29.3326 48.787 29.1898V28.8204C48.787 28.7465 48.7673 28.6825 48.723 28.6234C48.6787 28.5643 48.6294 28.5249 48.5703 28.4953C48.5112 28.451 48.4422 28.4165 48.3536 28.387L47.9842 28.3426Z" fill="white"/>
    <path d="M55.0467 26.5843C55.2043 26.5548 55.3127 26.5794 55.3619 26.6484C55.4112 26.7222 55.5294 26.801 55.7215 26.8848C55.8791 26.9734 56.017 27.0719 56.1352 27.1901C56.2485 27.3084 56.3076 27.4413 56.3076 27.6039C56.2928 27.6778 56.2781 27.7566 56.2633 27.8403C56.2337 28.0274 56.2485 28.2097 56.3076 28.3821C56.3076 28.5101 56.283 28.6678 56.2337 28.85C56.1845 29.0322 56.1697 29.18 56.1993 29.2933C56.2288 29.3524 56.2731 29.4115 56.3273 29.4657C56.3717 29.51 56.416 29.5494 56.4701 29.5839C56.5194 29.6183 56.5687 29.6233 56.613 29.5937C56.7558 29.5642 56.9134 29.4263 57.0809 29.18C57.2484 28.9337 57.4109 28.6579 57.5685 28.3575C57.7261 28.0521 57.8837 27.7566 58.0463 27.4709C58.2039 27.1803 58.3517 26.9882 58.4797 26.8848L59.1496 26.7124C59.2382 26.6828 59.3318 26.6779 59.4401 26.6927C59.5485 26.7075 59.6322 26.7124 59.6913 26.7124C59.9672 26.87 60.1396 27.0916 60.2134 27.3724C60.2873 27.6531 60.3366 27.8748 60.3661 28.0324C60.3809 28.2343 60.312 28.5003 60.1593 28.8352C60.0066 29.1701 59.8145 29.441 59.583 29.6577C59.4796 29.7169 59.386 29.7612 59.3022 29.8006C59.2136 29.8351 59.1299 29.8696 59.0412 29.8991C58.9673 29.8991 58.9131 29.8991 58.8787 29.8892C58.8442 29.8843 58.7949 29.8646 58.7358 29.8351C58.6619 29.8055 58.593 29.7907 58.529 29.7809C58.4649 29.776 58.3861 29.771 58.3024 29.771C58.1152 29.771 57.9379 29.8449 57.7705 29.9878C57.603 30.1306 57.4404 30.2833 57.2828 30.4409C57.0366 30.7463 56.8445 31.0861 56.7066 31.4703C56.5687 31.8545 56.4997 32.2091 56.4997 32.544C56.3963 32.6475 56.2781 32.7706 56.1402 32.9233C56.0022 33.076 55.8988 33.2533 55.8249 33.4552C55.7363 33.6572 55.6969 33.869 55.7067 34.0857C55.7116 34.3024 55.6722 34.5142 55.5885 34.7161C55.6033 34.8885 55.6033 35.0904 55.5885 35.3121C55.5737 35.5337 55.5491 35.7701 55.5146 36.0164C55.4801 36.2627 55.4309 36.4991 55.3718 36.7207C55.3127 36.9473 55.2487 37.1443 55.1748 37.3167C55.0713 37.3906 54.9482 37.4546 54.8054 37.5137C54.6625 37.5728 54.5099 37.6122 54.3522 37.6418C54.1799 37.6861 53.9927 37.7157 53.7907 37.7304C53.7169 37.7304 53.6233 37.6713 53.51 37.5581C53.4509 37.499 53.4016 37.4398 53.3573 37.3857L53.0519 36.7799C53.0372 36.6813 53.0519 36.504 53.0963 36.2578C53.1406 36.0115 53.1899 35.7652 53.249 35.5091C53.3081 35.2579 53.3622 35.0313 53.4115 34.8245C53.4607 34.6225 53.4854 34.5092 53.4854 34.4797C53.8006 34.0019 54.0124 33.4995 54.1158 32.9725C54.2143 32.4455 54.3227 31.9234 54.4409 31.4013L54.2685 29.973C54.1946 29.7858 54.106 29.6922 53.9976 29.6922C53.8893 29.6922 53.776 29.707 53.6627 29.7366C53.4312 29.7809 53.2637 29.84 53.1652 29.9188C53.0618 29.9976 52.9781 30.0813 52.9042 30.17C52.8303 30.2586 52.7515 30.3424 52.6678 30.4212C52.5791 30.5 52.4313 30.5542 52.2146 30.5837C52.0964 30.5837 52.0275 30.5098 51.9979 30.367C51.9684 30.2242 51.9388 30.0912 51.9093 29.9779C51.8797 29.8498 51.8994 29.7218 51.9733 29.5986C52.0472 29.4755 52.1408 29.3622 52.2639 29.2539C52.387 29.1455 52.5298 29.0372 52.6875 28.9288C52.8451 28.8204 52.9928 28.7071 53.1209 28.5939C53.2933 28.4067 53.446 28.1998 53.574 27.9782C53.7021 27.7566 53.8351 27.5448 53.9631 27.3477C54.0912 27.1507 54.239 26.9882 54.4064 26.8503C54.5739 26.7124 54.7857 26.6286 55.0467 26.5991V26.5843Z" fill="white"/>
    <path d="M64.7508 24.6583C64.7951 24.6583 64.869 24.6829 64.9774 24.7322C65.0857 24.7814 65.1941 24.8504 65.3024 24.9292C65.4108 25.008 65.5093 25.1016 65.593 25.2001C65.6817 25.3035 65.7211 25.402 65.7211 25.5054C65.593 25.8256 65.4699 26.1211 65.3517 26.392C65.2482 26.6383 65.1497 26.8796 65.0463 27.116C64.9429 27.3525 64.8641 27.5396 64.8099 27.6677C64.7656 27.7268 64.6868 27.845 64.5735 28.0272C64.4553 28.2095 64.337 28.4016 64.2041 28.6134C64.076 28.8252 63.9627 29.0271 63.8691 29.229C63.7756 29.431 63.7263 29.5738 63.7263 29.6625L63.9233 29.9678C64.0661 29.9678 64.2878 29.825 64.5833 29.5344C64.8788 29.2438 65.1941 28.9286 65.5241 28.5789C65.8541 28.2341 66.1791 27.914 66.4993 27.6234C66.8145 27.3328 67.0756 27.1899 67.2775 27.1899C67.4942 27.1899 67.6617 27.3032 67.775 27.5249C67.8882 27.7465 67.9818 27.9977 68.0459 28.2735C68.1099 28.5493 68.1493 28.8104 68.1641 29.0517C68.1788 29.298 68.1838 29.4408 68.1838 29.4851C68.1838 29.5738 68.1493 29.7413 68.0853 29.9925C68.0212 30.2437 67.972 30.4752 67.9424 30.6771C67.8833 30.7214 67.8538 30.7658 67.8538 30.8199C67.8538 30.8741 67.8587 30.9086 67.8735 30.9381C67.8882 30.9825 67.9079 31.0169 67.9375 31.0465C67.9227 31.2041 67.8636 31.4307 67.7553 31.7311C67.6469 32.0267 67.5287 32.3222 67.3957 32.6079C67.2677 32.8984 67.1445 33.1595 67.0263 33.4008C66.9081 33.6372 66.8293 33.7801 66.7899 33.8244C66.6323 34.0707 66.4599 34.2874 66.2826 34.4746C66.1003 34.6617 65.9082 34.844 65.7063 35.0164C65.5044 35.2035 65.2581 35.3907 64.9675 35.568C64.6769 35.7502 64.4405 35.9916 64.2533 36.292C64.0366 36.494 63.81 36.6664 63.5687 36.8141C63.3323 36.9569 63.1106 37.1146 62.9087 37.282C62.7067 37.4495 62.5491 37.6366 62.4309 37.8435C62.3127 38.0504 62.2782 38.3164 62.3226 38.6365V39.0699C62.3078 39.2719 62.2881 39.4393 62.2585 39.5773C62.229 39.7152 62.1994 39.858 62.16 40.0107C62.1256 40.1634 62.0911 40.3308 62.0615 40.518C62.032 40.7052 62.0172 40.9564 62.0172 41.2765C62.0024 41.5375 61.9827 41.7395 61.963 41.8823C61.9433 42.0252 61.9138 42.1434 61.8744 42.2271C61.8399 42.3158 61.8054 42.3847 61.7759 42.4438C61.7463 42.5029 61.7266 42.5719 61.7118 42.6605V43.1285C61.7118 43.3255 61.6971 43.5717 61.6675 43.8771V44.3549C61.6675 44.6602 61.7414 44.8326 61.8941 44.8868C62.0467 44.9361 62.229 44.9607 62.4457 44.9607H62.8594C63.0761 44.9607 63.2584 45.0592 63.4111 45.2513C63.5638 45.4434 63.6376 45.6502 63.6376 45.867C63.6376 45.9556 63.5835 46.0393 63.4751 46.128C63.3667 46.2167 63.2239 46.3102 63.0515 46.4088C62.8348 46.4088 62.6132 46.4728 62.3915 46.6058C62.165 46.7338 61.9039 46.788 61.5985 46.7585H60.7514C60.446 46.8323 60.1357 46.8767 59.8205 46.9013C59.5053 46.921 59.19 46.9752 58.8896 47.0638C58.732 47.049 58.6138 47.049 58.53 47.0638C58.4512 47.0786 58.3773 47.0983 58.3133 47.1279C58.2493 47.1574 58.1852 47.187 58.1163 47.2165C58.0523 47.2461 57.9685 47.2608 57.8651 47.2608C57.7764 47.2461 57.6976 47.2017 57.6139 47.1328C57.5351 47.0589 57.4711 46.9752 57.4169 46.8816C57.3676 46.788 57.3282 46.6994 57.2987 46.6107C57.2691 46.522 57.2543 46.458 57.2543 46.4137C57.2691 46.2413 57.3233 46.1132 57.4169 46.0344C57.5105 45.9556 57.6238 45.8965 57.7518 45.862C57.8799 45.8276 58.0178 45.8079 58.1508 45.8079H58.5103C58.5694 45.7635 58.6384 45.734 58.7172 45.7093C58.796 45.6896 58.8699 45.6601 58.9339 45.6207C58.9979 45.5862 59.057 45.5419 59.1063 45.4926C59.1555 45.4434 59.1802 45.3646 59.1802 45.2661C59.2245 45.1626 59.2688 45.0296 59.323 44.8523C59.3723 44.6799 59.4215 44.5125 59.4659 44.3549C59.5102 44.1973 59.5496 44.0495 59.5841 43.9116C59.6185 43.7737 59.6432 43.685 59.6579 43.6407V43.4437C59.6579 43.3846 59.6776 43.2368 59.722 43.0004C59.7663 42.764 59.8254 42.5128 59.8944 42.2517C59.9535 41.9464 60.0323 41.6065 60.1308 41.2322C60.1603 41.1435 60.1948 41.0647 60.2391 40.9958C60.2687 40.9219 60.2982 40.8529 60.3278 40.7889C60.3573 40.7249 60.3721 40.6707 60.3721 40.6264C60.3721 40.5229 60.382 40.3555 60.4066 40.1191C60.4263 39.8826 60.4411 39.4886 60.4411 38.9369L60.6775 38.3311L60.9139 36.9422L60.9779 36.3363C60.9779 36.292 60.9976 36.2231 61.042 36.1295C61.0863 36.0359 61.1355 35.9325 61.1947 35.8143C61.2538 35.701 61.303 35.5778 61.3473 35.4449C61.3917 35.3168 61.4114 35.1937 61.4114 35.0755C61.4261 34.8735 61.436 34.6864 61.4458 34.514C61.4508 34.3416 61.4656 34.1741 61.4803 34.0165C61.4951 33.8589 61.5099 33.6914 61.5247 33.519C61.569 33.3171 61.6182 33.1201 61.6773 32.9329C61.7217 32.7753 61.766 32.6177 61.8054 32.4551C61.8497 32.2975 61.899 32.1646 61.9581 32.0661L62.0024 30.8544C62.0024 30.5786 61.8645 30.4407 61.5887 30.4407C61.4705 30.4407 61.3621 30.4899 61.2538 30.5934C61.1454 30.6968 61.0173 30.8052 60.8745 30.9184C60.5544 31.2386 60.313 31.3962 60.1357 31.3962C60.0618 31.3814 60.0224 31.3617 60.0076 31.342C59.9929 31.3223 59.9781 31.2977 59.9633 31.2681C59.9485 31.2386 59.9485 31.2041 59.9633 31.1598C59.9633 30.8692 60.0569 30.6081 60.2441 30.3668C60.4312 30.1304 60.6184 29.8743 60.8056 29.5984C61.0223 29.1946 61.2833 28.8054 61.5838 28.4262C61.8891 28.0519 62.1994 27.6726 62.5147 27.2884C62.8299 26.9043 63.1303 26.5151 63.416 26.1162C63.6967 25.7172 63.9332 25.2887 64.1203 24.8257C64.1942 24.7962 64.2582 24.7666 64.3174 24.7371C64.4602 24.678 64.5932 24.6484 64.7064 24.6484L64.7508 24.6583ZM65.5536 30.3767C65.4354 30.3767 65.2975 30.4259 65.13 30.5293C64.9626 30.6328 64.7951 30.751 64.6326 30.8889C64.4651 31.0268 64.3272 31.1549 64.209 31.278C64.0908 31.4011 64.0366 31.4849 64.0366 31.5292C63.8347 31.9478 63.6721 32.3271 63.549 32.667C63.4258 33.0068 63.283 33.3713 63.1254 33.7604V34.3662C63.1254 34.4844 63.15 34.6125 63.1993 34.7553C63.2485 34.8981 63.4259 34.9868 63.7312 35.0164C63.8199 35.0164 63.943 34.9572 64.1105 34.844C64.2779 34.7307 64.4405 34.5928 64.5981 34.4302C64.7853 34.2578 64.9823 34.0559 65.1842 33.8244C65.2975 33.7505 65.4059 33.6619 65.5093 33.5535C65.6078 33.4452 65.726 33.3319 65.8541 33.2186C65.9427 33.0314 65.992 32.9034 66.0068 32.8393C66.0215 32.7753 66.0264 32.6423 66.0264 32.4404C66.0264 32.396 66.0215 32.3419 66.0068 32.2778C65.992 32.2138 65.9772 32.1449 65.9624 32.071C65.9329 31.9971 65.9132 31.9183 65.8984 31.8346V31.1746C65.8984 31.0662 65.8935 30.9578 65.8787 30.8495C65.8639 30.7411 65.8294 30.6426 65.7802 30.5441C65.7309 30.4505 65.6521 30.3963 65.5536 30.3816V30.3767Z" fill="white"/>
    <path d="M76.0833 26.5204C76.3887 26.5204 76.6054 26.609 76.7334 26.7814C76.8615 26.9538 76.9304 27.1952 76.9304 27.4956C76.9304 27.5547 76.9107 27.6779 76.8664 27.8749C76.8221 28.0719 76.7679 28.2886 76.7039 28.525C76.6399 28.7614 76.5709 29.0077 76.497 29.2491C76.4231 29.4953 76.369 29.6874 76.3246 29.8352C76.3246 29.9534 76.3148 30.0716 76.3049 30.1947C76.2902 30.3179 76.2409 30.4804 76.1522 30.6823C76.034 30.771 75.9799 30.9089 75.9799 31.1059V31.5295L75.9158 32.6771V33.5243C75.9158 33.5686 75.9158 33.6425 75.9257 33.7508C75.9306 33.8592 75.9454 33.9676 75.97 34.0759C75.9897 34.1843 76.0291 34.2779 76.0882 34.3567C76.1473 34.4355 76.2261 34.4749 76.3246 34.4749L76.63 33.9971C76.7187 33.9232 76.8172 33.8346 76.9354 33.7262C77.0487 33.6179 77.1669 33.5144 77.2801 33.411C77.4082 33.2977 77.5412 33.1746 77.6693 33.0416C77.7579 33.0416 77.8269 33.0761 77.886 33.1499C77.9451 33.2238 77.9746 33.3026 77.9746 33.3864L77.886 33.5588C77.8269 33.677 77.7678 33.7607 77.7136 33.8198C77.6101 34.1104 77.4821 34.3567 77.3245 34.5685C77.1669 34.7802 76.9945 34.9822 76.8024 35.1743C76.6152 35.3713 76.4231 35.5683 76.2261 35.7703C76.0291 35.9722 75.8469 36.2037 75.6745 36.4647L75.1967 37.1346C75.1967 37.2626 75.1573 37.3956 75.0785 37.5335C74.9997 37.6715 74.9061 37.7798 74.7978 37.8586C74.6894 37.9374 74.5712 37.9719 74.453 37.967C74.3299 37.9571 74.2313 37.8783 74.1624 37.7158C74.0737 37.4547 74.0343 37.1986 74.0343 36.9474C74.0343 36.6962 74.054 36.45 74.0984 36.2086C74.1427 35.9722 74.187 35.7407 74.2264 35.524C74.2658 35.3073 74.2905 35.1004 74.2905 34.8935V33.6819C74.2905 33.608 74.2412 33.5588 74.1378 33.5292C74.0786 33.5144 74.0294 33.5095 73.9851 33.5095C73.9407 33.5095 73.8324 33.6376 73.66 33.8888C73.4876 34.1399 73.2857 34.4305 73.064 34.7556C72.8375 35.0807 72.6109 35.4107 72.3794 35.7407C72.1479 36.0707 71.9607 36.312 71.8179 36.4549C71.7736 36.514 71.7046 36.5977 71.611 36.7061C71.5175 36.8144 71.414 36.9179 71.3057 37.0213C71.1973 37.1198 71.0791 37.2134 70.9461 37.2922C70.8181 37.371 70.6998 37.4104 70.6013 37.4104C70.3994 37.4104 70.2319 37.3365 70.1039 37.1937C69.9758 37.0509 69.8724 36.8785 69.7985 36.6864C69.7246 36.4943 69.6704 36.2973 69.636 36.1003C69.6015 35.9032 69.5818 35.7653 69.5818 35.6767L69.5178 34.1153L69.8231 31.5787C69.8231 31.5344 69.8428 31.4359 69.8872 31.2734C69.9315 31.1158 69.9906 30.9434 70.0595 30.7513C70.1334 30.5641 70.2172 30.3819 70.3107 30.1996C70.4043 30.0174 70.5028 29.8697 70.6013 29.7564C71.02 29.3673 71.4239 28.8895 71.813 28.328C72.0001 28.067 72.1824 27.8798 72.3548 27.7665C72.5272 27.6532 72.6995 27.5597 72.8769 27.4956C73.0492 27.4316 73.2216 27.3823 73.3989 27.3429C73.5713 27.3085 73.7684 27.2296 73.9851 27.1164C74.0737 27.1164 74.1821 27.072 74.32 26.9735C74.4579 26.8799 74.581 26.7913 74.6993 26.7026H75.6745L76.0882 26.5056L76.0833 26.5204ZM73.3103 28.924C73.0492 29.1407 72.803 29.3919 72.5715 29.6726C72.34 29.9534 72.1381 30.2391 71.9657 30.5297C71.7933 30.8203 71.6554 31.0911 71.5519 31.3423C71.4485 31.5935 71.3992 31.7955 71.3992 31.9383C71.3992 32.0122 71.3943 32.1452 71.3796 32.3373C71.3648 32.5343 71.3697 32.7362 71.3992 32.9431C71.4288 33.1549 71.483 33.342 71.5618 33.5046C71.6406 33.672 71.7834 33.7558 71.9854 33.7558C72.1725 33.7558 72.3942 33.5883 72.6454 33.2583C72.8966 32.9283 73.1379 32.5491 73.3595 32.1304C73.5812 31.7117 73.7733 31.3226 73.9211 30.9582C74.0737 30.5986 74.1476 30.3819 74.1476 30.308C74.1476 30.2489 74.1525 30.111 74.1673 29.8844C74.1821 29.6628 74.1673 29.4461 74.1328 29.2343C74.0984 29.0274 74.0146 28.8747 73.8964 28.7811C73.7733 28.6876 73.5763 28.7368 73.3004 28.924H73.3103Z" fill="white"/>
    <path d="M82.0632 29.1851C82.078 29.3279 82.0927 29.4412 82.1075 29.52C82.1223 29.5988 82.1371 29.6776 82.1518 29.7466C82.1666 29.8205 82.1814 29.9042 82.1962 30.0077C82.2109 30.1111 82.2257 30.2539 82.2405 30.4411C82.2405 30.7169 82.2503 30.9385 82.275 31.1109C82.2996 31.2833 82.3636 31.4656 82.4818 31.6527C82.5114 31.7709 82.5163 31.8891 82.5015 32.0123C82.4868 32.1354 82.472 32.2487 82.4572 32.3472C82.4424 32.4506 82.4473 32.5294 82.467 32.5836C82.4867 32.6427 82.5508 32.6723 82.6493 32.6723C82.866 32.6723 83.0088 32.628 83.0827 32.5294C83.1566 32.4359 83.2354 32.3374 83.3191 32.2389C83.4768 32.0369 83.6639 31.8005 83.8708 31.5247C84.0776 31.2488 84.2205 31.0124 84.2944 30.8105C84.3387 30.5938 84.3584 30.4263 84.3584 30.3032C84.3584 30.18 84.3535 30.0717 84.3387 29.9781C84.3239 29.8845 84.3141 29.7909 84.3042 29.6974C84.2944 29.6038 84.3042 29.4905 84.3387 29.3624V29.2984C84.3387 29.1999 84.3387 29.126 84.3288 29.0817C84.319 29.0374 84.3091 29.0078 84.2845 28.993C84.2648 28.9782 84.2303 28.9684 84.186 28.9585C84.1417 28.9536 84.0776 28.9241 83.989 28.8847H83.6836C83.5654 28.8847 83.4718 28.8354 83.4029 28.732C83.3586 28.6876 83.329 28.6384 83.3142 28.5793C83.2847 28.4808 83.3093 28.3773 83.3782 28.2739C83.4521 28.1754 83.5457 28.0917 83.659 28.0227C83.7723 27.9587 83.9003 27.9045 84.0382 27.8602C84.1762 27.8159 84.2944 27.7962 84.3978 27.7962C84.5012 27.6681 84.5899 27.5794 84.6687 27.5351C84.7475 27.4908 84.8214 27.4612 84.8854 27.4366C84.9494 27.4169 85.0135 27.3972 85.0824 27.3824C85.1465 27.3676 85.2253 27.3381 85.309 27.2938C85.3977 27.1805 85.5405 27.0721 85.7424 26.9687C85.9444 26.8653 86.1414 26.816 86.3285 26.816C86.6044 26.8899 86.7374 27.0229 86.7275 27.215C86.7226 27.412 86.6635 27.6582 86.565 27.9636V28.2C86.565 28.2887 86.5699 28.3823 86.5847 28.4808C86.5994 28.5842 86.6586 28.6335 86.7571 28.6335C86.8556 28.6187 87.0181 28.5202 87.2447 28.3281C87.4663 28.1409 87.7126 27.939 87.9687 27.7223C88.2297 27.5056 88.4809 27.3085 88.7272 27.1362C88.9735 26.9638 89.1754 26.8751 89.333 26.8751C89.5497 26.8751 89.7615 26.9096 89.9733 26.9835C90.1802 27.0573 90.3821 27.146 90.5693 27.2544C90.7565 27.3627 90.9239 27.4908 91.0668 27.6435C91.2096 27.7962 91.3179 27.9439 91.3918 28.0867C91.5347 28.2887 91.6283 28.53 91.6627 28.8108C91.6972 29.0915 91.6874 29.3723 91.6283 29.6432L90.8894 31.8103C90.8303 32.0566 90.6974 32.2881 90.4905 32.5048C90.2787 32.7215 90.0965 32.953 89.9389 33.1993C89.7517 33.4751 89.5399 33.7608 89.3084 34.0563C89.0769 34.3518 88.8257 34.6474 88.5499 34.933C88.4218 35.0906 88.3135 35.2088 88.2248 35.2778C88.1362 35.3517 88.0574 35.4206 87.9736 35.4847C87.8948 35.5487 87.8062 35.6275 87.7027 35.7211C87.5993 35.8147 87.4762 35.9575 87.3333 36.1447C87.2594 36.2629 87.1511 36.3909 86.9984 36.5338C86.8457 36.6766 86.6832 36.8145 86.5108 36.9475C86.3384 37.0805 86.1562 37.1839 85.969 37.2726C85.7818 37.3612 85.6144 37.4006 85.4715 37.4006C85.1662 37.4006 84.915 37.3514 84.713 37.2578C84.5111 37.1642 84.4224 37.0165 84.452 36.8145C84.5111 36.5978 84.5406 36.4353 84.5505 36.3269C84.5554 36.2186 84.5603 36.12 84.5603 36.0363L84.6884 35.6669C84.6588 35.3615 84.6145 35.0906 84.5603 34.8542C84.5012 34.6178 84.5012 34.3469 84.5603 34.0415C84.6342 33.7115 84.6441 33.4357 84.5948 33.219C84.5456 33.0023 84.4766 32.8939 84.388 32.8939C84.1417 32.8939 83.9053 33.0515 83.6738 33.3618C83.4423 33.6721 83.2206 33.9775 83.0039 34.2829C82.8857 34.47 82.8315 34.6227 82.8315 34.736C82.8315 34.8493 82.7675 35.002 82.6345 35.1891C82.5163 35.4354 82.3981 35.6275 82.275 35.7753C82.1518 35.9181 82.078 36.0856 82.0484 36.2727C81.9745 36.3762 81.9056 36.4845 81.8415 36.6077C81.7775 36.7308 81.7085 36.8441 81.6347 36.9426C81.5608 37.0411 81.477 37.1248 81.3736 37.1938C81.2702 37.2578 81.152 37.2923 81.0042 37.2923C80.9008 37.2923 80.7924 37.2775 80.6693 37.248C80.5462 37.2184 80.4378 37.1741 80.3442 37.1199C80.2506 37.0608 80.1768 36.9918 80.1176 36.913C80.0585 36.8342 80.0388 36.7357 80.0536 36.6224C80.1423 36.3072 80.2063 36.0314 80.2605 35.7999C80.3097 35.5684 80.3196 35.2433 80.295 34.8247C80.295 34.5489 80.2703 34.2878 80.2211 34.0317C80.1718 33.7805 80.1718 33.4997 80.2309 33.1993L80.295 32.4851C80.2802 32.298 80.2703 32.1551 80.2605 32.0615C80.2556 31.9679 80.2457 31.8793 80.2408 31.8005C80.2359 31.7217 80.226 31.6429 80.2211 31.5641C80.2112 31.4853 80.2014 31.3671 80.1866 31.2045C80.157 31.1159 80.1373 31.042 80.1324 30.9779C80.1226 30.9139 80.1127 30.8647 80.0979 30.8351C80.0832 30.7908 80.0684 30.7563 80.0536 30.7268V30.1209C80.0536 29.9338 79.9847 29.7959 79.8468 29.7072C79.7088 29.6185 79.5414 29.5791 79.3394 29.5791C79.2508 29.5791 79.1818 29.5988 79.1326 29.6333C79.0833 29.6678 79.0291 29.7121 78.97 29.7614C78.9109 29.8106 78.842 29.855 78.7533 29.8894C78.6647 29.9239 78.5366 29.9436 78.3642 29.9436C78.2608 29.9436 78.1771 29.9091 78.1032 29.8353C78.0588 29.7909 78.0244 29.7466 77.9948 29.7072C77.9948 29.52 78.0687 29.3378 78.2115 29.1654C78.3544 28.993 78.4874 28.9044 78.6006 28.9044C78.8174 28.7024 78.9897 28.535 79.1227 28.4069C79.2508 28.2788 79.4182 28.1705 79.6202 28.0818C79.6645 28.0227 79.763 27.9144 79.9108 27.7568C80.0635 27.5991 80.226 27.4415 80.4082 27.2888C80.5905 27.1362 80.7678 26.9982 80.95 26.8751C81.1323 26.752 81.2702 26.6929 81.3736 26.6929C81.5903 26.6929 81.743 26.7667 81.8415 26.9194C81.9351 27.0721 81.9991 27.2494 82.0238 27.4612C82.0533 27.673 82.0632 27.8799 82.0582 28.0917C82.0484 28.3035 82.0484 28.4562 82.0484 28.5596V29.1654L82.0632 29.1851ZM86.5699 30.2687C86.5256 30.4706 86.5108 30.643 86.5256 30.7908C86.5403 30.9336 86.565 31.0814 86.5994 31.2242C86.6339 31.367 86.6733 31.5296 86.7078 31.702C86.7423 31.8744 86.762 32.0763 86.762 32.3078C86.7324 32.426 86.7177 32.5787 86.7177 32.7757C86.7177 32.9727 86.7324 33.1648 86.762 33.352C86.7915 33.5391 86.8408 33.7066 86.9147 33.8494C86.9885 33.9923 87.0723 34.0662 87.1757 34.0662C87.3481 34.0662 87.5402 33.9923 87.752 33.8494C87.9588 33.7066 88.1608 33.5342 88.3479 33.3274C88.5351 33.1254 88.6977 32.9136 88.8356 32.6969C88.9735 32.4802 89.0621 32.293 89.1065 32.1354C89.1656 31.83 89.2099 31.5739 89.2345 31.367C89.2641 31.1602 89.269 30.9632 89.2444 30.7809C89.2247 30.5987 89.1705 30.4214 89.0818 30.2391C88.9932 30.0569 88.8799 29.8451 88.7371 29.5988C88.678 29.4856 88.545 29.3871 88.3381 29.3082C88.1263 29.2294 87.9244 29.19 87.7224 29.19C87.6338 29.19 87.5254 29.2245 87.3974 29.2984C87.2693 29.3723 87.1462 29.4609 87.028 29.5693C86.9097 29.6776 86.8112 29.7959 86.7226 29.9288C86.6339 30.0618 86.5847 30.1751 86.5699 30.2736V30.2687Z" fill="white"/>
    <path d="M98.484 26.52C98.7007 26.52 98.8977 26.6235 99.0701 26.8254C99.2425 27.0273 99.3312 27.2293 99.3312 27.4312C99.3312 27.5888 99.213 27.7218 98.9864 27.8302C98.7549 27.9385 98.4939 28.042 98.2082 28.1355C97.9176 28.2291 97.6319 28.3178 97.3512 28.4064C97.0704 28.4951 96.8833 28.5887 96.7995 28.6872C96.6715 28.8152 96.5729 28.9679 96.5188 29.1305C96.4597 29.2979 96.4301 29.4654 96.4301 29.6378C96.4301 29.8102 96.4597 29.9776 96.5188 30.1352C96.5779 30.2929 96.6468 30.4406 96.7355 30.5687C96.8389 30.7706 96.9571 30.9824 97.095 31.209C97.233 31.4306 97.3561 31.6917 97.4743 31.9773C97.5876 32.2679 97.6861 32.593 97.7649 32.9526C97.8437 33.3121 97.8831 33.716 97.8831 34.1642C97.8831 34.5533 97.755 34.9473 97.494 35.3463C97.233 35.7453 96.903 36.0949 96.4991 36.3954C96.1839 36.5678 95.9376 36.7106 95.7603 36.819C95.5879 36.9273 95.4352 37.016 95.3071 37.08C95.1791 37.1441 95.051 37.1884 94.9279 37.2081C94.8047 37.2278 94.6471 37.2426 94.46 37.2426H93.6818C93.6079 37.2426 93.5143 37.2475 93.401 37.2623C93.2828 37.277 93.1695 37.2967 93.0562 37.3263C92.9134 37.3559 92.7607 37.3854 92.6031 37.415H91.9973C91.5934 37.415 91.3914 37.2179 91.3914 36.8288C91.3914 36.7303 91.4555 36.5678 91.5885 36.3511C91.7165 36.1344 91.8791 35.9275 92.0761 35.7206C92.2731 35.5187 92.475 35.3365 92.6918 35.1788C92.9085 35.0212 93.0956 34.9424 93.2533 34.9424C93.2976 34.9424 93.3665 34.9769 93.47 35.0409C93.5734 35.1049 93.6916 35.1739 93.8295 35.2478C93.9674 35.3217 94.1201 35.3906 94.2974 35.4547C94.4747 35.5187 94.6668 35.5532 94.8836 35.5532C95.0264 35.5532 95.1594 35.5088 95.2825 35.4251C95.4056 35.3365 95.5091 35.233 95.5977 35.1099C95.6864 34.9867 95.7504 34.8587 95.7947 34.7208C95.8391 34.5829 95.8588 34.4647 95.8588 34.3612C95.8588 34.115 95.7652 33.8145 95.578 33.4599C95.3909 33.1052 95.1791 32.7457 94.9476 32.3763C94.7161 32.0069 94.5092 31.6572 94.3171 31.3272C94.13 30.9972 94.0364 30.7214 94.0364 30.5046V30.2682C94.0955 30.022 94.1792 29.7708 94.2974 29.5097C94.4107 29.2487 94.5437 29.0123 94.6865 28.7955C94.8294 28.5788 94.9919 28.3867 95.1643 28.2193C95.3367 28.0518 95.5238 27.9484 95.7258 27.904C95.8292 27.8449 95.9326 27.7514 96.041 27.6233C96.1494 27.4952 96.2479 27.3721 96.3316 27.2539C96.4449 27.1406 96.5533 27.0273 96.6468 26.919C96.7404 26.8106 96.8389 26.7417 96.9374 26.7121C97.0507 26.6136 97.233 26.5545 97.4792 26.5397C97.7255 26.5249 97.9028 26.52 98.021 26.52H98.4988H98.484Z" fill="white"/>
</svg>
