<svg width="536" height="383" viewBox="0 0 536 383" fill="none" xmlns="http://www.w3.org/2000/svg">
<g filter="url(#filter0_f)">
<path d="M176 239.5L118 283.5L148 206.5L156.5 194L167 203L176 239.5Z" fill="#ED1C24" fill-opacity="0.2"/>
</g>
<g filter="url(#filter1_f)">
<path d="M173 249.5L107.5 289.5L143 213L158.5 191.5H190L173 249.5Z" fill="#ED1C24" fill-opacity="0.5"/>
</g>
<g filter="url(#filter2_f)">
<path d="M80 303L175.615 168.669L403 80L456 113L430.804 141.439L80 303Z" fill="url(#paint0_linear)" fill-opacity="0.3"/>
</g>
<g filter="url(#filter3_f)">
<path d="M80 302.5L156 197L323 133L376.5 128L357 151.5L80 302.5Z" fill="url(#paint1_linear)" fill-opacity="0.4"/>
</g>
<path d="M111 290L82 274.5L145 198L173.5 221L111 290Z" fill="#ED1C24"/>
<defs>
<filter id="filter0_f" x="108" y="184" width="78" height="109.5" filterUnits="userSpaceOnUse" color-interpolation-filters="sRGB">
<feFlood flood-opacity="0" result="BackgroundImageFix"/>
<feBlend mode="normal" in="SourceGraphic" in2="BackgroundImageFix" result="shape"/>
<feGaussianBlur stdDeviation="5" result="effect1_foregroundBlur"/>
</filter>
<filter id="filter1_f" x="77.5" y="161.5" width="142.5" height="158" filterUnits="userSpaceOnUse" color-interpolation-filters="sRGB">
<feFlood flood-opacity="0" result="BackgroundImageFix"/>
<feBlend mode="normal" in="SourceGraphic" in2="BackgroundImageFix" result="shape"/>
<feGaussianBlur stdDeviation="15" result="effect1_foregroundBlur"/>
</filter>
<filter id="filter2_f" x="0" y="0" width="536" height="383" filterUnits="userSpaceOnUse" color-interpolation-filters="sRGB">
<feFlood flood-opacity="0" result="BackgroundImageFix"/>
<feBlend mode="normal" in="SourceGraphic" in2="BackgroundImageFix" result="shape"/>
<feGaussianBlur stdDeviation="40" result="effect1_foregroundBlur"/>
</filter>
<filter id="filter3_f" x="30" y="78" width="396.5" height="274.5" filterUnits="userSpaceOnUse" color-interpolation-filters="sRGB">
<feFlood flood-opacity="0" result="BackgroundImageFix"/>
<feBlend mode="normal" in="SourceGraphic" in2="BackgroundImageFix" result="shape"/>
<feGaussianBlur stdDeviation="25" result="effect1_foregroundBlur"/>
</filter>
<linearGradient id="paint0_linear" x1="101" y1="289.5" x2="401" y2="121.5" gradientUnits="userSpaceOnUse">
<stop stop-color="#ED1C24"/>
<stop offset="0.640884" stop-color="#ED251E" stop-opacity="0.72"/>
<stop offset="1" stop-color="#ED291C"/>
</linearGradient>
<linearGradient id="paint1_linear" x1="284.5" y1="148.5" x2="138" y2="240.5" gradientUnits="userSpaceOnUse">
<stop stop-color="#ED1C24" stop-opacity="0.53"/>
<stop offset="1" stop-color="#ED1C24"/>
</linearGradient>
</defs>
</svg>
