<svg width="42px" height="42px" viewBox="0 0 33 33" fill="none" xmlns="http://www.w3.org/2000/svg">
<g filter="url(#filter0_d)">
<path fill-rule="evenodd" clip-rule="evenodd" d="M14.412 2.53798C21.039 2.53798 26.412 7.91098 26.412 14.538C26.412 21.165 21.039 26.538 14.412 26.538C7.784 26.538 2.412 21.165 2.412 14.538C2.412 7.91098 7.784 2.53798 14.412 2.53798Z" fill="white"/>
</g>
<path fill-rule="evenodd" clip-rule="evenodd" d="M5.019 18.345V16.598L5.214 16.626C5.617 16.685 5.947 16.859 6.181 17.162C6.414 16.859 6.744 16.685 7.147 16.626L7.342 16.598V18.345H8.169V16.598L8.363 16.626C8.767 16.685 9.097 16.859 9.33 17.162C9.563 16.859 9.893 16.685 10.297 16.626L10.491 16.598V18.345H11.443V15.312H12.288V12.218L12.977 11.29L14.412 7.14798L15.847 11.29L16.535 12.218V15.312H17.381V18.345H18.332V16.598L18.527 16.626C18.93 16.685 19.26 16.859 19.494 17.162C19.727 16.859 20.057 16.685 20.46 16.626L20.655 16.598V18.345H21.482V16.598L21.676 16.626C22.08 16.685 22.41 16.859 22.643 17.162C22.876 16.859 23.207 16.685 23.61 16.626L23.805 16.598V18.345H24.694V18.685H23.465V17.003C23.17 17.088 22.943 17.263 22.794 17.557L22.643 17.855L22.492 17.557C22.343 17.263 22.116 17.088 21.821 17.003V18.685H20.315V17.003C20.02 17.088 19.794 17.263 19.645 17.556L19.494 17.856L19.342 17.557C19.194 17.263 18.967 17.088 18.672 17.003V18.685H17.042V15.652H16.196V12.33L15.543 11.451L14.412 8.18599L13.28 11.451L12.628 12.33V15.652H11.782V18.685H10.152V17.003C9.857 17.088 9.63 17.263 9.482 17.557L9.33 17.856L9.179 17.557C9.03 17.263 8.803 17.088 8.508 17.003V18.685H7.002V17.003C6.707 17.088 6.481 17.263 6.332 17.557L6.181 17.855L6.029 17.557C5.88 17.263 5.654 17.088 5.359 17.003V18.685H4.129V18.345H5.019ZM16.838 22.379C16.233 21.625 15.369 21.28 14.412 21.28C13.455 21.28 12.59 21.625 11.986 22.379V25.625H11.647V22.263L11.682 22.217C12.352 21.348 13.33 20.94 14.412 20.94C15.493 20.94 16.472 21.348 17.142 22.217L17.177 22.263V25.625H16.838V22.379ZM14.412 4.32698L14.021 5.22398L13.045 5.31898L13.778 5.96898L13.567 6.92499L14.412 6.42899L15.257 6.92499L15.046 5.96898L15.778 5.31898L14.803 5.22398L14.412 4.32698ZM15.042 4.89598L16.611 5.04898L15.432 6.09398L15.771 7.63298L14.412 6.83499L13.053 7.63298L13.393 6.09398L12.213 5.04898L13.782 4.89598L14.412 3.45099L15.042 4.89598Z" fill="#ED1C24"/>
<defs>
<filter id="filter0_d" x="0.412003" y="0.537979" width="32" height="32" filterUnits="userSpaceOnUse" color-interpolation-filters="sRGB">
<feFlood flood-opacity="0" result="BackgroundImageFix"/>
<feColorMatrix in="SourceAlpha" type="matrix" values="0 0 0 0 0 0 0 0 0 0 0 0 0 0 0 0 0 0 127 0"/>
<feOffset dx="2" dy="2"/>
<feGaussianBlur stdDeviation="2"/>
<feColorMatrix type="matrix" values="0 0 0 0 0 0 0 0 0 0 0 0 0 0 0 0 0 0 0.134567 0"/>
<feBlend mode="normal" in2="BackgroundImageFix" result="effect1_dropShadow"/>
<feBlend mode="normal" in="SourceGraphic" in2="effect1_dropShadow" result="shape"/>
</filter>
</defs>
</svg>
