<svg width="42px" height="42px" viewBox="0 0 33 33" fill="none" xmlns="http://www.w3.org/2000/svg">
<g filter="url(#filter0_d)">
<path fill-rule="evenodd" clip-rule="evenodd" d="M14.412 2.53999C21.039 2.53999 26.412 7.91199 26.412 14.54C26.412 21.167 21.039 26.54 14.412 26.54C7.784 26.54 2.412 21.167 2.412 14.54C2.412 7.91199 7.784 2.53999 14.412 2.53999Z" fill="white"/>
</g>
<path fill-rule="evenodd" clip-rule="evenodd" d="M14.235 6.969C13.974 7.352 13.667 7.79199 13.335 8.26799C12.838 8.98299 12.285 9.77599 11.767 10.543L14.235 11.967V6.969ZM14.235 15.382L10.197 13.052C10.092 13.249 10.004 13.425 9.941 13.577C9.7 14.154 9.576 14.734 9.555 15.297L14.235 17.998V15.382ZM10.37 12.743C10.683 12.195 11.107 11.533 11.571 10.837L14.235 12.375V14.975L10.37 12.743ZM9.559 15.706L14.235 18.405V20.11C13.586 20.089 12.978 19.953 12.431 19.724C11.563 19.36 10.842 18.764 10.34 18.024C9.881 17.349 9.603 16.553 9.559 15.706ZM14.59 14.975L18.455 12.743C18.141 12.195 17.716 11.533 17.253 10.837L14.59 12.375V14.975ZM18.626 13.052C18.733 13.249 18.819 13.425 18.882 13.577C19.124 14.154 19.247 14.734 19.268 15.297L14.59 17.998V15.382L18.626 13.052ZM14.59 11.967V6.969C14.851 7.351 15.156 7.79199 15.488 8.26799C15.986 8.98199 16.539 9.77599 17.056 10.543L14.59 11.967ZM19.266 15.706L14.59 18.405V20.11C15.239 20.089 15.845 19.953 16.392 19.724C17.262 19.36 17.982 18.764 18.484 18.024C18.944 17.349 19.221 16.553 19.265 15.706H19.266ZM14.254 6.30899C14.282 6.25099 14.342 6.21199 14.412 6.21199C14.481 6.21099 14.541 6.25099 14.571 6.30999C14.854 6.73599 15.289 7.364 15.779 8.066C17.073 9.922 18.738 12.313 19.208 13.442C19.494 14.122 19.625 14.807 19.625 15.467C19.626 16.473 19.317 17.425 18.775 18.222C18.236 19.018 17.46 19.661 16.528 20.05C15.939 20.297 15.286 20.443 14.589 20.464L14.59 22.691C14.59 22.789 14.51 22.868 14.412 22.868C14.315 22.868 14.234 22.789 14.234 22.691L14.235 20.464C13.539 20.442 12.885 20.297 12.295 20.05C11.364 19.661 10.589 19.018 10.048 18.222C9.507 17.425 9.198 16.474 9.198 15.467C9.199 14.806 9.331 14.122 9.615 13.442C10.087 12.312 11.751 9.924 13.044 8.066C13.535 7.364 13.971 6.73699 14.254 6.30899Z" fill="#ED1C24"/>
<defs>
<filter id="filter0_d" x="0.412003" y="0.539993" width="32" height="32" filterUnits="userSpaceOnUse" color-interpolation-filters="sRGB">
<feFlood flood-opacity="0" result="BackgroundImageFix"/>
<feColorMatrix in="SourceAlpha" type="matrix" values="0 0 0 0 0 0 0 0 0 0 0 0 0 0 0 0 0 0 127 0"/>
<feOffset dx="2" dy="2"/>
<feGaussianBlur stdDeviation="2"/>
<feColorMatrix type="matrix" values="0 0 0 0 0 0 0 0 0 0 0 0 0 0 0 0 0 0 0.134567 0"/>
<feBlend mode="normal" in2="BackgroundImageFix" result="effect1_dropShadow"/>
<feBlend mode="normal" in="SourceGraphic" in2="effect1_dropShadow" result="shape"/>
</filter>
</defs>
</svg>
