<svg width="42px" height="42px" viewBox="0 0 33 33" fill="none" xmlns="http://www.w3.org/2000/svg">
<g filter="url(#filter0_d)">
<path fill-rule="evenodd" clip-rule="evenodd" d="M14.412 2.53998C21.039 2.53998 26.412 7.91298 26.412 14.54C26.412 21.167 21.039 26.54 14.412 26.54C7.78399 26.54 2.41199 21.167 2.41199 14.54C2.41199 7.91298 7.78399 2.53998 14.412 2.53998Z" fill="white"/>
</g>
<path fill-rule="evenodd" clip-rule="evenodd" d="M6.26199 17.98C6.17299 17.98 6.10199 18.052 6.10199 18.14V19.414C6.10199 19.502 6.17299 19.574 6.26199 19.574H11.848C11.937 19.574 12.008 19.502 12.008 19.414V18.14C12.008 18.052 11.937 17.98 11.848 17.98H11.132L12.014 15.738L14.266 19.428C14.294 19.475 14.348 19.509 14.4 19.514H14.408H14.423H14.424C14.475 19.509 14.529 19.475 14.558 19.428L16.809 15.738L17.691 17.98H16.975C16.887 17.98 16.815 18.052 16.815 18.14V19.414C16.815 19.502 16.887 19.574 16.975 19.574H22.562C22.65 19.574 22.722 19.502 22.722 19.414V18.14C22.722 18.052 22.65 17.98 22.562 17.98H21.63L17.824 8.30599L17.823 8.30299C17.812 8.26399 17.787 8.22999 17.75 8.20899C17.694 8.17599 17.626 8.18199 17.577 8.21699L17.575 8.21899L17.574 8.21999L17.572 8.22099L17.571 8.22199L17.556 8.23499L17.554 8.23699L17.553 8.23799L17.552 8.23899L17.551 8.24099L17.549 8.24199L17.544 8.24799L17.543 8.24999L17.542 8.25099L17.54 8.25399L17.538 8.25599L17.537 8.25799L17.536 8.25899L17.535 8.26099L17.534 8.26299L17.533 8.26399L17.532 8.26599L17.531 8.26699L17.529 8.27099L17.528 8.27399L14.412 13.643L11.296 8.27399L11.295 8.27099L11.292 8.26699V8.26599L11.29 8.26399V8.26299L11.288 8.26099V8.25899L11.286 8.25799L11.285 8.25599L11.284 8.25399L11.282 8.25099L11.281 8.24999L11.279 8.24799L11.274 8.24199L11.273 8.24099L11.272 8.23899L11.27 8.23799L11.269 8.23699L11.267 8.23499L11.253 8.22199L11.252 8.22099L11.25 8.21999L11.248 8.21899L11.247 8.21699C11.197 8.18199 11.13 8.17599 11.074 8.20899C11.037 8.22999 11.012 8.26399 11.001 8.30299L10.999 8.30599L7.19399 17.98H6.26199ZM14.412 19.052L12.123 15.302L12.121 15.299V15.298L12.119 15.296V15.295L12.117 15.292V15.291L12.115 15.289L12.114 15.288L12.113 15.286L12.112 15.285L12.111 15.283L12.109 15.281L12.108 15.28L12.107 15.278L12.106 15.277L12.104 15.276L12.096 15.267L12.095 15.266L12.09 15.261V15.26L12.088 15.259L12.069 15.245L12.067 15.244L12.06 15.24L12.059 15.239L12.057 15.238L12.056 15.237L12.045 15.232L12.042 15.231H12.041C11.997 15.214 11.947 15.215 11.903 15.24C11.864 15.263 11.839 15.298 11.828 15.338L10.756 18.063C10.75 18.074 10.745 18.088 10.741 18.101L10.74 18.104V18.105L10.739 18.108C10.717 18.189 10.751 18.3 10.835 18.3L10.879 18.299L10.896 18.3H11.688V19.254H6.42199V18.3H7.29799C7.32099 18.3 7.34399 18.295 7.36399 18.286C7.40099 18.274 7.43099 18.252 7.44699 18.211L11.182 8.71499L14.248 13.998C14.28 14.055 14.352 14.094 14.412 14.083C14.472 14.094 14.543 14.055 14.576 13.998L17.642 8.71499L21.377 18.211C21.393 18.252 21.423 18.274 21.46 18.286C21.48 18.295 21.502 18.3 21.526 18.3H22.402V19.254H17.136V18.3H17.928L17.945 18.299L17.989 18.3C18.072 18.3 18.107 18.189 18.084 18.108L18.083 18.105V18.104L18.082 18.101C18.079 18.088 18.074 18.074 18.067 18.063L16.995 15.338C16.985 15.298 16.959 15.263 16.921 15.24C16.877 15.215 16.826 15.214 16.782 15.231L16.779 15.232L16.768 15.237L16.767 15.238L16.765 15.239L16.763 15.24L16.756 15.244L16.755 15.245L16.736 15.259L16.734 15.26L16.733 15.261L16.728 15.266V15.267L16.719 15.276L16.718 15.277L16.717 15.278L16.715 15.28L16.714 15.281L16.713 15.283L16.712 15.285L16.711 15.286L16.71 15.288L16.709 15.289L16.707 15.291L16.706 15.292L16.705 15.295L16.704 15.296L16.703 15.298L16.702 15.299L16.7 15.302L14.412 19.052Z" fill="#ED1C24"/>
<defs>
<filter id="filter0_d" x="0.411987" y="0.539978" width="32" height="32" filterUnits="userSpaceOnUse" color-interpolation-filters="sRGB">
<feFlood flood-opacity="0" result="BackgroundImageFix"/>
<feColorMatrix in="SourceAlpha" type="matrix" values="0 0 0 0 0 0 0 0 0 0 0 0 0 0 0 0 0 0 127 0"/>
<feOffset dx="2" dy="2"/>
<feGaussianBlur stdDeviation="2"/>
<feColorMatrix type="matrix" values="0 0 0 0 0 0 0 0 0 0 0 0 0 0 0 0 0 0 0.134567 0"/>
<feBlend mode="normal" in2="BackgroundImageFix" result="effect1_dropShadow"/>
<feBlend mode="normal" in="SourceGraphic" in2="effect1_dropShadow" result="shape"/>
</filter>
</defs>
</svg>
