<svg width="56" height="56" viewBox="0 0 56 56" fill="none" xmlns="http://www.w3.org/2000/svg">
<g filter="url(#filter0_d)">
<path fill-rule="evenodd" clip-rule="evenodd" d="M25.2727 3C37.5728 3 47.5455 12.9708 47.5455 25.2728C47.5455 37.5729 37.5728 47.5455 25.2727 47.5455C12.9708 47.5455 3 37.5729 3 25.2728C3 12.9708 12.9708 3 25.2727 3Z" fill="#E30613"/>
<path d="M14.9312 31.8027L12.9996 25.8873H11.4642V31.8027H9.82983V18H12.9501C15.0302 18 16.2189 18.8873 16.2189 21.9436C16.2189 23.8662 15.7731 25 14.5349 25.5422L16.6646 31.8027H14.9312ZM12.9996 19.4789H11.5138V24.4084H12.9996C14.2873 24.4084 14.5845 23.4225 14.5845 21.9436C14.5349 20.4648 14.2873 19.4789 12.9996 19.4789Z" fill="white"/>
<path d="M18.6951 31.8027V18H24.0441V19.4789H20.3791V24.1126H23.5488V25.6408H20.3791V30.3239H24.0441V31.8027H18.6951Z" fill="white"/>
<path d="M31.6713 30.8168C31.1265 31.3591 30.3836 31.8027 29.294 31.8027H26.0747V18H29.294C30.4331 18 31.176 18.3944 31.6713 18.9859C32.6123 20.0211 32.6618 21.5493 32.6618 24.9014C32.6618 28.2535 32.6123 29.8309 31.6713 30.8168ZM30.4331 20.0211C30.1855 19.7253 29.7892 19.4789 29.2444 19.4789H27.7586V30.3239H29.2444C29.7892 30.3239 30.1855 30.1267 30.4331 29.7816C30.9284 29.1408 30.9779 28.0563 30.9779 24.9014C30.9779 21.7465 30.9284 20.662 30.4331 20.0211Z" fill="white"/>
<path d="M34.6928 18V21.9436H36.3768V19.4789H39.2989L34.3461 31.8027H36.1291L41.0819 19.4296V18H34.6928Z" fill="white"/>
</g>
<defs>
<filter id="filter0_d" x="0.454545" y="0.454545" width="54.7273" height="54.7273" filterUnits="userSpaceOnUse" color-interpolation-filters="sRGB">
<feFlood flood-opacity="0" result="BackgroundImageFix"/>
<feColorMatrix in="SourceAlpha" type="matrix" values="0 0 0 0 0 0 0 0 0 0 0 0 0 0 0 0 0 0 127 0"/>
<feOffset dx="2.54545" dy="2.54545"/>
<feGaussianBlur stdDeviation="2.54545"/>
<feColorMatrix type="matrix" values="0 0 0 0 0 0 0 0 0 0 0 0 0 0 0 0 0 0 0.134567 0"/>
<feBlend mode="normal" in2="BackgroundImageFix" result="effect1_dropShadow"/>
<feBlend mode="normal" in="SourceGraphic" in2="effect1_dropShadow" result="shape"/>
</filter>
</defs>
</svg>
