<svg width="42px" height="42px" viewBox="0 0 33 33" fill="none" xmlns="http://www.w3.org/2000/svg">
<g filter="url(#filter0_d)">
<path fill-rule="evenodd" clip-rule="evenodd" d="M14.412 2.53998C21.039 2.53998 26.412 7.91198 26.412 14.54C26.412 21.167 21.039 26.539 14.412 26.539C7.78399 26.539 2.41199 21.167 2.41199 14.54C2.41199 7.91198 7.78399 2.53998 14.412 2.53998Z" fill="white"/>
</g>
<path fill-rule="evenodd" clip-rule="evenodd" d="M18.449 9.97398H17.579V10.755H18.024L18.777 12.124V14.88H16.043V12.124L16.796 10.755H17.24V9.97398H8.91999V20.958H19.903V9.97398H18.449ZM17.41 9.28499C17.503 9.28499 17.579 9.36199 17.579 9.45499V9.62498H18.083C17.994 7.67298 16.385 6.11998 14.412 6.11998C12.439 6.11998 10.828 7.67298 10.74 9.62498H17.24V9.45499C17.24 9.36199 17.316 9.28499 17.41 9.28499ZM17.579 11.105V11.575C17.579 11.668 17.503 11.744 17.41 11.744C17.316 11.744 17.24 11.668 17.24 11.575V11.105H17.003L16.392 12.214V14.53H18.427V12.214L17.817 11.105H17.579ZM10.4 9.62498C10.489 7.48598 12.251 5.77998 14.412 5.77998C16.572 5.77998 18.334 7.48598 18.423 9.62498H20.253V21.308H8.56999V9.62498H10.4Z" fill="#ED1C24"/>
<defs>
<filter id="filter0_d" x="0.411987" y="0.539978" width="32" height="31.999" filterUnits="userSpaceOnUse" color-interpolation-filters="sRGB">
<feFlood flood-opacity="0" result="BackgroundImageFix"/>
<feColorMatrix in="SourceAlpha" type="matrix" values="0 0 0 0 0 0 0 0 0 0 0 0 0 0 0 0 0 0 127 0"/>
<feOffset dx="2" dy="2"/>
<feGaussianBlur stdDeviation="2"/>
<feColorMatrix type="matrix" values="0 0 0 0 0 0 0 0 0 0 0 0 0 0 0 0 0 0 0.134567 0"/>
<feBlend mode="normal" in2="BackgroundImageFix" result="effect1_dropShadow"/>
<feBlend mode="normal" in="SourceGraphic" in2="effect1_dropShadow" result="shape"/>
</filter>
</defs>
</svg>
