<svg width="42px" height="42px" viewBox="0 0 33 33" fill="none" xmlns="http://www.w3.org/2000/svg">
<g filter="url(#filter0_d)">
<path fill-rule="evenodd" clip-rule="evenodd" d="M14.412 2.53998C21.039 2.53998 26.412 7.91198 26.412 14.54C26.412 21.167 21.039 26.539 14.412 26.539C7.784 26.539 2.412 21.167 2.412 14.54C2.412 7.91198 7.784 2.53998 14.412 2.53998Z" fill="white"/>
</g>
<path fill-rule="evenodd" clip-rule="evenodd" d="M15.662 9.72798L15.668 9.68399L15.811 9.70398L15.953 9.68098L15.96 9.72499L16.005 9.73099L15.984 9.87398L16.007 10.016L15.963 10.024L15.106 16.105C14.729 18.784 12.354 20.889 9.604 20.445C6.859 20.002 5.165 17.249 5.542 14.57L6.449 8.11998L6.665 8.23999C9.171 9.63199 12.852 10.152 15.662 9.72798ZM6.717 8.65399L5.878 14.617C5.527 17.113 7.096 19.696 9.658 20.11C12.22 20.524 14.419 18.547 14.77 16.058L15.613 10.078C12.822 10.475 9.249 9.97799 6.717 8.65399ZM21.626 10.065C20.033 11.015 18.274 11.646 16.449 11.974L16.282 12.003L16.222 11.669L16.389 11.639C18.251 11.305 20.043 10.649 21.653 9.65099L21.858 9.52399L23.215 15.878C23.779 18.521 22.276 21.402 19.578 22.061C17.371 22.6 15.171 21.397 14.2 19.392L14.126 19.239L14.431 19.091L14.505 19.244C15.407 21.106 17.445 22.233 19.497 21.731C22.017 21.115 23.409 18.412 22.883 15.948L21.626 10.065ZM16.418 19.683C16.682 18.602 17.487 17.707 18.58 17.439C19.667 17.173 20.765 17.593 21.454 18.46L21.559 18.593L21.293 18.804L21.188 18.671C20.582 17.907 19.618 17.534 18.662 17.769C17.691 18.007 16.982 18.806 16.748 19.764L16.708 19.929L16.378 19.848L16.418 19.683ZM15.954 15.255C16.381 15.303 16.711 15.639 16.798 16.053L16.834 16.219L16.502 16.29L16.466 16.124C16.409 15.853 16.198 15.624 15.916 15.592L15.748 15.573L15.785 15.236L15.954 15.255ZM21.204 14.966C21.13 14.618 20.804 14.359 20.445 14.447C20.083 14.536 19.891 14.927 19.966 15.279L20.002 15.445L19.669 15.516L19.634 15.35C19.521 14.818 19.824 14.249 20.364 14.117C20.909 13.983 21.422 14.36 21.536 14.895L21.572 15.061L21.239 15.132L21.204 14.966ZM13.551 14.486C13.6 14.13 13.384 13.757 13.015 13.697C12.649 13.637 12.344 13.925 12.294 14.277L12.269 14.445L11.933 14.397L11.957 14.229C12.035 13.688 12.515 13.271 13.069 13.361C13.622 13.451 13.961 13.994 13.887 14.533L13.864 14.701L13.528 14.655L13.551 14.486ZM7.156 13.454C7.23 12.913 7.711 12.498 8.264 12.587C8.817 12.676 9.159 13.22 9.082 13.76L9.058 13.928L8.721 13.879L8.746 13.711C8.796 13.355 8.579 12.982 8.21 12.922C7.845 12.863 7.541 13.149 7.492 13.501L7.469 13.669L7.132 13.623L7.156 13.454ZM12.792 16.407C12.171 17.322 11.103 17.833 10.001 17.655C8.889 17.476 8.023 16.647 7.684 15.588L7.633 15.427L7.956 15.323L8.008 15.485C8.307 16.421 9.07 17.161 10.054 17.32C11.027 17.477 11.964 17.022 12.511 16.216L12.606 16.076L12.887 16.266L12.792 16.407Z" fill="#ED1C24"/>
<defs>
<filter id="filter0_d" x="0.412003" y="0.539978" width="32" height="31.999" filterUnits="userSpaceOnUse" color-interpolation-filters="sRGB">
<feFlood flood-opacity="0" result="BackgroundImageFix"/>
<feColorMatrix in="SourceAlpha" type="matrix" values="0 0 0 0 0 0 0 0 0 0 0 0 0 0 0 0 0 0 127 0"/>
<feOffset dx="2" dy="2"/>
<feGaussianBlur stdDeviation="2"/>
<feColorMatrix type="matrix" values="0 0 0 0 0 0 0 0 0 0 0 0 0 0 0 0 0 0 0.134567 0"/>
<feBlend mode="normal" in2="BackgroundImageFix" result="effect1_dropShadow"/>
<feBlend mode="normal" in="SourceGraphic" in2="effect1_dropShadow" result="shape"/>
</filter>
</defs>
</svg>
