<svg width="42px" height="42px" viewBox="0 0 33 33" fill="none" xmlns="http://www.w3.org/2000/svg">
<g filter="url(#filter0_d)">
<path fill-rule="evenodd" clip-rule="evenodd" d="M14.412 2.53998C21.039 2.53998 26.412 7.91198 26.412 14.54C26.412 21.167 21.039 26.539 14.412 26.539C7.78399 26.539 2.41199 21.167 2.41199 14.54C2.41199 7.91198 7.78399 2.53998 14.412 2.53998Z" fill="white"/>
</g>
<path fill-rule="evenodd" clip-rule="evenodd" d="M6.04298 12.784H8.56398C14.087 11.806 14.328 11.806 19.851 12.784H22.373V11.912L14.208 8.91298L6.04298 11.912V12.784ZM8.72498 13.105V17.108H19.691V13.105C14.277 12.118 14.138 12.119 8.72498 13.105ZM14.208 17.429H8.56398C8.47598 17.429 8.40398 17.357 8.40398 17.269L8.40498 13.105H5.88198C5.79398 13.105 5.72198 13.034 5.72198 12.945V11.752C5.72198 11.663 5.79398 11.591 5.88198 11.591L14.208 8.59099L22.533 11.591C22.622 11.591 22.694 11.663 22.694 11.752L22.695 12.945C22.695 13.034 22.622 13.105 22.533 13.105H22.519V15.666C22.661 15.696 22.785 15.768 22.884 15.866C23.018 16 23.101 16.186 23.101 16.391C23.102 16.596 23.018 16.781 22.884 16.916C22.786 17.014 22.66 17.085 22.519 17.115V17.295C22.661 17.326 22.785 17.397 22.884 17.496H22.885C23.018 17.63 23.101 17.816 23.101 18.02L23.102 19.926C23.102 20.081 23.038 20.222 22.936 20.324C22.835 20.424 22.694 20.488 22.539 20.488L22.179 20.487C22.024 20.487 21.883 20.425 21.781 20.324L21.782 20.323C21.68 20.221 21.616 20.081 21.616 19.927L21.617 18.019C21.617 17.816 21.699 17.63 21.834 17.496H21.836C21.934 17.397 22.058 17.327 22.198 17.295L22.199 17.115C22.058 17.085 21.932 17.014 21.834 16.916C21.7 16.781 21.616 16.596 21.616 16.391C21.617 16.185 21.699 16.001 21.834 15.866C21.932 15.767 22.058 15.697 22.198 15.666L22.199 13.105H20.011V17.268C20.011 17.357 19.939 17.429 19.85 17.429H14.208ZM22.658 16.093C22.581 16.016 22.475 15.97 22.359 15.97C22.243 15.97 22.137 16.017 22.061 16.093C21.985 16.169 21.937 16.275 21.937 16.391C21.938 16.507 21.984 16.613 22.061 16.689C22.138 16.765 22.242 16.812 22.359 16.812C22.476 16.812 22.581 16.765 22.657 16.689C22.734 16.613 22.78 16.507 22.78 16.391C22.78 16.275 22.733 16.169 22.657 16.093H22.658ZM21.938 18.019V19.926C21.938 19.993 21.964 20.054 22.008 20.097L22.009 20.096C22.051 20.14 22.112 20.167 22.178 20.167H22.539C22.606 20.167 22.666 20.14 22.709 20.097C22.753 20.053 22.78 19.993 22.78 19.927V18.019C22.78 17.903 22.733 17.798 22.657 17.722H22.658C22.581 17.646 22.475 17.598 22.359 17.598C22.243 17.598 22.136 17.646 22.061 17.722C21.985 17.798 21.937 17.903 21.938 18.019Z" fill="#ED1C24"/>
<defs>
<filter id="filter0_d" x="0.411987" y="0.539978" width="32" height="31.999" filterUnits="userSpaceOnUse" color-interpolation-filters="sRGB">
<feFlood flood-opacity="0" result="BackgroundImageFix"/>
<feColorMatrix in="SourceAlpha" type="matrix" values="0 0 0 0 0 0 0 0 0 0 0 0 0 0 0 0 0 0 127 0"/>
<feOffset dx="2" dy="2"/>
<feGaussianBlur stdDeviation="2"/>
<feColorMatrix type="matrix" values="0 0 0 0 0 0 0 0 0 0 0 0 0 0 0 0 0 0 0.134567 0"/>
<feBlend mode="normal" in2="BackgroundImageFix" result="effect1_dropShadow"/>
<feBlend mode="normal" in="SourceGraphic" in2="effect1_dropShadow" result="shape"/>
</filter>
</defs>
</svg>
