<svg width="42px" height="42px" viewBox="0 0 33 33" fill="none" xmlns="http://www.w3.org/2000/svg">
<g filter="url(#filter0_d)">
<path fill-rule="evenodd" clip-rule="evenodd" d="M14.412 2.53998C21.039 2.53998 26.412 7.91198 26.412 14.54C26.412 21.167 21.039 26.54 14.412 26.54C7.784 26.54 2.412 21.167 2.412 14.54C2.412 7.91198 7.784 2.53998 14.412 2.53998Z" fill="white"/>
</g>
<path fill-rule="evenodd" clip-rule="evenodd" d="M17.072 14.959C17.524 14.959 17.89 15.325 17.89 15.777C17.89 16.229 17.524 16.595 17.072 16.595C16.62 16.595 16.254 16.229 16.254 15.777C16.254 15.325 16.62 14.959 17.072 14.959ZM11.752 14.959C12.203 14.959 12.57 15.325 12.57 15.777C12.57 16.229 12.203 16.595 11.752 16.595C11.3 16.595 10.933 16.229 10.933 15.777C10.933 15.325 11.3 14.959 11.752 14.959ZM17.072 15.308C17.331 15.308 17.541 15.518 17.541 15.777C17.541 16.036 17.331 16.246 17.072 16.246C16.813 16.246 16.604 16.036 16.604 15.777C16.604 15.518 16.813 15.308 17.072 15.308ZM11.752 15.308C12.01 15.308 12.22 15.518 12.22 15.777C12.22 16.036 12.01 16.246 11.752 16.246C11.493 16.246 11.283 16.036 11.283 15.777C11.283 15.518 11.493 15.308 11.752 15.308Z" fill="#ED1C24"/>
<path fill-rule="evenodd" clip-rule="evenodd" d="M12.421 18.936C13.401 19.84 15.422 19.84 16.403 18.936L16.528 18.821L16.758 19.07L16.633 19.185C15.522 20.21 13.302 20.21 12.191 19.185L12.066 19.07L12.296 18.821L12.421 18.936Z" fill="#ED1C24"/>
<path fill-rule="evenodd" clip-rule="evenodd" d="M13.48 8.95999C13.218 8.14899 12.399 7.64598 11.567 7.59198L11.397 7.58098L11.419 7.24199L11.588 7.25299C12.588 7.31699 13.548 7.94398 13.827 8.93098C13.964 8.92198 14.104 8.91598 14.246 8.91298C14.294 7.83998 14.701 6.83598 15.664 6.26898L15.81 6.18298L15.982 6.47499L15.836 6.56099C14.981 7.06599 14.632 7.96298 14.586 8.91298C18.723 9.02398 20.953 11.369 21.368 14.839C23.098 15.086 23.303 17.765 21.431 18.096C20.399 21.631 17.384 22.896 14.412 22.896C11.439 22.896 8.42401 21.631 7.39301 18.096C5.52101 17.765 5.72501 15.086 7.45601 14.839C7.84501 11.587 9.82801 9.32399 13.48 8.95999ZM7.72901 17.998C8.64801 21.15 11.293 22.547 14.412 22.547C17.53 22.547 20.175 21.15 21.095 17.998L21.156 17.789L21.37 17.752C22.848 17.491 22.662 15.377 21.318 15.185L21.052 15.147L21.02 14.88C20.577 11.168 18.089 9.30199 14.416 9.25899C10.735 9.30199 8.24701 11.168 7.80301 14.88L7.77101 15.147L7.50501 15.185C6.16201 15.377 5.97601 17.491 7.45401 17.752L7.66801 17.789L7.72901 17.998Z" fill="#ED1C24"/>
<defs>
<filter id="filter0_d" x="0.412003" y="0.539978" width="32" height="32" filterUnits="userSpaceOnUse" color-interpolation-filters="sRGB">
<feFlood flood-opacity="0" result="BackgroundImageFix"/>
<feColorMatrix in="SourceAlpha" type="matrix" values="0 0 0 0 0 0 0 0 0 0 0 0 0 0 0 0 0 0 127 0"/>
<feOffset dx="2" dy="2"/>
<feGaussianBlur stdDeviation="2"/>
<feColorMatrix type="matrix" values="0 0 0 0 0 0 0 0 0 0 0 0 0 0 0 0 0 0 0.134567 0"/>
<feBlend mode="normal" in2="BackgroundImageFix" result="effect1_dropShadow"/>
<feBlend mode="normal" in="SourceGraphic" in2="effect1_dropShadow" result="shape"/>
</filter>
</defs>
</svg>
