<svg width="442" height="500" viewBox="0 0 442 500" fill="none" xmlns="http://www.w3.org/2000/svg">
<g clip-path="url(#clip0_540_15696)">
<path d="M130.965 276.031C129.771 273.48 129.014 271.154 129.359 268.427C129.622 266.329 127.669 267.335 126.78 267.57C121.301 269.018 115.731 269.77 110.145 270.566C102.021 271.723 95.2541 267.875 95.2454 259.86C95.2385 258.369 94.3521 258.024 93.0906 258.277C89.1873 259.088 85.3224 258.445 81.4457 258.093C80.9971 257.766 80.5484 257.439 80.0998 257.111C79.7727 256.958 79.4436 256.784 79.1165 256.631L79.1228 256.693C77.0585 253.961 75.4357 251.081 75.6736 247.515C75.7779 246.096 74.842 245.674 73.6763 245.44C71.9801 245.095 70.247 244.794 68.5794 244.322C63.4017 242.818 60.0619 239.388 59.2937 234.101C58.8087 230.774 57.3066 230.906 54.9158 231.688C50.1322 233.23 45.2798 234.303 40.1942 233.702C39.0163 233.552 37.8015 233.448 36.6706 233.148C33.8536 232.399 31.6105 230.763 31.2411 227.756C30.8802 224.83 32.7117 222.842 35.2456 221.632C44.075 217.421 53.0696 213.607 62.3802 210.651C69.8402 208.277 75.4831 211.287 77.0201 217.801C77.7162 220.754 76.7391 223.587 75.7967 226.355C74.5868 229.958 74.9167 230.546 78.7356 230.737C81.4486 230.876 84.132 230.52 86.8025 229.835C89.0066 229.259 91.2522 228.885 93.5673 229.396C96.5835 230.063 98.7319 231.584 99.4283 234.745C100.16 238.047 99.2319 240.751 96.3314 242.64C94.716 243.695 93.0779 244.732 91.5802 246.127C96.1367 246.223 100.445 245.309 104.655 243.638C107.466 242.503 110.055 240.811 113.19 240.616C113.762 240.724 114.333 240.831 114.905 240.939C119.464 244.722 119.277 248.179 114.434 251.571C111.952 253.294 109.567 255.152 107.207 257.049C106.477 257.62 105.566 258.459 106.006 259.512C106.519 260.681 107.711 260.146 108.615 260.054C117.61 259.099 126.232 256.71 134.47 253.015C135.938 252.348 137.481 251.797 138.976 251.19C140.421 255.786 143.992 256.397 148.091 256.084C148.433 258.41 147.736 260.532 146.807 262.614C146.062 264.264 146.625 264.704 148.288 264.514C152.231 264.093 156.18 263.733 160.148 263.351C169.951 264.198 178.362 260.36 186.489 255.578C187.019 255.276 187.795 254.948 187.506 254.149C187.161 253.211 186.265 253.384 185.54 253.603C183.887 254.082 182.19 254.544 180.598 255.224C175.828 257.304 170.804 257.918 165.688 258.231C164.594 258.3 163.511 258.265 162.493 257.851C161.257 257.335 160.049 256.691 159.938 255.19C159.826 253.483 161.441 253.65 162.456 253.215C165.702 251.87 168.733 250.237 170.612 247.084C176.722 246.131 182.791 244.976 188.613 242.831C191.634 241.716 194.241 240.001 195.833 237.085C196.408 236.011 196.803 234.79 195.904 233.722C195.079 232.749 193.907 232.454 192.633 232.791C186.814 234.356 180.99 232.835 175.164 232.909C173.193 232.923 173.633 231.532 174.052 230.35C175.109 227.281 176.357 224.254 177.263 221.138C179.602 213.133 175.385 207.824 166.988 208.346C160.386 208.748 153.785 209.17 147.163 208.559C143.935 208.266 142.312 207.209 142.455 203.528C142.641 198.641 139.265 195.67 134.241 196.078C127.859 196.602 121.501 197.372 115.073 197.446C113.497 197.461 111.872 198.02 110.377 198.627C109.12 199.128 107.707 199.727 107.661 201.513C107.632 203.256 108.561 204.425 109.964 205.152C111.192 205.794 112.547 206.257 113.91 206.595C118.448 207.728 123.025 208.63 127.741 208.462C129.457 208.391 130.052 209.138 130.211 210.696C130.835 216.805 134.809 219.943 140.228 221.774C144.915 223.349 149.778 223.6 154.672 223.745C158.858 223.879 158.85 224.004 157.542 227.865C155.706 233.271 155.7 238.491 158.946 243.443C156.177 246.417 153.042 248.455 148.472 247.408C148.923 245.725 150.175 244.77 151.47 243.83C154.446 241.664 155.278 239.446 153.945 237.365C152.658 235.342 150.416 235.342 147.033 237.177C144.495 238.553 141.949 240.055 138.843 239.728C136.549 235.964 134.965 232.044 135.703 227.475C136.012 225.621 134.482 226.087 133.498 226.208C128.231 226.888 122.94 227.115 117.659 226.429C116.376 226.27 115.138 225.94 113.866 225.676C114.191 225.001 114.537 224.323 114.819 223.632C116.289 220.127 114.579 217.215 110.779 217.207C106.067 217.21 101.328 217.567 96.6141 217.756C92.9888 211.124 92.7929 204.122 94.51 196.946C95.6135 195.757 96.8507 194.658 97.7752 193.342C102.446 186.633 109.188 183.524 116.977 182.339C121.598 181.641 126.285 181.393 130.914 180.777C138.225 179.786 145.66 179.61 152.744 177.213C159.045 175.081 164.789 171.763 170.62 168.685C180.51 163.475 190.463 158.466 201.172 155.182C206.426 153.571 211.691 152.062 216.718 149.853C224.287 146.515 231.58 142.501 239.306 139.686C251.657 135.2 264.702 134.247 277.741 133.647C281.787 135.866 285.781 138.173 289.881 140.304C294.594 142.746 298.431 146.167 301.618 150.338C303.103 152.279 304.945 153.645 307.204 154.617C318.788 159.695 327.285 168.297 334.249 178.546C338.035 184.106 340.377 190.372 342.797 196.588C345.027 211.109 341.923 225.24 339.508 239.405C337.985 248.28 334.519 256.627 331.993 265.231C330.216 266.737 329.12 268.817 328.051 270.748C324.362 277.523 318.833 282.745 313.596 288.187C309.373 292.572 303.677 294.124 297.983 295.697C290.958 297.654 283.716 298.307 276.592 299.694C272.419 300.512 268.168 300.157 263.948 299.695C266.791 295.408 268.672 290.453 272.655 286.962C274.161 285.649 273.651 283.091 275.791 282.294C277.375 286.628 279.015 287.641 283.399 286.864C287.5 286.158 291.347 284.793 294.997 282.724C297.118 281.535 299.173 280.518 301.975 280.917C304.713 281.301 304.18 278.725 303.933 276.907C318.72 268.424 329.62 256.628 334.916 240.182C335.893 237.142 336.766 233.905 335.071 230.721C334.558 229.759 334.196 228.656 332.831 228.712C331.469 228.788 331.337 229.941 330.856 230.922C328.346 236.024 325.836 241.126 321.338 244.856L321.383 244.892C323.131 238.832 325.944 233.037 326.368 226.614C326.554 223.758 327.025 220.851 325.988 218.015C325.559 216.858 325.062 215.852 323.906 215.307C324.679 211.5 325.686 207.731 325.097 203.793C324.889 202.365 324.793 200.821 323.023 200.566C321.148 200.301 320.247 201.635 319.822 203.17C317.954 210.091 315.237 216.623 311.418 222.728C310.045 224.938 308.557 227.037 306.801 228.955C305.884 229.939 305.253 231.08 306.039 232.471C300.606 237.621 294.452 241.602 287.581 244.455C287.394 244.246 287.184 244.019 286.996 243.81C289.443 241.138 291.867 238.447 294.361 235.832C300.117 229.779 305.832 223.73 309.648 216.176C311.409 212.683 311.192 209.536 308.992 207.916C306.411 206.024 303.169 206.602 300.378 209.765C294.219 216.75 286.721 221.592 277.475 223.961C281.215 219.728 284.936 215.497 288.677 211.265C296.008 209.463 303.254 201.332 304.153 193.867C304.29 192.776 304.202 191.708 303.625 190.731C303.173 189.969 302.588 189.324 301.61 189.3C300.57 189.281 300.08 189.973 299.753 190.835C299.236 192.275 298.539 193.588 297.31 194.563C294.233 189.635 289.524 188.457 285.701 192.491C280.039 198.451 272.932 201.224 265.482 203.701C258.074 206.173 250.752 208.885 243.397 211.475C242.294 211.857 241.113 212.08 239.575 211.864C244.115 208.13 248.633 204.398 253.17 200.644C253.67 202.892 255.386 203.028 257.225 202.945C261.152 202.774 264.513 200.92 267.913 199.249C274.911 195.803 281.144 191.379 285.738 184.927C286.972 183.186 287.803 181.361 287.121 179.152C286.844 178.269 286.355 177.552 285.422 177.357C284.443 177.125 283.77 177.649 283.27 178.446C280.797 182.28 277.106 184.768 273.413 187.236C273.124 180.74 270.073 178.109 263.543 178.814C258.678 179.35 254.345 181.241 250.35 184.008C242.419 189.495 233.717 193.321 224.537 196.138C223.732 196.386 222.875 196.535 221.396 196.893C223.723 193.86 226.67 192.421 228.848 190.17C236.183 189.818 242.499 186.815 248.22 182.464C253.402 178.519 258.442 174.403 263.527 170.324C264.102 169.851 264.625 169.28 265.06 168.656C265.584 167.898 265.7 166.996 265.123 166.226C264.474 165.36 263.63 165.632 262.767 165.927C258.29 167.418 254.48 170.166 250.465 172.521C248.07 169.202 244.858 168.244 240.796 168.512C231.598 169.115 223.289 172.528 215.034 176.06C208.311 178.939 201.401 181.008 194.137 181.85C191.943 182.114 189.791 181.981 187.647 181.723C184.639 181.345 182.191 182.173 180.599 184.676C179.009 187.199 179.376 189.978 180.868 192.395C184.232 197.894 189.639 199.602 195.681 199.403C198.391 199.314 198.998 199.563 198.173 202.463C196.243 209.184 200.773 214.71 207.766 214.475C210.249 214.389 212.716 213.952 215.181 213.494C216.486 213.258 217.341 213.088 217.069 214.897C215.593 224.637 223.762 232.258 236.61 229.792C237.771 229.57 238.952 229.347 240.115 229.146C234.164 237.145 238.447 249.614 248.036 251.622C250.541 252.154 251.452 252.952 251.204 255.401C251.111 256.322 251.584 257.289 251.803 258.219C243.175 253.214 235.401 247.024 227.408 241.125C223.098 237.959 222.547 237.642 218.694 241.389C214.37 245.598 208.526 247.539 204.142 251.568C202.242 252.279 200.542 253.321 199.018 254.657C195.702 256.34 192.386 258.023 189.07 259.707C186.875 260.572 184.659 261.439 182.461 262.284C177.633 263.997 172.638 264.691 167.543 264.815C165.474 264.881 163.526 265.12 162.681 267.215C161.867 269.203 162.92 270.981 164.101 272.58C164.536 273.178 165.145 273.655 165.676 274.181C155.144 276.763 144.543 278.669 133.501 278.093C133.218 278.37 133.447 278.782 133.709 279.107C140.578 287.212 146.386 296.108 152.791 304.55C160.327 314.514 171.088 319.862 181.994 325.009C177.714 324.367 173.519 323.136 169.41 321.938C161.51 319.592 155.654 313.684 149.787 308.273C144.836 303.702 141.621 297.628 137.72 292.163C134.86 288.146 132.152 283.988 128.253 280.78C125.691 278.659 122.346 278.025 119.773 276.008C123.423 275.969 127.071 275.909 130.99 275.863L130.965 276.031ZM240.254 159.744C241.146 158.928 242.774 158.203 241.662 156.659C240.623 155.232 239.211 156.038 238.211 156.823C231.562 162.056 223.802 165.144 216.202 168.588C214.376 169.416 212.691 170.602 210.946 171.608C210.065 171.925 209.345 172.392 208.969 173.59C210.27 173.727 211.402 173.84 212.414 172.971C222.411 170.028 232.307 166.91 240.274 159.741L240.254 159.744ZM311.802 167.116C301.628 158.974 290.581 152.454 277.555 149.925C275.481 149.535 272.397 148.813 271.722 150.953C271.095 152.943 274.301 153.839 276 154.619C284.89 158.728 293.493 163.281 301.752 168.531C304.394 170.209 306.934 172.105 309.467 173.94C310.521 174.703 311.591 175.63 311.771 176.978C312.062 179.02 313.135 179.967 315.08 179.5C317.268 178.967 317.153 177.032 317.287 175.9C316.812 171.661 314.381 169.194 311.781 167.118L311.802 167.116Z" fill="#032363"/>
<path d="M203.935 299.498C208.122 302.283 212.728 304.487 216.395 308.071C215.165 308.838 214.101 307.972 213.05 307.644C202.861 304.434 193.293 299.793 183.824 294.893C181.895 293.888 179.93 292.949 177.802 292.44C176.994 292.253 176.052 291.769 175.427 292.764C174.927 293.561 175.576 294.22 175.951 294.844C176.78 296.251 177.881 297.486 179.205 298.449C188.793 305.532 199.353 310.341 211.225 312.138C211.753 312.229 212.298 312.277 212.839 312.285C216.497 312.327 217.18 311.491 216.327 308.015C217.072 307.795 217.562 308.325 218.017 308.714C224.411 314.195 231.673 318.428 238.504 323.305C239.825 324.248 241.164 325.168 242.919 324.866C244.489 324.996 245.857 324.567 246.8 323.228C249.27 320.782 251.267 317.969 252.998 314.997C256.181 309.578 260.174 304.76 263.985 299.795C268.203 300.237 272.433 300.594 276.629 299.795C283.753 298.408 290.995 297.755 298.02 295.798C303.712 294.205 309.389 292.675 313.633 288.287C318.87 282.846 324.397 277.603 328.088 270.849C329.155 268.897 330.253 266.838 332.028 265.311C332.507 266.547 331.394 268.462 333.097 269.076C334.714 269.657 335.893 268.191 337.046 267.287C339.314 265.503 340.725 263.06 342.025 260.546C348.478 248.105 350.967 234.658 352.407 220.903C352.614 218.873 352.905 216.834 353.174 214.798C363.24 212.532 370.401 207.226 372.22 196.167C374.431 197.082 375.767 198.582 377.12 200.04C379.266 202.349 381.449 204.612 383.988 206.508C387.244 208.912 390.729 209.489 394.371 207.545C398.013 205.601 398.961 202.273 398.631 198.433C398.501 197.162 398.369 195.871 398.229 194.497C399.89 194.494 400.562 195.793 401.566 196.478C404.756 198.639 408.579 198.872 411.372 196.952C414.069 195.104 415.273 191.232 414.384 187.615C413.291 183.211 410.877 179.293 409.673 174.817C413.235 178.39 417.828 181.486 419.419 186.089C422.566 195.152 425.402 204.433 426.528 214.033C427.443 221.769 425.81 229.164 422.257 236.05C417.146 245.973 412.475 256.141 406.374 265.523C401.814 272.511 396.7 278.954 389.79 284.068C383.112 289.014 377.204 295 370.11 299.532C367.811 301.008 366.898 304.063 364.519 305.775C361.5 307.926 358.225 309.605 355.057 311.522C353.768 312.316 352.312 312.898 351.902 314.576C351.546 315.151 351.327 315.857 350.534 316.02C348.458 319.069 348.822 322.636 348.929 325.919C349.086 330.708 347.946 334.801 344.891 338.425C342.262 339.521 339.842 341.238 336.796 341.091C335.775 341.05 334.656 341.475 333.809 340.504C336.086 339.217 336.487 337.042 336.494 334.473C337.874 334.975 338.177 337.533 339.98 336.48C341.782 335.427 341.439 333.494 341.266 331.793C341.067 329.845 340.523 327.974 339.439 326.303C338.849 325.41 338.202 324.358 336.863 324.866C335.703 325.295 335.789 326.343 335.891 327.347C335.99 328.311 336.088 329.274 336.193 330.299C334.674 330.267 334.793 328.992 334.265 328.3C333.526 327.36 332.899 326.098 331.492 326.552C330.124 326.981 330.124 328.41 330.182 329.585C330.345 333.421 330.353 337.355 333.981 339.948C334.049 340.004 333.938 340.346 333.898 340.558C332.431 341.038 331.341 339.512 329.901 339.845C325.17 334.381 318.597 330.803 314.35 324.793C313.355 323.382 311.647 323.121 309.931 323.399C307.225 322.721 304.788 323.652 302.428 324.741C299.077 326.283 295.635 327.545 292.059 328.509C280.438 331.616 268.644 333.83 256.824 336.004C255.684 336.224 255.023 336.457 254.6 337.805C253.634 340.948 252.347 343.999 251.035 347.011C249.637 350.198 247.894 353.255 244.586 354.813C241.814 356.13 239.532 357.978 237.402 360.1C230.338 362.081 226.129 358.47 222.992 352.761C219.742 346.546 219.168 339.707 218.473 332.901C219.061 329.507 216.9 329.084 214.405 329.255C210.55 329.522 206.743 330.261 202.86 329.848C199.785 329.415 196.688 329.171 193.653 328.526C189.703 327.664 185.666 326.956 181.973 325.157C171.047 320.012 160.286 314.664 152.77 304.698C146.384 296.234 140.557 287.36 133.688 279.255C133.429 278.95 133.2 278.539 133.481 278.241C144.522 278.817 155.121 276.891 165.655 274.329C178.427 282.703 191.232 290.992 203.932 299.478L203.935 299.498ZM399.151 232.805C398.612 231.39 398.037 229.625 396.155 229.899C394.031 230.24 395.052 232.104 395.017 233.391C394.958 235.054 394.515 236.611 393.597 237.989C389.355 244.427 385.687 251.2 381.953 257.938C381.111 259.453 380.115 260.88 378.826 262.088C378.067 262.786 377.464 263.593 378.153 264.642C378.742 265.535 379.723 265.787 380.748 265.662C382.68 265.466 384.215 264.44 385.579 263.162C388.384 260.536 390.557 257.416 392.33 254.046C394.505 249.931 396.635 245.779 398.699 241.592C399.63 239.737 400.28 237.765 399.935 235.605C399.674 234.678 399.492 233.703 399.13 232.807L399.151 232.805ZM413.571 224.587C411.035 224.762 412.69 227.95 412.42 229.779C411.013 238.974 408.291 247.701 403.067 255.502C401.573 257.746 399.107 258.805 396.904 260.209C395.989 260.799 394.31 261.239 394.936 262.688C395.398 263.759 396.914 263.356 397.929 263.129C401.723 262.267 405.193 260.671 407.518 257.411C413.38 249.152 415.153 239.671 415.886 230.587C415.012 227.921 415.632 224.44 413.59 224.565L413.571 224.587ZM374.406 252.553C379.448 247.236 381.75 240.705 382.962 233.664C383.053 233.137 383.017 232.581 382.942 232.05C382.794 230.802 382.305 229.671 380.932 229.437C379.602 229.22 379.024 230.273 378.633 231.328C376.983 235.7 374.609 239.691 372.277 243.698C370.39 246.976 368.572 250.309 365.03 252.222C364.361 252.58 363.731 253.121 363.841 254C363.987 255.021 364.828 255.329 365.647 255.619C366.595 255.957 367.553 255.984 368.53 255.802C370.831 255.361 372.771 254.232 374.363 252.537L374.406 252.553ZM361.493 229.777C360.362 229.477 359.985 230.469 359.736 231.281C356.976 240.033 352.317 247.88 348.053 255.936C347.183 257.578 345.45 259.929 347.249 261.072C348.759 262.037 350.149 259.389 351.277 258.032C356.957 251.241 360.937 243.649 362.361 234.825C362.513 233.878 362.622 232.914 362.683 232.493C362.537 231.058 362.496 230.048 361.493 229.777ZM367.952 279.411C368.127 278.482 368.003 277.48 367.884 276.518C367.801 275.698 367.206 275.158 366.363 275.037C365.477 274.899 364.779 275.384 364.587 276.149C363.284 281.688 359.016 285.021 355.311 288.795C354.464 289.647 353.42 290.602 353.718 292.105C359.862 291.273 366.846 285.054 367.931 279.413L367.952 279.411ZM237.949 353.25C239.162 353.541 240.129 352.842 240.696 351.894C242.7 348.542 243.616 344.907 242.906 341.002C242.679 339.803 242.18 338.57 240.688 338.597C239.362 338.628 239.001 339.763 238.783 340.883C238.141 344.159 236.246 347.147 236.52 350.641C236.631 351.727 236.651 352.947 237.971 353.269L237.949 353.25ZM229.927 346.464C229.484 348.021 229.146 349.588 228.766 351.159C228.536 352.156 228.47 353.137 229.601 353.643C230.56 354.084 231.515 353.884 232.367 353.279C234.093 352.089 234.519 346.702 233.057 345.193C232.661 344.778 232.223 344.553 231.634 344.675C230.703 344.914 230.172 345.611 229.927 346.464Z" fill="#004DF8"/>
<path d="M280.393 132.592C280.623 132.403 280.83 132.195 281.06 132.006L281.003 132.053C283.888 132.05 285.85 130.525 287.294 128.203C289.272 124.999 291.14 121.744 291.388 117.866C292.205 116.519 292.84 115.005 293.886 113.863C301.893 105.261 310.113 96.907 322.646 95.2189C324.129 96.1245 325.759 94.799 327.246 95.5385C323.256 98.5538 318.962 101.02 314.209 102.663C312.925 103.104 311.733 104.033 310.707 104.966C309.283 106.271 308.438 107.952 309.384 109.906C310.327 111.819 312.115 111.845 313.893 111.56C318.55 110.818 322.927 109.358 326.819 106.601C327.496 106.118 327.981 105.178 329.147 106.427C332.483 110.023 335.432 110.034 339.191 106.794C339.591 106.442 340.01 106.068 340.365 105.68C342.04 103.791 342.808 104.603 343.26 106.587C343.376 107.114 343.492 107.641 343.69 108.159C344.498 110.376 345.868 111.998 348.428 111.862C350.968 111.728 352.163 110.011 352.782 107.732C353.794 104.025 354.441 103.856 357.163 106.728C358.187 107.804 359.184 109.029 359.819 110.372C360.405 111.639 361.069 112.441 362.465 112.092C364.187 111.668 364.538 110.224 364.284 108.759C363.73 105.563 361.972 102.987 359.801 100.639C359.241 100.033 358.279 99.7584 358.135 98.758C358.389 98.4008 358.643 98.0435 358.879 97.7089C363.712 102.955 368.227 108.337 368.061 116.059C368.048 116.951 368.175 117.788 368.982 118.369L368.941 119.595C365.771 120.062 362.807 121.13 360.095 122.834C356.531 120.462 354.522 120.915 352.515 124.64C349.25 130.689 347.431 137.067 348.597 144.012C348.798 145.172 349.064 146.346 349.427 147.469C349.998 149.192 350.884 150.759 352.925 150.821C355.131 150.866 356.108 149.255 356.793 147.425C357.085 146.629 357.332 145.796 357.6 144.961C360.035 145.625 362.163 148.37 364.822 146.961C369.53 144.473 374.941 144.814 379.706 142.88C382.556 141.72 385.172 141.309 387.843 143.068C393.613 147.121 398.954 151.653 402.961 157.542L402.981 157.54C402.201 157.827 401.503 157.504 400.761 157.352C394.599 155.969 391.11 159.202 392.001 165.491C392.161 166.656 392.525 167.779 392.914 169.355C388.755 167.458 384.694 166.317 381.727 170.802C379.171 174.645 381.236 178.806 381.295 182.839C379.851 183.338 379.109 182.171 378.14 181.627C374.216 179.395 370.183 177.713 365.497 178.79C362.21 179.538 360.229 181.687 359.236 184.77C358.574 186.826 358.041 188.931 357.593 191.048C356.949 194.096 355.307 196.106 352.18 196.797C350.394 187.637 347.786 178.767 343.029 170.613C342.176 169.167 341.583 167.426 339.517 168.133C337.551 168.809 337.581 170.732 337.925 172.271C338.864 176.381 340.146 180.393 341.105 184.5C342.051 188.485 342.979 192.491 342.782 196.654C340.382 190.435 338.019 184.172 334.234 178.612C327.27 168.363 318.77 159.74 307.188 154.682C304.928 153.69 303.088 152.344 301.603 150.403C298.414 146.212 294.578 142.811 289.865 140.37C285.766 138.239 281.772 135.931 277.726 133.712C278.602 133.354 279.457 132.977 280.334 132.618L280.393 132.592ZM328.912 119.583C327.463 119.212 326.034 118.839 324.584 118.469C319.953 117.241 315.553 118.061 311.385 120.142C308.818 121.438 307.382 123.635 307.124 126.602C306.137 137.473 315.433 145.559 325.626 142.701C327.863 143.468 329.731 143.05 331.081 141.028C337.935 138.819 341.237 133.74 339.06 128.286C337.388 124.106 334.001 121.634 329.633 120.545L329.701 120.6C329.44 120.275 329.155 119.931 328.894 119.605L328.912 119.583Z" fill="#004DF8"/>
<path d="M87.4358 219.744C85.2316 220.32 82.1822 220.547 82.3812 223.717C82.5933 227.216 85.7685 227.204 88.3151 227.339C92.9705 227.591 97.6332 227.303 102.225 226.526C104.491 226.151 105.534 226.397 105.477 229.095C105.337 234.64 108.016 238.51 113.213 240.612C110.078 240.807 107.471 242.522 104.678 243.634C100.49 245.323 96.1803 246.217 91.6033 246.123C93.101 244.728 94.7391 243.691 96.3545 242.637C99.2529 240.726 100.162 238.045 99.4514 234.741C98.7571 231.601 96.6066 230.059 93.5904 229.392C91.2753 228.882 89.0297 229.255 86.8256 229.831C84.1757 230.515 81.4717 230.872 78.7587 230.734C74.9398 230.542 74.5893 229.956 75.8199 226.351C76.7601 223.563 77.7393 220.75 77.0433 217.797C75.5062 211.283 69.8839 208.272 62.4033 210.647C53.0948 213.623 44.1002 217.437 35.2687 221.628C32.7349 222.839 30.9033 224.827 31.2642 227.752C31.6336 230.759 33.8768 232.395 36.6937 233.145C37.8452 233.442 39.0415 233.569 40.2173 233.698C45.305 234.32 50.1553 233.226 54.9389 231.684C57.3318 230.923 58.8339 230.791 59.3168 234.097C60.085 239.384 63.4248 242.814 68.6025 244.318C70.2723 244.811 71.9827 245.093 73.6994 245.436C74.8651 245.67 75.7783 246.074 75.6968 247.512C75.4588 251.078 77.0816 253.958 79.1254 256.691C73.375 256.696 67.6876 256.3 62.07 254.758C53.7403 252.477 45.2304 251.685 36.6041 252.396C35.1226 252.526 33.2377 252.365 32.9845 254.359C32.7372 256.207 34.1573 257.305 35.702 257.997C36.7901 258.487 37.9293 258.869 39.0972 259.123C47.354 260.894 55.6335 262.683 63.9231 264.367C67.9302 265.182 71.9185 264.797 75.8667 263.816C76.4933 263.649 77.1093 263.379 77.7463 263.314C82.123 262.87 82.49 262.397 81.4894 258.087C85.364 258.418 89.2289 259.061 93.1343 258.271C94.3957 258.018 95.3027 258.361 95.289 259.854C95.2956 267.848 102.062 271.697 110.188 270.56C115.775 269.764 121.345 269.012 126.824 267.564C127.713 267.329 129.666 266.323 129.402 268.421C129.058 271.149 129.814 273.474 131.009 276.025C127.069 276.073 123.442 276.131 119.792 276.171C116.449 276.365 113.081 276.728 109.735 276.696C100.111 276.576 90.4549 277.371 80.9354 275.232C77.6422 273.681 74.3916 272.955 70.6095 273.733C63.5753 275.194 56.3381 274.666 49.1866 274.979C47.6783 275.049 46.164 275.265 44.6619 275.397C34.2194 276.417 23.9265 276.054 14.0316 272.068C13.262 270.427 11.5672 269.688 10.3974 268.399C5.62166 263.105 4.79792 256.664 4.75671 249.958C4.76107 248.984 4.82916 248.024 4.85407 247.048L4.84189 247.132C5.44919 246.573 5.22581 245.809 5.34376 245.134C5.52583 244.68 5.7079 244.227 5.88787 243.753C13.62 231.844 24.8734 223.72 36.1227 215.555C36.644 215.171 37.1221 214.77 37.6413 214.365C41.923 212.584 46.3058 210.979 50.4802 208.959C55.248 206.652 60.1068 204.626 65.1555 203.035C68.3225 201.926 71.4543 200.676 74.6834 199.768C81.1805 197.927 87.7835 196.717 94.5847 197.041C92.847 204.219 93.0408 211.2 96.6888 217.851C93.6174 218.474 90.513 218.976 87.4995 219.758L87.4358 219.744ZM40.6947 247.32C45.236 245.843 49.5832 243.89 53.6436 241.364C54.2882 240.967 55.0561 240.558 54.8386 239.648C54.619 238.717 53.6856 238.522 53.0058 238.778C46.0662 241.368 38.9966 243.702 33.1423 248.585C35.9551 249.293 38.2834 248.104 40.6947 247.32Z" fill="#004DF8"/>
<path d="M387.876 143.106C393.646 147.159 398.987 151.691 402.994 157.58C403.08 157.613 403.185 157.623 403.253 157.678C403.298 157.715 403.265 157.801 403.274 157.883C403.179 157.769 403.086 157.675 402.991 157.56C402.213 157.867 401.516 157.544 400.774 157.392C394.612 156.009 391.122 159.243 392.013 165.532C392.174 166.696 392.537 167.819 392.927 169.395C388.768 167.498 384.706 166.357 381.739 170.843C379.183 174.686 381.248 178.846 381.307 182.879C379.863 183.378 379.121 182.211 378.152 181.667C374.229 179.435 370.195 177.753 365.51 178.83C362.223 179.579 360.241 181.727 359.248 184.811C358.586 186.866 358.054 188.971 357.606 191.088C356.962 194.136 355.319 196.146 352.193 196.837C352.865 202.817 353.353 208.815 353.159 214.842C363.225 212.576 370.386 207.271 372.205 196.211C374.416 197.126 375.752 198.626 377.105 200.084C379.251 202.393 381.434 204.656 383.973 206.552C387.229 208.956 390.714 209.534 394.356 207.589C397.998 205.645 398.946 202.317 398.616 198.478C398.486 197.207 398.354 195.915 398.214 194.542C399.875 194.538 400.547 195.837 401.551 196.522C404.741 198.684 408.564 198.916 411.357 196.996C414.054 195.148 415.258 191.277 414.369 187.659C413.276 183.255 410.862 179.337 409.658 174.861C413.22 178.435 417.813 181.53 419.404 186.133C422.55 195.196 425.387 204.477 426.513 214.077C427.427 221.813 425.795 229.208 422.242 236.094C417.131 246.017 412.46 256.185 406.359 265.567C401.799 272.555 396.685 278.998 389.775 284.112C383.097 289.058 377.189 295.044 370.095 299.576C367.796 301.052 366.883 304.107 364.504 305.82C361.485 307.97 358.21 309.649 355.042 311.566C353.753 312.36 352.297 312.943 351.887 314.621C352.134 314.803 352.546 315.175 352.624 315.126C356.287 312.164 361.591 311.853 364.679 308.142C368.044 304.093 373.272 302.836 376.975 299.457C386.489 290.764 397.527 283.78 406.058 274.007C409.011 270.6 411.736 266.988 414.915 263.765C417.494 261.162 417.976 257.344 420.248 254.586C423.426 250.742 426.405 246.773 428.053 241.965C429.59 237.501 431.061 233.002 432.728 228.586C433.464 226.647 432.547 224.98 432.365 223.196C431.445 214.798 430.34 206.418 429.441 198.017C429.307 196.705 428.462 195.755 428.246 194.451C427.862 192.108 427.034 190.1 428.184 187.539C429.08 185.543 427.071 183.551 426.038 181.772C421.82 174.619 417.994 167.241 413.244 160.371C409.736 155.3 405.305 151.546 399.962 148.63C397.499 147.285 395.246 145.547 392.906 143.982C392.46 143.676 392.114 143.338 392.781 142.752C394.627 141.115 393.453 139.577 392.925 137.663C391.8 133.552 389.949 129.867 387.549 126.486C383.045 120.191 377.023 116.93 369.015 118.407C368.995 118.823 368.994 119.217 368.974 119.633C380.973 120.029 388.16 125.554 391.483 136.96C392.472 140.34 391.357 142.234 387.855 143.108L387.876 143.106Z" fill="#032363"/>
<path d="M237.382 360.123C230.318 362.105 226.109 358.494 222.972 352.785C221.551 355.332 220.409 357.975 219.919 360.904C219.415 363.896 216.624 365.029 214.679 366.718C210.197 370.612 207.267 375.26 205.819 380.999C205.2 383.485 204.95 385.914 207.259 387.377C209.633 388.876 212.486 388.752 214.832 387.126C217.02 385.578 218.985 383.679 220.936 381.845C223.152 379.755 223.785 380.872 224.003 383.211C224.553 388.602 226.666 393.234 230.568 397.084C232.693 399.188 232.949 402.31 233.949 404.984C234.949 407.658 236.976 409.006 239.188 408.718C241.319 408.44 242.767 406.553 243.204 403.919C243.628 401.37 243.858 398.944 243.494 396.392C243.258 394.696 243.491 393.513 245.714 394.55C252.344 397.667 259.524 399.671 265.558 404.071C266.813 404.979 268.485 405.492 270.031 405.791C272.424 406.252 272.871 404.322 273.131 402.597C273.494 400.261 271.87 398.582 270.949 396.688C266.871 392.732 262.808 388.733 257.807 385.906C256.77 385.307 255.428 384.967 254.728 383.609C257.167 383.299 259.404 383.445 261.636 383.964C264.458 381.916 267.596 383.565 270.565 383.367C272.813 383.221 275.085 383.508 277.072 382.229C279.662 380.557 279.64 378.509 277.113 376.736C275.123 375.343 272.961 374.3 270.662 373.539C268.047 372.935 265.462 372.224 262.837 371.725C256.463 370.508 249.939 370.053 243.621 368.354C243.183 368.337 242.768 368.337 242.33 368.32C235.687 367.918 235.518 367.687 237.35 361.431C237.456 361.048 237.367 360.581 237.366 360.166L237.382 360.123Z" fill="#F800A2"/>
<path d="M344.919 338.446C342.291 339.541 339.871 341.258 336.825 341.112C335.803 341.07 334.684 341.495 333.838 340.525L333.883 340.561C332.416 341.042 331.326 339.516 329.886 339.849C329.941 340.589 329.977 341.352 330.032 342.092C331.416 345.68 331.624 349.345 331.204 353.158C330.565 358.898 330.179 364.675 329.707 370.419C330.145 372.673 329.641 374.651 328.205 376.454C326.165 379.043 324.909 381.988 324.496 385.261C324.991 386.246 324.4 387.176 324.223 388.085C323.621 391.129 324.539 393.21 327.405 394.638C330.511 396.187 332.418 394.129 333.895 392.322C336.054 389.679 338.566 387.642 341.347 385.806L341.376 385.679C341.597 385.615 341.688 385.482 341.623 385.26C343 382.883 344.887 380.827 345.665 378.076C346.588 374.71 346.695 374.74 349.476 377.171C355.148 380.675 361.093 383.799 366.381 387.798C369.507 390.152 373.81 391.02 375.676 395.263C376.35 396.789 378.889 397.857 381.012 396.895C383.692 395.691 385.051 391.928 383.805 389.486C383.154 388.185 382.395 386.854 381.047 386.059C374.911 379.847 366.826 376.299 359.787 370.8C360.5 370.665 360.896 370.48 361.274 370.525C361.887 370.628 362.494 370.877 363.094 371.065C366.478 370.244 370.029 370.463 373.153 371.368C376.597 372.364 379.95 371.651 383.304 371.973C385.905 372.226 388.369 372.576 390.749 373.515C393.022 374.423 394.8 373.745 396.139 372.014C397.628 370.123 396.613 368.321 395.225 366.929C393.191 364.899 390.8 363.236 387.993 362.382C385.871 361.728 383.714 361.14 381.575 360.528C381.169 360.611 380.752 360.798 380.392 360.731C374.697 359.653 368.993 358.887 363.18 358.69C361.178 358.604 359.084 358.837 357.168 358.369C354.403 357.718 351.711 356.77 351.004 353.3C350.176 349.262 347.482 345.849 346.954 341.698C345.463 341.124 345.394 339.64 344.919 338.446Z" fill="#F800A2"/>
<path d="M324.494 385.28C324.907 382.007 326.164 379.062 328.204 376.473C329.637 374.649 330.141 372.672 329.705 370.438C328.202 371.17 328.061 372.842 327.163 374.01C323.678 378.507 318.485 379.698 313.462 381.14C310.7 381.939 307.636 381.214 304.942 382.689C304.273 383.047 303.492 383.127 303.556 384.156C303.623 385.019 304.175 385.543 304.891 385.843C306.104 386.341 307.379 386.626 308.706 386.408C313.931 385.525 319.248 385.751 324.515 385.278L324.494 385.28Z" fill="#032363"/>
<path d="M330.021 342.091C329.967 341.351 329.93 340.588 329.875 339.848C325.145 334.385 318.572 330.806 314.327 324.817C313.332 323.406 311.623 323.145 309.908 323.423C311.501 327.237 313.333 330.945 315.535 334.408C317.315 337.21 319.566 339.529 323.123 340.203C325.452 340.65 327.714 341.456 330.021 342.091Z" fill="#032363"/>
<path d="M243.656 368.309C249.954 370.01 256.476 370.445 262.872 371.679C265.497 372.179 268.102 372.888 270.697 373.494C270.853 369.729 268.653 368.109 265.278 367.189C257.909 365.162 250.705 365.169 243.658 368.33L243.656 368.309Z" fill="#032363"/>
<path d="M261.69 383.919C259.478 383.399 257.241 383.253 254.782 383.565C255.461 384.925 256.805 385.286 257.861 385.862C262.885 388.707 266.924 392.688 271.003 396.643C274.393 393.855 274.515 393.014 271.212 389.746C268.531 387.077 265.445 384.905 261.69 383.919Z" fill="#032363"/>
<path d="M358.177 98.7767C358.431 98.4194 358.685 98.0622 358.921 97.7275C356.122 93.7037 351.834 91.7576 347.326 91.5321C338.938 91.1211 330.544 91.8707 322.646 95.2418C324.13 96.1474 325.759 94.8218 327.247 95.5613C327.567 95.4459 327.865 95.3121 328.185 95.1967C337.003 92.4985 345.58 94.1537 354.144 96.4938L354.103 96.498C354.691 96.3554 355.203 96.4898 355.489 97.0613L355.424 97.0266C355.855 96.9828 356.139 97.1196 356.226 97.5664L356.181 97.5296C356.832 97.4013 357.324 97.5378 357.502 98.2653L357.413 98.2122C357.88 98.1026 358.188 98.2784 358.259 98.7683L358.177 98.7767Z" fill="#032363"/>
<path d="M344.914 338.445C345.391 339.66 345.458 341.124 346.949 341.697C350.375 337.641 352.462 333.266 351.535 327.643C350.897 323.835 350.271 319.942 350.537 316.042C348.461 319.091 348.825 322.658 348.932 325.94C349.088 330.73 347.949 334.822 344.894 338.447L344.914 338.445Z" fill="#032363"/>
<path d="M37.6046 214.354C41.8863 212.573 46.2691 210.967 50.4435 208.948C55.2113 206.641 60.0701 204.614 65.1188 203.024C56.7503 204.227 48.5013 205.583 41.2103 210.425C39.5579 211.525 38.9383 213.183 37.6046 214.354Z" fill="#032363"/>
<path d="M80.8988 275.222C77.6056 273.672 74.355 272.946 70.5729 273.724C63.5387 275.185 56.3015 274.657 49.15 274.969C47.6417 275.04 46.1274 275.256 44.6253 275.388C56.7374 278.113 68.8028 274.484 80.8988 275.222Z" fill="#032363"/>
<path d="M363.105 371.064C362.504 370.876 361.897 370.627 361.285 370.524C360.905 370.459 360.508 370.644 359.797 370.799C366.836 376.298 374.922 379.846 381.058 386.058C380.687 381.415 377.358 379.309 373.721 377.441C370.041 375.558 366.041 374.204 363.105 371.064Z" fill="#032363"/>
<path d="M349.478 377.174C346.696 374.743 346.59 374.713 345.667 378.079C344.91 380.828 343.002 382.886 341.625 385.263C345.892 385.368 348.786 382.402 349.478 377.174Z" fill="#032363"/>
<path d="M281.007 132.056C283.892 132.052 285.854 130.527 287.299 128.206C289.276 125.001 291.144 121.746 291.392 117.868C287.078 121.973 284.87 127.603 281.007 132.056Z" fill="#032363"/>
<path d="M218.456 332.928C219.044 329.533 216.883 329.111 214.389 329.282C210.534 329.549 206.727 330.288 202.844 329.875C206.368 331.857 210.218 332.357 214.203 332.345C215.615 332.347 217.217 331.563 218.477 332.926L218.456 332.928Z" fill="#032363"/>
<path d="M363.192 358.686C368.984 358.885 374.709 359.649 380.404 360.728C380.763 360.795 381.201 360.605 381.587 360.524C376.944 358.159 372.228 356.297 366.833 357.55C365.576 357.843 364.333 358.073 363.192 358.686Z" fill="#032363"/>
<path d="M280.388 132.593C280.618 132.404 280.825 132.196 281.055 132.007C280.825 132.196 280.618 132.404 280.388 132.593Z" fill="#032363"/>
<path d="M306.083 232.615C300.65 237.765 294.496 241.746 287.625 244.598C287.438 244.39 287.228 244.162 287.04 243.954C289.487 241.281 291.911 238.591 294.406 235.976C300.161 229.923 305.876 223.874 309.692 216.319C311.453 212.826 311.236 209.679 309.036 208.06C306.455 206.168 303.213 206.746 300.422 209.909C294.263 216.893 286.765 221.736 277.519 224.105C281.26 219.872 284.98 215.641 288.721 211.409C287.964 211.32 287.212 211.272 286.488 211.097C284.833 210.747 283.258 210.162 283.038 208.216C282.837 206.248 284.658 206.188 285.826 205.634C290.853 203.217 294.533 199.405 297.352 194.686C294.275 189.758 289.566 188.58 285.743 192.614C280.081 198.575 272.974 201.348 265.524 203.824C258.116 206.296 250.794 209.008 243.439 211.599C242.336 211.98 241.155 212.204 239.617 211.987C244.156 208.253 248.675 204.521 253.212 200.767C253.918 199.349 255.239 198.655 256.528 197.862C262.196 194.406 268.091 191.342 273.412 187.343C273.123 180.847 270.072 178.216 263.542 178.921C258.676 179.457 254.343 181.348 250.349 184.115C242.418 189.602 233.715 193.428 224.536 196.245C223.731 196.493 222.874 196.642 221.395 197C223.722 193.967 226.669 192.528 228.826 190.279C228.114 189.606 226.372 189.824 226.673 188.302C226.946 186.908 228.347 186.392 229.519 185.88C237.216 182.57 243.855 177.65 250.443 172.63C248.049 169.311 244.837 168.353 240.774 168.621C231.576 169.225 223.267 172.637 215.012 176.169C208.289 179.048 201.379 181.117 194.116 181.959C191.921 182.223 189.769 182.09 187.625 181.832C184.618 181.454 182.169 182.282 180.577 184.785C178.987 187.308 179.354 190.087 180.846 192.504C184.211 198.003 189.617 199.711 195.659 199.512C198.369 199.423 198.976 199.672 198.151 202.572C196.221 209.293 200.751 214.819 207.744 214.584C210.227 214.498 212.694 214.061 215.16 213.603C216.464 213.367 217.319 213.197 217.047 215.006C215.571 224.746 223.74 232.367 236.588 229.901C237.749 229.679 238.93 229.456 240.093 229.255C241.238 229.076 242.401 228.875 243.545 228.697C246.767 227.52 249.969 226.345 253.194 225.189C250.543 228.918 247.853 232.257 247.701 236.87C248.402 240.279 250.372 241.674 253.914 241.189C257.6 240.69 261.303 240.563 263.364 244.682C266.787 244.044 269.986 242.642 273.899 241.312C271.072 245.349 267.981 248.418 267.8 252.951C273.922 252.723 275.599 254.106 275.827 259.592C283.915 258.48 290.94 254.701 298.079 251.013C295.334 254.42 292.586 257.806 289.861 261.211C292.047 262.086 293.961 263.135 294.159 265.89C294.319 268.069 293.095 269.499 291.749 270.961C289.522 273.341 286.842 275.354 285.247 278.643C288.963 278.846 291.689 277.077 294.68 276.276C297.874 275.434 301.036 274.885 303.975 277.03C318.762 268.547 329.662 256.751 334.958 240.306C335.935 237.265 336.808 234.028 335.113 230.845C334.6 229.882 334.238 228.78 332.873 228.835C331.511 228.912 331.379 230.064 330.898 231.045C328.388 236.147 325.878 241.249 321.38 244.979C321.388 245.061 321.399 245.163 321.343 245.231C321.327 245.274 321.245 245.283 321.185 245.309C321.259 245.219 321.351 245.106 321.425 245.016C323.173 238.956 325.986 233.16 326.41 226.737C326.596 223.881 327.067 220.975 326.03 218.139C325.601 216.981 325.104 215.975 323.927 215.432C321.754 220.79 318.822 225.624 314.582 229.638C312.177 231.912 309.463 233.182 306.058 232.576L306.083 232.615Z" fill="#004DF8"/>
<path d="M165.649 274.352C178.421 282.727 191.226 291.015 203.926 299.501C208.113 302.286 212.719 304.49 216.386 308.073L216.34 308.036C217.086 307.816 217.576 308.346 218.031 308.735C224.425 314.216 231.687 318.449 238.517 323.326C239.839 324.269 241.178 325.189 242.933 324.887C241.417 310.045 239.368 295.257 238.779 280.341C238.72 278.752 238.063 278.612 236.885 278.463C230.212 277.567 223.512 277.419 216.8 277.563C211.87 277.67 207.842 276.65 205.822 271.512C204.891 269.1 203.2 266.973 202.431 264.524C201.699 262.237 200.681 261.823 198.48 262.233C193.161 263.208 187.806 263.421 182.438 262.496C177.61 264.209 172.615 264.903 167.52 265.027C165.451 265.093 163.503 265.332 162.658 267.427C161.844 269.415 162.897 271.193 164.078 272.792C164.513 273.39 165.122 273.867 165.653 274.393L165.649 274.352Z" fill="#42E900"/>
<path d="M170.633 247.102C176.743 246.15 182.812 244.995 188.634 242.849C191.655 241.735 194.262 240.02 195.854 237.103C196.429 236.03 196.824 234.809 195.926 233.74C195.1 232.768 193.928 232.473 192.654 232.809C186.835 234.374 181.012 232.853 175.185 232.928C173.214 232.942 173.654 231.551 174.073 230.369C175.13 227.3 176.378 224.273 177.284 221.157C179.623 213.152 175.406 207.843 167.01 208.365C160.407 208.767 153.807 209.189 147.184 208.578C143.957 208.284 142.333 207.227 142.476 203.546C142.662 198.66 139.286 195.689 134.262 196.096C127.88 196.621 121.523 197.391 115.094 197.464C113.518 197.48 111.893 198.038 110.398 198.646C109.141 199.146 107.729 199.746 107.682 201.532C107.653 203.275 108.582 204.444 109.985 205.171C111.213 205.812 112.568 206.275 113.931 206.613C118.469 207.747 123.046 208.649 127.762 208.48C129.478 208.409 130.073 209.157 130.232 210.715C130.856 216.824 134.831 219.962 140.249 221.793C144.936 223.367 149.799 223.619 154.693 223.763C158.879 223.897 158.871 224.022 157.563 227.884C155.728 233.29 155.721 238.51 158.967 243.462C160.31 242.787 161.615 241.95 163.018 241.455C168.368 239.565 170.842 241.427 170.631 247.082L170.633 247.102Z" fill="#004DF8"/>
<path d="M251.782 258.369C243.153 253.363 235.38 247.173 227.386 241.275C223.077 238.108 222.526 237.792 218.673 241.539C214.348 245.748 208.505 247.688 204.121 251.717C207.17 256.979 208.147 263.093 211.242 268.392C212.902 271.227 214.839 271.9 217.8 271.827C224.615 271.673 231.428 271.705 238.226 272.609C245.297 273.548 252.476 273.501 259.487 274.86C264.653 275.847 269.822 275.633 275.003 275.748C271.147 270.92 265.443 268.331 260.807 264.411C258.171 262.173 254.684 260.559 251.782 258.369Z" fill="#42E900"/>
<path d="M170.65 247.106C170.861 241.45 168.388 239.589 163.037 241.479C161.635 241.974 160.329 242.811 158.986 243.486C156.215 246.439 153.083 248.497 148.512 247.45C148.963 245.768 150.215 244.812 151.51 243.873C154.486 241.706 155.319 239.488 153.985 237.407C152.699 235.384 150.457 235.384 147.073 237.219C144.536 238.595 141.99 240.097 138.884 239.77C136.228 240.393 133.55 240.603 130.831 240.61C130.001 240.611 128.953 240.511 128.515 239.685C127.981 238.724 129.004 238.165 129.479 237.537C130.193 236.594 131.017 235.723 131.797 234.815C133.45 232.908 134.833 230.799 132.792 228.5C130.661 226.128 128.295 227.155 126.132 228.742C124.122 230.21 122.194 231.856 119.745 232.478C117.781 232.967 115.497 233.779 114.043 231.732C112.779 229.934 112.453 227.751 113.924 225.695C114.25 225.02 114.596 224.343 114.878 223.652C116.348 220.147 114.638 217.234 110.838 217.227C106.126 217.229 101.387 217.587 96.6731 217.776C93.6017 218.399 90.4973 218.901 87.4838 219.683C85.2797 220.259 82.2302 220.487 82.4293 223.656C82.6413 227.156 85.8165 227.144 88.3631 227.278C93.0185 227.53 97.6812 227.243 102.273 226.465C104.539 226.09 105.582 226.336 105.525 229.035C105.385 234.579 108.064 238.45 113.262 240.552C113.833 240.659 114.405 240.767 114.976 240.875C118.115 240.1 120.764 240.017 121.9 244.024C122.38 245.673 124.302 246.41 125.911 247.116C129.039 248.476 132.313 248.413 135.51 247.798C138.544 247.22 139.447 248.33 139.047 251.125C140.492 255.722 144.063 256.332 148.162 256.019C149.955 256.086 152.406 253.869 153.378 256.67C154.627 260.168 157.074 261.969 160.219 263.286C170.022 264.133 178.433 260.296 186.56 255.514C187.09 255.211 187.866 254.884 187.577 254.085C187.232 253.146 186.336 253.32 185.611 253.539C183.958 254.018 182.261 254.48 180.67 255.16C175.899 257.239 170.875 257.853 165.759 258.166C164.665 258.236 163.582 258.201 162.564 257.787C161.328 257.27 160.121 256.627 160.009 255.126C159.897 253.418 161.512 253.585 162.527 253.151C165.774 251.806 168.804 250.172 170.683 247.019L170.65 247.106Z" fill="#FDFDFD"/>
<path d="M251.77 258.365C254.692 260.553 258.158 262.169 260.795 264.407C265.43 268.327 271.134 270.916 274.99 275.744C276.433 276.654 277.082 277.934 276.864 279.655C276.888 280.709 276.285 281.516 275.835 282.39C277.419 286.724 279.059 287.738 283.443 286.961C287.544 286.254 291.391 284.889 295.041 282.82C297.162 281.631 299.217 280.614 302.019 281.013C304.758 281.397 304.225 278.821 303.977 277.003C301.036 274.837 297.876 275.407 294.682 276.249C291.689 277.03 288.963 278.798 285.249 278.616C286.844 275.326 289.522 273.294 291.752 270.934C293.118 269.469 294.323 268.062 294.161 265.863C293.965 263.128 292.05 262.059 289.863 261.183C287.911 261.382 286.147 262.203 284.386 263.045C280.922 264.702 277.29 265.734 273.083 265.809C274.092 263.491 274.952 261.539 275.809 259.567C275.581 254.081 273.904 252.698 267.782 252.926C265.91 253.51 264.028 253.784 261.868 253.569C262.536 250.559 264.122 247.789 263.348 244.677C261.289 240.578 257.584 240.686 253.898 241.185C250.335 241.671 248.386 240.274 247.685 236.866C246.03 234.279 245.718 231.017 243.549 228.69C242.405 228.869 241.242 229.07 240.098 229.248C234.146 237.247 238.43 249.716 248.019 251.724C250.523 252.257 251.435 253.055 251.187 255.503C251.094 256.424 251.566 257.391 251.786 258.322L251.77 258.365Z" fill="#FDFDFD"/>
<path d="M353.167 214.784C353.361 208.757 352.873 202.759 352.2 196.779C350.414 187.619 347.806 178.75 343.05 170.596C342.196 169.15 341.603 167.408 339.537 168.115C337.571 168.791 337.601 170.715 337.945 172.254C338.884 176.363 340.166 180.376 341.125 184.483C342.072 188.467 343 192.474 342.802 196.636C345.032 211.157 341.928 225.288 339.513 239.453C337.99 248.328 334.524 256.675 331.998 265.279C332.477 266.515 331.364 268.43 333.067 269.044C334.684 269.625 335.863 268.159 337.016 267.255C339.284 265.471 340.695 263.028 341.996 260.514C348.448 248.073 350.937 234.626 352.377 220.871C352.585 218.841 352.875 216.802 353.144 214.765L353.167 214.784Z" fill="#FDFDFD"/>
<path d="M275.838 282.396C276.288 281.521 276.889 280.694 276.866 279.661C272.544 279.624 268.327 280.818 263.926 280.417C256.948 279.779 250.026 278.681 242.963 278.84C240.85 278.889 240.773 279.352 241.041 281.168C243.032 295.175 244.899 309.194 246.81 323.23C249.28 320.783 251.276 317.97 253.008 314.998C256.191 309.579 260.184 304.762 263.995 299.797C266.838 295.51 268.719 290.555 272.702 287.064C274.208 285.751 273.698 283.193 275.838 282.396Z" fill="#42E900"/>
<path d="M246.819 323.23C244.91 309.215 243.04 295.175 241.05 281.168C240.781 279.352 240.858 278.889 242.971 278.84C250.032 278.66 256.956 279.779 263.935 280.417C268.336 280.818 272.553 279.624 276.875 279.661C277.116 277.958 276.444 276.66 275.001 275.75C269.82 275.634 264.654 275.869 259.485 274.862C252.475 273.503 245.275 273.551 238.224 272.611C231.426 271.707 224.613 271.674 217.799 271.829C214.837 271.902 212.9 271.229 211.24 268.394C208.125 263.097 207.168 256.981 204.119 251.719C202.219 252.43 200.52 253.472 198.995 254.808C199.39 255.824 199.761 256.822 200.156 257.838C200.468 258.656 200.5 259.378 199.341 259.413C195.907 259.534 192.514 260.666 189.047 259.858C186.852 260.723 184.636 261.591 182.438 262.435C187.806 263.36 193.162 263.148 198.481 262.172C200.681 261.762 201.72 262.174 202.431 264.463C203.198 266.891 204.891 269.039 205.822 271.451C207.824 276.612 211.87 277.609 216.8 277.502C223.512 277.358 230.212 277.506 236.885 278.402C238.063 278.551 238.723 278.712 238.779 280.28C239.368 295.196 241.418 309.984 242.933 324.826C244.504 324.956 245.871 324.527 246.814 323.189L246.819 323.23Z" fill="#F800A2"/>
<path d="M79.1088 256.738C73.3585 256.742 67.6711 256.347 62.0535 254.805C53.7237 252.524 45.2139 251.732 36.5876 252.443C35.106 252.573 33.2211 252.412 32.9679 254.406C32.7206 256.253 34.1407 257.352 35.6855 258.044C36.7735 258.534 37.9128 258.916 39.0806 259.17C47.3375 260.94 55.617 262.729 63.9066 264.414C67.9136 265.229 71.902 264.844 75.8502 263.863C76.4767 263.696 77.0928 263.426 77.7298 263.361C82.1065 262.916 82.4735 262.444 81.4728 258.134C81.0242 257.807 80.5756 257.479 80.1269 257.152C79.6954 257.196 79.2987 257.174 79.1437 256.672L79.1499 256.734L79.1088 256.738Z" fill="#FDFDFD"/>
<path d="M317.307 175.904C316.833 171.665 314.401 169.198 311.801 167.122C301.628 158.98 290.581 152.46 277.555 149.931C275.481 149.541 272.396 148.819 271.722 150.959C271.095 152.949 274.301 153.845 276 154.625C284.89 158.734 293.493 163.287 301.752 168.537C304.394 170.215 306.934 172.111 309.467 173.946C310.521 174.709 311.591 175.636 311.77 176.985C312.062 179.026 313.134 179.974 315.08 179.507C317.268 178.973 317.153 177.038 317.287 175.906L317.307 175.904Z" fill="#004DF8"/>
<path d="M273.389 187.388C268.066 191.367 262.173 194.452 256.505 197.907C255.195 198.703 253.896 199.394 253.189 200.812C253.689 203.061 255.405 203.197 257.244 203.113C261.172 202.942 264.532 201.089 267.933 199.417C274.93 195.972 281.164 191.548 285.757 185.095C286.991 183.354 287.822 181.53 287.14 179.321C286.863 178.438 286.375 177.721 285.441 177.526C284.462 177.294 283.789 177.818 283.289 178.614C280.816 182.449 277.125 184.937 273.433 187.404L273.389 187.388Z" fill="#FDFDFD"/>
<path d="M139.002 251.21C139.402 248.414 138.5 247.305 135.465 247.882C132.268 248.497 128.974 248.563 125.866 247.201C124.258 246.494 122.312 245.739 121.855 244.108C120.699 240.104 118.07 240.184 114.931 240.959C119.491 244.742 119.304 248.199 114.46 251.591C111.978 253.314 109.594 255.172 107.234 257.069C106.503 257.64 105.592 258.479 106.032 259.532C106.546 260.701 107.737 260.166 108.641 260.074C117.637 259.119 126.258 256.73 134.496 253.035C135.965 252.368 137.507 251.817 139.002 251.21Z" fill="#004DF8"/>
<path d="M250.475 172.666C243.888 177.685 237.25 182.627 229.552 185.915C228.377 186.408 226.978 186.943 226.706 188.338C226.402 189.84 228.126 189.644 228.859 190.315C236.193 189.963 242.509 186.96 248.231 182.608C253.413 178.664 258.453 174.548 263.538 170.468C264.113 169.996 264.636 169.425 265.07 168.801C265.595 168.043 265.71 167.141 265.134 166.371C264.485 165.505 263.64 165.777 262.778 166.072C258.3 167.562 254.491 170.311 250.475 172.666Z" fill="#FDFDFD"/>
<path d="M306.107 232.616C309.491 233.225 312.226 231.953 314.631 229.678C318.871 225.664 321.803 220.83 323.976 215.472C324.75 211.665 325.756 207.897 325.167 203.959C324.959 202.53 324.863 200.987 323.093 200.732C321.219 200.466 320.317 201.801 319.892 203.335C318.025 210.257 315.307 216.788 311.488 222.893C310.115 225.104 308.627 227.202 306.871 229.121C305.954 230.104 305.324 231.246 306.109 232.636L306.107 232.616Z" fill="#FDFDFD"/>
<path d="M297.373 194.706C294.552 199.405 290.874 203.238 285.847 205.654C284.679 206.208 282.838 206.271 283.059 208.237C283.26 210.205 284.854 210.768 286.509 211.117C287.231 211.272 288.004 211.317 288.742 211.429C296.073 209.627 303.319 201.496 304.218 194.031C304.355 192.94 304.267 191.872 303.69 190.895C303.238 190.133 302.653 189.488 301.675 189.464C300.635 189.445 300.145 190.137 299.818 190.999C299.301 192.439 298.604 193.753 297.375 194.727L297.373 194.706Z" fill="#FDFDFD"/>
<path d="M113.886 225.765C112.412 227.799 112.739 229.983 114.004 231.801C115.438 233.851 117.745 233.057 119.707 232.547C122.176 231.923 124.084 230.279 126.093 228.812C128.259 227.245 130.622 226.197 132.754 228.57C134.813 230.846 133.411 232.977 131.758 234.885C130.979 235.792 130.175 236.661 129.441 237.606C128.945 238.236 127.922 238.796 128.477 239.754C128.933 240.557 129.963 240.68 130.793 240.679C133.489 240.653 136.189 240.462 138.846 239.84C136.551 236.075 134.968 232.156 135.705 227.586C136.014 225.732 134.484 226.198 133.5 226.319C128.233 226.999 122.942 227.226 117.661 226.541C116.378 226.381 115.14 226.052 113.868 225.787L113.886 225.765Z" fill="#004DF8"/>
<path d="M212.409 172.973C222.406 170.031 232.302 166.912 240.269 159.744C241.161 158.928 242.79 158.203 241.677 156.659C240.639 155.232 239.226 156.038 238.227 156.824C231.578 162.056 223.817 165.144 216.217 168.588C214.392 169.416 212.706 170.602 210.961 171.608C211.443 172.056 211.948 172.523 212.429 172.971L212.409 172.973Z" fill="#FDFDFD"/>
<path d="M160.152 263.373C157.007 262.056 154.561 260.254 153.311 256.756C152.319 253.957 149.888 256.172 148.095 256.106C148.437 258.432 147.74 260.554 146.811 262.637C146.066 264.287 146.63 264.726 148.292 264.537C152.235 264.115 156.184 263.755 160.152 263.373Z" fill="#004DF8"/>
<path d="M189.033 259.878C192.5 260.686 195.893 259.554 199.327 259.433C200.465 259.4 200.454 258.676 200.142 257.859C199.747 256.842 199.376 255.845 198.981 254.828C195.665 256.512 192.349 258.195 189.033 259.878Z" fill="#4CE400"/>
<path d="M212.391 172.978C211.909 172.529 211.425 172.061 210.923 171.615C210.044 171.953 209.303 172.421 208.948 173.617C210.249 173.755 211.382 173.867 212.393 172.998L212.391 172.978Z" fill="#4CE400"/>
<path d="M79.1172 256.678C79.2723 257.18 79.6689 257.202 80.1005 257.158C79.7734 257.005 79.4442 256.831 79.1172 256.678Z" fill="#004DF8"/>
<path d="M216.374 308.075C215.144 308.842 214.08 307.977 213.029 307.648C202.84 304.438 193.273 299.797 183.804 294.898C181.874 293.892 179.91 292.953 177.782 292.444C176.974 292.257 176.031 291.773 175.406 292.768C174.906 293.565 175.555 294.224 175.93 294.849C176.759 296.256 177.861 297.49 179.184 298.453C188.772 305.536 199.332 310.345 211.204 312.142C211.733 312.233 212.278 312.282 212.818 312.289C216.476 312.331 217.159 311.496 216.306 308.02L216.351 308.056L216.374 308.075Z" fill="#FDFDFD"/>
<path d="M399.921 235.61C399.661 234.684 399.478 233.708 399.117 232.813C398.578 231.397 398.003 229.633 396.121 229.907C393.997 230.247 395.018 232.111 394.983 233.399C394.924 235.062 394.481 236.619 393.563 237.996C389.321 244.434 385.653 251.207 381.918 257.946C381.077 259.461 380.08 260.887 378.792 262.095C378.033 262.794 377.43 263.601 378.119 264.649C378.708 265.542 379.689 265.795 380.714 265.67C382.646 265.473 384.181 264.448 385.545 263.17C388.35 260.544 390.523 257.423 392.296 254.053C394.471 249.938 396.601 245.786 398.665 241.6C399.596 239.745 400.246 237.773 399.901 235.612L399.921 235.61Z" fill="#FDFDFD"/>
<path d="M415.868 230.609C414.993 227.943 415.614 224.462 413.571 224.587C411.035 224.762 412.689 227.949 412.419 229.778C411.012 238.973 408.291 247.7 403.067 255.502C401.573 257.745 399.106 258.804 396.904 260.208C395.988 260.799 394.31 261.238 394.935 262.687C395.398 263.758 396.914 263.356 397.929 263.128C401.723 262.266 405.193 260.671 407.518 257.41C413.38 249.151 415.153 239.671 415.886 230.586L415.868 230.609Z" fill="#FDFDFD"/>
<path d="M368.547 255.84C370.848 255.399 372.788 254.27 374.38 252.576C379.421 247.258 381.723 240.727 382.935 233.686C383.027 233.159 382.991 232.603 382.916 232.072C382.767 230.824 382.278 229.693 380.905 229.46C379.575 229.243 378.997 230.296 378.607 231.35C376.956 235.723 374.582 239.713 372.25 243.72C370.364 246.998 368.545 250.331 365.003 252.244C364.334 252.602 363.704 253.143 363.814 254.022C363.96 255.043 364.801 255.351 365.62 255.641C366.568 255.979 367.526 256.006 368.504 255.824L368.547 255.84Z" fill="#FDFDFD"/>
<path d="M362.655 232.521C362.509 231.086 362.468 230.076 361.464 229.805C360.333 229.505 359.957 230.496 359.708 231.309C356.948 240.061 352.289 247.908 348.025 255.964C347.154 257.606 345.422 259.957 347.221 261.1C348.731 262.065 350.121 259.417 351.249 258.06C356.929 251.268 360.909 243.677 362.333 234.853C362.485 233.906 362.594 232.942 362.655 232.521Z" fill="#FDFDFD"/>
<path d="M333.835 340.546C336.111 339.258 336.512 337.084 336.52 334.515C337.9 335.017 338.202 337.575 340.005 336.522C341.807 335.469 341.465 333.536 341.291 331.834C341.092 329.887 340.548 328.016 339.464 326.345C338.875 325.452 338.227 324.399 336.888 324.908C335.728 325.337 335.814 326.384 335.917 327.389C336.015 328.352 336.113 329.316 336.218 330.341C334.699 330.309 334.818 329.033 334.291 328.341C333.551 327.401 332.924 326.139 331.517 326.593C330.149 327.022 330.15 328.451 330.207 329.626C330.371 333.462 330.378 337.397 334.006 339.99C334.074 340.045 333.964 340.388 333.923 340.599L333.878 340.562L333.835 340.546Z" fill="#FDFDFD"/>
<path d="M353.712 292.129C359.856 291.297 366.84 285.078 367.925 279.437C368.1 278.508 367.977 277.506 367.858 276.544C367.774 275.724 367.179 275.184 366.337 275.063C365.451 274.925 364.753 275.41 364.561 276.175C363.258 281.714 358.989 285.047 355.285 288.821C354.438 289.673 353.393 290.629 353.692 292.131L353.712 292.129Z" fill="#FDFDFD"/>
<path d="M236.495 350.647C236.606 351.733 236.627 352.953 237.947 353.275C239.16 353.566 240.127 352.867 240.694 351.918C242.698 348.566 243.614 344.931 242.904 341.027C242.678 339.828 242.178 338.594 240.686 338.622C239.36 338.653 238.999 339.787 238.781 340.907C238.14 344.183 236.244 347.172 236.518 350.665L236.495 350.647Z" fill="#FDFDFD"/>
<path d="M231.641 344.701C230.712 344.961 230.179 345.636 229.934 346.49C229.491 348.047 229.153 349.614 228.773 351.185C228.543 352.182 228.477 353.162 229.608 353.669C230.567 354.11 231.522 353.909 232.374 353.305C234.1 352.115 234.526 346.727 233.064 345.219C232.668 344.803 232.23 344.579 231.641 344.701Z" fill="#FDFDFD"/>
<path d="M379.727 142.924C374.964 144.878 369.571 144.515 364.842 147.005C362.204 148.412 360.055 145.669 357.621 145.005C357.75 140.166 358.742 135.446 359.968 130.785C360.654 128.147 360.906 125.532 360.134 122.856C362.846 121.151 365.81 120.083 368.98 119.616C380.979 120.012 388.166 125.537 391.49 136.944C392.478 140.323 391.364 142.217 387.861 143.091C385.192 141.353 382.575 141.744 379.725 142.903L379.727 142.924ZM368.115 131.075C368.296 133.046 371.747 135.532 374.044 135.258C375.707 135.068 376.625 134.105 376.388 132.389C376.138 130.55 372.433 128.627 369.935 128.964C368.57 129.02 368 129.741 368.115 131.075Z" fill="#4CE400"/>
<path d="M328.213 95.1756C327.893 95.291 327.595 95.4248 327.275 95.5402C323.285 98.5555 318.99 101.022 314.237 102.665C312.954 103.106 311.761 104.035 310.736 104.968C309.312 106.272 308.466 107.953 309.413 109.908C310.356 111.821 312.144 111.846 313.921 111.562C318.579 110.819 322.956 109.36 326.847 106.603C327.524 106.12 328.01 105.18 329.175 106.428C332.511 110.025 335.46 110.036 339.22 106.795C339.62 106.444 340.038 106.07 340.393 105.682C342.069 103.792 342.837 104.605 343.288 106.589C343.404 107.116 343.521 107.642 343.719 108.161C344.526 110.378 345.896 111.999 348.457 111.863C350.997 111.729 352.192 110.013 352.81 107.734C353.823 104.027 354.47 103.858 357.192 106.729C358.215 107.806 359.212 109.03 359.848 110.374C360.434 111.64 361.097 112.443 362.494 112.094C364.215 111.67 364.566 110.226 364.313 108.76C363.758 105.565 362 102.989 359.83 100.641C359.27 100.035 358.307 99.76 358.164 98.7597L358.246 98.7514C357.724 98.9287 357.452 98.7077 357.4 98.1952L357.489 98.2484C356.8 98.4219 356.415 98.1089 356.168 97.5127L356.213 97.5495C355.782 97.5933 355.516 97.4339 355.411 97.0097L355.476 97.0444C354.887 97.1665 354.426 96.9233 354.088 96.4605L354.129 96.4564C349.98 96.6916 345.88 97.8126 341.655 96.6885C340.032 96.2527 338.281 97.1971 336.877 98.2926C336.165 98.8413 335.445 99.5152 334.802 98.2964C333.362 95.5843 330.838 95.2609 328.17 95.1592L328.213 95.1756Z" fill="#FDFDFD"/>
<path d="M324.587 118.471C319.956 117.243 315.556 118.063 311.387 120.144C308.821 121.44 307.384 123.637 307.127 126.604C306.14 137.475 315.436 145.561 325.629 142.703C324.757 141.486 324.142 139.933 322.981 139.14C319.259 136.639 319.486 132.971 319.755 129.298C319.871 127.588 320.552 125.923 320.67 124.234C320.846 121.482 322.018 119.54 324.587 118.471Z" fill="#FDFDFD"/>
<path d="M357.638 144.998C357.767 140.158 358.759 135.439 359.986 130.778C360.671 128.14 360.924 125.525 360.152 122.849C356.588 120.477 354.579 120.929 352.572 124.655C349.307 130.703 347.488 137.081 348.654 144.026C348.855 145.186 349.12 146.36 349.484 147.483C350.054 149.207 350.941 150.774 352.982 150.835C355.187 150.881 356.165 149.269 356.85 147.439C357.142 146.643 357.389 145.81 357.657 144.975L357.638 144.998Z" fill="#F800A2"/>
<path d="M324.593 118.47C322.024 119.539 320.852 121.481 320.677 124.233C320.561 125.943 319.879 127.607 319.761 129.297C319.493 132.97 319.263 136.618 322.988 139.139C324.146 139.912 324.763 141.486 325.635 142.702C327.872 143.469 329.74 143.051 331.111 141.027C331.791 137.726 331.491 134.381 331.691 131.046C331.916 127.357 331.981 123.726 329.663 120.544L329.731 120.599C329.469 120.274 329.185 119.93 328.924 119.604C327.474 119.234 326.045 118.861 324.595 118.491L324.593 118.47Z" fill="#032363"/>
<path d="M329.66 120.549C331.978 123.731 331.915 127.382 331.688 131.051C331.488 134.385 331.789 137.731 331.108 141.031C337.962 138.823 341.264 133.744 339.087 128.29C337.415 124.11 334.028 121.637 329.66 120.549Z" fill="#FDFDFD"/>
<path d="M328.922 119.605C329.183 119.931 329.468 120.275 329.729 120.6C329.468 120.275 329.183 119.931 328.922 119.605Z" fill="#FDFDFD"/>
<path d="M33.1284 248.612C35.9412 249.321 38.2695 248.131 40.6808 247.348C45.2221 245.871 49.5693 243.917 53.6297 241.392C54.2743 240.995 55.0422 240.586 54.8247 239.676C54.6051 238.745 53.6717 238.55 52.9919 238.806C46.0523 241.396 38.9827 243.73 33.1284 248.612Z" fill="#FDFDFD"/>
<path d="M403 157.555C403.095 157.669 403.187 157.763 403.282 157.878C403.276 157.817 403.265 157.714 403.261 157.673C403.193 157.618 403.088 157.608 403.002 157.575L403.021 157.553L403 157.555Z" fill="#004DF8"/>
<path d="M328.209 95.1746C330.858 95.2989 333.401 95.5997 334.841 98.3118C335.484 99.5306 336.204 98.8568 336.917 98.308C338.32 97.2125 340.072 96.2682 341.694 96.704C345.94 97.8259 350.019 96.707 354.168 96.4718C345.604 94.1317 337.027 92.4764 328.209 95.1746Z" fill="#004DF8"/>
<path d="M356.204 97.5247C356.431 98.123 356.837 98.4339 357.525 98.2604C357.367 97.5307 356.855 97.3963 356.204 97.5247Z" fill="#004DF8"/>
<path d="M354.103 96.4585C354.443 96.9418 354.901 97.1644 355.491 97.0423C355.184 96.4729 354.692 96.3364 354.103 96.4585Z" fill="#004DF8"/>
<path d="M357.407 98.2118C357.46 98.7243 357.731 98.9452 358.253 98.7679C358.182 98.278 357.894 98.1002 357.407 98.2118Z" fill="#004DF8"/>
<path d="M355.453 97.0015C355.559 97.4258 355.826 97.6057 356.256 97.5414C356.169 97.0945 355.883 96.9372 355.453 97.0015Z" fill="#004DF8"/>
<path d="M275.819 259.574C274.959 261.526 274.102 263.498 273.093 265.817C277.277 265.723 280.931 264.709 284.395 263.052C286.157 262.211 287.902 261.412 289.873 261.191C292.619 257.784 295.346 254.4 298.091 250.993C290.952 254.681 283.928 258.481 275.839 259.572L275.819 259.574Z" fill="#032363"/>
<path d="M263.355 244.677C264.13 247.788 262.544 250.559 261.876 253.568C264.036 253.784 265.92 253.53 267.789 252.926C267.992 248.41 271.061 245.323 273.888 241.287C269.955 242.618 266.755 244.021 263.353 244.656L263.355 244.677Z" fill="#032363"/>
<path d="M243.557 228.714C245.746 231.039 246.038 234.303 247.693 236.889C247.845 232.276 250.555 228.935 253.185 225.208C249.963 226.385 246.761 227.56 243.537 228.716L243.557 228.714Z" fill="#032363"/>
<path d="M321.443 245.037C321.443 245.037 321.277 245.241 321.203 245.331C321.263 245.304 321.345 245.296 321.361 245.253C321.396 245.187 321.386 245.085 321.398 245L321.443 245.037Z" fill="#032363"/>
<path d="M369.921 128.947C368.556 129.003 367.986 129.723 368.102 131.058C368.282 133.028 371.733 135.515 374.03 135.24C375.693 135.05 376.612 134.087 376.374 132.371C376.124 130.533 372.419 128.61 369.921 128.947Z" fill="#F800A2"/>
<path d="M38.3672 455.723C38.3672 443.382 42.0535 432.992 46.8787 421.599C55.4693 401.316 66.9859 384.329 84.0974 370.298C92.2695 363.597 100.894 358.998 110.638 355.209C112.674 354.417 108.023 361.453 107.698 362.057C104.914 367.227 107.706 363.016 109.709 361.013C111.674 359.048 117.557 355.772 118.337 353.043C118.426 352.731 105.75 354.73 105.067 354.745C100.248 354.848 95.4169 354.745 90.5971 354.745" stroke="#014DFB" stroke-width="3.33333" stroke-linecap="round"/>
<path d="M38.8438 465.7C39.2455 467.441 39.7056 469.188 39.9422 470.962C39.955 471.058 39.9933 471.801 39.9933 471.754C39.9933 470.898 39.9083 469.995 40.0444 469.148C40.2692 467.749 41.3685 465.143 43.212 465.24C44.128 465.288 44.1286 468.526 44.6425 469.097C45.0561 469.557 44.9976 469.077 45.1917 468.689C45.6377 467.797 46.6339 466.6 47.4652 466.057C48.4207 465.434 50.8537 464.572 51.7184 465.725C52.379 466.606 52.7836 467.821 52.868 468.919C52.8978 469.306 53.0527 470.519 53.3789 469.659C54.4034 466.958 56.2195 464.759 58.9988 463.81C60.1336 463.422 61.0877 463.401 62.2685 463.401C62.9525 463.401 63.8167 463.401 62.639 463.401C61.7242 463.401 58.3744 462.905 58.1686 464.346C57.8839 466.339 58.4896 468.519 60.1355 469.736C61.3319 470.62 63.0564 470.588 63.5586 468.97C63.9278 467.78 63.9571 466.581 64.5421 465.47C64.9762 464.645 65.5339 465.852 65.8959 466.262C66.94 467.443 67.9219 468.501 69.4339 469.021C70.1658 469.272 71.9687 469.784 72.6398 469.148C73.3004 468.523 73.7989 463.333 73.9171 463.35C74.3076 463.405 74.8107 465.571 74.99 465.93C75.446 466.842 75.9995 467.393 76.7781 467.999C77.9997 468.949 78.3208 468.772 79.3071 467.539" stroke="#014DFB" stroke-width="3.33333" stroke-linecap="round"/>
<path d="M74.4665 454.209C74.1802 455.29 73.5469 456.292 73.5469 457.428" stroke="#014DFB" stroke-width="3.33333" stroke-linecap="round"/>
<path d="M78.375 468.461C78.375 467.13 79.7594 466.309 80.4569 465.306C82.1074 462.934 83.3546 460.375 84.9145 457.962C85.4327 457.16 90.1336 450.069 87.3285 450.069C86.1388 450.069 85.189 449.912 84.4036 450.988C83.2886 452.516 82.2516 455.075 81.9385 456.953C80.5158 465.49 90.6149 466.852 96.7674 466.852" stroke="#014DFB" stroke-width="3.33333" stroke-linecap="round"/>
<path d="M47.1016 483.407C47.2725 485.212 47.5614 487.054 47.5614 488.873C47.5614 489.349 47.5614 488.49 47.5614 488.413C47.5614 486.641 47.3767 485.202 48.5321 483.739C50.5235 481.216 53.0299 484.283 53.0791 486.446C53.1051 487.59 52.8012 488.416 53.3601 486.804C54.0177 484.907 55.5928 483.467 57.4473 482.768C58.3584 482.425 60.2029 482.136 60.7937 483.177C61.4533 484.339 61.3557 485.704 61.3557 486.983C61.3557 488.286 61.2267 488.227 62.0582 487.187C63.8534 484.943 66.1645 482.899 68.7254 481.58C69.2885 481.29 76.8245 478.293 76.0569 480.98C75.8168 481.82 73.6524 481.091 73.3235 480.993C71.979 480.589 70.3504 480.459 68.9426 480.661C67.9874 480.797 68.1502 483.078 68.2784 483.751C68.5039 484.936 69.5922 485.754 70.7052 485.987C73.3898 486.549 74.5553 484.497 75.2011 482.129C75.2623 481.905 75.9913 484.204 76.2484 484.633C76.8122 485.572 77.6862 485.931 78.6497 486.217C81.2555 486.989 81.3959 483.165 82.6858 481.746C83.0772 481.316 84.3298 484.536 84.474 484.863C84.5692 485.078 85.322 487.438 85.4958 486.83C86.0953 484.731 89.7791 479.758 92.4951 480.993C93.5996 481.495 93.6 486.149 94.9219 485.195C97.0311 483.671 98.7375 481.549 101.078 480.341C103.371 479.158 106.088 479.038 108.614 479.038C110.233 479.038 105.306 478.699 103.76 479.179C101.537 479.869 100.634 481.606 101.576 483.726C101.933 484.529 102.816 485.938 103.773 486.14C106.232 486.658 107.095 483.031 107.567 481.261C107.969 479.753 108.749 482.33 108.972 482.615C109.518 483.312 110.464 485.089 111.475 485.233C112.372 485.361 112.926 484.932 113.493 484.275C115.721 481.695 118.236 479.288 121.463 478.068C122.214 477.784 125.859 476.326 126.649 477.071C127.12 477.516 127.262 478.119 126.547 478.119C124.45 478.119 120.327 478.52 120.211 481.516C120.143 483.303 121.883 483.638 123.226 482.742C125.022 481.545 126.21 479.787 126.598 477.633C126.633 477.44 126.628 476.828 126.649 477.378C126.694 478.6 127.095 479.921 127.351 481.108C127.759 482.994 128.224 484.858 128.603 486.753C128.861 488.043 129.577 489.888 128.922 491.198C128.372 492.298 127.423 491.98 126.891 491.083C126.256 490.01 125.187 487.161 125.793 485.948C126.571 484.392 130.667 484.056 131.988 483.649C133.925 483.053 137.346 482.014 137.659 479.588C137.719 479.118 137.969 477.431 137.429 477.084C136.429 476.441 133.599 476.32 132.997 477.57C132.054 479.527 132.848 481.577 134.389 482.947C135.686 484.1 137.3 485.082 138.962 485.603C140.369 486.045 140.69 484.944 141.133 483.815C141.961 481.705 142.634 479.458 143.151 477.25C143.562 475.493 144.821 479.467 145.028 479.932C145.525 481.049 145.817 482.249 146.421 483.304C146.637 483.682 147.263 480.191 147.391 479.715C148.163 476.844 149.08 473.521 152.513 473.521C153.479 473.521 154.132 473.45 154.927 473.98" stroke="#014DFB" stroke-width="3.33333" stroke-linecap="round"/>
</g>
<defs>
<clipPath id="clip0_540_15696">
<rect width="441.111" height="500" fill="white"/>
</clipPath>
</defs>
</svg>
