<svg width="210" height="66" viewBox="0 0 210 66" fill="none" xmlns="http://www.w3.org/2000/svg">
    <path d="M44.4664 53.7557C43.0748 53.2677 41.4965 53.5427 40.0701 53.7702C39.2599 53.8994 39 53.8733 39 54.5872C39 55.5126 40.2727 56.2125 40.9523 56.6046C42.1242 57.2807 43.4628 57.8756 44.799 58.123C45.385 58.2315 46.5772 58.2671 47.0405 58.7304C47.6006 59.2905 45.6154 60.8246 45.2111 60.9791C44.2664 61.3404 42.8428 61.6963 41.8633 61.3045" stroke="white" stroke-width="1.97942" stroke-linecap="round"/>
    <path d="M50.192 49.9805C50.08 52.8442 50.205 55.7092 50.3294 58.5705C50.3572 59.2101 50.349 60.4029 50.6403 60.9856C51.2204 62.1457 53.1702 62.0846 54.2267 62.0846" stroke="white" stroke-width="1.97942" stroke-linecap="round"/>
    <path d="M48.5 55.5762C51.2429 55.5762 53.9641 55.9666 56.6996 55.9666" stroke="white" stroke-width="1.97942" stroke-linecap="round"/>
    <path d="M59.7344 55.1582C60.2491 57.1597 60.8893 59.1107 61.2962 61.1452" stroke="white" stroke-width="1.97942" stroke-linecap="round"/>
    <path d="M59.3411 50.2129C59.285 50.3883 59.2466 50.555 59.2109 50.7335" stroke="white" stroke-width="1.97942" stroke-linecap="round"/>
    <path d="M62.5117 44.5176C63.4732 47.5454 64.7731 50.4772 65.6354 53.5342C66.1251 55.2705 66.3449 57.0665 66.8067 58.8054C66.9705 59.4219 67.0066 59.9546 67.1972 60.5263" stroke="white" stroke-width="1.97942" stroke-linecap="round"/>
    <path d="M67.9757 42.9551C67.8159 45.7525 68.2193 48.542 69.082 51.2053C69.5459 52.6374 70.2351 54.0277 70.5788 55.4931C70.8339 56.5808 70.7187 57.5517 71.2295 58.5733" stroke="white" stroke-width="1.97942" stroke-linecap="round"/>
    <path d="M94.0554 50.8914C93.7609 50.2778 93.1075 50.3615 92.5225 50.3708C91.1823 50.3921 90.0425 51.0919 89.2398 52.1496C88.6368 52.9441 88.0678 54.7002 89.0807 55.3889C90.2281 56.1691 91.8402 55.0093 92.5514 54.0874C93.3217 53.0889 93.6901 52.3476 93.6649 51.0505C93.6519 50.3808 93.4883 49.7056 93.1588 49.1199C93.0426 48.9133 92.893 48.673 92.884 49.0404C92.8693 49.6456 92.8711 50.2572 92.884 50.8625C92.9085 52.0136 93.5699 53.1788 93.7662 54.3188C94.3198 57.5341 94.3065 62.4395 90.9751 64.1669C89.0176 65.182 85.5041 65.5557 83.9325 63.6174C83.0173 62.4887 82.5533 60.2339 83.9035 59.2212" stroke="white" stroke-width="1.97942" stroke-linecap="round"/>
    <path d="M96.1367 50.3711C96.4641 51.8772 97.155 53.2685 97.3804 54.7818C97.5176 55.7032 97.5684 56.6017 97.5684 57.5295" stroke="white" stroke-width="1.97942" stroke-linecap="round"/>
    <path d="M97.0469 54.5364C97.0469 53.9332 97.2229 53.409 97.5675 52.9023C98.117 52.0941 98.6195 51.2077 99.5198 50.7331C100.21 50.3692 102.123 49.8781 102.123 51.1524" stroke="white" stroke-width="1.97942" stroke-linecap="round"/>
    <path d="M102.902 55.0569C103.53 54.6801 104.577 54.6274 105.288 54.5074C106.43 54.3147 107.494 54.0988 108.6 53.7843C109.722 53.4655 110.819 53.1262 110.842 51.7742C110.858 50.8088 110.785 50.0874 109.8 49.7785C108.535 49.3815 107.638 50.1284 106.923 51.1234C106.17 52.1704 105.389 53.3493 105.664 54.6954C105.849 55.599 106.738 56.1578 107.588 56.3873C108.356 56.5951 109.008 56.6187 109.8 56.6187C110.924 56.6187 111.793 55.5371 112.534 54.7966" stroke="white" stroke-width="1.97942" stroke-linecap="round"/>
    <path d="M117.48 51.021C116.383 50.6554 113.943 50.6976 113.279 51.8815C113.02 52.3439 112.71 54.6544 113.185 55.1859C113.608 55.6589 114.092 55.9187 114.733 55.5691C116.305 54.7114 116.96 53.6074 116.96 51.8308C116.96 51.7041 116.899 50.7608 116.988 51.0789C117.144 51.6301 117.416 52.2279 117.69 52.7275C118.201 53.66 118.775 54.7813 119.722 55.345C120.691 55.9217 121.487 55.2877 122.158 54.5496C123.815 52.7275 124.917 50.437 126.331 48.418" stroke="white" stroke-width="1.97942" stroke-linecap="round"/>
    <path d="M126.595 45.5547C126.306 48.1154 126.285 50.1415 127.455 52.4817C127.906 53.3833 128.389 54.6876 129.068 55.4462C129.537 55.9706 130.039 55.4483 130.608 55.1859C131.344 54.8462 132.752 54.7356 133.233 54.0146" stroke="white" stroke-width="1.97942" stroke-linecap="round"/>
    <path d="M124.512 49.8493C127.214 49.4758 129.862 49.2043 132.581 49.0684" stroke="white" stroke-width="1.97942" stroke-linecap="round"/>
    <path d="M154.052 51.5424C153.769 51.2071 153.598 50.7723 153.25 50.4939C152.422 49.8313 151.291 49.6237 150.264 49.5973C149.184 49.5696 147.373 49.4578 146.728 50.559C146.361 51.1849 146.279 52.1395 146.251 52.8439C146.205 53.9709 146.213 55.3168 147.61 55.3168C149.516 55.3168 151.122 53.4167 151.999 51.8388C153.202 49.6738 154.291 47.1881 154.313 44.6732C154.319 43.8924 154.313 43.1113 154.313 42.3305C154.313 42.0367 154.313 42.1019 154.313 42.3594C154.313 45.0178 154.65 47.6328 154.804 50.2842C154.876 51.5027 154.887 52.6774 155.094 53.8851C155.174 54.3535 155.354 54.8396 155.354 55.3168" stroke="white" stroke-width="1.97942" stroke-linecap="round"/>
    <path d="M157.699 51.2817C158.722 51.2817 159.816 51.4026 160.764 50.949C161.218 50.732 162.174 50.3933 162.247 49.7777C162.511 47.532 158.98 46.1414 157.511 47.6952C155.562 49.7548 157.975 52.7189 159.839 53.7979C161.252 54.6162 162.624 52.9638 163.816 52.453" stroke="white" stroke-width="1.97942" stroke-linecap="round"/>
    <path d="M169.934 47.1176C169.022 47.1176 165.769 46.7768 165.769 48.4842C165.769 49.064 167.324 49.4348 167.751 49.5905C168.662 49.9229 169.576 50.0845 170.035 51.0221C170.166 51.2893 170.41 52.1462 170.31 52.4466C170.134 52.9745 168.417 52.8662 168.098 52.9093C167.102 53.0439 166.312 52.9807 165.379 52.7141" stroke="white" stroke-width="1.97942" stroke-linecap="round"/>
    <path d="M172.797 46.4648C172.855 48.2643 173.187 49.9946 173.187 51.8011" stroke="white" stroke-width="1.97942" stroke-linecap="round"/>
    <path d="M174.359 41C173.824 41.5106 173.214 41.8571 172.623 42.2871C172.465 42.4019 172.406 42.4978 172.406 42.692" stroke="white" stroke-width="1.97942" stroke-linecap="round"/>
    <path d="M181.777 46.2051C181.34 46.2051 180.904 46.2051 180.468 46.2051C179.533 46.2051 179.019 46.7002 178.277 47.2608C177.403 47.9211 175.557 49.6183 176.506 50.8833C177.023 51.5733 178.025 50.9774 178.487 50.6158C179.619 49.73 180.736 47.818 180.736 46.3352C180.736 46.2038 181.026 46.9444 181.061 47.0655C181.411 48.2702 181.876 49.4128 182.456 50.529C184.104 53.6983 186.16 58.5764 183.461 61.6715C182.258 63.0515 181.001 63.2456 179.232 63.3562C177.648 63.4552 176.139 63.3895 174.763 62.4886C173.812 61.8659 172.885 60.4426 172.42 59.4372C172.118 58.7821 171.878 57.8793 171.929 57.1523C172.016 55.8833 173.58 55.799 174.488 55.4459" stroke="white" stroke-width="1.97942" stroke-linecap="round"/>
    <path d="M184.508 46.596C184.508 47.8475 185.027 49.052 185.289 50.2692C185.439 50.9685 185.419 51.6636 185.419 52.3733C185.419 53.2555 185.419 50.609 185.419 49.7269C185.419 48.8076 185.623 47.7163 186.33 47.0443C187.04 46.37 188.255 46.3357 189.164 46.3357C189.903 46.3357 190.303 46.1492 190.372 46.9359C190.447 47.805 190.47 48.7181 190.683 49.5678C190.831 50.16 190.714 51.037 191.276 51.4116" stroke="white" stroke-width="1.97942" stroke-linecap="round"/>
    <path d="M194.013 48.0279C194.859 48.0279 198.968 47.1095 198.236 45.7502C197.822 44.9809 196.966 45.1292 196.255 45.0054C195.466 44.8684 194.537 44.6934 194.013 45.4537C193.108 46.7666 192.794 49.7646 194.346 50.696C196.324 51.8831 198.306 49.9822 199.61 48.6786" stroke="white" stroke-width="1.97942" stroke-linecap="round"/>
    <path d="M203.123 43.3418C202.418 45.8289 203.203 48.3651 203.614 50.8328C203.708 51.3979 203.647 50.5152 203.643 50.37C203.628 49.8254 203.383 49.3596 203.383 48.7937C203.383 47.9626 203.355 47.2308 203.759 46.4799C204.091 45.8616 205.838 43.9579 206.723 44.4698C207.465 44.898 207.939 46.0105 208.589 46.3353" stroke="white" stroke-width="1.97942" stroke-linecap="round"/>
    <path d="M1.4375 2.07031C7.06117 2.61283 12.1409 5.41421 16.7577 8.5144C24.3783 13.6317 30.8368 21.2186 34.3848 29.703C36.526 34.823 37.4685 40.8754 37.8465 46.3801" stroke="white" stroke-width="1.97942" stroke-linecap="round"/>
    <path d="M9.52905 1.24217C7.78182 1.25737 6.04593 1.36596 4.29552 1.3812C3.3304 1.3896 2.27288 1.19534 1.37779 1.4793C1.18034 1.54194 0.76272 1.43224 1.18191 1.64719C2.26115 2.20058 3.19106 3.23352 4.02827 4.08918C5.11339 5.19822 6.02408 6.58817 6.87599 7.88139C7.3596 8.61552 7.65296 9.55734 7.83284 10.4177" stroke="white" stroke-width="1.97942" stroke-linecap="round"/>
</svg>