<svg width="395" height="60" viewBox="0 0 395 60" fill="none" xmlns="http://www.w3.org/2000/svg">
    <path d="M3.14844 2.65039C4.04483 11.1661 8.35744 18.8277 13.1168 25.7837C20.9728 37.2655 32.5561 46.9534 45.4613 52.2187C53.2492 55.3962 62.4343 56.7447 70.7818 57.245C80.343 57.8179 89.9324 58.0713 99.5091 57.8338C108.517 57.6105 118.139 57.4665 126.933 55.2681" stroke="white" stroke-width="3" stroke-linecap="round"/>
    <path d="M2 14.9271C2 12.2789 2.14167 9.64663 2.14167 6.99362C2.14167 5.53084 1.83331 3.93068 2.25186 2.57041C2.34419 2.27033 2.17242 1.63887 2.50371 2.27133C3.35664 3.89965 4.93435 5.29534 6.24218 6.55287C7.93729 8.18278 10.0558 9.54462 12.027 10.8187C13.146 11.5419 14.5772 11.9741 15.8835 12.2354" stroke="white" stroke-width="3" stroke-linecap="round"/>
    <path d="M144.215 34.462C142.105 33.7224 139.713 34.1392 137.552 34.4839C136.324 34.6797 135.93 34.6402 135.93 35.7222C135.93 37.1247 137.859 38.1856 138.889 38.7797C140.665 39.8044 142.693 40.706 144.719 41.0811C145.607 41.2455 147.414 41.2994 148.116 42.0016C148.965 42.8504 145.956 45.1755 145.343 45.4098C143.911 45.9573 141.754 46.4967 140.269 45.9029" stroke="white" stroke-width="3" stroke-linecap="round"/>
    <path d="M152.894 28.7402C152.724 33.0805 152.914 37.4227 153.102 41.7592C153.145 42.7286 153.132 44.5364 153.574 45.4195C154.453 47.1778 157.408 47.0852 159.009 47.0852" stroke="white" stroke-width="3" stroke-linecap="round"/>
    <path d="M150.328 37.2227C154.485 37.2227 158.61 37.8144 162.755 37.8144" stroke="white" stroke-width="3" stroke-linecap="round"/>
    <path d="M167.352 36.5898C168.132 39.6233 169.102 42.5802 169.719 45.6637" stroke="white" stroke-width="3" stroke-linecap="round"/>
    <path d="M166.76 29.0938C166.675 29.3596 166.617 29.6123 166.562 29.8828" stroke="white" stroke-width="3" stroke-linecap="round"/>
    <path d="M171.562 20.4609C173.02 25.0499 174.99 29.4933 176.297 34.1265C177.039 36.758 177.372 39.48 178.072 42.1154C178.32 43.0499 178.375 43.8572 178.664 44.7236" stroke="white" stroke-width="3" stroke-linecap="round"/>
    <path d="M179.845 18.0938C179.603 22.3336 180.214 26.5612 181.522 30.5977C182.225 32.7682 183.269 34.8754 183.79 37.0962C184.177 38.7448 184.002 40.2163 184.776 41.7647" stroke="white" stroke-width="3" stroke-linecap="round"/>
    <path d="M219.37 30.1219C218.923 29.1919 217.933 29.3188 217.047 29.3329C215.015 29.3651 213.288 30.4257 212.071 32.0287C211.157 33.2329 210.295 35.8944 211.83 36.9382C213.569 38.1208 216.013 36.3629 217.09 34.9657C218.258 33.4524 218.816 32.3288 218.778 30.363C218.758 29.3481 218.51 28.3247 218.011 27.437C217.835 27.1239 217.608 26.7597 217.594 27.3164C217.572 28.2338 217.575 29.1607 217.594 30.0781C217.632 31.8227 218.634 33.5886 218.931 35.3163C219.771 40.1895 219.75 47.6242 214.701 50.2422C211.734 51.7805 206.409 52.347 204.028 49.4093C202.64 47.6986 201.937 44.2812 203.984 42.7464" stroke="white" stroke-width="3" stroke-linecap="round"/>
    <path d="M222.523 29.332C223.02 31.6147 224.067 33.7233 224.408 36.0169C224.616 37.4133 224.693 38.775 224.693 40.1812" stroke="white" stroke-width="3" stroke-linecap="round"/>
    <path d="M223.906 35.6456C223.906 34.7314 224.173 33.9369 224.695 33.1689C225.528 31.9441 226.29 30.6007 227.654 29.8813C228.7 29.3298 231.599 28.5856 231.599 30.5169" stroke="white" stroke-width="3" stroke-linecap="round"/>
    <path d="M232.781 36.434C233.733 35.863 235.32 35.7831 236.398 35.6011C238.127 35.3091 239.74 34.9819 241.417 34.5053C243.117 34.0221 244.779 33.5078 244.814 31.4587C244.839 29.9955 244.728 28.9023 243.236 28.4341C241.318 27.8324 239.959 28.9644 238.874 30.4724C237.733 32.0592 236.55 33.8459 236.967 35.8861C237.248 37.2556 238.595 38.1025 239.883 38.4504C241.048 38.7653 242.034 38.8011 243.236 38.8011C244.939 38.8011 246.256 37.1617 247.378 36.0395" stroke="white" stroke-width="3" stroke-linecap="round"/>
    <path d="M254.873 30.3182C253.211 29.7641 249.513 29.8281 248.506 31.6223C248.113 32.3231 247.643 35.825 248.364 36.6304C249.005 37.3473 249.738 37.741 250.709 37.2113C253.092 35.9113 254.084 34.2382 254.084 31.5456C254.084 31.3535 253.992 29.9238 254.128 30.4059C254.363 31.2414 254.776 32.1474 255.191 32.9045C255.965 34.3179 256.835 36.0173 258.27 36.8715C259.739 37.7457 260.946 36.7848 261.963 35.6661C264.474 32.9046 266.145 29.4331 268.287 26.373" stroke="white" stroke-width="3" stroke-linecap="round"/>
    <path d="M268.684 22.0332C268.247 25.9143 268.215 28.985 269.988 32.5317C270.671 33.8982 271.403 35.875 272.432 37.0248C273.143 37.8195 273.905 37.0279 274.766 36.6303C275.882 36.1154 278.016 35.9477 278.744 34.855" stroke="white" stroke-width="3" stroke-linecap="round"/>
    <path d="M265.527 28.5429C269.623 27.9769 273.636 27.5654 277.757 27.3594" stroke="white" stroke-width="3" stroke-linecap="round"/>
    <path d="M310.304 31.1086C309.874 30.6006 309.615 29.9415 309.088 29.5196C307.832 28.5154 306.119 28.2007 304.562 28.1607C302.926 28.1188 300.181 27.9492 299.203 29.6182C298.647 30.5669 298.522 32.0137 298.479 33.0812C298.411 34.7893 298.422 36.8291 300.54 36.8291C303.429 36.8291 305.863 33.9494 307.192 31.558C309.015 28.2766 310.666 24.5093 310.699 20.6978C310.709 19.5145 310.699 18.3306 310.699 17.1472C310.699 16.7019 310.699 16.8007 310.699 17.191C310.699 21.2201 311.209 25.1833 311.444 29.2018C311.552 31.0486 311.568 32.8289 311.882 34.6593C312.004 35.3692 312.277 36.1059 312.277 36.8291" stroke="white" stroke-width="3" stroke-linecap="round"/>
    <path d="M315.828 30.7133C317.379 30.7133 319.037 30.8966 320.474 30.2092C321.162 29.8803 322.611 29.3668 322.721 28.4339C323.121 25.0303 317.771 22.9227 315.543 25.2778C312.59 28.3993 316.247 32.8916 319.072 34.527C321.214 35.7671 323.293 33.2627 325.099 32.4886" stroke="white" stroke-width="3" stroke-linecap="round"/>
    <path d="M334.369 24.4014C332.986 24.4014 328.057 23.8849 328.057 26.4726C328.057 27.3513 330.412 27.9134 331.059 28.1493C332.441 28.6531 333.826 28.8981 334.522 30.3191C334.721 30.724 335.09 32.0228 334.939 32.478C334.672 33.2781 332.069 33.114 331.585 33.1794C330.076 33.3833 328.879 33.2875 327.465 32.8835" stroke="white" stroke-width="3" stroke-linecap="round"/>
    <path d="M338.711 23.4141C338.799 26.1413 339.303 28.7637 339.303 31.5016" stroke="white" stroke-width="3" stroke-linecap="round"/>
    <path d="M341.076 15.1309C340.265 15.9047 339.342 16.4299 338.446 17.0815C338.207 17.2556 338.117 17.4009 338.117 17.6952" stroke="white" stroke-width="3" stroke-linecap="round"/>
    <path d="M352.319 23.0195C351.658 23.0195 350.996 23.0195 350.335 23.0195C348.919 23.0195 348.14 23.7699 347.015 24.6195C345.689 25.6203 342.892 28.1925 344.33 30.1098C345.114 31.1556 346.632 30.2524 347.333 29.7044C349.048 28.3619 350.741 25.4641 350.741 23.2168C350.741 23.0175 351.181 24.14 351.234 24.3236C351.764 26.1494 352.47 27.8812 353.349 29.5729C355.845 34.3762 358.962 41.7694 354.872 46.4603C353.049 48.5519 351.143 48.8461 348.461 49.0137C346.061 49.1637 343.775 49.0641 341.689 47.6987C340.247 46.755 338.842 44.5977 338.138 43.0741C337.679 42.0812 337.317 40.7128 337.393 39.6111C337.526 37.6878 339.896 37.56 341.272 37.0248" stroke="white" stroke-width="3" stroke-linecap="round"/>
    <path d="M356.461 23.6113C356.461 25.508 357.247 27.3335 357.644 29.1783C357.873 30.2381 357.842 31.2917 357.842 32.3673C357.842 33.7043 357.842 29.6934 357.842 28.3564C357.842 26.9632 358.15 25.3092 359.223 24.2907C360.298 23.2687 362.141 23.2168 363.518 23.2168C364.638 23.2168 365.245 22.934 365.348 24.1263C365.463 25.4436 365.498 26.8275 365.82 28.1153C366.044 29.0128 365.867 30.342 366.718 30.9098" stroke="white" stroke-width="3" stroke-linecap="round"/>
    <path d="M370.864 25.7812C372.146 25.7812 378.373 24.3893 377.263 22.3292C376.636 21.1632 375.339 21.388 374.261 21.2005C373.066 20.9927 371.658 20.7276 370.864 21.8799C369.491 23.8696 369.015 28.4135 371.368 29.825C374.366 31.6243 377.37 28.7432 379.346 26.7675" stroke="white" stroke-width="3" stroke-linecap="round"/>
    <path d="M384.671 18.6797C383.603 22.4492 384.792 26.293 385.416 30.033C385.559 30.8895 385.466 29.5517 385.46 29.3316C385.437 28.5061 385.065 27.8002 385.065 26.9426C385.065 25.683 385.023 24.5739 385.635 23.4358C386.138 22.4987 388.785 19.6135 390.128 20.3893C391.251 21.0382 391.971 22.7243 392.955 23.2166" stroke="white" stroke-width="3" stroke-linecap="round"/>
</svg>
