<svg width="105" height="60" viewBox="0 0 105 60" fill="none" xmlns="http://www.w3.org/2000/svg">
    <g clip-path="url(#clip0_1583_1212)">
        <path d="M104.187 34.0641C104.138 38.3745 102.158 41.4287 99.0543 43.8277C95.1775 46.8228 91.0001 48.7242 85.9755 46.872C85.2612 46.6109 84.7883 46.6454 84.4681 47.5026C80.9706 56.8425 71.5617 57.9311 63.7292 53.1627C62.4829 52.404 62.0494 52.6356 61.207 53.5272C58.0789 56.8277 54.4435 59.34 49.7981 59.9114C44.8573 60.5223 40.5223 57.8277 38.8868 53.1676C38.5666 52.2513 38.2267 52.2513 37.4927 52.6011C32.3154 55.0838 27.5716 53.9164 23.1183 50.7784C22.5321 50.3646 22.1479 50.4632 21.6208 50.7144C19.4681 51.7489 17.1873 52.3843 14.8622 52.9114C11.2957 53.7193 7.91638 53.1331 4.66515 51.6553C0.502587 49.7636 -0.960468 46.1577 0.615887 41.8967C1.43855 39.6701 2.76367 37.739 4.53707 36.207C5.61096 35.2809 5.43362 34.808 4.41884 34.1134C3.79815 33.6898 3.26613 33.1282 2.72426 32.6011C-0.0934723 29.8425 -0.177216 26.7735 2.65037 24.0001C6.35973 20.3646 10.7144 17.7489 15.7784 16.4484C16.9361 16.1528 17.5223 15.7784 17.6602 14.4287C17.9065 12.0543 18.6799 9.79321 20.2514 7.89173C21.8967 5.90158 23.9459 4.9607 26.5371 5.39419C29.1775 5.83754 31.8523 6.19715 34.2218 7.56168C34.8967 7.95085 35.1528 7.73902 35.4829 7.13804C36.8819 4.58139 39.01 2.73902 41.4484 1.22671C43.34 0.0542932 45.3597 -0.265904 47.5617 0.182372C51.0445 0.891732 54.3006 2.02474 56.7735 4.7341C57.3893 5.40897 57.9459 5.08385 58.5469 4.83754C61.074 3.79321 63.6405 3.25134 66.3844 3.9607C68.3302 4.46316 70.1528 5.16267 71.5321 6.67991C72.0198 7.21686 72.4139 7.3203 73.074 6.94099C76.9509 4.71439 80.8031 5.5075 84.5371 7.29567C86.5913 8.28089 88.3794 9.72917 90.0444 11.2957C91.7834 12.9311 92.6602 15.01 92.8523 17.3499C92.9262 18.2316 93.2858 18.5518 94.0691 18.7686C99.9115 20.3597 102.645 24.6257 103.744 30.2218C104.015 31.5666 104.064 32.941 104.187 34.0641Z" fill="#FB01A5"/>
        <path d="M19.7735 37.0345C19.7144 36.9459 19.6504 36.8523 19.5765 36.7537C19.5026 36.6552 19.4287 36.5468 19.3597 36.4237C19.2858 36.3005 19.2316 36.1577 19.2021 35.9951C19.1233 35.8818 19.0346 35.7291 18.9459 35.5469C18.8573 35.3597 18.7538 35.1774 18.6307 35.0001C18.5075 34.8227 18.3745 34.67 18.2267 34.5518C18.0789 34.4286 17.9262 34.3695 17.7637 34.3695C17.6651 34.3695 17.5568 34.4237 17.4336 34.5271C17.3105 34.6306 17.1922 34.8079 17.0789 35.0493C16.9164 35.2907 16.877 35.5863 16.6996 35.9015C16.5568 36.1577 16.3351 36.6601 16.1479 36.8769C15.9607 37.0986 14.6159 39.2759 14.4681 39.4483C14.4533 39.468 14.4681 39.4877 14.478 39.5025C14.3893 39.606 14.3597 39.7291 14.3499 39.8621C14.3252 40.1823 14.2957 40.5025 14.1676 40.803C14.1331 40.8917 14.0937 40.9754 14.0346 41.0493C13.9016 41.2119 13.7046 41.2119 13.5568 41.069C13.409 40.9212 13.3351 40.7587 13.4041 40.5419C13.4484 40.3991 13.4632 40.2513 13.4681 40.0789C13.3597 40.2069 13.2858 40.3301 13.2119 40.4533C13.1725 40.5173 13.1282 40.5863 13.0691 40.6306C12.9656 40.7094 12.8228 40.7094 12.7341 40.6306C12.6405 40.5468 12.6208 40.4188 12.6898 40.2956C12.7243 40.2316 12.7686 40.1725 12.8031 40.1084C12.8129 40.0887 12.8376 40.0641 12.8129 40.0444C12.7883 40.0198 12.7587 40.0345 12.739 40.0542C12.6553 40.1183 12.5716 40.1872 12.4927 40.2513C12.4041 40.3202 12.3055 40.3843 12.1972 40.4188C12.0642 40.4631 11.9312 40.4286 11.8573 40.3252C11.7834 40.2267 11.7784 40.0986 11.8523 39.9803C11.8967 39.9065 11.9509 39.8375 11.9952 39.7685C12.01 39.7439 12.0395 39.7193 12.0149 39.6946C11.9952 39.67 11.9607 39.6897 11.9361 39.6946C11.8671 39.7094 11.8031 39.7291 11.7341 39.7488C11.5814 39.7882 11.4583 39.7537 11.3844 39.6454C11.3105 39.5419 11.3252 39.4237 11.4287 39.2858C11.4336 39.2759 11.4385 39.2661 11.4484 39.2464C11.3893 39.2414 11.3351 39.2365 11.2809 39.2316C11.1233 39.2119 11.0149 39.0936 11.01 38.9459C11.01 38.8079 11.1085 38.6848 11.2612 38.6601C11.34 38.6454 11.4238 38.6503 11.5026 38.6404C11.7292 38.6158 11.9115 38.5025 12.0986 38.3843C12.2514 38.2414 12.3696 38.069 12.478 37.8868C12.675 37.67 12.8523 37.4385 13.0297 37.2069L14.0395 35.9459C14.2169 35.6946 14.3942 35.4779 14.5765 35.3005C14.7883 34.9262 15.0149 34.6158 15.2563 34.3646C15.4977 34.1134 15.7292 33.8178 15.9361 33.4779C16.0642 33.3498 16.1528 33.2217 16.1922 33.0986C16.2316 32.9754 16.3105 32.8769 16.4238 32.7932V32.2562C16.4238 32.1577 16.3745 32.0198 16.276 31.8424C16.1775 31.6651 16.0642 31.4828 15.9361 31.2956C15.808 31.1084 13.0248 25.4385 12.6996 24.8867C12.6651 24.8276 12.6208 24.8079 12.5617 24.803C12.3844 24.7882 12.207 24.7685 12.0297 24.7488C11.8228 24.7291 11.6405 24.6503 11.4829 24.5173C11.3794 24.4286 11.3154 24.3202 11.3449 24.1725C11.3745 24.0345 11.4829 23.9853 11.606 23.9459C11.7538 23.9015 11.8967 23.8966 12.0395 23.9459C12.1134 23.9705 12.1873 23.9803 12.2908 23.9803C12.2021 23.8818 12.1331 23.7882 12.0445 23.7193C11.7637 23.4927 11.5814 23.1872 11.3499 22.9212C11.2858 22.8473 11.2218 22.7734 11.143 22.7094C10.9952 22.5863 10.9607 22.4089 11.0592 22.271C11.1578 22.1331 11.34 22.0986 11.5026 22.1971C11.7489 22.34 11.9065 22.5764 12.074 22.7932C12.2514 23.0148 12.478 23.1823 12.675 23.3794C12.6799 23.3892 12.6849 23.404 12.6947 23.3941C12.6996 23.3941 12.6898 23.3744 12.6898 23.3646C12.5962 23.0395 12.4977 22.7143 12.34 22.4089C12.1824 22.1035 12.0642 21.7784 12.0149 21.4335C11.9903 21.271 12.074 21.138 12.207 21.0887C12.34 21.0395 12.4927 21.0838 12.5863 21.2119C12.6159 21.2513 12.6405 21.2956 12.6602 21.34C12.7341 21.5124 12.8129 21.6848 12.8819 21.8572C13.01 22.2119 13.1972 22.537 13.3548 22.8769C13.3647 22.9015 13.3794 22.9212 13.4188 22.9409C13.409 22.803 13.3991 22.6651 13.3844 22.5321C13.3499 22.2316 13.3351 21.936 13.3647 21.6355C13.3696 21.601 13.3696 21.5616 13.3745 21.5271C13.4041 21.34 13.5272 21.2217 13.6947 21.2217C13.8671 21.2217 14.005 21.34 14.0297 21.5271C14.0494 21.6946 14.0494 21.867 14.0691 22.0345C14.1183 22.4927 14.1627 22.9508 14.3006 23.3941C14.3055 23.4089 14.3154 23.4286 14.3302 23.473C14.3893 23.1577 14.4977 22.8867 14.5765 22.6109C14.5962 22.5468 14.6208 22.4828 14.6553 22.4286C14.7243 22.3153 14.8523 22.2759 14.9706 22.3153C15.0839 22.3597 15.1578 22.473 15.1233 22.6109C15.0888 22.7537 15.0445 22.8966 14.9853 23.0296C14.808 23.4286 14.7637 23.8572 14.6849 24.2808C14.6602 24.404 14.6996 24.5124 14.7784 24.6158C15.4977 25.5419 17.1873 28.8424 17.3252 29.1823C17.4632 29.5222 17.6257 29.8276 17.8129 30.0936C18.0001 30.3597 18.207 30.4976 18.4336 30.4976C18.5469 30.4976 18.7292 30.3498 18.9804 30.0592C19.2316 29.7685 19.4878 29.4286 19.7489 29.0493C20.01 28.67 20.2366 28.3005 20.4287 27.9557C20.6208 27.606 22.4336 25.0444 22.808 24.1872C22.8474 24.1528 22.877 24.1035 22.9016 24.0592C23.1134 23.6306 23.3449 23.2119 23.5026 22.7537C23.5568 22.5961 23.6307 22.4385 23.7095 22.2907C23.7883 22.1331 23.9262 22.0739 24.0642 22.1183C24.2021 22.1626 24.2809 22.2858 24.2563 22.4631C24.207 22.8227 24.0986 23.1675 23.9459 23.4976C23.9361 23.5222 23.9016 23.5419 23.9262 23.5912C24.01 23.5518 24.0592 23.4779 24.1036 23.4089C24.4632 22.8917 24.8129 22.3646 25.1233 21.8178C25.1627 21.7537 25.1972 21.6848 25.2415 21.6207C25.3449 21.468 25.478 21.4237 25.606 21.4927C25.7292 21.5616 25.7686 21.7045 25.6996 21.872C25.6159 22.069 25.5272 22.2661 25.4336 22.4582C25.2858 22.7537 25.1331 23.0444 24.9262 23.335C25.0248 23.3104 25.0642 23.2464 25.1134 23.1971C25.4977 22.7784 25.8917 22.3695 26.2661 21.9409C26.3844 21.803 26.542 21.7833 26.6602 21.8769C26.7784 21.9754 26.7982 22.138 26.6799 22.2858C26.4632 22.5666 26.2415 22.8424 25.9952 23.0936C25.7883 23.3104 25.5962 23.5419 25.3991 23.7685C25.3745 23.7932 25.3449 23.8178 25.3597 23.8621C25.3548 23.8621 25.3499 23.8621 25.3499 23.8621C25.3548 23.8621 25.3548 23.8621 25.3597 23.8621C25.7243 23.5764 26.1183 23.3252 26.5026 23.069C26.6701 22.9606 26.8425 22.9902 26.9312 23.1281C27.0198 23.2611 26.9804 23.4335 26.8179 23.5468C26.3055 23.9015 25.8425 24.3202 25.3252 24.6651C25.3006 24.6799 25.276 24.7045 25.2563 24.734C25.4435 24.6996 25.6257 24.6601 25.8179 24.6404C25.8819 24.6355 25.941 24.6257 26.005 24.6207C26.1922 24.6109 26.3351 24.7193 26.3548 24.8818C26.3745 25.0444 26.2563 25.1922 26.0642 25.202C25.7489 25.2168 25.4435 25.2956 25.1381 25.3449C25.0494 25.3597 24.6454 25.6799 24.5174 25.7685C23.6898 26.3597 21.8917 28.6306 21.5666 29.0198C21.2415 29.4089 20.9164 29.8178 20.5913 30.2365C20.2661 30.6601 19.9361 31.0395 19.5913 31.3794V32.0345C19.5913 32.1626 19.6257 32.3005 19.6996 32.4385C19.7735 32.5764 19.8622 32.7291 19.9656 32.8868C20.0691 33.0493 20.1775 33.2168 20.2809 33.3843C20.3844 33.5567 20.473 33.7193 20.5371 33.8818C20.6356 34.1084 20.7883 34.3794 21.0001 34.6848C21.2119 34.9951 21.4238 35.2611 21.6356 35.4877C21.7982 35.6651 21.9459 35.8818 22.0839 36.1331C22.2218 36.3843 22.3696 36.6306 22.5223 36.8621L23.0001 37.9754C23.1282 38.2119 23.2711 38.4434 23.3696 38.6946C23.4435 38.8867 23.4435 38.8917 23.6504 38.867C23.8179 38.8473 23.9853 38.8276 24.1233 38.9508C24.2366 39.2168 24.1873 39.3449 23.9115 39.4582C23.9065 39.4976 23.941 39.5074 23.9607 39.5271C24.0592 39.6306 24.0937 39.7439 24.0445 39.8818C23.9952 40.0148 23.8917 40.0887 23.7538 40.0936C23.6454 40.0986 23.6307 40.1183 23.6849 40.2119C23.7735 40.3843 23.7489 40.5271 23.6307 40.6158C23.5174 40.6996 23.3597 40.6799 23.2267 40.5468C23.1578 40.4779 23.0986 40.3991 23.0346 40.3252C23.0198 40.3055 22.9952 40.2808 22.9706 40.2956C22.941 40.3104 22.9558 40.34 22.9656 40.3646C23.01 40.5271 23.0592 40.6946 23.0494 40.867C23.0395 41.0148 22.9509 41.1281 22.8179 41.1528C22.6898 41.1823 22.5666 41.1133 22.4977 40.9754C22.4829 40.9409 22.4681 40.9065 22.4533 40.867C22.3844 40.6651 22.2711 40.4828 22.1775 40.271C22.1134 40.4286 22.1036 40.5666 22.1085 40.7094C22.1134 40.8079 22.1331 40.9065 22.1134 41.005C22.0839 41.1577 21.9853 41.2562 21.8425 41.271C21.6947 41.2858 21.5666 41.2069 21.5174 41.0592C21.4681 40.9262 21.4582 40.7833 21.4435 40.6454C21.4287 40.4582 21.3991 40.271 21.3154 40.0986C21.2464 39.8867 21.1775 39.6749 21.1381 39.4582C21.1282 39.404 21.0986 39.3547 21.0642 39.3104C20.7243 38.872 20.4681 38.3843 20.2267 37.8868C20.0839 37.5912 19.9656 37.2759 19.7834 37.005C19.7834 37.0444 19.8326 37.1232 19.7735 37.0345Z" fill="white"/>
        <path d="M33.8573 27.1873C34.1479 27.1873 34.3597 27.2759 34.4977 27.4483C34.6356 27.6208 34.7045 27.8178 34.7045 28.0345L34.4435 29.4877V29.8326C34.4435 29.9902 34.4287 30.1528 34.3991 30.3203C34.3696 30.4877 34.3105 30.6405 34.2267 30.7882C34.1381 30.9311 34.0198 31.0543 33.8671 31.1478C33.7144 31.2414 33.5075 31.2907 33.2513 31.2907C33.1331 31.2907 33.0642 31.335 33.0346 31.4188C33.0198 31.4631 33.0149 31.4976 33.0149 31.5272C32.8129 31.7291 32.6651 31.9262 32.5715 32.1232C32.478 32.3203 32.3991 32.5124 32.3351 32.7094C32.2711 32.9065 32.207 33.0937 32.138 33.2858C32.074 33.473 31.9804 33.6552 31.8671 33.8276C31.7784 33.9163 31.6996 34.0099 31.6159 34.1183C31.5371 34.2267 31.4977 34.3892 31.4977 34.606C31.409 34.7488 31.34 34.8868 31.2809 35.0198C31.207 35.138 31.143 35.2414 31.0839 35.3449C31.0247 35.4483 30.9804 35.5173 30.9558 35.5616C30.8967 35.7341 30.8376 35.8671 30.7834 35.9607C30.7243 36.0543 30.6651 36.1528 30.6011 36.2513C30.5371 36.3547 30.4681 36.4631 30.3942 36.5764C30.3203 36.6946 30.2513 36.8572 30.1775 37.074C30.1183 37.2316 30.0642 37.3547 30.0149 37.4434C29.9656 37.5321 29.9213 37.6109 29.8868 37.6799C29.8523 37.7538 29.8179 37.8227 29.7883 37.8966C29.7587 37.9705 29.7292 38.0543 29.6996 38.1577L29.5272 38.6355C29.4533 38.7488 29.4041 38.8424 29.3745 38.9065C29.3449 38.9705 29.2514 39.0838 29.0937 39.2414C28.9361 39.4434 28.7932 39.6306 28.6701 39.803C28.5469 39.9754 28.4878 40.1084 28.4878 40.1922C28.2563 40.7685 27.8376 41.3991 27.2316 42.0789C26.9558 42.4385 26.7095 42.7784 26.4829 43.0986C26.2563 43.4139 26.0445 43.6306 25.8425 43.7488C24.8326 44.3547 24.0297 44.9853 23.4385 45.6355C23.3351 45.6651 23.1873 45.7291 22.9952 45.8326C22.7981 45.9311 22.6011 46.0395 22.3991 46.1577C22.1528 46.2858 21.8917 46.4336 21.6208 46.5912H21.3844C21.2957 46.5912 21.1676 46.6306 20.9952 46.7094C20.8228 46.7882 20.6898 46.8277 20.606 46.8277H19.9558C19.8819 46.8277 19.7587 46.7882 19.5765 46.7094C19.3942 46.6306 19.2563 46.5912 19.1528 46.5912C19.1085 46.5912 19.0395 46.606 18.9459 46.6355C18.8523 46.6651 18.7538 46.6946 18.6553 46.7242C18.542 46.7685 18.4238 46.803 18.3105 46.8326C18.138 46.8326 17.9804 46.7784 17.8425 46.67C17.7046 46.5616 17.542 46.4139 17.3548 46.2267C17.2415 46.2267 17.0937 46.1774 16.9114 46.074C16.7292 45.9705 16.5962 45.8621 16.5124 45.7488C16.5124 45.7193 16.5026 45.6552 16.478 45.5518C16.4582 45.4483 16.4336 45.335 16.4139 45.207C16.3942 45.0789 16.3745 44.9508 16.3597 44.8277C16.3449 44.7045 16.34 44.6158 16.34 44.5567C16.34 44.3547 16.4041 44.1577 16.5371 43.9705C16.6651 43.7833 16.8277 43.6109 17.0149 43.4631C17.2021 43.3104 17.3991 43.1922 17.6011 43.1035C17.8031 43.0148 17.9853 42.9754 18.143 42.9754C18.3006 42.9754 18.478 43.0198 18.675 43.1035C18.872 43.1922 19.074 43.2907 19.2908 43.4089C19.5666 43.5222 19.8129 43.6454 20.0395 43.7685C20.2612 43.8917 20.4533 43.9508 20.6159 43.9508L21.3302 44.0592C21.473 43.9557 21.6356 43.8917 21.8179 43.8621C22.0001 43.8326 22.1775 43.803 22.3597 43.7735C22.542 43.7439 22.7193 43.7045 22.8917 43.6552C23.0642 43.606 23.2316 43.4976 23.3893 43.34C23.6947 43.2513 23.9952 43.1035 24.3006 42.8966C24.606 42.6848 24.9016 42.4286 25.1873 42.1281C25.2858 42.0395 25.409 41.9015 25.5568 41.7045C25.6996 41.5075 25.8228 41.3104 25.9262 41.1084C26.1282 40.9065 26.3252 40.67 26.5223 40.3942C26.7193 40.1183 26.8573 39.872 26.9459 39.6552C27.0888 39.5124 27.2366 39.3301 27.3893 39.1134C27.542 38.8966 27.6701 38.67 27.7784 38.4286C27.8868 38.1922 27.9755 37.9459 28.0494 37.7045C28.1233 37.4582 28.1578 37.2267 28.1578 37.0099V36.6405V36.1577C28.1873 36.0148 28.2169 35.8769 28.2464 35.7439C28.276 35.6306 28.2957 35.5173 28.3105 35.4089C28.3252 35.3006 28.3302 35.2119 28.3302 35.138C28.3302 35.0395 28.3006 34.9607 28.2415 34.9114C28.1824 34.8621 28.1528 34.7341 28.1528 34.5321V34.3597C28.1085 34.3153 28.074 34.2661 28.0445 34.207C27.9853 34.0937 27.9558 34.0001 27.9558 33.9262V33.7538C27.9558 33.4927 27.9065 33.2168 27.8031 32.9212C27.6996 32.6257 27.5715 32.335 27.4139 32.0543C27.2563 31.7735 27.0642 31.5124 26.8376 31.2759C26.6159 31.0395 26.3844 30.8375 26.1528 30.6799C26.0346 30.5666 25.9607 30.537 25.9262 30.5912C25.8917 30.6503 25.8228 30.6799 25.7193 30.6799H25.5469H25.0691L24.6996 30.8523C24.5814 30.8523 24.4484 30.8079 24.2858 30.7094C24.1282 30.6158 24.0494 30.468 24.0494 30.2661C24.0494 30.2217 24.138 30.0937 24.3105 29.8769C24.4829 29.6602 24.6799 29.4237 24.9065 29.1725C25.1282 28.9212 25.3449 28.6799 25.5469 28.4582C25.7489 28.2365 25.872 28.0937 25.9164 28.0345C26.0297 27.9212 26.1775 27.8178 26.3597 27.7291C26.542 27.6405 26.7292 27.601 26.9361 27.601C27.2415 27.601 27.4632 27.6996 27.606 27.8917C27.7489 28.0887 27.9312 28.335 28.1479 28.6405C28.3499 29.0592 28.5174 29.4286 28.6454 29.7439C28.7735 30.0641 28.8917 30.3744 28.9903 30.6749C29.0346 30.9212 29.0839 31.1281 29.143 31.2907C29.2021 31.4582 29.2563 31.6109 29.3055 31.7587C29.3548 31.9015 29.3942 32.0493 29.4139 32.1922C29.4336 32.335 29.4336 32.5173 29.4041 32.7341C29.3745 32.8375 29.3794 32.9508 29.4139 33.0789C29.4484 33.207 29.5026 33.3301 29.5666 33.4483C29.6307 33.5666 29.7095 33.6602 29.7932 33.739C29.8819 33.8178 29.9509 33.8572 30.01 33.8572C30.0986 33.8572 30.1873 33.7636 30.2809 33.5764C30.3745 33.3892 30.4632 33.1774 30.5518 32.936C30.6405 32.6996 30.7193 32.4582 30.7883 32.2217C30.8622 31.9853 30.9164 31.8079 30.9607 31.6897C31.074 31.5321 31.1775 31.3843 31.2661 31.2464C31.3548 31.1084 31.4385 30.9804 31.5272 30.8572C31.6159 30.7341 31.7095 30.6109 31.8179 30.4877C31.9262 30.3646 32.0691 30.2267 32.2415 30.0641C32.3548 29.9065 32.4385 29.7341 32.4927 29.5419C32.542 29.3547 32.5962 29.1676 32.6553 28.9804C32.6848 28.8079 32.7292 28.6355 32.7834 28.4582C32.8425 28.2858 32.9213 28.1429 33.0198 28.0247C33.1331 27.8079 33.2514 27.6109 33.3647 27.4385C33.473 27.271 33.6405 27.1873 33.8573 27.1873Z" fill="white"/>
        <path d="M48.5469 26.7093C48.8523 26.7093 49.1085 26.7635 49.3154 26.8718C49.5223 26.9802 49.6947 27.128 49.8228 27.3152C49.9509 27.5024 50.0444 27.7191 50.1036 27.9654C50.1627 28.2117 50.1824 28.4728 50.1676 28.7438C50.1676 29.1329 50.0247 29.4482 49.7341 29.6847C49.4435 29.9211 49.1479 30.128 48.8474 30.3004C48.5715 30.4876 48.2809 30.6551 47.9706 30.798C47.6602 30.9408 47.3696 31.1034 47.1036 31.2758C46.8376 31.4482 46.611 31.6502 46.4336 31.8817C46.2513 32.1132 46.1577 32.4088 46.143 32.7684V33.6797C46.1134 33.926 46.1627 34.1674 46.2957 34.4039C46.4238 34.6403 46.5912 34.7635 46.7932 34.7635C46.808 34.7783 46.8671 34.7585 46.9656 34.6994C47.0642 34.6403 47.1775 34.5714 47.3006 34.4925C47.4238 34.4137 47.5469 34.33 47.6701 34.2413C47.7932 34.1526 47.8819 34.0886 47.941 34.0443C48.1578 33.9457 48.3252 33.862 48.4484 33.793C48.5715 33.729 48.6602 33.7093 48.7193 33.7388C48.8179 33.7388 48.9065 33.7536 48.9804 33.7832C49.0543 33.8127 49.0888 33.9211 49.0888 34.1083C49.0592 34.4285 48.9213 34.7339 48.675 35.0295C48.4287 35.3251 48.1627 35.6009 47.872 35.8521C47.5814 36.1034 47.3006 36.3251 47.0247 36.5122C46.7489 36.6994 46.5715 36.8374 46.4829 36.926C46.2366 37.1428 46.01 37.2561 45.7981 37.2709C45.5863 37.2856 45.3745 37.2906 45.1578 37.2906C45.0297 37.2758 44.8917 37.2167 44.7587 37.1182C44.6208 37.0147 44.4977 36.8965 44.3893 36.7585C44.2809 36.6206 44.1972 36.4827 44.138 36.3349C44.0789 36.192 44.0592 36.0689 44.074 35.9654V35.6157C44.074 35.5172 44.0445 35.4088 43.9853 35.2906C43.9558 35.2315 43.9262 35.1822 43.8967 35.1379L43.9607 34.7044V34.3595C43.9607 34.3004 43.9755 34.1477 44.005 33.8916C44.0346 33.6403 44.0691 33.3645 44.1134 33.0689C44.1578 32.7733 44.1972 32.4925 44.2316 32.2216C44.2661 31.9556 44.2908 31.7783 44.3055 31.6896C44.3646 31.6452 44.3942 31.6009 44.3942 31.5615C44.3942 31.5172 44.3893 31.4728 44.3745 31.4334C44.3597 31.394 44.3548 31.3349 44.3548 31.2709C44.3548 31.2068 44.3844 31.128 44.4435 31.0443C44.4435 30.8718 44.4779 30.6896 44.5518 30.5024C44.5962 30.4039 44.6405 30.3004 44.6799 30.197L44.9853 29.4827C45.0149 29.1674 45.1676 28.8374 45.4385 28.4975C45.7144 28.1576 46.0346 27.8521 46.4041 27.5763C46.7735 27.3004 47.1528 27.0837 47.542 26.9162C47.941 26.7487 48.276 26.6797 48.5469 26.7093ZM47.5715 28.3349C47.4977 28.3349 47.4287 28.3891 47.3548 28.4975C47.2809 28.6058 47.2119 28.7241 47.138 28.8571C47.0642 29.0147 46.9952 29.1822 46.9213 29.3546C46.9065 29.4285 46.8868 29.5122 46.8573 29.6058C46.8277 29.6994 46.808 29.7881 46.7932 29.8669C46.7784 29.9457 46.7883 30.0098 46.8129 30.064C46.8425 30.1132 46.9016 30.1379 46.9853 30.1379C47.0592 30.1526 47.1676 30.1379 47.3105 30.0935C47.4533 30.0492 47.6011 29.9851 47.7538 29.8965C47.9065 29.8078 48.0444 29.7044 48.1676 29.5812C48.2908 29.4581 48.3597 29.3251 48.3745 29.1822V28.8127C48.3745 28.7388 48.3548 28.6748 48.3105 28.6157C48.2661 28.5566 48.2169 28.5172 48.1578 28.4876C48.0986 28.4433 48.0297 28.4088 47.941 28.3792L47.5715 28.3349Z" fill="white"/>
        <path d="M54.6356 26.5763C54.7932 26.5467 54.9016 26.5713 54.9509 26.6403C55.0001 26.7142 55.1184 26.793 55.3105 26.8768C55.4681 26.9654 55.606 27.0639 55.7243 27.1822C55.8376 27.3004 55.8967 27.4334 55.8967 27.596C55.8819 27.6699 55.8671 27.7487 55.8523 27.8324C55.8228 28.0196 55.8376 28.2019 55.8967 28.3743C55.8967 28.5024 55.8721 28.66 55.8228 28.8423C55.7735 29.0245 55.7588 29.1723 55.7883 29.2856C55.8179 29.3447 55.8622 29.4038 55.9164 29.458C55.9607 29.5024 56.0051 29.5418 56.0592 29.5763C56.1085 29.6107 56.1578 29.6157 56.2021 29.5861C56.345 29.5566 56.5026 29.4186 56.6701 29.1723C56.8376 28.926 57.0001 28.6502 57.1578 28.3497C57.3154 28.0442 57.473 27.7487 57.6356 27.463C57.7932 27.1723 57.941 26.9802 58.0691 26.8768L58.739 26.7043C58.8277 26.6748 58.9213 26.6699 59.0297 26.6846C59.1381 26.6994 59.2218 26.7043 59.2809 26.7043C59.5568 26.862 59.7292 27.0837 59.8031 27.3644C59.877 27.6452 59.9262 27.8669 59.9558 28.0245C59.9706 28.2265 59.9016 28.4925 59.7489 28.8275C59.5962 29.1625 59.4041 29.4334 59.1725 29.6502C59.0691 29.7093 58.9755 29.7536 58.8918 29.793C58.8031 29.8275 58.7193 29.862 58.6307 29.8915C58.5568 29.8915 58.5026 29.8866 58.4681 29.8817C58.4336 29.8768 58.3844 29.8571 58.3253 29.8275C58.2514 29.7979 58.1824 29.7832 58.1184 29.7733C58.0543 29.7684 57.9755 29.7635 57.8918 29.7635C57.7046 29.7635 57.5272 29.8373 57.3597 29.9802C57.1922 30.1231 57.0297 30.2758 56.872 30.4334C56.6257 30.7388 56.4336 31.0787 56.2957 31.463C56.1578 31.8472 56.0888 32.2019 56.0888 32.5369C55.9854 32.6403 55.8671 32.7635 55.7292 32.9162C55.5913 33.0689 55.4878 33.2462 55.4139 33.4482C55.3253 33.6502 55.2858 33.862 55.2957 34.0787C55.3006 34.2955 55.2612 34.5073 55.1775 34.7093C55.1922 34.8817 55.1922 35.0837 55.1775 35.3053C55.1627 35.527 55.1381 35.7635 55.1036 36.0098C55.0691 36.2561 55.0198 36.4925 54.9607 36.7142C54.9016 36.9408 54.8376 37.1378 54.7637 37.3103C54.6602 37.3841 54.5371 37.4482 54.3942 37.5073C54.2514 37.5664 54.0987 37.6058 53.941 37.6354C53.7686 37.6797 53.5814 37.7093 53.3794 37.724C53.3055 37.724 53.212 37.6649 53.0987 37.5516C53.0395 37.4925 52.9903 37.4334 52.9459 37.3792L52.6405 36.7733C52.6257 36.6748 52.6405 36.4974 52.6849 36.2511C52.7292 36.0048 52.7785 35.7585 52.8376 35.5024C52.8967 35.2511 52.9509 35.0245 53.0001 34.8176C53.0494 34.6157 53.074 34.5024 53.074 34.4728C53.3893 33.995 53.6011 33.4925 53.7046 32.9654C53.8031 32.4383 53.9115 31.9162 54.0297 31.394L53.8573 29.9654C53.7834 29.7782 53.6947 29.6846 53.5863 29.6846C53.478 29.6846 53.3647 29.6994 53.2514 29.729C53.0198 29.7733 52.8523 29.8324 52.7538 29.9112C52.6504 29.9901 52.5666 30.0738 52.4927 30.1625C52.4188 30.2511 52.34 30.3349 52.2563 30.4137C52.1676 30.4925 52.0198 30.5467 51.8031 30.5763C51.6849 30.5763 51.6159 30.5024 51.5863 30.3595C51.5568 30.2167 51.5272 30.0837 51.4977 29.9704C51.4681 29.8423 51.4878 29.7142 51.5617 29.591C51.6356 29.4679 51.7292 29.3546 51.8523 29.2462C51.9755 29.1378 52.1184 29.0295 52.276 28.9211C52.4336 28.8127 52.5814 28.6994 52.7095 28.5861C52.8819 28.3989 53.0346 28.192 53.1627 27.9704C53.2908 27.7487 53.4238 27.5369 53.5519 27.3398C53.6799 27.1428 53.8277 26.9802 53.9952 26.8423C54.1627 26.6896 54.3794 26.6058 54.6356 26.5763Z" fill="white"/>
        <path d="M64.3449 24.6501C64.3893 24.6501 64.4632 24.6748 64.5715 24.724C64.6799 24.7733 64.7883 24.8423 64.8967 24.9211C65.005 24.9999 65.1036 25.0935 65.1873 25.192C65.276 25.2955 65.3154 25.394 65.3154 25.4974C65.1873 25.8176 65.0642 26.1132 64.9459 26.3841C64.8425 26.6304 64.744 26.8718 64.6405 27.1083C64.5371 27.3447 64.4583 27.5319 64.4041 27.66C64.3597 27.7191 64.2809 27.8373 64.1676 28.0196C64.0494 28.2019 63.9312 28.394 63.7981 28.6058C63.6701 28.8176 63.5568 29.0196 63.4632 29.2216C63.3696 29.4235 63.3203 29.5664 63.3203 29.6551L63.5174 29.9605C63.6602 29.9605 63.8819 29.8176 64.1775 29.527C64.473 29.2364 64.7883 28.9211 65.1183 28.5713C65.4484 28.2265 65.7735 27.9063 66.0937 27.6157C66.409 27.325 66.6701 27.1822 66.872 27.1822C67.0888 27.1822 67.2563 27.2955 67.3696 27.5171C67.4829 27.7388 67.5765 27.99 67.6405 28.2659C67.7046 28.5418 67.744 28.8029 67.7587 29.0442C67.7735 29.2905 67.7784 29.4334 67.7784 29.4777C67.7784 29.5664 67.744 29.7339 67.6799 29.9851C67.6159 30.2364 67.5666 30.4679 67.5371 30.6698C67.478 30.7142 67.4484 30.7585 67.4484 30.8127C67.4484 30.862 67.4533 30.9014 67.4681 30.9309C67.4829 30.9753 67.5026 31.0098 67.5321 31.0393C67.5174 31.1969 67.4582 31.4235 67.3499 31.724C67.2415 32.0196 67.1233 32.3152 66.9903 32.6009C66.8622 32.8915 66.739 33.1526 66.6208 33.394C66.5026 33.6304 66.4238 33.7733 66.3844 33.8176C66.2267 34.0639 66.0543 34.2807 65.877 34.4679C65.6947 34.6551 65.5026 34.8373 65.3006 35.0098C65.0986 35.1969 64.8523 35.3841 64.5617 35.5615C64.2711 35.7437 64.0346 35.9851 63.8474 36.2856C63.6307 36.4876 63.4041 36.66 63.1627 36.8078C62.9262 36.9506 62.7046 37.1083 62.5026 37.2758C62.3006 37.4432 62.143 37.6304 62.0248 37.8373C61.9065 38.0442 61.872 38.3102 61.9164 38.6304V39.0639C61.9016 39.2659 61.8819 39.4334 61.8523 39.5713C61.8228 39.7093 61.7932 39.8521 61.7538 40.0048C61.7193 40.1575 61.6849 40.325 61.6553 40.5122C61.6257 40.6994 61.611 40.9506 61.611 41.2708C61.5962 41.5319 61.5765 41.7339 61.5568 41.8767C61.5371 42.0196 61.5075 42.1378 61.4681 42.2216C61.4336 42.3102 61.3991 42.3792 61.3696 42.4383C61.34 42.4974 61.3203 42.5664 61.3055 42.6551C61.3055 42.7684 61.3055 42.926 61.3055 43.1231C61.3055 43.3201 61.2908 43.5664 61.2612 43.8718V44.3497C61.2612 44.6551 61.3351 44.8275 61.4878 44.8817C61.6405 44.9309 61.8228 44.9556 62.0395 44.9556H62.4533C62.6701 44.9556 62.8523 45.0541 63.005 45.2462C63.1578 45.4432 63.2316 45.6452 63.2316 45.862C63.2316 45.9506 63.1775 46.0344 63.0691 46.1231C62.9607 46.2117 62.8179 46.3053 62.6454 46.4038C62.4287 46.4038 62.207 46.4679 61.9853 46.6009C61.7587 46.729 61.4977 46.7832 61.1922 46.7536H60.3449C60.0395 46.8275 59.7292 46.8718 59.4139 46.8965C59.0986 46.9162 58.7834 46.9703 58.4829 47.059C58.3252 47.0442 58.207 47.0442 58.1233 47.059C58.0445 47.0738 57.9706 47.0935 57.9065 47.1231C57.8425 47.1526 57.7784 47.1822 57.7095 47.2117C57.6454 47.2413 57.5617 47.2561 57.4582 47.2561C57.3696 47.2413 57.2908 47.1969 57.207 47.128C57.1282 47.0541 57.0642 46.9703 57.01 46.8767C56.9607 46.7832 56.9213 46.6945 56.8917 46.6058C56.8622 46.5171 56.8474 46.4531 56.8474 46.4088C56.8622 46.2364 56.9164 46.1083 57.01 46.0295C57.1036 45.9506 57.2169 45.8915 57.345 45.857C57.473 45.8226 57.611 45.8029 57.744 45.8029C57.877 45.8029 58.0001 45.8029 58.1036 45.8029C58.1627 45.7585 58.2316 45.729 58.3105 45.7043C58.3893 45.6846 58.4632 45.6551 58.5272 45.6157C58.5913 45.5812 58.6504 45.5368 58.6996 45.4876C58.7489 45.4383 58.7735 45.3595 58.7735 45.261C58.8179 45.1575 58.8622 45.0245 58.9164 44.8472C58.9656 44.6748 59.0149 44.5073 59.0592 44.3497C59.1036 44.192 59.143 44.0442 59.1775 43.9063C59.2119 43.7684 59.2366 43.6797 59.2514 43.6354V43.4383C59.2514 43.3792 59.2711 43.2314 59.3154 42.995C59.3597 42.7585 59.4188 42.5073 59.4878 42.2462C59.5469 41.9408 59.6257 41.6009 59.7243 41.2265C59.7538 41.1378 59.7883 41.059 59.8326 40.99C59.8622 40.9162 59.8917 40.8472 59.9213 40.7832C59.9509 40.7191 59.9656 40.6649 59.9656 40.6206C59.9656 40.5171 59.9755 40.3497 60.0001 40.1132C60.0198 39.8767 60.0346 39.4827 60.0346 38.9309L60.2711 38.325L60.5075 36.9359L60.5715 36.3299C60.5715 36.2856 60.5913 36.2166 60.6356 36.1231C60.6799 36.0295 60.7292 35.926 60.7883 35.8078C60.8474 35.6945 60.8967 35.5713 60.941 35.4383C60.9853 35.3102 61.005 35.1871 61.005 35.0689C61.0198 34.8669 61.0297 34.6797 61.0395 34.5073C61.0445 34.3349 61.0592 34.1674 61.074 34.0098C61.0888 33.8521 61.1036 33.6846 61.1183 33.5122C61.1627 33.3102 61.2119 33.1132 61.2711 32.926C61.3154 32.7684 61.3597 32.6107 61.3991 32.4482C61.4435 32.2905 61.4927 32.1575 61.5518 32.059L61.5962 30.8472C61.5962 30.5713 61.4582 30.4334 61.1824 30.4334C61.0642 30.4334 60.9558 30.4827 60.8474 30.5861C60.739 30.6896 60.611 30.7979 60.4681 30.9112C60.1479 31.2314 59.9065 31.3891 59.7292 31.3891C59.6553 31.3743 59.6159 31.3546 59.6011 31.3349C59.5863 31.3152 59.5715 31.2905 59.5568 31.261C59.542 31.2314 59.542 31.1969 59.5568 31.1526C59.5568 30.862 59.6504 30.6009 59.8376 30.3595C60.0248 30.1231 60.2119 29.8669 60.3991 29.591C60.6159 29.1871 60.877 28.7979 61.1775 28.4186C61.4829 28.0442 61.7932 27.6649 62.1085 27.2807C62.4238 26.8965 62.7243 26.5073 63.01 26.1083C63.2908 25.7093 63.5272 25.2807 63.7144 24.8176C63.7883 24.7881 63.8523 24.7585 63.9115 24.729C64.0986 24.6797 64.2267 24.6501 64.3449 24.6501ZM65.1479 30.3694C65.0297 30.3694 64.8917 30.4186 64.7243 30.5221C64.5568 30.6255 64.3893 30.7437 64.2267 30.8817C64.0592 31.0196 63.9213 31.1477 63.8031 31.2708C63.6849 31.394 63.6307 31.4777 63.6307 31.5221C63.4287 31.9408 63.2661 32.3201 63.143 32.66C63.0198 32.9999 62.877 33.3644 62.7193 33.7536V34.3595C62.7193 34.4777 62.744 34.6058 62.7932 34.7487C62.8425 34.8915 63.0198 34.9802 63.3252 35.0098C63.4139 35.0098 63.5371 34.9506 63.7046 34.8373C63.872 34.724 64.0346 34.5861 64.1922 34.4235C64.3794 34.2511 64.5765 34.0492 64.7784 33.8176C64.8917 33.7437 65.0001 33.6551 65.1036 33.5467C65.2021 33.4383 65.3203 33.325 65.4484 33.2117C65.5371 33.0245 65.5863 32.8965 65.6011 32.8324C65.6159 32.7684 65.6208 32.6354 65.6208 32.4334C65.6208 32.3891 65.6159 32.3349 65.6011 32.2708C65.5863 32.2068 65.5715 32.1378 65.5568 32.0639C65.5272 31.99 65.5075 31.9112 65.4927 31.8275V31.394C65.4927 31.3497 65.4927 31.2758 65.4927 31.1674C65.4927 31.059 65.4878 30.9506 65.473 30.8423C65.4583 30.7339 65.4238 30.6354 65.3745 30.5368C65.3252 30.4383 65.2464 30.3841 65.1479 30.3694Z" fill="white"/>
        <path d="M75.6799 26.5122C75.9853 26.5122 76.2021 26.6009 76.3302 26.7733C76.4582 26.9457 76.5272 27.1871 76.5272 27.4876C76.5272 27.5467 76.5075 27.6698 76.4632 27.8669C76.4188 28.0639 76.3646 28.2807 76.3006 28.5171C76.2366 28.7536 76.1676 28.9999 76.0937 29.2413C76.0198 29.4876 75.9656 29.6797 75.9213 29.8275C75.9213 29.9457 75.9114 30.0639 75.9016 30.1871C75.8868 30.3102 75.8376 30.4728 75.7489 30.6748C75.6307 30.7634 75.5765 30.9014 75.5765 31.0984C75.5765 31.2955 75.5765 31.4334 75.5765 31.5221L75.5124 32.6698V33.5171C75.5124 33.5615 75.5174 33.6354 75.5223 33.7437C75.5272 33.8521 75.542 33.9605 75.5666 34.0689C75.5863 34.1772 75.6257 34.2708 75.6848 34.3496C75.744 34.4285 75.8228 34.4679 75.9213 34.4679L76.2267 33.99C76.3154 33.9161 76.4139 33.8275 76.5321 33.7191C76.6454 33.6107 76.7637 33.5073 76.877 33.4038C77.005 33.2905 77.1381 33.1674 77.2661 33.0344C77.3548 33.0344 77.4238 33.0689 77.4829 33.1427C77.542 33.2166 77.5715 33.2955 77.5715 33.3792L77.4829 33.5516C77.4238 33.6698 77.3646 33.7536 77.3105 33.8127C77.207 34.1033 77.0789 34.3496 76.9213 34.5615C76.7637 34.7733 76.5912 34.9753 76.3991 35.1674C76.2119 35.3644 76.0198 35.5615 75.8228 35.7634C75.6257 35.9654 75.4435 36.1969 75.2711 36.458L74.7932 37.128C74.7932 37.2561 74.7538 37.3891 74.675 37.527C74.5962 37.6649 74.5026 37.7733 74.3942 37.8521C74.2858 37.9309 74.1676 37.9654 74.0494 37.9605C73.9262 37.9506 73.8277 37.8718 73.7587 37.7093C73.6701 37.4482 73.6307 37.192 73.6307 36.9408C73.6307 36.6895 73.6504 36.4432 73.6947 36.2019C73.739 35.9654 73.7834 35.7339 73.8228 35.5171C73.8622 35.3004 73.8868 35.0935 73.8868 34.8866V34.1083V33.6748C73.8868 33.6009 73.8376 33.5516 73.7341 33.5221C73.675 33.5073 73.6257 33.5024 73.5814 33.5024C73.5371 33.5024 73.4287 33.6304 73.2563 33.8817C73.0839 34.1329 72.8819 34.4235 72.6602 34.7487C72.4336 35.0738 72.207 35.4038 71.9755 35.7339C71.744 36.0639 71.5568 36.3053 71.4139 36.4482C71.3696 36.5073 71.3006 36.591 71.207 36.6994C71.1134 36.8078 71.01 36.9112 70.9016 37.0147C70.7932 37.1132 70.675 37.2068 70.542 37.2856C70.4139 37.3644 70.2957 37.4038 70.1972 37.4038C69.9952 37.4038 69.8277 37.3299 69.6996 37.1871C69.5715 37.0442 69.4681 36.8718 69.3942 36.6797C69.3203 36.4876 69.2661 36.2905 69.2316 36.0935C69.1972 35.8964 69.1775 35.7585 69.1775 35.6698L69.1134 34.1083L69.4188 31.5713C69.4188 31.527 69.4385 31.4285 69.4829 31.2659C69.5272 31.1083 69.5863 30.9359 69.6553 30.7437C69.7292 30.5565 69.8129 30.3743 69.9065 30.192C70.0001 30.0097 70.0986 29.862 70.1972 29.7487C70.6159 29.3595 71.0198 28.8817 71.409 28.3201C71.5962 28.059 71.7784 27.8718 71.9509 27.7585C72.1233 27.6452 72.2957 27.5516 72.473 27.4876C72.6454 27.4235 72.8178 27.3743 72.9952 27.3349C73.1676 27.3004 73.3646 27.2216 73.5814 27.1083C73.6701 27.1083 73.7784 27.0639 73.9164 26.9654C74.0543 26.8718 74.1775 26.7831 74.2957 26.6945H74.9016H75.2711L75.6799 26.5122ZM72.9016 28.9211C72.6405 29.1378 72.3942 29.3891 72.1627 29.6698C71.9312 29.9506 71.7292 30.2363 71.5568 30.527C71.3844 30.8176 71.2464 31.0886 71.143 31.3398C71.0395 31.591 70.9903 31.793 70.9903 31.9359C70.9903 32.0097 70.9853 32.1427 70.9706 32.3349C70.9558 32.5319 70.9607 32.7339 70.9903 32.9408C71.0198 33.1526 71.074 33.3398 71.1528 33.5024C71.2316 33.6698 71.3745 33.7536 71.5765 33.7536C71.7637 33.7536 71.9853 33.5861 72.2366 33.2561C72.4878 32.926 72.7292 32.5467 72.9509 32.128C73.1725 31.7093 73.3646 31.3201 73.5124 30.9556C73.6651 30.596 73.739 30.3792 73.739 30.3053C73.739 30.2462 73.744 30.1083 73.7587 29.8817C73.7735 29.66 73.7637 29.4432 73.7243 29.2314C73.6898 29.0245 73.606 28.8718 73.4878 28.7782C73.3794 28.6846 73.1775 28.729 72.9016 28.9211Z" fill="white"/>
        <path d="M81.6602 29.1774C81.675 29.3203 81.6898 29.4336 81.7046 29.5124C81.7193 29.5912 81.7341 29.67 81.7489 29.739C81.7637 29.8129 81.7784 29.8966 81.7932 30.0001C81.808 30.1035 81.8228 30.2464 81.8376 30.4336C81.8376 30.7094 81.8474 30.9311 81.872 31.1035C81.8917 31.2759 81.9607 31.4582 82.0789 31.6454C82.1085 31.7636 82.1134 31.8819 82.0986 32.005C82.0839 32.1282 82.0691 32.2415 82.0543 32.34C82.0395 32.4434 82.0445 32.5223 82.0642 32.5764C82.0839 32.6356 82.1479 32.6651 82.2464 32.6651C82.4632 32.6651 82.606 32.6208 82.6799 32.5223C82.7538 32.4287 82.8326 32.3301 82.9164 32.2316C83.074 32.0296 83.2612 31.7932 83.4681 31.5173C83.675 31.2415 83.8179 31.005 83.8917 30.803C83.9361 30.5863 83.9558 30.4188 83.9558 30.2957C83.9558 30.1725 83.9509 30.0641 83.9361 29.9705C83.9213 29.8769 83.9115 29.7833 83.9016 29.6897C83.8917 29.5961 83.9065 29.4828 83.9361 29.3548V29.2907C83.9361 29.1922 83.9311 29.1183 83.9262 29.074C83.9213 29.0296 83.9065 29.0001 83.8819 28.9853C83.8622 28.9705 83.8277 28.9607 83.7834 28.9508C83.739 28.9459 83.675 28.9163 83.5863 28.8769H83.2809C83.1627 28.8769 83.0691 28.8277 83.0001 28.7242C82.9558 28.6799 82.9262 28.6306 82.9114 28.5715C82.8819 28.473 82.9065 28.3695 82.9755 28.2661C83.0494 28.1676 83.143 28.0838 83.2563 28.0149C83.3696 27.9508 83.4977 27.8966 83.6356 27.8523C83.7735 27.808 83.8917 27.7883 83.9952 27.7883C84.0986 27.6602 84.1873 27.5715 84.2661 27.5272C84.3449 27.4828 84.4188 27.4533 84.4829 27.4287C84.5469 27.409 84.611 27.3892 84.6799 27.3745C84.744 27.3597 84.8228 27.3301 84.9065 27.2858C84.9952 27.1725 85.1381 27.0641 85.34 26.9607C85.542 26.8622 85.739 26.808 85.9262 26.808C86.2021 26.8819 86.3351 27.0149 86.3252 27.207C86.3203 27.404 86.2612 27.6503 86.1627 27.9558V28.1922C86.1627 28.2809 86.1676 28.3745 86.1824 28.473C86.1972 28.5764 86.2563 28.6257 86.3548 28.6257C86.4533 28.6109 86.6159 28.5124 86.8425 28.3203C87.0642 28.1331 87.3105 27.9311 87.5666 27.7144C87.8277 27.4976 88.0789 27.3006 88.3252 27.1282C88.5715 26.9558 88.7735 26.8671 88.9312 26.8671C89.1479 26.8671 89.3597 26.9016 89.5715 26.9755C89.7784 27.0493 89.9804 27.138 90.1676 27.2464C90.3548 27.3548 90.5223 27.4828 90.6651 27.6356C90.808 27.7883 90.9164 27.936 90.9903 28.0789C91.1331 28.2809 91.2267 28.5223 91.2612 28.803C91.2957 29.0838 91.2858 29.3646 91.2267 29.6356L90.4878 31.803C90.4287 32.0493 90.2957 32.2809 90.0888 32.4976C89.877 32.7144 89.6947 32.9459 89.5371 33.1922C89.3499 33.4681 89.138 33.7538 88.9065 34.0493C88.675 34.3449 88.4238 34.6405 88.1479 34.9262C88.0198 35.0838 87.9114 35.2021 87.8228 35.271C87.7341 35.3449 87.6553 35.4139 87.5715 35.4779C87.4927 35.542 87.4041 35.6208 87.3006 35.7144C87.1972 35.808 87.074 35.9508 86.9312 36.138C86.8573 36.2562 86.7489 36.3843 86.5962 36.5272C86.4435 36.67 86.2809 36.808 86.1085 36.941C85.9361 37.069 85.7538 37.1774 85.5666 37.2661C85.3794 37.3548 85.2119 37.3942 85.0691 37.3942C84.7637 37.3942 84.5124 37.3449 84.3105 37.2513C84.1085 37.1577 84.0198 37.0099 84.0494 36.808C84.1085 36.5912 84.1381 36.4287 84.1479 36.3203C84.1528 36.2119 84.1578 36.1134 84.1578 36.0296L84.2858 35.6602C84.2563 35.3548 84.2119 35.0838 84.1578 34.8474C84.0986 34.6109 84.0986 34.34 84.1578 34.0346C84.2316 33.7045 84.2415 33.4287 84.1922 33.2119C84.143 32.9952 84.074 32.8868 83.9853 32.8868C83.739 32.8868 83.5026 33.0444 83.271 33.3548C83.0395 33.6651 82.8178 33.9705 82.6011 34.2759C82.4829 34.4631 82.4287 34.6158 82.4287 34.7291C82.4287 34.8474 82.3646 34.9952 82.2316 35.1824C82.1134 35.4287 81.9952 35.6208 81.872 35.7686C81.7489 35.9114 81.675 36.0789 81.6454 36.2661C81.5715 36.3695 81.5026 36.4779 81.4385 36.6011C81.3745 36.7242 81.3055 36.8375 81.2316 36.936C81.1577 37.0346 81.074 37.1183 80.9706 37.1873C80.8671 37.2513 80.7489 37.2858 80.6011 37.2858C80.4977 37.2858 80.3893 37.271 80.2661 37.2415C80.143 37.2119 80.0346 37.1676 79.941 37.1134C79.8474 37.0543 79.7735 36.9853 79.7144 36.9065C79.6553 36.8277 79.6356 36.7292 79.6504 36.6159C79.739 36.3006 79.8031 36.0247 79.8573 35.7932C79.9065 35.5617 79.9164 35.2365 79.8917 34.8178C79.8917 34.542 79.8671 34.2809 79.8179 34.0247C79.7686 33.7735 79.7686 33.4927 79.8277 33.1922L79.8917 32.4779C79.877 32.2907 79.8671 32.1479 79.8573 32.0543C79.8523 31.9607 79.8425 31.872 79.8376 31.7932C79.8326 31.7144 79.8228 31.6356 79.8179 31.5567C79.808 31.4779 79.7982 31.3597 79.7834 31.1971C79.7538 31.1085 79.7341 31.0346 79.7292 30.9705C79.7193 30.9065 79.7095 30.8572 79.6947 30.8277C79.6799 30.7833 79.6651 30.7489 79.6504 30.7193V30.1774V30.1134C79.6504 29.9262 79.5814 29.7883 79.4435 29.6996C79.3055 29.6109 79.1381 29.5715 78.9361 29.5715C78.8474 29.5715 78.7784 29.5912 78.7292 29.6257C78.6799 29.6602 78.6257 29.7045 78.5666 29.7538C78.5075 29.803 78.4385 29.8474 78.3499 29.8819C78.2612 29.9163 78.1331 29.936 77.9607 29.936C77.8573 29.936 77.7735 29.9016 77.6996 29.8277C77.6553 29.7833 77.6208 29.739 77.5912 29.6996C77.5912 29.5124 77.6651 29.3301 77.808 29.1577C77.9509 28.9853 78.0839 28.8966 78.1972 28.8966C78.4139 28.6947 78.5863 28.5272 78.7193 28.3991C78.8474 28.271 79.0149 28.1626 79.2169 28.074C79.2612 28.0149 79.3597 27.9065 79.5075 27.7489C79.6602 27.5912 79.8228 27.4336 80.005 27.2809C80.1873 27.1282 80.3646 26.9902 80.5469 26.8671C80.7292 26.7439 80.8671 26.6848 80.9706 26.6848C81.1873 26.6848 81.34 26.7587 81.4385 26.9114C81.5321 27.0641 81.5962 27.2415 81.6208 27.4533C81.6504 27.6651 81.6602 27.872 81.6553 28.0838C81.6454 28.2957 81.6454 28.4484 81.6454 28.5518V29.1774H81.6602ZM86.1676 30.2612C86.1233 30.4631 86.1085 30.6356 86.1233 30.7833C86.138 30.9262 86.1627 31.074 86.1972 31.2168C86.2316 31.3597 86.2711 31.5223 86.3055 31.6947C86.34 31.8671 86.3597 32.0691 86.3597 32.3006C86.3302 32.4188 86.3154 32.5715 86.3154 32.7686C86.3154 32.9656 86.3302 33.1577 86.3597 33.3449C86.3893 33.5321 86.4385 33.6996 86.5124 33.8424C86.5863 33.9853 86.6701 34.0592 86.7735 34.0592C86.9459 34.0592 87.1381 33.9853 87.3499 33.8424C87.5568 33.6996 87.7587 33.5272 87.9459 33.3203C88.1331 33.1183 88.2957 32.9065 88.4336 32.6897C88.5715 32.473 88.6602 32.2858 88.7046 32.1282C88.7637 31.8227 88.808 31.5666 88.8326 31.3597C88.8622 31.1528 88.8671 30.9558 88.8425 30.7735C88.8228 30.5912 88.7686 30.4139 88.6799 30.2316C88.5913 30.0493 88.478 29.8375 88.3351 29.5912C88.276 29.4779 88.143 29.3794 87.9361 29.3006C87.7243 29.2218 87.5223 29.1824 87.3203 29.1824C87.2316 29.1824 87.1233 29.2168 86.9952 29.2907C86.8671 29.3646 86.744 29.4533 86.6257 29.5617C86.5075 29.67 86.409 29.7883 86.3203 29.9213C86.2316 30.0543 86.1824 30.1626 86.1676 30.2612Z" fill="white"/>
        <path d="M98.0839 26.5122C98.3006 26.5122 98.4977 26.6157 98.6701 26.8176C98.8425 27.0196 98.9311 27.2216 98.9311 27.4235C98.9311 27.5812 98.8129 27.7142 98.5863 27.8226C98.3548 27.9309 98.0937 28.0344 97.808 28.128C97.5174 28.2216 97.2316 28.3102 96.9509 28.3989C96.6701 28.4876 96.4829 28.5812 96.3991 28.6797C96.2711 28.8078 96.1725 28.9605 96.1183 29.123C96.0592 29.2905 96.0297 29.458 96.0297 29.6304C96.0297 29.8028 96.0592 29.9703 96.1183 30.128C96.1775 30.2856 96.2464 30.4334 96.3351 30.5615C96.4385 30.7634 96.5568 30.9753 96.6947 31.2019C96.8326 31.4235 96.9558 31.6846 97.074 31.9703C97.1873 32.261 97.2858 32.5861 97.3646 32.9457C97.4435 33.3053 97.4829 33.7092 97.4829 34.1575C97.4829 34.5467 97.3548 34.9408 97.0937 35.3398C96.8326 35.7388 96.5026 36.0886 96.0986 36.3891C95.7834 36.5615 95.5371 36.7043 95.3597 36.8127C95.1873 36.9211 95.0346 37.0097 94.9065 37.0738C94.7784 37.1378 94.6504 37.1822 94.5272 37.2019C94.4041 37.2216 94.2464 37.2363 94.0592 37.2363H93.2809C93.207 37.2363 93.1134 37.2413 93.0001 37.256C92.8819 37.2708 92.7686 37.2905 92.6553 37.3201C92.5124 37.3496 92.3597 37.3792 92.2021 37.4088H92.074H91.5962C91.1922 37.4088 90.9903 37.2117 90.9903 36.8226C90.9903 36.724 91.0543 36.5615 91.1873 36.3447C91.3154 36.128 91.4779 35.9211 91.675 35.7142C91.872 35.5122 92.074 35.3299 92.2908 35.1723C92.5075 35.0147 92.6947 34.9359 92.8523 34.9359C92.8967 34.9359 92.9656 34.9703 93.0691 35.0344C93.1725 35.0984 93.2908 35.1674 93.4287 35.2413C93.5666 35.3152 93.7193 35.3841 93.8967 35.4482C94.074 35.5122 94.2661 35.5467 94.4829 35.5467C94.6257 35.5467 94.7587 35.5024 94.8819 35.4186C95.005 35.3299 95.1085 35.2265 95.1972 35.1033C95.2858 34.9802 95.3499 34.8521 95.3942 34.7142C95.4385 34.5762 95.4582 34.458 95.4582 34.3546C95.4582 34.1083 95.3646 33.8078 95.1775 33.4531C94.9903 33.0984 94.7784 32.7388 94.5469 32.3693C94.3154 31.9999 94.1085 31.6501 93.9164 31.3201C93.7292 30.99 93.6356 30.7142 93.6356 30.4974V30.261C93.6947 30.0147 93.7784 29.7634 93.8967 29.5024C94.01 29.2413 94.143 29.0048 94.2858 28.7881C94.4287 28.5713 94.5912 28.3792 94.7637 28.2117C94.9361 28.0442 95.1233 27.9408 95.3252 27.8964C95.4287 27.8373 95.5321 27.7437 95.6405 27.6157C95.7489 27.4876 95.8474 27.3644 95.9312 27.2462C96.0445 27.1329 96.1528 27.0196 96.2464 26.9112C96.34 26.8028 96.4385 26.7339 96.5371 26.7043C96.6504 26.6058 96.8326 26.5467 97.0789 26.5319C97.3252 26.5171 97.5026 26.5122 97.6208 26.5122H98.0839Z" fill="white"/>
        <path d="M40.9903 15.5615H41.6553C41.7883 15.5615 41.9115 15.596 42.0346 15.66C42.1578 15.7241 42.2858 15.7586 42.4139 15.7586L43.1036 15.5615H43.4977C43.611 15.5615 43.739 15.596 43.877 15.6699C44.0149 15.7438 44.1479 15.8374 44.2711 15.9507C44.3942 16.064 44.4927 16.1822 44.5666 16.3054C44.6405 16.4285 44.675 16.5369 44.675 16.6354C44.675 16.8817 44.6405 17.1428 44.5765 17.4236C44.5124 17.7044 44.3942 17.9753 44.2316 18.2463C44.0691 18.5172 43.8523 18.7586 43.5913 18.9704C43.3302 19.1822 43.0001 19.3398 42.606 19.4384H42.409H42.1381C41.9558 19.4384 41.7587 19.4876 41.5371 19.5862C41.3154 19.6847 41.1085 19.8128 40.9115 19.9655C40.7144 20.1231 40.5518 20.2955 40.4188 20.4827C40.2858 20.6699 40.2218 20.8472 40.2218 21.0098C40.0888 21.1231 40.005 21.3103 39.9656 21.5615C39.9262 21.8177 39.8474 22.0394 39.7341 22.2364C39.6011 22.3842 39.5272 22.5862 39.5026 22.8374C39.478 23.0935 39.4681 23.2857 39.4681 23.4137L39.1972 24.3004C39.1972 24.532 39.1479 24.7586 39.0494 24.9901C38.9509 25.2216 38.8425 25.4679 38.7193 25.729C38.5962 25.9901 38.4878 26.2758 38.3893 26.5763C38.2908 26.8817 38.2415 27.2118 38.2415 27.5714V28.064C38.2415 28.1477 38.276 28.2019 38.34 28.2364C38.3745 28.2512 38.4139 28.261 38.4632 28.261C38.5765 28.261 38.6947 28.1625 38.808 27.9655C38.9213 27.7684 39.0691 27.5467 39.2514 27.3004C39.4336 27.0541 39.6553 26.8325 39.9164 26.6354C40.1775 26.4384 40.5124 26.3398 40.9262 26.3398L41.4681 26.1428C41.8474 26.1428 42.1331 26.2512 42.3302 26.4729C42.5272 26.6945 42.6257 26.995 42.6257 27.3694V27.5664L42.4287 28.0591C42.4632 28.1921 42.4927 28.3201 42.5272 28.4531C42.5617 28.5664 42.5863 28.6847 42.6011 28.8078C42.6159 28.931 42.6257 29.0394 42.6257 29.1379C42.6257 29.3201 42.6011 29.4334 42.5518 29.4827C42.5174 29.5664 42.4878 29.6354 42.4681 29.6896C42.4435 29.7487 42.4287 29.793 42.4287 29.8275C42.4287 29.8916 42.4385 29.9458 42.4533 29.9852C42.4681 30.0246 42.4878 30.0788 42.5026 30.1428C42.5174 30.2068 42.5223 30.2906 42.5174 30.3891C42.5075 30.4876 42.478 30.6206 42.4336 30.7832V31.5221C42.4336 31.5714 42.3893 31.6748 42.3006 31.8275C42.2119 31.9852 42.1085 32.1576 41.9952 32.3546C41.8819 32.5517 41.7587 32.7635 41.6257 32.995C41.4927 33.2265 41.3942 33.4482 41.3302 33.66L41.0592 34.7438C40.7637 35.1724 40.4829 35.5566 40.2218 35.9014C39.9903 36.197 39.7735 36.4827 39.5715 36.7635C39.3647 37.0443 39.2218 37.2167 39.143 37.2807C38.9607 37.394 38.8228 37.5024 38.7243 37.6009C38.6257 37.6995 38.5272 37.7832 38.4287 37.8472C38.3302 37.9113 38.207 37.9605 38.0592 37.995C37.9115 38.0295 37.6799 38.0443 37.3696 38.0443L36.6799 38.2413C36.5469 38.2413 36.4582 38.2019 36.409 38.133C36.3597 38.0591 36.3252 37.9605 36.3105 37.8374C36.2957 37.7142 36.276 37.5812 36.2612 37.4334C36.2464 37.2857 36.2021 37.1477 36.1381 37.0147C36.1381 36.931 36.1134 36.8472 36.0642 36.7586C36.0149 36.6699 35.9755 36.5763 35.941 36.4778C35.8277 36.3448 35.7144 36.2216 35.611 36.0985C35.5026 35.9753 35.4484 35.8226 35.4484 35.6453C35.4484 35.5123 35.4878 35.3398 35.5715 35.128C35.6208 35.0147 35.6701 34.8916 35.7193 34.7586V34.0196L35.941 31.7536V31.261L36.409 28.9507V28.261V28.064C36.409 27.931 36.4533 27.6551 36.542 27.2265C36.6307 26.798 36.6799 26.3004 36.6799 25.7241V25.0344L37.3696 22.2315V22.0344C37.3696 21.9211 37.3893 21.7339 37.4287 21.4827C37.4681 21.2265 37.5124 20.9704 37.5666 20.7093C37.6307 20.4137 37.7046 20.0886 37.7883 19.7241L37.9853 19.0344C38.0198 18.7881 38.0888 18.5714 38.1922 18.3842C38.3006 18.197 38.4582 17.931 38.6701 17.5862L40.9903 15.5615ZM37.5715 33.5467C37.5715 33.7093 37.5863 33.8571 37.6208 33.9901C37.6553 34.1034 37.6848 34.2068 37.7193 34.2955C37.7538 34.3842 37.808 34.4334 37.8917 34.4334H38.1873C38.4188 34.3497 38.6651 34.2019 38.9361 33.9901C39.207 33.7783 39.4582 33.5369 39.6848 33.2758C39.9164 33.0147 40.1085 32.7438 40.2612 32.463C40.4188 32.1822 40.4927 31.931 40.4927 31.6995V31.0837V30.5418L40.3696 30.0492L40.4927 29.6551C40.4927 29.064 40.1972 28.7684 39.606 28.7684C39.3745 28.7684 39.143 28.9408 38.9065 29.2857C38.6701 29.6305 38.4533 30.0246 38.2563 30.4679C38.0592 30.9113 37.8967 31.3398 37.7637 31.7586" fill="white"/>
    </g>
    <defs>
        <clipPath id="clip0_1583_1212">
            <rect width="104.187" height="60" fill="white"/>
        </clipPath>
    </defs>
</svg>
