<svg width="796" height="474" viewBox="0 0 796 474" fill="none" xmlns="http://www.w3.org/2000/svg">
    <path d="M606.42 272.162C608.143 268.474 609.234 265.112 608.737 261.169C608.358 258.135 611.174 259.59 612.457 259.93C620.359 262.023 628.393 263.111 636.451 264.261C648.169 265.934 657.929 260.37 657.941 248.783C657.951 246.628 659.23 246.129 661.049 246.494C666.679 247.667 672.254 246.737 677.845 246.229C678.492 245.756 679.139 245.283 679.786 244.81C680.258 244.588 680.733 244.337 681.205 244.116L681.196 244.205C684.173 240.256 686.514 236.092 686.171 230.937C686.02 228.885 687.37 228.274 689.052 227.936C691.498 227.437 693.998 227.003 696.403 226.319C703.871 224.146 708.688 219.186 709.796 211.543C710.496 206.734 712.663 206.924 716.111 208.054C723.011 210.284 730.009 211.836 737.345 210.966C739.044 210.75 740.796 210.599 742.427 210.166C746.49 209.083 749.726 206.717 750.258 202.37C750.779 198.141 748.137 195.266 744.482 193.516C731.747 187.428 718.774 181.914 705.345 177.641C694.585 174.21 686.445 178.561 684.228 187.977C683.225 192.247 684.634 196.343 685.993 200.345C687.738 205.553 687.262 206.403 681.754 206.68C677.841 206.881 673.971 206.367 670.119 205.375C666.94 204.542 663.701 204.003 660.361 204.741C656.011 205.705 652.912 207.905 651.908 212.474C650.853 217.247 652.191 221.157 656.375 223.889C658.705 225.414 661.067 226.912 663.228 228.929C656.656 229.068 650.442 227.746 644.369 225.331C640.314 223.69 636.581 221.244 632.058 220.962C631.234 221.118 630.409 221.274 629.585 221.429C623.009 226.898 623.278 231.896 630.265 236.8C633.844 239.291 637.284 241.977 640.688 244.72C641.741 245.546 643.055 246.757 642.421 248.28C641.68 249.971 639.962 249.197 638.658 249.064C625.683 247.683 613.248 244.23 601.365 238.887C599.247 237.923 597.023 237.127 594.866 236.249C592.782 242.894 587.631 243.776 581.718 243.324C581.226 246.687 582.231 249.754 583.571 252.766C584.646 255.151 583.832 255.787 581.435 255.513C575.747 254.903 570.051 254.383 564.328 253.83C550.189 255.055 538.057 249.507 526.335 242.593C525.571 242.156 524.451 241.682 524.868 240.527C525.366 239.17 526.658 239.422 527.703 239.738C530.088 240.43 532.536 241.099 534.831 242.081C541.712 245.088 548.958 245.976 556.338 246.428C557.915 246.529 559.477 246.478 560.946 245.879C562.729 245.133 564.47 244.202 564.631 242.032C564.793 239.563 562.463 239.805 560.999 239.177C556.317 237.233 551.946 234.871 549.236 230.313C540.422 228.936 531.669 227.265 523.271 224.164C518.913 222.552 515.153 220.073 512.858 215.857C512.028 214.305 511.459 212.54 512.754 210.995C513.946 209.589 515.636 209.162 517.473 209.649C525.867 211.912 534.266 209.713 542.669 209.82C545.512 209.84 544.878 207.829 544.274 206.121C542.749 201.683 540.949 197.308 539.642 192.802C536.269 181.229 542.351 173.554 554.462 174.309C563.985 174.89 573.505 175.5 583.058 174.617C587.713 174.193 590.054 172.664 589.848 167.343C589.579 160.279 594.449 155.983 601.695 156.572C610.901 157.33 620.07 158.444 629.343 158.55C631.616 158.572 633.959 159.38 636.116 160.258C637.929 160.982 639.966 161.848 640.033 164.43C640.076 166.95 638.736 168.64 636.712 169.692C634.941 170.619 632.986 171.288 631.02 171.777C624.474 173.416 617.873 174.72 611.071 174.476C608.596 174.373 607.737 175.454 607.508 177.706C606.608 186.538 600.875 191.075 593.06 193.722C586.3 195.998 579.286 196.362 572.227 196.571C566.188 196.764 566.2 196.945 568.087 202.528C570.734 210.343 570.744 217.891 566.062 225.05C570.056 229.349 574.577 232.295 581.169 230.781C580.519 228.349 578.713 226.967 576.845 225.609C572.553 222.477 571.352 219.27 573.276 216.262C575.131 213.337 578.365 213.337 583.245 215.99C586.905 217.98 590.577 220.151 595.057 219.679C598.366 214.236 600.65 208.57 599.587 201.963C599.141 199.283 601.348 199.957 602.768 200.131C610.363 201.115 617.996 201.443 625.613 200.452C627.463 200.222 629.249 199.745 631.084 199.363C630.615 198.387 630.115 197.407 629.708 196.408C627.589 191.341 630.054 187.13 635.535 187.119C642.333 187.123 649.167 187.64 655.967 187.913C661.196 178.324 661.478 168.202 659.002 157.828C657.41 156.109 655.626 154.52 654.292 152.617C647.554 142.917 637.831 138.423 626.597 136.71C619.932 135.701 613.171 135.342 606.494 134.452C595.949 133.019 585.225 132.765 575.008 129.298C565.919 126.216 557.634 121.42 549.223 116.97C534.958 109.438 520.604 102.196 505.156 97.4481C497.578 95.119 489.985 92.938 482.734 89.7439C471.816 84.9185 461.298 79.1157 450.154 75.0459C432.338 68.5596 413.524 67.1819 394.717 66.3142C388.88 69.5226 383.12 72.8586 377.207 75.9395C370.409 79.4692 364.874 84.4153 360.277 90.4451C358.135 93.2513 355.478 95.2265 352.221 96.6315C335.512 103.973 323.255 116.409 313.212 131.227C307.751 139.265 304.373 148.323 300.882 157.311C297.666 178.304 302.142 198.733 305.626 219.211C307.823 232.042 312.822 244.11 316.466 256.549C319.029 258.726 320.609 261.732 322.151 264.524C327.472 274.319 335.447 281.869 343 289.736C349.092 296.076 357.308 298.32 365.52 300.594C375.653 303.423 386.098 304.367 396.374 306.372C402.392 307.554 408.524 307.041 414.61 306.374C410.51 300.177 407.797 293.013 402.052 287.966C399.88 286.068 400.616 282.369 397.529 281.217C395.244 287.482 392.879 288.948 386.555 287.824C380.64 286.803 375.092 284.83 369.827 281.838C366.768 280.119 363.803 278.649 359.762 279.226C355.812 279.782 356.581 276.057 356.939 273.428C335.61 261.164 319.889 244.111 312.249 220.335C310.841 215.939 309.58 211.259 312.026 206.657C312.766 205.265 313.288 203.672 315.256 203.752C317.221 203.863 317.411 205.529 318.105 206.947C321.725 214.323 325.346 221.699 331.834 227.091L331.769 227.145C329.247 218.383 325.19 210.005 324.579 200.719C324.311 196.59 323.631 192.388 325.126 188.288C325.746 186.614 326.463 185.16 328.13 184.372C327.014 178.868 325.563 173.42 326.412 167.727C326.713 165.661 326.85 163.43 329.403 163.061C332.107 162.677 333.408 164.607 334.02 166.825C336.714 176.832 340.633 186.274 346.142 195.1C348.123 198.297 350.269 201.33 352.801 204.103C354.124 205.526 355.034 207.176 353.901 209.186C361.736 216.632 370.613 222.388 380.524 226.511C380.794 226.21 381.097 225.881 381.367 225.579C377.838 221.716 374.341 217.826 370.744 214.046C362.442 205.295 354.2 196.55 348.694 185.628C346.154 180.578 346.468 176.029 349.641 173.687C353.364 170.952 358.04 171.787 362.066 176.36C370.949 186.458 381.765 193.459 395.101 196.884C389.705 190.764 384.339 184.648 378.943 178.528C368.369 175.924 357.918 164.169 356.621 153.376C356.423 151.799 356.55 150.255 357.383 148.842C358.034 147.741 358.878 146.809 360.289 146.773C361.789 146.746 362.495 147.746 362.967 148.992C363.713 151.074 364.718 152.973 366.491 154.382C370.93 147.258 377.721 145.554 383.236 151.386C391.401 160.004 401.653 164.013 412.398 167.593C423.084 171.167 433.644 175.087 444.252 178.833C445.843 179.384 447.547 179.708 449.765 179.395C443.218 173.996 436.701 168.601 430.156 163.173C429.436 166.424 426.961 166.621 424.308 166.5C418.643 166.253 413.796 163.573 408.891 161.157C398.798 156.176 389.807 149.78 383.182 140.451C381.402 137.934 380.203 135.296 381.187 132.103C381.587 130.826 382.291 129.79 383.638 129.507C385.049 129.172 386.02 129.93 386.741 131.081C390.309 136.625 395.632 140.222 400.958 143.789C401.376 134.399 405.776 130.595 415.195 131.614C422.213 132.389 428.462 135.122 434.224 139.122C445.663 147.055 458.215 152.586 471.455 156.66C472.617 157.018 473.852 157.234 475.986 157.75C472.629 153.366 468.379 151.286 465.237 148.031C454.659 147.523 445.549 143.181 437.296 136.89C429.821 131.188 422.552 125.237 415.217 119.339C414.389 118.656 413.634 117.83 413.008 116.928C412.251 115.833 412.084 114.528 412.916 113.415C413.852 112.163 415.07 112.556 416.314 112.983C422.772 115.138 428.267 119.111 434.059 122.516C437.512 117.717 442.145 116.333 448.005 116.72C461.271 117.592 473.256 122.526 485.163 127.632C494.86 131.794 504.826 134.786 515.303 136.003C518.468 136.385 521.572 136.192 524.665 135.819C529.002 135.272 532.534 136.47 534.83 140.088C537.124 143.736 536.595 147.754 534.442 151.248C529.59 159.198 521.792 161.668 513.077 161.379C509.168 161.25 508.292 161.61 509.482 165.804C512.266 175.52 505.732 183.509 495.645 183.17C492.065 183.045 488.506 182.413 484.95 181.751C483.068 181.41 481.835 181.164 482.228 183.78C484.357 197.861 472.574 208.878 454.042 205.313C452.368 204.993 450.664 204.67 448.987 204.379C457.571 215.944 451.392 233.97 437.561 236.874C433.949 237.643 432.634 238.797 432.992 242.337C433.126 243.668 432.445 245.066 432.128 246.411C444.574 239.175 455.786 230.226 467.315 221.698C473.531 217.121 474.326 216.663 479.883 222.08C486.121 228.165 494.549 230.97 500.873 236.795C503.613 237.823 506.065 239.33 508.264 241.261C513.046 243.695 517.829 246.128 522.612 248.562C525.779 249.813 528.975 251.067 532.144 252.288C539.109 254.764 546.313 255.768 553.661 255.947C556.646 256.042 559.456 256.388 560.675 259.417C561.849 262.291 560.329 264.861 558.627 267.173C558 268.038 557.121 268.727 556.355 269.487C571.546 273.221 586.836 275.976 602.762 275.143C603.171 275.544 602.84 276.139 602.463 276.61C592.555 288.327 584.178 301.189 574.94 313.393C564.07 327.798 548.549 335.529 532.818 342.97C538.992 342.042 545.042 340.263 550.968 338.531C562.363 335.14 570.81 326.598 579.272 318.776C586.414 312.167 591.051 303.386 596.677 295.485C600.803 289.676 604.709 283.666 610.332 279.028C614.028 275.961 618.853 275.045 622.563 272.129C617.299 272.072 612.037 271.985 606.385 271.919L606.42 272.162ZM448.787 104.043C447.5 102.864 445.151 101.816 446.756 99.584C448.254 97.5206 450.291 98.6864 451.732 99.8215C461.323 107.386 472.517 111.851 483.478 116.83C486.111 118.027 488.542 119.742 491.059 121.196C492.33 121.655 493.369 122.329 493.911 124.062C492.034 124.26 490.401 124.423 488.942 123.166C474.522 118.912 460.248 114.404 448.757 104.04L448.787 104.043ZM345.589 114.701C360.263 102.931 376.196 93.504 394.984 89.8483C397.976 89.2847 402.425 88.2406 403.397 91.3341C404.302 94.2112 399.678 95.5069 397.228 96.6347C384.405 102.575 371.996 109.157 360.083 116.747C356.273 119.174 352.61 121.915 348.956 124.567C347.436 125.67 345.892 127.01 345.633 128.96C345.213 131.912 343.666 133.281 340.86 132.606C337.705 131.835 337.87 129.037 337.677 127.401C338.361 121.272 341.869 117.706 345.618 114.704L345.589 114.701Z" fill="#032363"/>
    <path d="M501.178 306.088C495.138 310.115 488.495 313.301 483.206 318.481C484.979 319.59 486.514 318.339 488.03 317.865C502.727 313.223 516.526 306.514 530.184 299.431C532.967 297.978 535.8 296.619 538.87 295.884C540.035 295.613 541.394 294.913 542.296 296.353C543.017 297.504 542.081 298.457 541.54 299.36C540.345 301.394 538.756 303.179 536.847 304.571C523.017 314.811 507.786 321.764 490.662 324.362C489.9 324.494 489.114 324.563 488.335 324.574C483.058 324.635 482.073 323.427 483.304 318.402C482.228 318.082 481.521 318.849 480.865 319.411C471.643 327.335 461.168 333.455 451.317 340.506C449.411 341.87 447.479 343.2 444.948 342.762C442.683 342.951 440.71 342.331 439.35 340.395C435.787 336.858 432.908 332.792 430.411 328.495C425.819 320.661 420.06 313.696 414.563 306.518C408.479 307.156 402.377 307.672 396.326 306.517C386.05 304.512 375.606 303.568 365.473 300.739C357.263 298.435 349.074 296.223 342.952 289.88C335.399 282.014 327.427 274.434 322.104 264.669C320.564 261.847 318.981 258.871 316.421 256.663C315.73 258.45 317.335 261.218 314.878 262.106C312.547 262.947 310.846 260.827 309.183 259.52C305.912 256.94 303.876 253.409 302.001 249.774C292.693 231.788 289.104 212.347 287.027 192.462C286.727 189.526 286.309 186.579 285.92 183.635C271.401 180.359 261.073 172.689 258.449 156.701C255.26 158.023 253.333 160.192 251.381 162.299C248.286 165.637 245.138 168.91 241.475 171.651C236.779 175.125 231.753 175.961 226.499 173.15C221.246 170.339 219.879 165.528 220.355 159.977C220.542 158.139 220.732 156.272 220.935 154.286C218.54 154.282 217.57 156.16 216.121 157.15C211.521 160.275 206.007 160.611 201.977 157.835C198.087 155.163 196.352 149.566 197.633 144.337C199.21 137.969 202.692 132.305 204.429 125.834C199.291 131 192.666 135.476 190.372 142.13C185.833 155.232 181.741 168.65 180.117 182.529C178.798 193.714 181.153 204.404 186.278 214.359C193.65 228.705 200.387 243.406 209.187 256.969C215.764 267.072 223.139 276.387 233.107 283.781C242.739 290.931 251.26 299.585 261.493 306.137C264.809 308.271 266.126 312.688 269.557 315.163C273.912 318.272 278.635 320.7 283.204 323.471C285.063 324.618 287.164 325.461 287.755 327.887C288.269 328.718 288.584 329.738 289.728 329.975C292.723 334.382 292.198 339.539 292.044 344.285C291.817 351.209 293.46 357.126 297.868 362.366C301.659 363.95 305.149 366.432 309.543 366.22C311.016 366.161 312.631 366.774 313.851 365.372C310.567 363.51 309.989 360.367 309.978 356.652C307.988 357.378 307.551 361.077 304.951 359.554C302.352 358.031 302.846 355.237 303.097 352.777C303.383 349.962 304.168 347.257 305.732 344.841C306.582 343.55 307.515 342.028 309.447 342.764C311.12 343.383 310.996 344.898 310.848 346.35C310.706 347.743 310.564 349.136 310.413 350.618C312.604 350.571 312.433 348.727 313.193 347.727C314.26 346.368 315.165 344.544 317.194 345.2C319.167 345.82 319.166 347.886 319.083 349.585C318.847 355.13 318.837 360.819 313.604 364.568C313.506 364.648 313.665 365.143 313.724 365.448C315.839 366.143 317.411 363.938 319.488 364.419C326.312 356.52 335.792 351.347 341.918 342.658C343.354 340.618 345.818 340.24 348.292 340.642C352.195 339.662 355.711 341.008 359.114 342.583C363.948 344.812 368.912 346.635 374.071 348.029C390.831 352.522 407.844 355.722 424.891 358.866C426.536 359.183 427.49 359.52 428.1 361.469C429.494 366.012 431.35 370.424 433.242 374.779C435.258 379.386 437.773 383.805 442.544 386.058C446.542 387.962 449.834 390.633 452.905 393.701C463.094 396.565 469.165 391.345 473.689 383.092C478.378 374.107 479.205 364.219 480.208 354.38C479.36 349.472 482.477 348.861 486.075 349.108C491.635 349.495 497.126 350.563 502.727 349.966C507.163 349.34 511.63 348.986 516.007 348.055C521.704 346.808 527.528 345.785 532.854 343.183C548.614 335.745 564.134 328.013 574.975 313.606C584.187 301.369 592.591 288.54 602.498 276.823C602.873 276.382 603.203 275.786 602.797 275.356C586.872 276.189 571.584 273.404 556.39 269.7C537.968 281.808 519.499 293.791 501.181 306.059L501.178 306.088ZM219.605 209.669C220.382 207.622 221.211 205.071 223.926 205.468C226.99 205.96 225.518 208.654 225.568 210.516C225.652 212.92 226.291 215.171 227.615 217.163C233.734 226.47 239.025 236.262 244.411 246.004C245.625 248.194 247.062 250.257 248.921 252.003C250.016 253.013 250.885 254.18 249.892 255.696C249.042 256.986 247.627 257.351 246.148 257.171C243.362 256.887 241.148 255.404 239.18 253.556C235.135 249.76 232.001 245.249 229.443 240.377C226.306 234.427 223.234 228.425 220.257 222.372C218.914 219.69 217.976 216.84 218.474 213.716C218.85 212.377 219.113 210.966 219.635 209.672L219.605 209.669ZM198.806 197.788C202.463 198.041 200.077 202.649 200.467 205.294C202.496 218.587 206.421 231.204 213.957 242.482C216.112 245.726 219.669 247.257 222.846 249.287C224.166 250.14 226.587 250.776 225.685 252.87C225.018 254.419 222.831 253.837 221.368 253.508C215.895 252.262 210.889 249.956 207.537 245.242C199.081 233.301 196.524 219.595 195.467 206.461C196.728 202.607 195.833 197.575 198.779 197.755L198.806 197.788ZM255.296 238.219C248.024 230.531 244.703 221.09 242.955 210.91C242.823 210.148 242.875 209.345 242.984 208.577C243.197 206.772 243.903 205.137 245.884 204.8C247.802 204.486 248.635 206.008 249.199 207.533C251.579 213.855 255.004 219.623 258.367 225.416C261.088 230.155 263.711 234.974 268.82 237.74C269.785 238.258 270.694 239.039 270.534 240.31C270.324 241.786 269.111 242.232 267.93 242.65C266.563 243.14 265.181 243.179 263.771 242.915C260.452 242.278 257.654 240.645 255.358 238.195L255.296 238.219ZM273.922 205.29C275.553 204.858 276.096 206.291 276.456 207.465C280.437 220.118 287.157 231.463 293.307 243.109C294.562 245.483 297.061 248.882 294.467 250.534C292.289 251.929 290.283 248.102 288.656 246.139C280.463 236.321 274.724 225.345 272.669 212.589C272.45 211.219 272.292 209.826 272.204 209.218C272.416 207.143 272.475 205.682 273.922 205.29V205.29ZM264.606 277.048C264.353 275.705 264.531 274.255 264.703 272.865C264.823 271.68 265.681 270.899 266.897 270.723C268.175 270.524 269.182 271.226 269.458 272.332C271.338 280.339 277.494 285.158 282.838 290.614C284.06 291.846 285.566 293.227 285.135 295.399C276.274 294.197 266.2 285.206 264.636 277.051L264.606 277.048ZM452.117 383.799C450.367 384.219 448.973 383.209 448.154 381.838C445.264 376.992 443.943 371.737 444.967 366.092C445.293 364.358 446.014 362.575 448.166 362.614C450.078 362.659 450.6 364.3 450.914 365.919C451.839 370.654 454.573 374.976 454.178 380.026C454.018 381.597 453.988 383.36 452.084 383.825L452.117 383.799ZM463.687 373.987C464.326 376.239 464.814 378.504 465.361 380.776C465.693 382.217 465.789 383.634 464.157 384.366C462.774 385.004 461.396 384.714 460.168 383.84C457.678 382.119 457.064 374.331 459.173 372.15C459.743 371.549 460.375 371.225 461.225 371.401C462.568 371.747 463.334 372.754 463.687 373.987V373.987Z" fill="#004DF8"/>
    <path d="M390.887 64.7878C390.555 64.5144 390.256 64.2145 389.925 63.9412L390.008 64.0095C385.846 64.0048 383.016 61.8 380.932 58.4435C378.08 53.811 375.386 49.1046 375.029 43.4984C373.849 41.5517 372.934 39.3623 371.426 37.7114C359.876 25.2755 348.021 13.1977 329.943 10.7573C327.803 12.0665 325.453 10.1502 323.308 11.2193C329.062 15.5785 335.257 19.1442 342.112 21.5194C343.964 22.1572 345.683 23.5003 347.163 24.8488C349.217 26.735 350.437 29.165 349.071 31.9904C347.711 34.7565 345.132 34.7933 342.568 34.3824C335.85 33.3088 329.537 31.1983 323.924 27.2128C322.947 26.5144 322.247 25.1555 320.566 26.9606C315.755 32.1599 311.501 32.1758 306.079 27.491C305.502 26.9831 304.898 26.4425 304.386 25.8813C301.969 23.1496 300.862 24.3244 300.21 27.1926C300.043 27.9542 299.875 28.7157 299.589 29.4651C298.424 32.6703 296.449 35.0144 292.756 34.8179C289.092 34.6243 287.368 32.143 286.476 28.848C285.016 23.4888 284.083 23.244 280.156 27.3956C278.68 28.9521 277.242 30.7221 276.325 32.665C275.48 34.4954 274.523 35.6556 272.509 35.1509C270.026 34.5387 269.52 32.4508 269.885 30.332C270.685 25.7122 273.221 21.9878 276.351 18.5935C277.159 17.7176 278.547 17.32 278.755 15.8738C278.388 15.3573 278.021 14.8408 277.681 14.357C270.71 21.9416 264.198 29.7227 264.438 40.8867C264.457 42.1762 264.273 43.3853 263.11 44.2251L263.169 45.9978C267.742 46.6732 272.016 48.2167 275.927 50.6813C281.068 47.2522 283.966 47.9068 286.861 53.2924C291.57 62.0369 294.194 71.2577 292.512 81.2977C292.222 82.975 291.839 84.6728 291.314 86.2963C290.492 88.7877 289.213 91.053 286.269 91.1424C283.088 91.2077 281.679 88.8781 280.69 86.2321C280.269 85.0812 279.912 83.877 279.526 82.6698C276.015 83.6297 272.945 87.5992 269.11 85.5615C262.32 81.9651 254.514 82.4576 247.642 79.6614C243.53 77.9848 239.758 77.3909 235.906 79.9331C227.583 85.793 219.878 92.3446 214.1 100.859L214.07 100.856C215.196 101.27 216.202 100.804 217.272 100.584C226.16 98.5842 231.194 103.259 229.908 112.351C229.677 114.035 229.152 115.658 228.59 117.937C234.589 115.194 240.447 113.545 244.727 120.03C248.413 125.586 245.435 131.601 245.35 137.431C247.433 138.153 248.503 136.465 249.901 135.679C255.56 132.452 261.377 130.021 268.136 131.578C272.877 132.659 275.734 135.765 277.167 140.223C278.122 143.195 278.89 146.238 279.536 149.299C280.465 153.705 282.834 156.612 287.344 157.61C289.92 144.367 293.682 131.545 300.543 119.757C301.774 117.666 302.629 115.148 305.609 116.17C308.444 117.148 308.401 119.928 307.904 122.154C306.551 128.094 304.702 133.895 303.319 139.833C301.953 145.593 300.615 151.386 300.9 157.404C304.361 148.414 307.769 139.358 313.229 131.32C323.273 116.502 335.533 104.036 352.238 96.7248C355.499 95.2902 358.152 93.3446 360.295 90.5384C364.895 84.479 370.426 79.5625 377.224 76.0328C383.138 72.9519 388.898 69.6159 394.734 66.4075C393.47 65.8893 392.237 65.3446 390.973 64.8265L390.887 64.7878ZM320.905 45.9802C322.995 45.4445 325.057 44.9059 327.147 44.3703C333.826 42.5951 340.174 43.7807 346.186 46.7888C349.888 48.6631 351.96 51.8388 352.331 56.1288C353.755 71.8452 340.346 83.5353 325.645 79.4026C322.418 80.5112 319.724 79.9074 317.776 76.984C307.89 73.7909 303.128 66.4484 306.267 58.5632C308.68 52.5205 313.565 48.9457 319.865 47.3715L319.767 47.4513C320.144 46.9807 320.554 46.4835 320.931 46.0128L320.905 45.9802Z" fill="#004DF8"/>
    <path d="M669.206 190.787C672.385 191.62 676.784 191.949 676.497 196.531C676.191 201.59 671.611 201.573 667.938 201.768C661.223 202.132 654.498 201.716 647.875 200.592C644.606 200.05 643.103 200.406 643.184 204.307C643.386 212.323 639.522 217.918 632.026 220.958C636.549 221.239 640.309 223.718 644.337 225.326C650.377 227.768 656.593 229.06 663.195 228.924C661.035 226.907 658.672 225.409 656.342 223.884C652.162 221.122 650.85 217.245 651.875 212.469C652.877 207.929 655.979 205.7 660.329 204.736C663.668 203.998 666.907 204.538 670.086 205.371C673.909 206.359 677.809 206.876 681.722 206.676C687.23 206.398 687.736 205.551 685.961 200.34C684.605 196.309 683.192 192.242 684.196 187.972C686.413 178.556 694.522 174.202 705.312 177.636C718.738 181.939 731.712 187.453 744.45 193.512C748.105 195.261 750.747 198.136 750.226 202.365C749.693 206.712 746.458 209.078 742.395 210.161C740.734 210.591 739.008 210.775 737.312 210.961C729.974 211.861 722.978 210.279 716.079 208.049C712.627 206.949 710.461 206.758 709.764 211.539C708.656 219.181 703.839 224.141 696.371 226.315C693.962 227.027 691.495 227.435 689.019 227.931C687.338 228.269 686.021 228.854 686.138 230.932C686.481 236.087 684.141 240.251 681.193 244.203C689.487 244.209 697.69 243.637 705.793 241.408C717.807 238.111 730.082 236.965 742.524 237.993C744.661 238.181 747.38 237.949 747.745 240.831C748.101 243.502 746.053 245.09 743.825 246.091C742.256 246.8 740.612 247.351 738.928 247.718C727.019 250.278 715.077 252.865 703.12 255.3C697.34 256.478 691.588 255.922 685.893 254.503C684.989 254.262 684.101 253.872 683.182 253.778C676.869 253.135 676.34 252.452 677.783 246.221C672.195 246.7 666.62 247.629 660.987 246.486C659.168 246.121 657.859 246.617 657.879 248.775C657.87 260.333 648.11 265.896 636.389 264.253C628.331 263.103 620.297 262.015 612.395 259.923C611.112 259.582 608.296 258.127 608.675 261.161C609.172 265.104 608.081 268.467 606.358 272.154C612.04 272.224 617.272 272.308 622.537 272.365C627.359 272.646 632.216 273.171 637.042 273.124C650.925 272.951 664.852 274.1 678.582 271.007C683.332 268.766 688.021 267.716 693.476 268.841C703.622 270.953 714.06 270.189 724.375 270.641C726.551 270.743 728.735 271.055 730.902 271.246C745.964 272.721 760.81 272.197 775.082 266.434C776.192 264.061 778.636 262.993 780.323 261.129C787.212 253.476 788.4 244.164 788.459 234.468C788.453 233.06 788.355 231.672 788.319 230.261L788.337 230.383C787.461 229.575 787.783 228.47 787.613 227.494C787.35 226.839 787.087 226.183 786.828 225.498C775.675 208.281 759.444 196.536 743.218 184.732C742.466 184.176 741.777 183.597 741.028 183.012C734.852 180.436 728.531 178.115 722.51 175.196C715.633 171.86 708.625 168.931 701.343 166.632C696.775 165.028 692.257 163.221 687.6 161.908C678.229 159.246 668.705 157.497 658.895 157.965C661.401 168.342 661.122 178.435 655.86 188.05C660.29 188.951 664.768 189.677 669.114 190.808L669.206 190.787ZM736.624 230.655C730.074 228.52 723.803 225.695 717.947 222.044C717.017 221.471 715.91 220.879 716.223 219.563C716.54 218.218 717.886 217.936 718.867 218.305C728.876 222.05 739.073 225.424 747.517 232.483C743.46 233.507 740.102 231.788 736.624 230.655V230.655Z" fill="#004DF8"/>
    <path d="M235.871 79.9887C227.548 85.8486 219.843 92.4002 214.065 100.915C213.941 100.962 213.789 100.977 213.691 101.056C213.626 101.11 213.673 101.234 213.661 101.353C213.798 101.187 213.931 101.051 214.068 100.885C215.191 101.329 216.197 100.862 217.267 100.642C226.155 98.6429 231.188 103.318 229.903 112.41C229.671 114.093 229.147 115.717 228.585 117.995C234.584 115.253 240.442 113.603 244.722 120.088C248.408 125.644 245.43 131.659 245.345 137.49C247.428 138.211 248.498 136.524 249.895 135.738C255.554 132.511 261.372 130.079 268.131 131.636C272.871 132.718 275.729 135.824 277.162 140.282C278.117 143.254 278.885 146.297 279.531 149.357C280.46 153.764 282.829 156.67 287.338 157.669C286.368 166.314 285.664 174.986 285.945 183.699C271.425 180.423 261.097 172.753 258.474 156.765C255.285 158.087 253.357 160.256 251.405 162.363C248.31 165.701 245.162 168.974 241.499 171.715C236.803 175.189 231.777 176.025 226.524 173.214C221.27 170.403 219.904 165.592 220.379 160.041C220.567 158.203 220.757 156.336 220.959 154.35C218.564 154.346 217.594 156.223 216.146 157.214C211.545 160.339 206.031 160.675 202.002 157.899C198.112 155.227 196.376 149.63 197.657 144.4C199.234 138.033 202.716 132.369 204.453 125.898C199.315 131.064 192.691 135.54 190.396 142.193C185.857 155.296 181.765 168.714 180.142 182.593C178.823 193.778 181.177 204.468 186.302 214.423C193.674 228.769 200.412 243.47 209.211 257.033C215.788 267.135 223.164 276.451 233.131 283.845C242.763 290.995 251.285 299.648 261.517 306.201C264.833 308.335 266.15 312.751 269.581 315.227C273.936 318.336 278.659 320.763 283.228 323.535C285.088 324.682 287.188 325.525 287.779 327.951C287.423 328.214 286.829 328.753 286.717 328.681C281.433 324.4 273.783 323.95 269.329 318.585C264.475 312.731 256.935 310.914 251.593 306.028C237.871 293.461 221.95 283.365 209.645 269.235C205.386 264.309 201.456 259.088 196.87 254.428C193.15 250.665 192.455 245.145 189.178 241.157C184.594 235.6 180.297 229.862 177.921 222.912C175.704 216.458 173.581 209.953 171.177 203.569C170.115 200.766 171.439 198.356 171.702 195.777C173.028 183.635 174.622 171.52 175.919 159.374C176.112 157.478 177.33 156.104 177.642 154.22C178.197 150.833 179.391 147.93 177.732 144.227C176.438 141.341 179.337 138.462 180.827 135.888C186.911 125.548 192.429 114.881 199.281 104.949C204.339 97.6184 210.732 92.1907 218.438 87.9749C221.99 86.031 225.24 83.5173 228.615 81.2559C229.259 80.8124 229.758 80.3242 228.796 79.4776C226.132 77.1101 227.826 74.8871 228.587 72.1198C230.211 66.1764 232.88 60.8486 236.342 55.9609C242.839 46.8607 251.524 42.1457 263.075 44.2807C263.104 44.8825 263.105 45.4516 263.134 46.0534C245.827 46.6261 235.461 54.6135 230.667 71.104C229.241 75.9895 230.849 78.7285 235.9 79.9917L235.871 79.9887Z" fill="#032363"/>
    <path d="M452.904 393.738C463.092 396.602 469.164 391.382 473.688 383.129C475.739 386.811 477.386 390.632 478.092 394.866C478.819 399.193 482.845 400.831 485.65 403.272C492.114 408.902 496.34 415.621 498.43 423.919C499.321 427.513 499.682 431.024 496.353 433.14C492.928 435.306 488.814 435.127 485.43 432.776C482.274 430.538 479.439 427.794 476.625 425.141C473.429 422.121 472.516 423.734 472.202 427.116C471.408 434.911 468.36 441.607 462.732 447.173C459.667 450.215 459.297 454.728 457.855 458.594C456.414 462.46 453.49 464.408 450.298 463.993C447.225 463.59 445.137 460.862 444.507 457.055C443.894 453.369 443.563 449.862 444.088 446.172C444.428 443.721 444.093 442.01 440.886 443.51C431.324 448.016 420.967 450.914 412.264 457.274C410.453 458.586 408.042 459.329 405.812 459.761C402.36 460.427 401.716 457.637 401.341 455.143C400.817 451.766 403.16 449.339 404.488 446.6C410.37 440.881 416.23 435.099 423.443 431.013C424.939 430.147 426.876 429.656 427.884 427.692C424.366 427.244 421.141 427.454 417.92 428.204C413.85 425.244 409.325 427.628 405.042 427.342C401.799 427.131 398.523 427.546 395.657 425.697C391.921 423.28 391.953 420.319 395.598 417.755C398.468 415.742 401.586 414.233 404.902 413.133C408.674 412.26 412.402 411.232 416.189 410.51C425.382 408.752 434.792 408.093 443.906 405.638C444.537 405.612 445.136 405.613 445.767 405.588C455.349 405.007 455.593 404.672 452.95 395.629C452.797 395.075 452.926 394.399 452.927 393.8L452.904 393.738Z" fill="#F800A2"/>
    <path d="M297.84 362.399C301.631 363.983 305.121 366.465 309.515 366.254C310.988 366.194 312.603 366.808 313.824 365.405L313.758 365.458C315.873 366.153 317.446 363.947 319.523 364.428C319.444 365.498 319.391 366.601 319.312 367.671C317.317 372.858 317.016 378.157 317.623 383.669C318.544 391.968 319.101 400.319 319.782 408.624C319.15 411.883 319.877 414.742 321.947 417.349C324.89 421.092 326.702 425.349 327.298 430.081C326.584 431.506 327.435 432.85 327.691 434.164C328.56 438.565 327.235 441.574 323.102 443.638C318.622 445.877 315.871 442.902 313.741 440.289C310.627 436.468 307.004 433.524 302.992 430.869L302.951 430.686C302.631 430.593 302.501 430.4 302.594 430.08C300.608 426.644 297.886 423.672 296.764 419.694C295.433 414.827 295.279 414.872 291.268 418.386C283.086 423.451 274.511 427.968 266.885 433.749C262.376 437.153 256.169 438.407 253.478 444.541C252.505 446.748 248.844 448.291 245.781 446.901C241.916 445.16 239.955 439.72 241.752 436.19C242.692 434.309 243.786 432.384 245.73 431.235C254.58 422.254 266.243 417.124 276.395 409.175C275.367 408.98 274.795 408.712 274.25 408.777C273.366 408.926 272.491 409.286 271.625 409.557C266.745 408.371 261.622 408.688 257.117 409.996C252.149 411.436 247.313 410.405 242.475 410.87C238.724 411.236 235.169 411.743 231.737 413.1C228.459 414.413 225.893 413.433 223.962 410.93C221.815 408.196 223.279 405.591 225.28 403.578C228.214 400.643 231.663 398.24 235.712 397.005C238.773 396.059 241.884 395.208 244.969 394.325C245.555 394.444 246.157 394.715 246.675 394.618C254.889 393.06 263.117 391.951 271.501 391.667C274.388 391.542 277.408 391.88 280.172 391.203C284.161 390.262 288.044 388.891 289.064 383.874C290.258 378.037 294.144 373.102 294.905 367.101C297.056 366.272 297.155 364.126 297.84 362.399V362.399Z" fill="#F800A2"/>
    <path d="M327.296 430.105C326.7 425.373 324.888 421.116 321.945 417.373C319.878 414.737 319.151 411.878 319.78 408.648C321.948 409.707 322.151 412.123 323.446 413.812C328.473 420.314 335.964 422.035 343.207 424.12C347.192 425.275 351.611 424.228 355.496 426.36C356.462 426.878 357.588 426.993 357.496 428.481C357.399 429.728 356.603 430.486 355.571 430.92C353.821 431.64 351.982 432.051 350.068 431.736C342.532 430.46 334.863 430.786 327.266 430.102L327.296 430.105Z" fill="#032363"/>
    <path d="M319.307 367.669C319.386 366.599 319.438 365.496 319.518 364.426C326.341 356.527 335.822 351.354 341.944 342.695C343.38 340.655 345.844 340.277 348.318 340.679C346.02 346.194 343.377 351.555 340.202 356.561C337.634 360.612 334.387 363.964 329.257 364.939C325.898 365.585 322.635 366.75 319.307 367.669V367.669Z" fill="#032363"/>
    <path d="M443.88 405.569C434.796 408.027 425.389 408.656 416.164 410.441C412.377 411.163 408.619 412.188 404.877 413.064C404.653 407.621 407.826 405.28 412.693 403.949C423.322 401.019 433.712 401.029 443.877 405.598L443.88 405.569Z" fill="#032363"/>
    <path d="M417.863 428.135C421.054 427.382 424.28 427.172 427.827 427.623C426.848 429.589 424.909 430.11 423.386 430.944C416.14 435.056 410.313 440.811 404.43 446.53C399.541 442.499 399.365 441.283 404.129 436.558C407.995 432.7 412.448 429.56 417.863 428.135Z" fill="#032363"/>
    <path d="M278.693 15.8992C278.327 15.3827 277.96 14.8662 277.62 14.3824C281.656 8.56502 287.842 5.75149 294.343 5.42559C306.442 4.8314 318.549 5.91503 329.941 10.7887C327.801 12.0979 325.451 10.1816 323.306 11.2507C322.844 11.0838 322.414 10.8904 321.952 10.7235C309.234 6.82266 296.862 9.21567 284.509 12.5988L284.569 12.6048C283.721 12.3987 282.983 12.593 282.569 13.4193L282.664 13.3691C282.042 13.3057 281.632 13.5035 281.507 14.1495L281.572 14.0963C280.633 13.9107 279.924 14.108 279.667 15.1599L279.795 15.083C279.122 14.9247 278.677 15.1788 278.575 15.8871L278.693 15.8992V15.8992Z" fill="#032363"/>
    <path d="M297.835 362.397C297.147 364.154 297.051 366.27 294.901 367.099C289.958 361.235 286.949 354.91 288.286 346.781C289.206 341.275 290.109 335.648 289.725 330.009C292.72 334.416 292.195 339.573 292.041 344.319C291.814 351.243 293.458 357.16 297.865 362.4L297.835 362.397Z" fill="#032363"/>
    <path d="M741.092 182.994C734.916 180.418 728.595 178.097 722.574 175.178C715.697 171.843 708.689 168.913 701.407 166.614C713.477 168.352 725.375 170.313 735.891 177.313C738.275 178.904 739.168 181.301 741.092 182.994Z" fill="#032363"/>
    <path d="M678.645 270.992C683.395 268.751 688.083 267.701 693.539 268.826C703.684 270.938 714.123 270.174 724.438 270.626C726.614 270.728 728.798 271.04 730.964 271.231C713.494 275.171 696.092 269.924 678.645 270.992Z" fill="#032363"/>
    <path d="M271.593 409.551C272.459 409.28 273.334 408.92 274.218 408.77C274.767 408.677 275.338 408.944 276.363 409.169C266.211 417.118 254.549 422.248 245.698 431.229C246.232 424.515 251.034 421.471 256.28 418.771C261.588 416.048 267.358 414.091 271.593 409.551Z" fill="#032363"/>
    <path d="M291.236 418.385C295.247 414.871 295.401 414.827 296.732 419.694C297.824 423.668 300.576 426.643 302.561 430.08C296.407 430.231 292.232 425.943 291.236 418.385Z" fill="#032363"/>
    <path d="M390.008 64.0148C385.846 64.01 383.016 61.8053 380.932 58.4488C378.08 53.8162 375.386 49.1099 375.029 43.5037C381.251 49.4379 384.435 57.5778 390.008 64.0148Z" fill="#032363"/>
    <path d="M480.207 354.416C479.36 349.508 482.476 348.897 486.075 349.144C491.635 349.531 497.126 350.599 502.727 350.002C497.643 352.868 492.09 353.59 486.342 353.573C484.306 353.575 481.996 352.442 480.178 354.413L480.207 354.416Z" fill="#032363"/>
    <path d="M271.471 391.658C263.117 391.945 254.86 393.05 246.646 394.609C246.127 394.706 245.496 394.432 244.939 394.316C251.636 390.895 258.438 388.205 266.219 390.015C268.032 390.44 269.825 390.772 271.471 391.658V391.658Z" fill="#032363"/>
    <path d="M390.889 64.7878C390.558 64.5145 390.259 64.2145 389.928 63.9412C390.259 64.2145 390.558 64.5145 390.889 64.7878Z" fill="#032363"/>
    <path d="M353.816 209.392C361.652 216.838 370.528 222.593 380.439 226.717C380.709 226.415 381.012 226.087 381.282 225.785C377.753 221.922 374.257 218.032 370.659 214.252C362.357 205.501 354.115 196.755 348.61 185.834C346.07 180.784 346.384 176.234 349.557 173.892C353.279 171.157 357.955 171.993 361.981 176.565C370.864 186.663 381.68 193.664 395.016 197.089C389.62 190.97 384.254 184.853 378.859 178.734C379.95 178.605 381.035 178.536 382.079 178.283C384.466 177.778 386.738 176.931 387.055 174.119C387.345 171.274 384.718 171.186 383.033 170.385C375.783 166.892 370.475 161.38 366.409 154.558C370.848 147.434 377.639 145.73 383.154 151.562C391.319 160.18 401.571 164.188 412.316 167.769C423.002 171.342 433.563 175.263 444.171 179.009C445.762 179.56 447.465 179.883 449.683 179.57C443.136 174.172 436.619 168.777 430.075 163.349C429.056 161.299 427.152 160.296 425.292 159.149C417.117 154.153 408.615 149.724 400.939 143.941C401.357 134.551 405.757 130.747 415.175 131.766C422.193 132.541 428.443 135.274 434.204 139.275C445.644 147.208 458.196 152.738 471.436 156.812C472.597 157.17 473.833 157.386 475.966 157.903C472.61 153.518 468.36 151.438 465.248 148.186C466.275 147.213 468.788 147.529 468.354 145.329C467.96 143.312 465.94 142.567 464.249 141.826C453.147 137.042 443.571 129.928 434.069 122.671C437.522 117.873 442.155 116.488 448.015 116.875C461.281 117.748 473.266 122.682 485.173 127.787C494.87 131.949 504.837 134.941 515.313 136.158C518.478 136.54 521.582 136.348 524.675 135.974C529.013 135.428 532.544 136.626 534.841 140.243C537.134 143.891 536.605 147.909 534.452 151.403C529.6 159.354 521.802 161.823 513.088 161.534C509.178 161.406 508.303 161.766 509.493 165.959C512.276 175.676 505.743 183.664 495.656 183.325C492.075 183.2 488.516 182.568 484.96 181.906C483.078 181.565 481.846 181.32 482.238 183.935C484.367 198.016 472.584 209.033 454.052 205.469C452.378 205.148 450.674 204.825 448.997 204.534C447.346 204.276 445.669 203.986 444.018 203.728C439.37 202.027 434.752 200.328 430.101 198.657C433.924 204.047 437.804 208.874 438.023 215.544C437.012 220.472 434.172 222.488 429.063 221.788C423.746 221.067 418.405 220.882 415.432 226.838C410.495 225.916 405.881 223.889 400.237 221.966C404.314 227.802 408.773 232.239 409.034 238.793C400.204 238.463 397.784 240.462 397.455 248.394C385.791 246.786 375.657 241.322 365.36 235.991C369.32 240.916 373.283 245.812 377.214 250.734C374.06 252 371.301 253.515 371.015 257.499C370.784 260.649 372.549 262.716 374.49 264.83C377.703 268.271 381.569 271.181 383.869 275.937C378.509 276.229 374.578 273.673 370.264 272.514C365.656 271.296 361.096 270.502 356.857 273.604C335.528 261.34 319.807 244.287 312.168 220.511C310.759 216.115 309.499 211.435 311.944 206.833C312.685 205.441 313.206 203.847 315.175 203.928C317.14 204.038 317.329 205.705 318.023 207.123C321.644 214.499 325.264 221.875 331.752 227.267C331.74 227.386 331.725 227.534 331.805 227.632C331.828 227.694 331.947 227.706 332.033 227.745C331.926 227.614 331.793 227.451 331.687 227.32C329.166 218.559 325.108 210.18 324.497 200.895C324.229 196.765 323.549 192.564 325.045 188.464C325.664 186.79 326.381 185.336 328.078 184.551C331.212 192.296 335.441 199.285 341.558 205.089C345.026 208.376 348.941 210.213 353.852 209.335L353.816 209.392Z" fill="#004DF8"/>
    <path d="M556.387 269.732C537.965 281.839 519.496 293.823 501.177 306.09C495.138 310.117 488.495 313.303 483.206 318.484L483.271 318.43C482.195 318.111 481.488 318.878 480.832 319.44C471.611 327.364 461.135 333.484 451.284 340.535C449.378 341.898 447.446 343.229 444.915 342.791C447.101 321.334 450.057 299.955 450.907 278.391C450.991 276.094 451.94 275.891 453.639 275.675C463.263 274.379 472.927 274.166 482.608 274.374C489.719 274.529 495.529 273.055 498.442 265.626C499.785 262.139 502.225 259.064 503.334 255.523C504.39 252.217 505.858 251.618 509.032 252.211C516.704 253.621 524.428 253.929 532.17 252.592C539.135 255.068 546.339 256.071 553.687 256.251C556.672 256.345 559.482 256.692 560.7 259.72C561.875 262.595 560.355 265.165 558.653 267.477C558.025 268.342 557.147 269.031 556.381 269.791L556.387 269.732Z" fill="#42E900"/>
    <path d="M549.201 230.337C540.387 228.96 531.634 227.29 523.236 224.189C518.878 222.577 515.118 220.098 512.823 215.881C511.993 214.329 511.424 212.565 512.719 211.02C513.91 209.614 515.601 209.187 517.438 209.674C525.831 211.936 534.23 209.737 542.634 209.845C545.477 209.865 544.843 207.854 544.239 206.145C542.714 201.708 540.914 197.332 539.606 192.827C536.234 181.254 542.316 173.579 554.427 174.334C563.95 174.914 573.47 175.525 583.023 174.641C587.677 174.217 590.019 172.689 589.812 167.368C589.544 160.303 594.413 156.008 601.66 156.597C610.866 157.355 620.035 158.469 629.307 158.575C631.581 158.597 633.924 159.404 636.081 160.283C637.893 161.006 639.931 161.873 639.998 164.455C640.04 166.975 638.7 168.665 636.677 169.716C634.905 170.644 632.951 171.313 630.984 171.801C624.439 173.44 617.838 174.744 611.036 174.501C608.561 174.398 607.702 175.479 607.472 177.731C606.573 186.563 600.84 191.1 593.024 193.747C586.265 196.023 579.25 196.387 572.192 196.596C566.153 196.789 566.165 196.97 568.052 202.552C570.699 210.368 570.709 217.915 566.027 225.074C564.09 224.098 562.207 222.888 560.184 222.173C552.467 219.441 548.899 222.132 549.204 230.308L549.201 230.337Z" fill="#004DF8"/>
    <path d="M432.165 246.631C444.611 239.394 455.824 230.445 467.353 221.917C473.569 217.34 474.364 216.882 479.921 222.299C486.158 228.385 494.587 231.19 500.911 237.014C496.512 244.621 495.103 253.461 490.639 261.122C488.245 265.22 485.451 266.193 481.18 266.087C471.35 265.865 461.524 265.912 451.718 267.218C441.519 268.575 431.164 268.508 421.053 270.473C413.601 271.9 406.146 271.589 398.673 271.756C404.235 264.777 412.462 261.033 419.148 255.366C422.951 252.13 427.98 249.798 432.165 246.631Z" fill="#42E900"/>
    <path d="M549.202 230.343C548.897 222.167 552.465 219.476 560.182 222.208C562.206 222.923 564.089 224.133 566.026 225.109C570.023 229.379 574.541 232.355 581.133 230.841C580.482 228.409 578.677 227.027 576.809 225.669C572.516 222.536 571.316 219.33 573.239 216.322C575.094 213.396 578.328 213.396 583.209 216.05C586.869 218.039 590.541 220.21 595.021 219.738C598.852 220.638 602.714 220.941 606.635 220.951C607.833 220.954 609.345 220.808 609.976 219.615C610.746 218.226 609.271 217.417 608.585 216.509C607.556 215.146 606.367 213.887 605.243 212.575C602.859 209.816 600.863 206.768 603.807 203.445C606.882 200.015 610.294 201.5 613.414 203.795C616.312 205.917 619.094 208.296 622.626 209.195C625.458 209.903 628.753 211.077 630.851 208.116C632.673 205.517 633.144 202.361 631.021 199.39C630.552 198.414 630.052 197.434 629.645 196.435C627.526 191.368 629.991 187.157 635.472 187.147C642.27 187.15 649.104 187.667 655.904 187.94C660.334 188.841 664.812 189.566 669.158 190.698C672.337 191.531 676.736 191.859 676.449 196.441C676.143 201.501 671.563 201.483 667.89 201.678C661.175 202.042 654.45 201.627 647.827 200.503C644.558 199.96 643.054 200.316 643.136 204.217C643.338 212.233 639.474 217.829 631.977 220.868C631.153 221.023 630.329 221.179 629.504 221.335C624.977 220.215 621.156 220.095 619.518 225.887C618.826 228.272 616.052 229.337 613.732 230.358C609.22 232.324 604.498 232.233 599.887 231.344C595.51 230.508 594.209 232.113 594.786 236.154C592.701 242.799 587.551 243.682 581.638 243.229C579.053 243.325 575.516 240.12 574.116 244.17C572.313 249.227 568.783 251.832 564.247 253.735C550.108 254.96 537.977 249.412 526.254 242.498C525.49 242.061 524.37 241.588 524.788 240.433C525.285 239.076 526.577 239.327 527.623 239.643C530.008 240.335 532.455 241.004 534.751 241.986C541.631 244.993 548.877 245.881 556.258 246.333C557.834 246.434 559.397 246.384 560.865 245.785C562.648 245.038 564.39 244.107 564.551 241.938C564.713 239.469 562.382 239.711 560.919 239.082C556.236 237.138 551.865 234.776 549.155 230.218L549.202 230.343Z" fill="#FDFDFD"/>
    <path d="M432.166 246.625C427.951 249.789 422.952 252.124 419.149 255.36C412.463 261.028 404.236 264.771 398.674 271.751C396.593 273.066 395.656 274.917 395.972 277.405C395.936 278.928 396.806 280.095 397.455 281.359C395.17 287.624 392.805 289.09 386.481 287.967C380.566 286.945 375.018 284.972 369.753 281.98C366.694 280.261 363.729 278.791 359.688 279.368C355.738 279.924 356.507 276.199 356.865 273.57C361.107 270.439 365.664 271.263 370.271 272.481C374.588 273.609 378.52 276.166 383.877 275.903C381.577 271.147 377.714 268.208 374.498 264.796C372.528 262.679 370.788 260.645 371.022 257.465C371.305 253.511 374.068 251.966 377.222 250.7C380.037 250.987 382.581 252.174 385.122 253.391C390.119 255.787 395.357 257.279 401.425 257.388C399.969 254.035 398.73 251.214 397.493 248.363C397.822 240.431 400.241 238.432 409.071 238.762C411.77 239.606 414.485 240.003 417.601 239.691C416.637 235.341 414.35 231.335 415.467 226.837C418.436 220.911 423.78 221.066 429.097 221.787C434.236 222.49 437.047 220.471 438.058 215.543C440.445 211.804 440.895 207.088 444.023 203.724C445.674 203.982 447.351 204.272 449.002 204.53C457.586 216.095 451.407 234.122 437.576 237.025C433.964 237.795 432.649 238.948 433.007 242.488C433.141 243.82 432.46 245.217 432.143 246.563L432.166 246.625Z" fill="#FDFDFD"/>
    <path d="M285.92 183.613C285.64 174.901 286.344 166.228 287.314 157.583C289.891 144.341 293.652 131.518 300.513 119.73C301.744 117.639 302.599 115.121 305.58 116.144C308.415 117.121 308.371 119.902 307.875 122.127C306.521 128.068 304.672 133.868 303.289 139.806C301.924 145.566 300.585 151.359 300.87 157.377C297.654 178.37 302.13 198.8 305.614 219.278C307.811 232.108 312.81 244.176 316.454 256.615C315.763 258.402 317.367 261.17 314.911 262.058C312.58 262.898 310.879 260.779 309.215 259.471C305.945 256.892 303.909 253.361 302.033 249.726C292.726 231.739 289.137 212.299 287.06 192.413C286.76 189.478 286.342 186.531 285.953 183.587L285.92 183.613Z" fill="#FDFDFD"/>
    <path d="M397.454 281.362C396.804 280.098 395.938 278.902 395.971 277.408C402.205 277.354 408.287 279.082 414.635 278.501C424.7 277.58 434.684 275.991 444.872 276.221C447.919 276.292 448.03 276.962 447.643 279.587C444.772 299.837 442.078 320.105 439.323 340.396C435.76 336.859 432.88 332.793 430.383 328.496C425.791 320.662 420.033 313.697 414.535 306.519C410.435 300.322 407.721 293.158 401.977 288.111C399.805 286.213 400.541 282.515 397.454 281.362V281.362Z" fill="#42E900"/>
    <path d="M439.322 340.397C442.074 320.135 444.771 299.838 447.642 279.588C448.03 276.962 447.918 276.292 444.871 276.221C434.686 275.962 424.699 277.58 414.634 278.501C408.286 279.082 402.204 277.355 395.97 277.408C395.621 274.947 396.591 273.07 398.672 271.754C406.145 271.587 413.597 271.927 421.052 270.471C431.163 268.506 441.547 268.576 451.717 267.216C461.523 265.909 471.35 265.862 481.179 266.085C485.45 266.191 488.244 265.218 490.638 261.12C495.131 253.462 496.511 244.619 500.91 237.012C503.65 238.04 506.101 239.547 508.3 241.478C507.731 242.948 507.195 244.39 506.626 245.859C506.176 247.041 506.13 248.085 507.802 248.135C512.755 248.31 517.649 249.947 522.649 248.779C525.815 250.03 529.011 251.284 532.181 252.505C524.439 253.843 516.714 253.535 509.042 252.124C505.869 251.532 504.371 252.128 503.345 255.437C502.239 258.948 499.796 262.053 498.453 265.539C495.567 273.001 489.73 274.443 482.619 274.287C472.938 274.079 463.274 274.293 453.649 275.588C451.95 275.804 450.999 276.037 450.917 278.304C450.068 299.868 447.112 321.247 444.926 342.705C442.661 342.893 440.688 342.273 439.328 340.338L439.322 340.397Z" fill="#F800A2"/>
    <path d="M681.218 244.267C689.512 244.273 697.715 243.702 705.818 241.473C717.832 238.175 730.106 237.03 742.549 238.058C744.686 238.245 747.404 238.013 747.769 240.895C748.126 243.567 746.078 245.155 743.85 246.155C742.28 246.864 740.637 247.415 738.953 247.783C727.043 250.343 715.101 252.929 703.145 255.364C697.365 256.542 691.612 255.986 685.918 254.568C685.014 254.326 684.125 253.936 683.207 253.842C676.894 253.199 676.365 252.516 677.808 246.285C678.455 245.812 679.102 245.339 679.749 244.866C680.372 244.929 680.944 244.898 681.167 244.172L681.158 244.261L681.218 244.267Z" fill="#FDFDFD"/>
    <path d="M337.647 127.403C338.331 121.274 341.838 117.709 345.588 114.707C360.262 102.936 376.195 93.5097 394.984 89.8539C397.976 89.2903 402.424 88.2462 403.397 91.3398C404.301 94.2168 399.678 95.5125 397.227 96.6404C384.404 102.581 371.995 109.162 360.083 116.753C356.272 119.179 352.609 121.92 348.955 124.573C347.435 125.675 345.891 127.015 345.633 128.965C345.212 131.917 343.665 133.287 340.859 132.612C337.704 131.841 337.869 129.043 337.676 127.406L337.647 127.403Z" fill="#004DF8"/>
    <path d="M400.967 144.006C408.646 149.759 417.145 154.218 425.32 159.213C427.209 160.364 429.084 161.364 430.103 163.414C429.382 166.664 426.907 166.861 424.254 166.741C418.59 166.493 413.742 163.813 408.838 161.397C398.744 156.416 389.754 150.021 383.128 140.692C381.348 138.174 380.149 135.537 381.134 132.343C381.533 131.066 382.238 130.03 383.584 129.748C384.996 129.413 385.966 130.171 386.688 131.322C390.255 136.866 395.578 140.463 400.905 144.03L400.967 144.006Z" fill="#FDFDFD"/>
    <path d="M594.833 236.278C594.257 232.237 595.558 230.632 599.935 231.467C604.545 232.356 609.297 232.451 613.78 230.482C616.1 229.461 618.906 228.369 619.565 226.011C621.233 220.222 625.024 220.338 629.552 221.458C622.976 226.927 623.245 231.926 630.232 236.83C633.811 239.32 637.25 242.006 640.654 244.749C641.708 245.575 643.022 246.787 642.388 248.309C641.647 250 639.929 249.226 638.625 249.094C625.649 247.712 613.215 244.259 601.332 238.916C599.214 237.952 596.989 237.156 594.833 236.278V236.278Z" fill="#004DF8"/>
    <path d="M434.04 122.725C443.542 129.981 453.115 137.125 464.22 141.879C465.914 142.591 467.931 143.366 468.325 145.382C468.762 147.553 466.276 147.269 465.219 148.24C454.64 147.731 445.53 143.389 437.277 137.099C429.803 131.396 422.534 125.445 415.199 119.548C414.37 118.864 413.616 118.039 412.989 117.136C412.232 116.041 412.066 114.737 412.898 113.624C413.834 112.371 415.051 112.765 416.296 113.191C422.754 115.346 428.248 119.32 434.04 122.725V122.725Z" fill="#FDFDFD"/>
    <path d="M353.818 209.393C348.938 210.273 344.992 208.434 341.524 205.146C335.408 199.342 331.179 192.353 328.045 184.608C326.929 179.104 325.478 173.656 326.327 167.963C326.627 165.897 326.765 163.666 329.318 163.297C332.022 162.914 333.323 164.843 333.935 167.061C336.629 177.068 340.548 186.51 346.057 195.336C348.037 198.533 350.184 201.566 352.716 204.339C354.039 205.762 354.949 207.412 353.815 209.422L353.818 209.393Z" fill="#FDFDFD"/>
    <path d="M366.407 154.588C370.476 161.381 375.781 166.922 383.031 170.416C384.716 171.216 387.372 171.307 387.053 174.149C386.763 176.994 384.464 177.808 382.077 178.314C381.036 178.537 379.921 178.603 378.857 178.764C368.282 176.16 357.831 164.405 356.534 153.612C356.336 152.035 356.463 150.491 357.296 149.078C357.947 147.977 358.791 147.045 360.202 147.009C361.702 146.982 362.408 147.982 362.88 149.228C363.626 151.31 364.631 153.209 366.404 154.618L366.407 154.588Z" fill="#FDFDFD"/>
    <path d="M631.069 199.49C633.195 202.432 632.723 205.588 630.898 208.217C628.83 211.18 625.503 210.033 622.673 209.295C619.112 208.394 616.36 206.017 613.462 203.895C610.338 201.631 606.929 200.115 603.855 203.545C600.884 206.836 602.906 209.917 605.29 212.675C606.414 213.987 607.574 215.243 608.633 216.609C609.349 217.52 610.823 218.329 610.023 219.715C609.366 220.876 607.881 221.054 606.683 221.052C602.794 221.015 598.899 220.738 595.068 219.839C598.377 214.396 600.662 208.73 599.598 202.123C599.152 199.443 601.359 200.117 602.779 200.292C610.375 201.275 618.007 201.603 625.624 200.612C627.474 200.382 629.26 199.905 631.095 199.523L631.069 199.49Z" fill="#004DF8"/>
    <path d="M488.97 123.168C474.551 118.914 460.277 114.405 448.786 104.042C447.499 102.863 445.15 101.815 446.755 99.5827C448.253 97.5193 450.29 98.6851 451.732 99.8201C461.322 107.385 472.516 111.849 483.477 116.829C486.11 118.025 488.541 119.74 491.058 121.194C490.363 121.842 489.636 122.517 488.941 123.165L488.97 123.168Z" fill="#FDFDFD"/>
    <path d="M564.297 253.863C568.833 251.959 572.363 249.354 574.165 244.298C575.596 240.251 579.102 243.453 581.687 243.357C581.195 246.721 582.2 249.788 583.54 252.799C584.615 255.184 583.802 255.82 581.404 255.546C575.717 254.936 570.02 254.416 564.297 253.863Z" fill="#004DF8"/>
    <path d="M522.646 248.809C517.646 249.976 512.752 248.34 507.799 248.165C506.156 248.117 506.173 247.071 506.623 245.889C507.192 244.419 507.728 242.977 508.297 241.508C513.08 243.941 517.863 246.375 522.646 248.809V248.809Z" fill="#4CE400"/>
    <path d="M488.97 123.175C489.665 122.527 490.363 121.849 491.087 121.204C492.355 121.693 493.424 122.371 493.937 124.1C492.06 124.298 490.426 124.461 488.967 123.204L488.97 123.175Z" fill="#4CE400"/>
    <path d="M681.195 244.178C680.972 244.904 680.399 244.935 679.777 244.872C680.249 244.65 680.724 244.399 681.195 244.178Z" fill="#004DF8"/>
    <path d="M483.236 318.49C485.009 319.599 486.544 318.348 488.06 317.873C502.756 313.232 516.556 306.522 530.214 299.439C532.997 297.986 535.83 296.628 538.9 295.892C540.065 295.622 541.424 294.922 542.325 296.361C543.047 297.512 542.111 298.465 541.57 299.368C540.375 301.403 538.785 303.187 536.877 304.58C523.047 314.82 507.815 321.772 490.692 324.37C489.93 324.502 489.144 324.572 488.364 324.582C483.088 324.643 482.103 323.435 483.334 318.41L483.268 318.463L483.236 318.49Z" fill="#FDFDFD"/>
    <path d="M218.477 213.723C218.853 212.383 219.116 210.973 219.638 209.679C220.415 207.632 221.244 205.081 223.958 205.477C227.023 205.969 225.55 208.664 225.6 210.526C225.685 212.93 226.324 215.181 227.648 217.172C233.767 226.48 239.058 236.272 244.444 246.013C245.658 248.203 247.095 250.266 248.953 252.013C250.048 253.023 250.918 254.189 249.925 255.705C249.074 256.996 247.66 257.361 246.181 257.18C243.395 256.896 241.18 255.413 239.213 253.566C235.167 249.77 232.034 245.258 229.476 240.386C226.338 234.437 223.267 228.434 220.29 222.382C218.946 219.7 218.009 216.849 218.507 213.726L218.477 213.723Z" fill="#FDFDFD"/>
    <path d="M195.496 206.495C196.757 202.64 195.862 197.608 198.808 197.789C202.466 198.041 200.08 202.65 200.469 205.294C202.499 218.587 206.424 231.205 213.959 242.483C216.114 245.727 219.671 247.257 222.848 249.288C224.169 250.141 226.589 250.777 225.687 252.871C225.02 254.42 222.834 253.838 221.37 253.509C215.897 252.263 210.892 249.956 207.539 245.243C199.083 233.302 196.527 219.596 195.469 206.462L195.496 206.495Z" fill="#FDFDFD"/>
    <path d="M263.734 242.975C260.416 242.337 257.617 240.704 255.322 238.255C248.05 230.567 244.729 221.125 242.981 210.945C242.849 210.183 242.901 209.38 243.009 208.612C243.223 206.808 243.929 205.173 245.909 204.835C247.828 204.522 248.661 206.044 249.224 207.569C251.605 213.89 255.03 219.659 258.393 225.452C261.114 230.191 263.737 235.009 268.846 237.776C269.811 238.293 270.72 239.075 270.56 240.346C270.35 241.822 269.137 242.267 267.956 242.686C266.589 243.175 265.207 243.214 263.797 242.951L263.734 242.975Z" fill="#FDFDFD"/>
    <path d="M272.236 209.256C272.447 207.182 272.506 205.72 273.953 205.329C275.585 204.896 276.127 206.329 276.487 207.503C280.468 220.156 287.188 231.501 293.338 243.148C294.593 245.521 297.092 248.92 294.498 250.572C292.32 251.968 290.314 248.14 288.687 246.177C280.494 236.359 274.755 225.384 272.701 212.627C272.481 211.258 272.323 209.864 272.236 209.256V209.256Z" fill="#FDFDFD"/>
    <path d="M313.818 365.434C310.534 363.572 309.955 360.429 309.945 356.714C307.954 357.44 307.517 361.139 304.918 359.616C302.318 358.094 302.812 355.299 303.063 352.839C303.349 350.024 304.134 347.319 305.698 344.903C306.548 343.612 307.482 342.09 309.413 342.826C311.087 343.445 310.962 344.96 310.814 346.412C310.672 347.805 310.531 349.198 310.38 350.68C312.57 350.634 312.399 348.79 313.16 347.789C314.226 346.43 315.131 344.606 317.16 345.262C319.133 345.882 319.132 347.948 319.049 349.647C318.814 355.192 318.803 360.881 313.57 364.63C313.472 364.71 313.631 365.205 313.69 365.511L313.755 365.457L313.818 365.434Z" fill="#FDFDFD"/>
    <path d="M285.135 295.432C276.274 294.23 266.2 285.238 264.635 277.084C264.383 275.74 264.56 274.291 264.732 272.901C264.853 271.716 265.711 270.935 266.926 270.759C268.204 270.56 269.211 271.261 269.487 272.367C271.367 280.375 277.524 285.194 282.867 290.649C284.089 291.882 285.595 293.263 285.165 295.435L285.135 295.432Z" fill="#FDFDFD"/>
    <path d="M454.212 380.03C454.052 381.601 454.022 383.365 452.118 383.83C450.368 384.25 448.974 383.24 448.155 381.869C445.265 377.023 443.944 371.767 444.968 366.122C445.294 364.389 446.015 362.606 448.167 362.645C450.079 362.69 450.601 364.331 450.915 365.95C451.84 370.685 454.574 375.006 454.179 380.057L454.212 380.03Z" fill="#FDFDFD"/>
    <path d="M461.224 371.438C462.563 371.814 463.332 372.79 463.685 374.024C464.324 376.275 464.812 378.541 465.359 380.812C465.692 382.254 465.787 383.671 464.155 384.403C462.772 385.041 461.395 384.751 460.166 383.877C457.676 382.156 457.062 374.368 459.171 372.187C459.741 371.586 460.373 371.261 461.224 371.438V371.438Z" fill="#FDFDFD"/>
    <path d="M247.607 79.722C254.476 82.5478 262.255 82.0227 269.075 85.6222C272.88 87.6568 275.98 83.6904 279.491 82.7305C279.305 75.7344 277.874 68.9109 276.105 62.1727C275.116 58.3588 274.753 54.5786 275.866 50.7093C271.954 48.2447 267.68 46.7012 263.107 46.0258C245.8 46.5985 235.434 54.5859 230.64 71.0763C229.214 75.9618 230.822 78.7009 235.873 79.9641C239.723 77.4516 243.498 78.0159 247.61 79.6924L247.607 79.722ZM264.354 62.5927C264.094 65.4409 259.116 69.0362 255.803 68.6388C253.405 68.3646 252.08 66.9719 252.422 64.4914C252.783 61.8331 258.127 59.0536 261.73 59.5405C263.698 59.6212 264.521 60.6632 264.354 62.5927V62.5927Z" fill="#4CE400"/>
    <path d="M321.923 10.6928C322.386 10.8597 322.815 11.0531 323.277 11.22C329.032 15.5793 335.226 19.1449 342.081 21.5202C343.933 22.158 345.653 23.501 347.132 24.8496C349.186 26.7357 350.406 29.1657 349.04 31.9911C347.68 34.7573 345.101 34.794 342.538 34.3831C335.82 33.3095 329.507 31.1991 323.894 27.2136C322.917 26.5151 322.217 25.1562 320.536 26.9613C315.724 32.1607 311.47 32.1765 306.048 27.4918C305.471 26.9838 304.867 26.4432 304.356 25.882C301.939 23.1504 300.831 24.3251 300.179 27.1934C300.012 27.9549 299.845 28.7164 299.559 29.4659C298.394 32.6711 296.418 35.0151 292.725 34.8186C289.061 34.6251 287.338 32.1437 286.446 28.8487C284.985 23.4895 284.052 23.2447 280.125 27.3964C278.649 28.9529 277.211 30.7229 276.295 32.6657C275.449 34.4961 274.493 35.6564 272.478 35.1517C269.995 34.5394 269.489 32.4516 269.855 30.3328C270.655 25.7129 273.19 21.9885 276.321 18.5942C277.129 17.7183 278.517 17.3207 278.724 15.8745L278.605 15.8624C279.358 16.1187 279.75 15.7993 279.825 15.0584L279.698 15.1352C280.69 15.3861 281.245 14.9336 281.603 14.0716L281.537 14.1248C282.16 14.1882 282.543 13.9577 282.695 13.3444L282.6 13.3946C283.45 13.5711 284.115 13.2196 284.602 12.5505L284.543 12.5445C290.527 12.8846 296.441 14.5052 302.536 12.8802C304.876 12.2501 307.402 13.6154 309.426 15.1991C310.454 15.9925 311.492 16.9667 312.42 15.2047C314.497 11.2838 318.138 10.8162 321.986 10.6692L321.923 10.6928Z" fill="#FDFDFD"/>
    <path d="M327.149 44.3706C333.828 42.5955 340.175 43.7811 346.187 46.7892C349.889 48.6635 351.961 51.8392 352.333 56.1292C353.756 71.8456 340.348 83.5357 325.646 79.403C326.904 77.6445 327.791 75.3992 329.465 74.2521C334.834 70.6367 334.506 65.333 334.119 60.0232C333.951 57.5507 332.969 55.1448 332.798 52.7019C332.545 48.7233 330.854 45.916 327.149 44.3706Z" fill="#FDFDFD"/>
    <path d="M279.491 82.7265C279.306 75.7304 277.875 68.9068 276.106 62.1687C275.117 58.3548 274.753 54.5746 275.866 50.7053C281.007 47.2762 283.904 47.9307 286.799 53.3163C291.508 62.0608 294.132 71.2817 292.451 81.3216C292.16 82.9989 291.778 84.6967 291.253 86.3202C290.43 88.8117 289.151 91.077 286.208 91.1664C283.027 91.2317 281.617 88.9021 280.629 86.2561C280.207 85.1052 279.851 83.901 279.465 82.6938L279.491 82.7265Z" fill="#F800A2"/>
    <path d="M327.145 44.3731C330.85 45.9184 332.541 48.7258 332.794 52.7044C332.962 55.1769 333.944 57.5828 334.115 60.0257C334.502 65.3355 334.833 70.6096 329.461 74.2546C327.79 75.372 326.9 77.647 325.642 79.4054C322.415 80.514 319.722 79.9103 317.744 76.9838C316.763 72.2124 317.196 67.3755 316.908 62.555C316.583 57.2216 316.489 51.9716 319.832 47.3713L319.734 47.4512C320.112 46.9805 320.522 46.4833 320.899 46.0127C322.99 45.477 325.051 44.9384 327.142 44.4027L327.145 44.3731Z" fill="#032363"/>
    <path d="M319.839 47.3732C316.496 51.9735 316.587 57.2531 316.915 62.5569C317.202 67.3774 316.769 72.2143 317.751 76.9857C307.865 73.7926 303.103 66.4501 306.242 58.565C308.654 52.5222 313.54 48.9474 319.839 47.3732V47.3732Z" fill="#FDFDFD"/>
    <path d="M320.906 46.0137C320.529 46.4843 320.119 46.9815 319.742 47.4522C320.119 46.9815 320.529 46.4843 320.906 46.0137Z" fill="#FDFDFD"/>
    <path d="M747.545 232.521C743.487 233.545 740.129 231.825 736.651 230.692C730.101 228.558 723.831 225.733 717.974 222.082C717.044 221.508 715.937 220.916 716.251 219.601C716.567 218.256 717.914 217.974 718.894 218.343C728.904 222.088 739.1 225.462 747.545 232.521Z" fill="#FDFDFD"/>
    <path d="M214.039 100.881C213.902 101.047 213.769 101.183 213.632 101.348C213.641 101.26 213.656 101.111 213.662 101.052C213.76 100.972 213.911 100.958 214.036 100.911L214.009 100.878L214.039 100.881Z" fill="#004DF8"/>
    <path d="M321.924 10.6936C318.103 10.8732 314.435 11.3081 312.359 15.229C311.431 16.9911 310.392 16.0169 309.365 15.2235C307.34 13.6398 304.814 12.2745 302.474 12.9045C296.35 14.5265 290.466 12.909 284.482 12.5689C296.834 9.18573 309.206 6.79272 321.924 10.6936V10.6936Z" fill="#004DF8"/>
    <path d="M281.541 14.0901C281.214 14.9551 280.629 15.4046 279.636 15.1537C279.864 14.0989 280.602 13.9046 281.541 14.0901Z" fill="#004DF8"/>
    <path d="M284.576 12.5494C284.086 13.2481 283.424 13.57 282.574 13.3935C283.017 12.5703 283.726 12.373 284.576 12.5494Z" fill="#004DF8"/>
    <path d="M279.795 15.0837C279.72 15.8246 279.328 16.1441 278.575 15.8877C278.678 15.1795 279.093 14.9223 279.795 15.0837Z" fill="#004DF8"/>
    <path d="M282.64 13.3342C282.488 13.9476 282.102 14.2077 281.483 14.1147C281.609 13.4687 282.021 13.2412 282.64 13.3342Z" fill="#004DF8"/>
    <path d="M397.493 248.369C398.733 251.19 399.969 254.041 401.424 257.393C395.389 257.258 390.119 255.792 385.122 253.397C382.581 252.18 380.064 251.025 377.221 250.706C373.261 245.78 369.328 240.888 365.368 235.963C375.665 241.294 385.796 246.788 397.463 248.366L397.493 248.369Z" fill="#032363"/>
    <path d="M415.464 226.837C414.347 231.335 416.634 235.341 417.599 239.692C414.483 240.003 411.765 239.636 409.069 238.763C408.776 232.235 404.35 227.771 400.273 221.936C405.946 223.861 410.56 225.889 415.467 226.808L415.464 226.837Z" fill="#032363"/>
    <path d="M444.024 203.755C440.867 207.117 440.446 211.835 438.059 215.575C437.84 208.905 433.93 204.075 430.137 198.687C434.784 200.389 439.403 202.087 444.054 203.758L444.024 203.755Z" fill="#032363"/>
    <path d="M331.683 227.35C331.683 227.35 331.922 227.644 332.029 227.775C331.943 227.736 331.824 227.724 331.801 227.662C331.751 227.567 331.766 227.418 331.748 227.297L331.683 227.35Z" fill="#032363"/>
    <path d="M261.762 59.5167C263.731 59.5975 264.553 60.6394 264.386 62.5689C264.126 65.4171 259.148 69.0125 255.835 68.6151C253.437 68.3409 252.112 66.9482 252.454 64.4677C252.815 61.8094 258.159 59.0299 261.762 59.5167V59.5167Z" fill="#F800A2"/>
    <path d="M5.15462 404.669C6.91291 386.807 13.7289 372.293 22.3363 356.491C37.6604 328.356 56.7499 305.41 83.5166 287.539C96.2999 279.004 109.439 273.577 124.082 269.481C127.142 268.625 119.407 278.146 118.85 278.974C114.084 286.06 118.725 280.363 121.911 277.748C125.034 275.185 134.017 271.281 135.534 267.442C135.707 267.004 117.076 268.091 116.084 268.015C109.095 267.477 102.117 266.64 95.1404 265.953" stroke="#014DFB" stroke-width="3" stroke-linecap="round"/>
    <path d="M4.40678 419.176C4.74022 421.752 5.15731 424.347 5.24692 426.949C5.25177 427.09 5.20135 428.17 5.20804 428.102C5.32997 426.864 5.3357 425.544 5.65323 424.338C6.17808 422.345 8.14052 418.729 10.7949 419.132C12.1139 419.333 11.6535 424.02 12.3159 424.919C12.8492 425.644 12.8328 424.94 13.1691 424.406C13.9418 423.178 15.5543 421.588 16.8347 420.922C18.3065 420.156 21.9508 419.255 23.0382 421.047C23.8688 422.416 24.2813 424.232 24.2471 425.832C24.2351 426.398 24.2864 428.176 24.8811 426.978C26.7488 423.214 29.6907 420.29 33.8489 419.311C35.5467 418.911 36.9307 419.017 38.6399 419.185C39.6298 419.283 40.8806 419.406 39.176 419.238C37.852 419.108 33.0741 417.913 32.5708 419.969C31.8748 422.813 32.4408 426.056 34.6499 428.051C36.2555 429.501 38.7563 429.7 39.7136 427.43C40.4176 425.76 40.6308 424.03 41.6358 422.504C42.3816 421.372 43.0169 423.199 43.4826 423.843C44.8255 425.701 46.096 427.373 48.2105 428.341C49.234 428.809 51.7705 429.807 52.8326 428.982C53.8779 428.171 55.3388 420.73 55.5075 420.771C56.0648 420.907 56.4844 424.114 56.6928 424.658C57.223 426.044 57.9455 426.921 58.9862 427.908C60.619 429.457 61.109 429.247 62.7122 427.603" stroke="#014DFB" stroke-width="3" stroke-linecap="round"/>
    <path d="M57.6201 407.615C57.0517 409.14 55.9922 410.5 55.8305 412.143" stroke="#014DFB" stroke-width="3" stroke-linecap="round"/>
    <path d="M61.2416 428.803C61.4313 426.876 63.552 425.885 64.7045 424.533C67.4315 421.334 69.6012 417.809 72.2029 414.538C73.0673 413.452 80.8818 403.857 76.8217 403.457C75.0996 403.288 73.7472 402.926 72.4571 404.371C70.6254 406.424 68.7599 409.98 68.0392 412.654C64.7635 424.807 79.1872 428.218 88.0925 429.094" stroke="#014DFB" stroke-width="3" stroke-linecap="round"/>
    <path d="M13.8566 445.978C13.8468 448.616 14.0025 451.323 13.7433 453.956C13.6756 454.644 13.7979 453.401 13.8088 453.29C14.0613 450.725 13.9991 448.616 15.8799 446.662C19.1217 443.295 22.3126 448.092 22.0755 451.229C21.9503 452.887 21.3926 454.041 22.4313 451.787C23.6533 449.135 26.1384 447.275 28.9223 446.527C30.29 446.16 33.0009 446.005 33.7077 447.596C34.4968 449.372 34.1611 451.333 33.9788 453.185C33.7931 455.071 33.6149 454.967 34.9665 453.581C37.8847 450.589 41.521 447.96 45.4157 446.415C46.272 446.075 57.6068 442.811 56.1129 446.591C55.6458 447.772 52.6168 446.409 52.1548 446.22C50.2662 445.444 47.9274 445.024 45.861 445.115C44.4591 445.176 44.3696 448.502 44.4593 449.494C44.617 451.24 46.0756 452.579 47.6534 453.075C51.4591 454.271 53.4384 451.468 54.7105 448.132C54.8309 447.817 55.5586 451.248 55.8697 451.905C56.5518 453.345 57.7657 453.989 59.1197 454.54C62.7813 456.029 63.5294 450.514 65.5986 448.644C66.2264 448.077 67.5806 452.917 67.7427 453.41C67.8498 453.736 68.6033 457.258 68.9415 456.403C70.1083 453.451 76.1488 446.777 79.9041 448.951C81.4312 449.835 80.7687 456.573 82.8179 455.379C86.088 453.475 88.8601 450.646 92.4203 449.231C95.9077 447.845 99.8566 448.059 103.513 448.419C105.856 448.65 98.774 447.457 96.4682 447.931C93.152 448.613 91.5975 450.999 92.6591 454.201C93.0615 455.415 94.1387 457.581 95.4949 458.008C98.9806 459.108 100.745 453.981 101.681 451.487C102.478 449.361 103.24 453.203 103.521 453.647C104.212 454.734 105.329 457.44 106.772 457.793C108.052 458.106 108.915 457.564 109.829 456.694C113.422 453.277 117.405 450.151 122.25 448.845C123.377 448.541 128.861 446.95 129.898 448.142C130.516 448.853 130.635 449.745 129.6 449.643C126.566 449.344 120.54 449.338 119.947 453.658C119.593 456.235 122.064 456.967 124.135 455.862C126.906 454.385 128.876 452.009 129.744 448.948C129.822 448.673 129.903 447.786 129.854 448.585C129.745 450.36 130.137 452.33 130.339 454.084C130.661 456.873 131.068 459.636 131.347 462.434C131.536 464.337 132.311 467.109 131.176 468.913C130.222 470.427 128.894 469.831 128.252 468.457C127.485 466.813 126.344 462.537 127.394 460.868C128.742 458.727 134.718 458.823 136.688 458.423C139.578 457.836 144.676 456.82 145.475 453.352C145.63 452.681 146.231 450.276 145.499 449.696C144.143 448.623 140.064 448.044 139.015 449.767C137.372 452.466 138.229 455.547 140.264 457.749C141.977 459.603 144.172 461.254 146.504 462.246C148.478 463.085 149.1 461.537 149.901 459.967C151.4 457.03 152.695 453.873 153.758 450.752C154.603 448.267 155.86 454.198 156.093 454.902C156.652 456.588 156.905 458.367 157.628 459.981C157.886 460.559 159.291 455.595 159.544 454.924C161.07 450.877 162.872 446.198 167.84 446.687C169.238 446.825 170.193 446.816 171.269 447.697" stroke="#014DFB" stroke-width="3" stroke-linecap="round"/>
</svg>
