<svg xmlns="http://www.w3.org/2000/svg" xmlns:xlink="http://www.w3.org/1999/xlink"><defs><symbol id="arrow-usage" viewBox="0 0 32 16"><path d="M31.707 8.707a1 1 0 000-1.414L25.343.929a1 1 0 10-1.414 1.414L29.586 8l-5.657 5.657a1 1 0 001.414 1.414l6.364-6.364zM0 9h31V7H0v2z"/></symbol><symbol id="close-usage" viewBox="0 0 20 20"><path d="M1 18.678L18.678 1M1 1l17.678 17.678"/></symbol><symbol id="compass-usage" viewBox="0 0 66 117"><circle opacity=".1" cx="33" cy="58" r="32" stroke="#000" stroke-width="2"/><path d="M33 33v26" stroke="#E30613" stroke-width="2"/><path opacity=".1" d="M33 58v26" stroke="#000" stroke-width="2"/><circle cx="33" cy="58" r="3" fill="#fff" stroke="#E30613" stroke-width="2"/><path d="M28.05 9.72c-.033-1.504.495-2.795 1.583-3.872 1.099-1.077 2.4-1.605 3.904-1.584.928 0 1.776.203 2.544.608a4.71 4.71 0 011.84 1.664l-.928.736c-.864-1.237-2.01-1.856-3.44-1.856-1.194 0-2.197.41-3.008 1.232-.8.821-1.2 1.845-1.2 3.072s.4 2.25 1.2 3.072c.81.821 1.814 1.232 3.008 1.232 1.43 0 2.576-.619 3.44-1.856l.928.736a4.71 4.71 0 01-1.84 1.664c-.768.405-1.616.608-2.544.608-1.504.021-2.805-.507-3.904-1.584-1.088-1.077-1.616-2.368-1.584-3.872zm11.985 97c.022 1.515-.485 2.811-1.52 3.888-1.023 1.067-2.266 1.589-3.727 1.568-1.42.021-2.64-.485-3.664-1.52-1.014-1.035-1.531-2.283-1.552-3.744h-1.68V112h-1.248v-10.56h1.248v4.352h1.744c.192-1.312.768-2.395 1.727-3.248.971-.853 2.112-1.28 3.425-1.28 1.46-.021 2.704.507 3.728 1.584 1.034 1.067 1.54 2.357 1.52 3.872zm-2.4 3.072c.736-.821 1.105-1.851 1.105-3.088s-.369-2.261-1.105-3.072c-.735-.811-1.68-1.216-2.831-1.216-1.153 0-2.096.405-2.833 1.216-.736.811-1.104 1.835-1.104 3.072 0 1.248.368 2.283 1.104 3.104.737.811 1.68 1.216 2.832 1.216 1.153 0 2.097-.411 2.833-1.232z" fill="#E30613"/></symbol><symbol id="designer-usage" viewBox="0 0 694 469"><path d="M606.42 267.162c1.723-3.688 2.814-7.05 2.317-10.993-.379-3.034 2.437-1.579 3.72-1.239 7.902 2.093 15.936 3.181 23.994 4.331 11.718 1.673 21.478-3.891 21.49-15.478.01-2.155 1.289-2.654 3.108-2.289 5.63 1.173 11.205.243 16.796-.265l1.941-1.419c.472-.222.947-.473 1.419-.694l-.009.089c2.977-3.949 5.318-8.113 4.975-13.268-.151-2.052 1.199-2.663 2.881-3.001 2.446-.499 4.946-.933 7.351-1.617 7.468-2.173 12.285-7.133 13.393-14.776.7-4.809 2.867-4.619 6.315-3.489 6.9 2.23 13.898 3.782 21.234 2.912 1.699-.216 3.451-.367 5.082-.8 4.063-1.083 7.299-3.449 7.831-7.796.521-4.229-2.121-7.104-5.776-8.854-12.735-6.088-25.708-11.602-39.137-15.875-10.76-3.431-18.9.92-21.117 10.336-1.003 4.27.406 8.366 1.765 12.368 1.745 5.208 1.269 6.058-4.239 6.335-3.913.201-7.783-.313-11.635-1.305-3.179-.833-6.418-1.372-9.758-.634-4.35.964-7.449 3.164-8.453 7.733-1.055 4.773.283 8.683 4.467 11.415 2.33 1.525 4.692 3.023 6.853 5.04-6.572.139-12.786-1.183-18.859-3.598-4.055-1.641-7.788-4.088-12.311-4.369l-2.473.467c-6.576 5.469-6.307 10.467.68 15.371 3.579 2.491 7.019 5.177 10.423 7.919 1.053.827 2.367 2.038 1.733 3.561-.741 1.691-2.459.917-3.763.784-12.975-1.381-25.41-4.834-37.293-10.177-2.118-.964-4.342-1.76-6.499-2.638-2.084 6.645-7.235 7.527-13.148 7.075-.492 3.363.513 6.43 1.853 9.442 1.075 2.385.261 3.021-2.136 2.747-5.688-.61-11.384-1.13-17.107-1.683-14.139 1.225-26.271-4.323-37.993-11.237-.764-.437-1.884-.911-1.467-2.066.498-1.357 1.79-1.105 2.835-.789 2.385.692 4.833 1.361 7.128 2.343 6.881 3.007 14.127 3.895 21.507 4.347 1.577.101 3.139.05 4.608-.549 1.783-.746 3.524-1.677 3.685-3.847.162-2.469-2.168-2.227-3.631-2.855-4.683-1.944-9.054-4.306-11.764-8.864-8.814-1.377-17.567-3.048-25.965-6.149-4.358-1.612-8.118-4.091-10.413-8.307-.83-1.552-1.399-3.317-.104-4.862 1.192-1.406 2.882-1.833 4.719-1.346 8.394 2.262 16.793.064 25.196.171 2.843.02 2.209-1.991 1.605-3.699-1.525-4.438-3.325-8.813-4.632-13.319-3.373-11.573 2.709-19.248 14.82-18.493 9.523.581 19.043 1.191 28.596.308 4.655-.424 6.996-1.953 6.79-7.274-.269-7.064 4.601-11.36 11.847-10.771 9.206.758 18.375 1.872 27.648 1.978 2.273.022 4.616.83 6.773 1.708 1.813.724 3.85 1.59 3.917 4.172.043 2.52-1.297 4.21-3.321 5.262-1.771.927-3.726 1.596-5.692 2.085-6.546 1.639-13.147 2.943-19.949 2.699-2.475-.103-3.334.978-3.563 3.23-.9 8.832-6.633 13.369-14.448 16.016-6.76 2.276-13.775 2.64-20.833 2.849-6.039.193-6.027.374-4.14 5.957 2.647 7.815 2.657 15.363-2.025 22.522 3.994 4.299 8.515 7.245 15.107 5.731-.65-2.432-2.456-3.814-4.324-5.172-4.292-3.132-5.493-6.339-3.569-9.347 1.855-2.925 5.089-2.925 9.969-.272 3.66 1.99 7.332 4.16 11.812 3.689 3.309-5.443 5.593-11.109 4.53-17.716-.446-2.68 1.761-2.006 3.181-1.832 7.595.984 15.228 1.312 22.845.321 1.85-.23 3.636-.707 5.471-1.089-.469-.976-.969-1.956-1.376-2.955-2.119-5.067.346-9.278 5.827-9.289 6.798.004 13.632.521 20.432.794 5.229-9.589 5.511-19.711 3.035-30.085-1.592-1.719-3.376-3.308-4.71-5.211-6.738-9.7-16.461-14.194-27.696-15.907-6.664-1.009-13.425-1.368-20.102-2.258-10.545-1.433-21.269-1.687-31.486-5.154-9.089-3.082-17.374-7.878-25.785-12.328-14.265-7.532-28.619-14.774-44.067-19.522-7.578-2.329-15.171-4.51-22.422-7.704-10.918-4.826-21.436-10.628-32.58-14.698-17.816-6.486-36.63-7.864-55.437-8.732-5.837 3.209-11.597 6.545-17.51 9.625-6.798 3.53-12.333 8.476-16.93 14.506-2.142 2.806-4.799 4.782-8.056 6.187-16.709 7.34-28.966 19.777-39.009 34.595-5.461 8.038-8.839 17.096-12.33 26.084-3.216 20.993 1.26 41.422 4.744 61.9 2.197 12.831 7.196 24.899 10.84 37.338 2.563 2.177 4.143 5.183 5.685 7.975 5.321 9.795 13.296 17.345 20.849 25.212 6.092 6.34 14.308 8.584 22.52 10.858 10.133 2.829 20.578 3.773 30.854 5.778 6.018 1.182 12.15.669 18.236.002-4.1-6.197-6.813-13.361-12.558-18.408-2.172-1.898-1.436-5.597-4.523-6.749-2.285 6.265-4.65 7.731-10.974 6.607a51.103 51.103 0 01-16.728-5.986c-3.059-1.719-6.024-3.189-10.065-2.612-3.95.556-3.181-3.169-2.823-5.798-21.329-12.264-37.05-29.317-44.69-53.093-1.408-4.396-2.669-9.076-.223-13.678.74-1.392 1.262-2.985 3.23-2.905 1.965.111 2.155 1.777 2.849 3.195 3.62 7.376 7.241 14.752 13.729 20.144l-.065.054c-2.522-8.762-6.579-17.14-7.19-26.426-.268-4.13-.948-8.331.547-12.431.62-1.674 1.337-3.128 3.004-3.916-1.116-5.504-2.567-10.952-1.718-16.645.301-2.066.438-4.297 2.991-4.666 2.704-.384 4.005 1.546 4.617 3.764 2.694 10.007 6.613 19.449 12.122 28.275 1.981 3.197 4.127 6.23 6.659 9.003 1.323 1.423 2.233 3.073 1.1 5.083 7.835 7.446 16.712 13.202 26.623 17.325.27-.301.573-.63.843-.932-3.529-3.863-7.026-7.753-10.623-11.533-8.302-8.751-16.544-17.496-22.05-28.418-2.54-5.05-2.226-9.599.947-11.941 3.723-2.735 8.399-1.9 12.425 2.673 8.883 10.098 19.699 17.099 33.035 20.524-5.396-6.12-10.762-12.236-16.158-18.356-10.574-2.604-21.025-14.359-22.322-25.152-.198-1.577-.071-3.121.762-4.534.651-1.101 1.495-2.033 2.906-2.069 1.5-.027 2.206.973 2.678 2.219.746 2.082 1.751 3.981 3.524 5.39 4.439-7.124 11.23-8.828 16.745-2.996 8.165 8.618 18.417 12.627 29.162 16.207 10.686 3.574 21.246 7.494 31.854 11.24 1.591.551 3.295.875 5.513.562a9140.192 9140.192 0 01-19.609-16.222c-.72 3.251-3.195 3.448-5.848 3.327-5.665-.247-10.512-2.927-15.417-5.343-10.093-4.981-19.083-11.377-25.709-20.706-1.78-2.517-2.979-5.155-1.995-8.348.4-1.277 1.104-2.313 2.451-2.596 1.411-.335 2.382.423 3.103 1.574 3.568 5.544 8.891 9.141 14.217 12.708.418-9.39 4.818-13.194 14.237-12.175 7.018.775 13.267 3.508 19.029 7.508 11.439 7.933 23.991 13.464 37.231 17.538 1.162.358 2.397.574 4.531 1.09-3.357-4.384-7.607-6.464-10.749-9.719-10.578-.508-19.688-4.85-27.941-11.141-7.475-5.702-14.744-11.653-22.078-17.551a12.036 12.036 0 01-2.21-2.411c-.757-1.095-.924-2.4-.092-3.513.936-1.252 2.154-.859 3.398-.432 6.458 2.155 11.953 6.128 17.745 9.533 3.453-4.799 8.086-6.183 13.946-5.796 13.266.872 25.251 5.806 37.158 10.912 9.697 4.162 19.663 7.154 30.14 8.371 3.165.382 6.269.189 9.362-.184 4.337-.547 7.869.651 10.165 4.269 2.294 3.648 1.765 7.666-.388 11.16-4.852 7.95-12.65 10.42-21.365 10.131-3.909-.129-4.785.231-3.595 4.425 2.784 9.716-3.75 17.705-13.837 17.366-3.58-.125-7.139-.757-10.695-1.419-1.882-.341-3.115-.587-2.722 2.029 2.129 14.081-9.654 25.098-28.186 21.533-1.674-.32-3.378-.643-5.055-.934 8.584 11.565 2.405 29.591-11.426 32.494-3.612.77-4.927 1.924-4.569 5.464.134 1.331-.547 2.729-.864 4.074 12.446-7.236 23.658-16.185 35.187-24.713 6.216-4.577 7.011-5.035 12.568.382 6.238 6.085 14.666 8.89 20.99 14.715 2.74 1.028 5.192 2.535 7.391 4.466l14.348 7.301c3.167 1.251 6.363 2.505 9.532 3.726 6.965 2.476 14.169 3.48 21.517 3.659 2.985.095 5.795.441 7.014 3.47 1.174 2.874-.346 5.444-2.048 7.756-.627.865-1.506 1.554-2.272 2.314 15.191 3.734 30.481 6.489 46.407 5.656.409.401.078.996-.299 1.467-9.908 11.717-18.285 24.579-27.523 36.783-10.87 14.405-26.391 22.136-42.122 29.577 6.174-.928 12.224-2.707 18.15-4.439 11.395-3.391 19.842-11.933 28.304-19.755 7.142-6.609 11.779-15.39 17.405-23.291 4.126-5.809 8.032-11.819 13.655-16.457 3.696-3.067 8.521-3.983 12.231-6.899-5.264-.057-10.526-.144-16.178-.21l.035.243zM448.787 99.043c-1.287-1.18-3.636-2.227-2.031-4.459 1.498-2.063 3.535-.898 4.976.237 9.591 7.565 20.785 12.03 31.746 17.009 2.633 1.197 5.064 2.912 7.581 4.366 1.271.459 2.31 1.133 2.852 2.866-1.877.198-3.51.361-4.969-.896-14.42-4.254-28.694-8.762-40.185-19.126l.03.003zm-103.198 10.658c14.674-11.77 30.607-21.197 49.395-24.853 2.992-.563 7.441-1.607 8.413 1.486.905 2.877-3.719 4.173-6.169 5.3-12.823 5.941-25.232 12.523-37.145 20.113-3.81 2.427-7.473 5.168-11.127 7.82-1.52 1.103-3.064 2.443-3.323 4.393-.42 2.952-1.967 4.321-4.773 3.646-3.155-.771-2.99-3.569-3.183-5.205.684-6.129 4.192-9.695 7.941-12.697l-.029-.003z" fill="#032363"/><path d="M501.178 301.088c-6.04 4.027-12.683 7.213-17.972 12.393 1.773 1.109 3.308-.142 4.824-.616 14.697-4.642 28.496-11.351 42.154-18.434 2.783-1.453 5.616-2.812 8.686-3.547 1.165-.271 2.524-.971 3.426.469.721 1.151-.215 2.104-.756 3.007a17.253 17.253 0 01-4.693 5.211c-13.83 10.24-29.061 17.193-46.185 19.791-.762.132-1.548.201-2.327.212-5.277.061-6.262-1.147-5.031-6.172-1.076-.32-1.783.447-2.439 1.009-9.222 7.924-19.697 14.044-29.548 21.096-1.906 1.363-3.838 2.693-6.369 2.255-2.265.189-4.238-.431-5.598-2.367-3.563-3.537-6.442-7.603-8.939-11.9-4.592-7.834-10.351-14.799-15.848-21.977-6.084.638-12.186 1.154-18.237-.001-10.276-2.005-20.72-2.949-30.853-5.778-8.21-2.304-16.399-4.516-22.521-10.859-7.553-7.866-15.525-15.446-20.848-25.211-1.54-2.822-3.123-5.798-5.683-8.006-.691 1.787.914 4.555-1.543 5.443-2.331.841-4.032-1.279-5.695-2.586-3.271-2.58-5.307-6.111-7.182-9.746-9.308-17.986-12.897-37.427-14.974-57.312-.3-2.936-.718-5.883-1.107-8.827-14.519-3.276-24.847-10.946-27.471-26.934-3.189 1.322-5.116 3.491-7.068 5.598-3.095 3.338-6.243 6.611-9.906 9.352-4.696 3.474-9.722 4.31-14.976 1.499-5.253-2.811-6.62-7.622-6.144-13.173l.58-5.691c-2.395-.004-3.365 1.874-4.814 2.864-4.6 3.125-10.114 3.461-14.144.685-3.89-2.672-5.625-8.269-4.344-13.498 1.577-6.368 5.059-12.032 6.796-18.503-5.138 5.166-11.763 9.642-14.057 16.296-4.539 13.102-8.631 26.52-10.255 40.399-1.319 11.185 1.036 21.875 6.161 31.83 7.372 14.346 14.109 29.047 22.909 42.61 6.577 10.103 13.952 19.418 23.92 26.812 9.632 7.15 18.153 15.804 28.386 22.356 3.316 2.134 4.633 6.551 8.064 9.026 4.355 3.109 9.078 5.537 13.647 8.308 1.859 1.147 3.96 1.99 4.551 4.416.514.831.829 1.851 1.973 2.088 2.995 4.407 2.47 9.564 2.316 14.31-.227 6.924 1.416 12.841 5.824 18.081 3.791 1.584 7.281 4.066 11.675 3.854 1.473-.059 3.088.554 4.308-.848-3.284-1.862-3.862-5.005-3.873-8.72-1.99.726-2.427 4.425-5.027 2.902-2.599-1.523-2.105-4.317-1.854-6.777.286-2.815 1.071-5.52 2.635-7.936.85-1.291 1.783-2.813 3.715-2.077 1.673.619 1.549 2.134 1.401 3.586l-.435 4.268c2.191-.047 2.02-1.891 2.78-2.891 1.067-1.359 1.972-3.183 4.001-2.527 1.973.62 1.972 2.686 1.889 4.385-.236 5.545-.246 11.234-5.479 14.983-.098.08.061.575.12.88 2.115.695 3.687-1.51 5.764-1.029 6.824-7.899 16.304-13.072 22.43-21.761 1.436-2.04 3.9-2.418 6.374-2.016 3.903-.98 7.419.366 10.822 1.941a94.449 94.449 0 0014.957 5.446c16.76 4.493 33.773 7.693 50.82 10.837 1.645.317 2.599.654 3.209 2.603 1.394 4.543 3.25 8.955 5.142 13.31 2.016 4.607 4.531 9.026 9.302 11.279 3.998 1.904 7.29 4.575 10.361 7.643 10.189 2.864 16.26-2.356 20.784-10.609 4.689-8.985 5.516-18.873 6.519-28.712-.848-4.908 2.269-5.519 5.867-5.272 5.56.387 11.051 1.455 16.652.858 4.436-.626 8.903-.98 13.28-1.911 5.697-1.247 11.521-2.27 16.847-4.872 15.76-7.438 31.28-15.17 42.121-29.577 9.212-12.237 17.616-25.066 27.523-36.783.375-.441.705-1.037.299-1.467-15.925.833-31.213-1.952-46.407-5.656-18.422 12.108-36.891 24.091-55.209 36.359l-.003.029zm-281.573-96.419c.777-2.047 1.606-4.598 4.321-4.201 3.064.492 1.592 3.186 1.642 5.048.084 2.404.723 4.655 2.047 6.647 6.119 9.307 11.41 19.099 16.796 28.841 1.214 2.19 2.651 4.253 4.51 5.999 1.095 1.01 1.964 2.177.971 3.693-.85 1.29-2.265 1.655-3.744 1.475-2.786-.284-5-1.767-6.968-3.615-4.045-3.796-7.179-8.307-9.737-13.179a719.34 719.34 0 01-9.186-18.005c-1.343-2.682-2.281-5.532-1.783-8.656.376-1.339.639-2.75 1.161-4.044l-.03-.003zm-20.799-11.881c3.657.253 1.271 4.861 1.661 7.506 2.029 13.293 5.954 25.91 13.49 37.188 2.154 3.244 5.712 4.775 8.889 6.805 1.32.853 3.741 1.489 2.839 3.583-.667 1.549-2.854.967-4.317.638-5.473-1.246-10.479-3.552-13.831-8.266-8.456-11.941-11.013-25.647-12.07-38.781 1.261-3.854.366-8.886 3.312-8.705l.027.032zm56.49 40.431c-7.272-7.688-10.593-17.129-12.341-27.309-.132-.762-.08-1.565.029-2.333.213-1.805.919-3.44 2.9-3.777 1.918-.314 2.751 1.208 3.315 2.733 2.38 6.322 5.805 12.09 9.168 17.883 2.721 4.739 5.344 9.558 10.453 12.324.965.518 1.874 1.299 1.714 2.57-.21 1.476-1.423 1.922-2.604 2.34-1.367.49-2.749.529-4.159.265-3.319-.637-6.117-2.27-8.413-4.72l-.062.024zm18.626-32.929c1.631-.432 2.174 1.001 2.534 2.175 3.981 12.653 10.701 23.998 16.851 35.644 1.255 2.374 3.754 5.773 1.16 7.425-2.178 1.395-4.184-2.432-5.811-4.395-8.193-9.818-13.932-20.794-15.987-33.55-.219-1.37-.377-2.763-.465-3.371.212-2.075.271-3.536 1.718-3.928zm-9.316 71.758c-.253-1.343-.075-2.793.097-4.183.12-1.185.978-1.966 2.194-2.142 1.278-.199 2.285.503 2.561 1.609 1.88 8.007 8.036 12.826 13.38 18.282 1.222 1.232 2.728 2.613 2.297 4.785-8.861-1.202-18.935-10.193-20.499-18.348l-.03-.003zm187.511 106.751c-1.75.42-3.144-.59-3.963-1.961-2.89-4.846-4.211-10.101-3.187-15.746.326-1.734 1.047-3.517 3.199-3.478 1.912.045 2.434 1.686 2.748 3.305.925 4.735 3.659 9.057 3.264 14.107-.16 1.571-.19 3.334-2.094 3.799l.033-.026zm11.57-9.812c.639 2.252 1.127 4.517 1.674 6.789.332 1.441.428 2.858-1.204 3.59-1.383.638-2.761.348-3.989-.526-2.49-1.721-3.104-9.509-.995-11.69.57-.601 1.202-.925 2.052-.749 1.343.346 2.108 1.353 2.462 2.586z" fill="#004DF8"/><path d="M390.887 59.788c-.332-.274-.631-.573-.962-.847l.083.069c-4.162-.005-6.992-2.21-9.076-5.566-2.852-4.633-5.546-9.34-5.903-14.946-1.18-1.946-2.095-4.136-3.603-5.787-11.55-12.435-23.405-24.513-41.483-26.954-2.14 1.31-4.49-.607-6.635.462 5.754 4.36 11.949 7.925 18.804 10.3 1.852.638 3.571 1.981 5.051 3.33 2.054 1.886 3.274 4.316 1.908 7.141-1.36 2.767-3.939 2.803-6.503 2.392-6.718-1.073-13.031-3.184-18.644-7.17-.977-.698-1.677-2.056-3.358-.251-4.811 5.199-9.065 5.215-14.487.53-.577-.508-1.181-1.049-1.693-1.61-2.417-2.731-3.524-1.557-4.176 1.312-.167.761-.335 1.523-.621 2.272-1.165 3.205-3.14 5.55-6.833 5.353-3.664-.194-5.388-2.675-6.28-5.97-1.46-5.36-2.393-5.604-6.32-1.452-1.476 1.556-2.914 3.326-3.831 5.269-.845 1.83-1.802 2.99-3.816 2.486-2.483-.612-2.989-2.7-2.624-4.819.8-4.62 3.336-8.344 6.466-11.739.808-.875 2.196-1.273 2.404-2.72-.367-.516-.734-1.032-1.074-1.516-6.971 7.585-13.483 15.366-13.243 26.53.019 1.29-.165 2.498-1.328 3.338l.059 1.773c4.573.675 8.847 2.219 12.758 4.683 5.141-3.429 8.039-2.774 10.934 2.611 4.709 8.745 7.333 17.966 5.651 28.006-.29 1.677-.673 3.375-1.198 4.998-.822 2.492-2.101 4.757-5.045 4.846-3.181.066-4.59-2.264-5.579-4.91-.421-1.15-.778-2.355-1.164-3.562-3.511.96-6.581 4.93-10.416 2.891-6.79-3.596-14.596-3.104-21.468-5.9-4.112-1.676-7.884-2.27-11.736.272-8.323 5.86-16.028 12.412-21.806 20.926l-.03-.003c1.126.414 2.132-.052 3.202-.272 8.888-2 13.922 2.675 12.636 11.767-.231 1.684-.756 3.307-1.318 5.586 5.999-2.743 11.857-4.392 16.137 2.093 3.686 5.556.708 11.571.623 17.401 2.083.722 3.153-.966 4.551-1.752 5.659-3.227 11.476-5.658 18.235-4.101 4.741 1.081 7.598 4.187 9.031 8.645.955 2.972 1.723 6.015 2.369 9.076.929 4.406 3.298 7.313 7.808 8.311 2.576-13.243 6.338-26.065 13.199-37.853 1.231-2.091 2.086-4.609 5.066-3.587 2.835.978 2.792 3.758 2.295 5.984-1.353 5.94-3.202 11.741-4.585 17.679-1.366 5.76-2.704 11.553-2.419 17.571 3.461-8.99 6.869-18.046 12.329-26.084 10.044-14.818 22.304-27.283 39.009-34.595 3.261-1.435 5.914-3.38 8.057-6.187 4.6-6.059 10.131-10.975 16.929-14.505 5.914-3.081 11.674-6.417 17.51-9.626-1.264-.518-2.497-1.062-3.761-1.58l-.086-.04zM320.905 40.98c2.09-.535 4.152-1.074 6.242-1.61 6.679-1.775 13.027-.59 19.039 2.419 3.702 1.874 5.774 5.05 6.145 9.34 1.424 15.716-11.985 27.406-26.686 23.274-3.227 1.108-5.921.504-7.869-2.419-9.886-3.193-14.648-10.536-11.509-18.42 2.413-6.044 7.298-9.618 13.598-11.193l-.098.08c.377-.47.787-.968 1.164-1.438l-.026-.033zm348.301 144.807c3.179.833 7.578 1.162 7.291 5.744-.306 5.059-4.886 5.042-8.559 5.237-6.715.364-13.44-.052-20.063-1.176-3.269-.542-4.772-.186-4.691 3.715.202 8.016-3.662 13.611-11.158 16.651 4.523.281 8.283 2.76 12.311 4.368 6.04 2.442 12.256 3.734 18.858 3.598-2.16-2.017-4.523-3.515-6.853-5.04-4.18-2.762-5.492-6.639-4.467-11.415 1.002-4.54 4.104-6.769 8.454-7.733 3.339-.738 6.578-.198 9.757.635 3.823.988 7.723 1.505 11.636 1.305 5.508-.278 6.014-1.125 4.239-6.336-1.356-4.031-2.769-8.098-1.765-12.368 2.217-9.416 10.326-13.77 21.116-10.336 13.426 4.303 26.4 9.817 39.138 15.876 3.655 1.749 6.297 4.624 5.776 8.853-.533 4.347-3.768 6.713-7.831 7.796-1.661.43-3.387.614-5.083.8-7.338.9-14.334-.682-21.233-2.912-3.452-1.1-5.618-1.291-6.315 3.49-1.108 7.642-5.925 12.602-13.393 14.776-2.409.712-4.876 1.12-7.352 1.616-1.681.338-2.998.923-2.881 3.001.343 5.155-1.997 9.319-4.945 13.271 8.294.006 16.497-.566 24.6-2.795a105.188 105.188 0 0136.731-3.415c2.137.188 4.856-.044 5.221 2.838.356 2.671-1.692 4.259-3.92 5.26a24.667 24.667 0 01-4.897 1.627c-11.909 2.56-23.851 5.147-35.808 7.582-5.78 1.178-11.532.622-17.227-.797-.904-.241-1.792-.631-2.711-.725-6.313-.643-6.842-1.326-5.399-7.557-5.588.479-11.163 1.408-16.796.265-1.819-.365-3.128.131-3.108 2.289-.009 11.558-9.769 17.121-21.49 15.478-8.058-1.15-16.092-2.238-23.994-4.33-1.283-.341-4.099-1.796-3.72 1.238.497 3.943-.594 7.306-2.317 10.993 5.682.07 10.914.154 16.179.211 4.822.281 9.679.806 14.505.759 13.883-.173 27.81.976 41.54-2.117 4.75-2.241 9.439-3.291 14.894-2.166 10.146 2.112 20.584 1.348 30.899 1.8 2.176.102 4.36.414 6.527.605 15.062 1.475 29.908.951 44.18-4.812 1.11-2.373 3.554-3.441 5.241-5.305 6.889-7.653 8.077-16.965 8.136-26.661-.006-1.408-.104-2.796-.14-4.207l.018.122c-.876-.808-.554-1.913-.724-2.889a104.29 104.29 0 01-.785-1.996c-11.153-17.217-27.384-28.962-43.61-40.766-.752-.556-1.441-1.135-2.19-1.72-6.176-2.576-12.497-4.897-18.518-7.816-6.877-3.336-13.885-6.265-21.167-8.564-4.568-1.604-9.086-3.411-13.743-4.724-9.371-2.662-18.895-4.411-28.705-3.943 2.506 10.377 2.227 20.47-3.035 30.085 4.43.901 8.908 1.627 13.254 2.758l.092-.021zm67.418 39.868c-6.55-2.135-12.821-4.96-18.677-8.611-.93-.573-2.037-1.165-1.724-2.481.317-1.345 1.663-1.627 2.644-1.258 10.009 3.745 20.206 7.119 28.65 14.178-4.057 1.024-7.415-.695-10.893-1.828z" fill="#004DF8"/><path d="M235.871 74.989c-8.323 5.86-16.028 12.411-21.806 20.926-.124.047-.276.062-.374.141-.065.054-.018.178-.03.297.137-.166.27-.302.407-.468 1.123.444 2.129-.023 3.199-.243 8.888-2 13.921 2.676 12.636 11.768-.232 1.683-.756 3.307-1.318 5.585 5.999-2.742 11.857-4.392 16.137 2.093 3.686 5.556.708 11.571.623 17.402 2.083.721 3.153-.966 4.55-1.752 5.659-3.227 11.477-5.659 18.236-4.102 4.74 1.082 7.598 4.188 9.031 8.646.955 2.972 1.723 6.015 2.369 9.075.929 4.407 3.298 7.313 7.807 8.312-.97 8.645-1.674 17.317-1.393 26.03-14.52-3.276-24.848-10.946-27.471-26.934-3.189 1.322-5.117 3.491-7.069 5.598-3.095 3.338-6.243 6.611-9.906 9.352-4.696 3.474-9.722 4.31-14.975 1.499-5.254-2.811-6.62-7.622-6.145-13.173l.58-5.691c-2.395-.004-3.365 1.873-4.813 2.864-4.601 3.125-10.115 3.461-14.144.685-3.89-2.672-5.626-8.269-4.345-13.499 1.577-6.367 5.059-12.031 6.796-18.502-5.138 5.166-11.762 9.642-14.057 16.295-4.539 13.103-8.631 26.521-10.254 40.4-1.319 11.185 1.035 21.875 6.16 31.83 7.372 14.346 14.11 29.047 22.909 42.61 6.577 10.102 13.953 19.418 23.92 26.812 9.632 7.15 18.154 15.803 28.386 22.356 3.316 2.134 4.633 6.55 8.064 9.026 4.355 3.109 9.078 5.536 13.647 8.308 1.86 1.147 3.96 1.99 4.551 4.416-.356.263-.95.802-1.062.73-5.284-4.281-12.934-4.731-17.388-10.096-4.854-5.854-12.394-7.671-17.736-12.557-13.722-12.567-29.643-22.663-41.948-36.793-4.259-4.926-8.189-10.147-12.775-14.807-3.72-3.763-4.415-9.283-7.692-13.271-4.584-5.557-8.881-11.295-11.257-18.245-2.217-6.454-4.34-12.959-6.744-19.343-1.062-2.803.262-5.213.525-7.792 1.326-12.142 2.92-24.257 4.217-36.403.193-1.896 1.411-3.27 1.723-5.154.555-3.387 1.749-6.29.09-9.993-1.294-2.886 1.605-5.765 3.095-8.339 6.084-10.34 11.602-21.007 18.454-30.94 5.058-7.33 11.451-12.757 19.157-16.973 3.552-1.944 6.802-4.458 10.177-6.72.644-.443 1.143-.93.181-1.777-2.664-2.368-.97-4.59-.209-7.358 1.624-5.944 4.293-11.271 7.755-16.16 6.497-9.1 15.182-13.814 26.733-11.68.029.602.03 1.172.059 1.773-17.307.573-27.673 8.56-32.467 25.051-1.426 4.886.182 7.624 5.233 8.888l-.029-.003z" fill="#032363"/><path d="M452.904 388.738c10.188 2.864 16.26-2.356 20.784-10.609 2.051 3.682 3.698 7.503 4.404 11.737.727 4.327 4.753 5.965 7.558 8.406 6.464 5.63 10.69 12.349 12.78 20.647.891 3.594 1.252 7.105-2.077 9.221-3.425 2.166-7.539 1.987-10.923-.364-3.156-2.238-5.991-4.982-8.805-7.635-3.196-3.02-4.109-1.407-4.423 1.975-.794 7.795-3.842 14.491-9.47 20.057-3.065 3.042-3.435 7.555-4.877 11.421-1.441 3.866-4.365 5.814-7.557 5.399-3.073-.403-5.161-3.131-5.791-6.938-.613-3.686-.944-7.193-.419-10.883.34-2.451.005-4.162-3.202-2.662-9.562 4.506-19.919 7.404-28.622 13.764-1.811 1.312-4.222 2.055-6.452 2.487-3.452.666-4.096-2.124-4.471-4.618-.524-3.377 1.819-5.804 3.147-8.543 5.882-5.719 11.742-11.501 18.955-15.587 1.496-.866 3.433-1.357 4.441-3.321a27.604 27.604 0 00-9.964.512c-4.07-2.96-8.595-.576-12.878-.862-3.243-.211-6.519.204-9.385-1.645-3.736-2.417-3.704-5.378-.059-7.942 2.87-2.013 5.988-3.522 9.304-4.622 3.772-.873 7.5-1.901 11.287-2.623 9.193-1.758 18.603-2.417 27.717-4.872.631-.026 1.23-.025 1.861-.05 9.582-.581 9.826-.916 7.183-9.959-.153-.554-.024-1.23-.023-1.829l-.023-.062zM297.84 357.399c3.791 1.584 7.281 4.066 11.675 3.855 1.473-.06 3.088.554 4.309-.849l-.066.053c2.115.695 3.688-1.511 5.765-1.03-.079 1.07-.132 2.173-.211 3.243-1.995 5.187-2.296 10.486-1.689 15.998.921 8.299 1.478 16.65 2.159 24.955-.632 3.259.095 6.118 2.165 8.725 2.943 3.743 4.755 8 5.351 12.732-.714 1.425.137 2.769.393 4.083.869 4.401-.456 7.41-4.589 9.474-4.48 2.239-7.231-.736-9.361-3.349-3.114-3.821-6.737-6.765-10.749-9.42l-.041-.183c-.32-.093-.45-.286-.357-.606-1.986-3.436-4.708-6.408-5.83-10.386-1.331-4.867-1.485-4.822-5.496-1.308-8.182 5.065-16.757 9.582-24.383 15.363-4.509 3.404-10.716 4.658-13.407 10.792-.973 2.207-4.634 3.75-7.697 2.36-3.865-1.741-5.826-7.181-4.029-10.711.94-1.881 2.034-3.806 3.978-4.955 8.85-8.981 20.513-14.111 30.665-22.06-1.028-.195-1.6-.463-2.145-.398-.884.149-1.759.509-2.625.78-4.88-1.186-10.003-.869-14.508.439-4.968 1.44-9.804.409-14.642.874-3.751.366-7.306.873-10.738 2.23-3.278 1.313-5.844.333-7.775-2.17-2.147-2.734-.683-5.339 1.318-7.352 2.934-2.935 6.383-5.338 10.432-6.573 3.061-.946 6.172-1.797 9.257-2.68.586.119 1.188.39 1.706.293 8.214-1.558 16.442-2.667 24.826-2.951 2.887-.125 5.907.213 8.671-.464 3.989-.941 7.872-2.312 8.892-7.329 1.194-5.837 5.08-10.772 5.841-16.773 2.151-.829 2.25-2.975 2.935-4.702z" fill="#F800A2"/><path d="M327.296 425.105c-.596-4.732-2.408-8.989-5.351-12.732-2.067-2.636-2.794-5.495-2.165-8.725 2.168 1.059 2.371 3.475 3.666 5.164 5.027 6.502 12.518 8.223 19.761 10.308 3.985 1.155 8.404.108 12.289 2.24.966.518 2.092.633 2 2.121-.097 1.247-.893 2.005-1.925 2.439-1.75.72-3.589 1.131-5.503.816-7.536-1.276-15.205-.95-22.802-1.634l.03.003zm-7.989-62.436c.079-1.07.131-2.173.211-3.243 6.823-7.899 16.304-13.072 22.426-21.731 1.436-2.04 3.9-2.418 6.374-2.016-2.298 5.515-4.941 10.876-8.116 15.882-2.568 4.051-5.815 7.403-10.945 8.378-3.359.646-6.622 1.811-9.95 2.73zm124.573 37.9c-9.084 2.458-18.491 3.087-27.716 4.872-3.787.722-7.545 1.747-11.287 2.623-.224-5.443 2.949-7.784 7.816-9.115 10.629-2.93 21.019-2.92 31.184 1.649l.003-.029zm-26.017 22.566c3.191-.753 6.417-.963 9.964-.512-.979 1.966-2.918 2.487-4.441 3.321-7.246 4.112-13.073 9.867-18.956 15.586-4.889-4.031-5.065-5.247-.301-9.972 3.866-3.858 8.319-6.998 13.734-8.423zM278.693 10.9c-.366-.517-.733-1.034-1.073-1.518 4.036-5.817 10.222-8.63 16.723-8.956 12.099-.595 24.206.489 35.598 5.363-2.14 1.309-4.49-.607-6.635.462-.462-.167-.892-.36-1.354-.528-12.718-3.9-25.09-1.507-37.443 1.876l.06.006c-.848-.206-1.586-.012-2 .814l.095-.05c-.622-.063-1.032.135-1.157.78l.065-.053c-.939-.185-1.648.012-1.905 1.064l.128-.077c-.673-.158-1.118.096-1.22.804l.118.012zm19.142 346.497c-.688 1.757-.784 3.873-2.934 4.702-4.943-5.864-7.952-12.189-6.615-20.318.92-5.506 1.823-11.133 1.439-16.772 2.995 4.407 2.47 9.564 2.316 14.31-.227 6.924 1.417 12.841 5.824 18.081l-.03-.003zm380.81-91.405c4.75-2.241 9.438-3.291 14.894-2.166 10.145 2.112 20.584 1.348 30.899 1.8 2.176.102 4.36.414 6.526.605-17.47 3.94-34.872-1.307-52.319-.239zM271.593 404.551c.866-.271 1.741-.631 2.625-.781.549-.093 1.12.174 2.145.399-10.152 7.949-21.814 13.079-30.665 22.06.534-6.714 5.336-9.758 10.582-12.458 5.308-2.723 11.078-4.68 15.313-9.22zm19.643 8.834c4.011-3.514 4.165-3.558 5.496 1.309 1.092 3.974 3.844 6.949 5.829 10.386-6.154.151-10.329-4.137-11.325-11.695zm98.772-354.37c-4.162-.005-6.992-2.21-9.076-5.566-2.852-4.633-5.546-9.34-5.903-14.945 6.222 5.934 9.406 14.074 14.979 20.51zm90.199 290.401c-.847-4.908 2.269-5.519 5.868-5.272 5.56.387 11.051 1.455 16.652.858-5.084 2.866-10.637 3.588-16.385 3.571-2.036.002-4.346-1.131-6.164.84l.029.003zm-208.736 37.242c-8.354.287-16.611 1.392-24.825 2.951-.519.097-1.15-.177-1.707-.293 6.697-3.421 13.499-6.111 21.28-4.301 1.813.425 3.606.757 5.252 1.643z" fill="#032363"/><path d="M390.889 59.788c-.331-.273-.63-.573-.961-.847.331.273.63.573.961.847z" fill="#032363"/><path d="M353.816 204.392c7.836 7.446 16.712 13.201 26.623 17.325.27-.302.573-.63.843-.932-3.529-3.863-7.025-7.753-10.623-11.533-8.302-8.751-16.544-17.497-22.049-28.418-2.54-5.05-2.226-9.6.947-11.942 3.722-2.735 8.398-1.899 12.424 2.673 8.883 10.098 19.699 17.099 33.035 20.524-5.396-6.119-10.762-12.236-16.157-18.355 1.091-.129 2.176-.198 3.22-.451 2.387-.505 4.659-1.352 4.976-4.164.29-2.845-2.337-2.933-4.022-3.734-7.25-3.493-12.558-9.005-16.624-15.827 4.439-7.124 11.23-8.828 16.745-2.996 8.165 8.618 18.417 12.626 29.162 16.207 10.686 3.573 21.247 7.494 31.855 11.24 1.591.551 3.294.874 5.512.561a8625.024 8625.024 0 01-19.608-16.221c-1.019-2.05-2.923-3.053-4.783-4.2-8.175-4.996-16.677-9.425-24.353-15.208.418-9.39 4.818-13.194 14.236-12.175 7.018.775 13.268 3.508 19.029 7.509 11.44 7.933 23.992 13.463 37.232 17.537 1.161.358 2.397.574 4.53 1.091-3.356-4.385-7.606-6.465-10.718-9.717 1.027-.973 3.54-.657 3.106-2.857-.394-2.017-2.414-2.762-4.105-3.503-11.102-4.784-20.678-11.898-30.18-19.155 3.453-4.798 8.086-6.183 13.946-5.796 13.266.873 25.251 5.807 37.158 10.912 9.697 4.162 19.664 7.154 30.14 8.371 3.165.382 6.269.19 9.362-.184 4.338-.546 7.869.652 10.166 4.269 2.293 3.648 1.764 7.666-.389 11.16-4.852 7.951-12.65 10.42-21.364 10.131-3.91-.128-4.785.232-3.595 4.425 2.783 9.717-3.75 17.705-13.837 17.366-3.581-.125-7.14-.757-10.696-1.419-1.882-.341-3.114-.586-2.722 2.029 2.129 14.081-9.654 25.098-28.186 21.534a293.2 293.2 0 00-5.055-.935c-1.651-.258-3.328-.548-4.979-.806-4.648-1.701-9.266-3.4-13.917-5.071 3.823 5.39 7.703 10.217 7.922 16.887-1.011 4.928-3.851 6.944-8.96 6.244-5.317-.721-10.658-.906-13.631 5.05-4.937-.922-9.551-2.949-15.195-4.872 4.077 5.836 8.536 10.273 8.797 16.827-8.83-.33-11.25 1.669-11.579 9.601-11.664-1.608-21.798-7.072-32.095-12.403 3.96 4.925 7.923 9.821 11.854 14.743-3.154 1.266-5.913 2.781-6.199 6.765-.231 3.15 1.534 5.217 3.475 7.331 3.213 3.441 7.079 6.351 9.379 11.107-5.36.292-9.291-2.264-13.605-3.423-4.608-1.218-9.168-2.012-13.407 1.09-21.329-12.264-37.05-29.317-44.689-53.093-1.409-4.396-2.669-9.076-.224-13.678.741-1.392 1.262-2.986 3.231-2.905 1.965.11 2.154 1.777 2.848 3.195 3.621 7.376 7.241 14.752 13.729 20.144-.012.119-.027.267.053.365.023.062.142.074.228.113l-.346-.425c-2.521-8.761-6.579-17.14-7.19-26.425-.268-4.13-.948-8.331.548-12.431.619-1.674 1.336-3.128 3.033-3.913 3.134 7.745 7.363 14.734 13.48 20.538 3.468 3.287 7.383 5.124 12.294 4.246l-.036.057z" fill="#004DF8"/><path d="M556.387 264.732c-18.422 12.107-36.891 24.091-55.21 36.358-6.039 4.027-12.682 7.213-17.971 12.394l.065-.054c-1.076-.319-1.783.448-2.439 1.01-9.221 7.924-19.697 14.044-29.548 21.095-1.906 1.363-3.838 2.694-6.369 2.256 2.186-21.457 5.142-42.836 5.992-64.4.084-2.297 1.033-2.5 2.732-2.716 9.624-1.296 19.288-1.509 28.969-1.301 7.111.155 12.921-1.319 15.834-8.748 1.343-3.487 3.783-6.562 4.892-10.103 1.056-3.306 2.524-3.905 5.698-3.312 7.672 1.41 15.396 1.718 23.138.381 6.965 2.476 14.169 3.479 21.517 3.659 2.985.094 5.795.441 7.013 3.469 1.175 2.875-.345 5.445-2.047 7.757-.628.865-1.506 1.554-2.272 2.314l.006-.059z" fill="#42E900"/><path d="M549.201 225.337c-8.814-1.377-17.567-3.047-25.965-6.148-4.358-1.612-8.118-4.091-10.413-8.308-.83-1.552-1.399-3.316-.104-4.861 1.191-1.406 2.882-1.833 4.719-1.346 8.393 2.262 16.792.063 25.196.171 2.843.02 2.209-1.991 1.605-3.7-1.525-4.437-3.325-8.813-4.633-13.318-3.372-11.573 2.71-19.248 14.821-18.493 9.523.58 19.043 1.191 28.596.307 4.654-.424 6.996-1.952 6.789-7.273-.268-7.065 4.601-11.36 11.848-10.771 9.206.758 18.375 1.872 27.647 1.978 2.274.022 4.617.829 6.774 1.708 1.812.723 3.85 1.59 3.917 4.172.042 2.52-1.298 4.21-3.321 5.261-1.772.928-3.726 1.597-5.693 2.085-6.545 1.639-13.146 2.943-19.948 2.7-2.475-.103-3.334.978-3.564 3.23-.899 8.832-6.632 13.369-14.448 16.016-6.759 2.276-13.774 2.64-20.832 2.849-6.039.193-6.027.374-4.14 5.956 2.647 7.816 2.657 15.363-2.025 22.522-1.937-.976-3.82-2.186-5.843-2.901-7.717-2.732-11.285-.041-10.98 8.135l-.003.029z" fill="#004DF8"/><path d="M432.165 241.631c12.446-7.237 23.659-16.186 35.188-24.714 6.216-4.577 7.011-5.035 12.568.382 6.237 6.086 14.666 8.891 20.99 14.715-4.399 7.607-5.808 16.447-10.272 24.108-2.394 4.098-5.188 5.071-9.459 4.965-9.83-.222-19.656-.175-29.462 1.131-10.199 1.357-20.554 1.29-30.665 3.255-7.452 1.427-14.907 1.116-22.38 1.283 5.562-6.979 13.789-10.723 20.475-16.39 3.803-3.236 8.832-5.568 13.017-8.735z" fill="#42E900"/><path d="M549.202 225.343c-.305-8.176 3.263-10.867 10.98-8.135 2.024.715 3.907 1.925 5.844 2.901 3.997 4.27 8.515 7.246 15.107 5.732-.651-2.432-2.456-3.814-4.324-5.172-4.293-3.133-5.493-6.339-3.57-9.347 1.855-2.926 5.089-2.926 9.97-.272 3.66 1.989 7.332 4.16 11.812 3.688 3.831.9 7.693 1.203 11.614 1.213 1.198.003 2.71-.143 3.341-1.336.77-1.389-.705-2.198-1.391-3.106-1.029-1.363-2.218-2.622-3.342-3.934-2.384-2.759-4.38-5.807-1.436-9.13 3.075-3.43 6.487-1.945 9.607.35 2.898 2.122 5.68 4.501 9.212 5.4 2.832.708 6.127 1.882 8.225-1.079 1.822-2.599 2.293-5.755.17-8.726-.469-.976-.969-1.956-1.376-2.955-2.119-5.067.346-9.278 5.827-9.288 6.798.003 13.632.52 20.432.793 4.43.901 8.908 1.626 13.254 2.758 3.179.833 7.578 1.161 7.291 5.743-.306 5.06-4.886 5.042-8.559 5.237-6.715.364-13.44-.051-20.063-1.175-3.269-.543-4.773-.187-4.691 3.714.202 8.016-3.662 13.612-11.159 16.651l-2.473.467c-4.527-1.12-8.348-1.24-9.986 4.552-.692 2.385-3.466 3.45-5.786 4.471-4.512 1.966-9.234 1.875-13.845.986-4.377-.836-5.678.769-5.101 4.81-2.085 6.645-7.235 7.528-13.148 7.075-2.585.096-6.122-3.109-7.522.941-1.803 5.057-5.333 7.662-9.869 9.565-14.139 1.225-26.27-4.323-37.993-11.237-.764-.437-1.884-.91-1.466-2.065.497-1.357 1.789-1.106 2.835-.79 2.385.692 4.832 1.361 7.128 2.343 6.88 3.007 14.126 3.895 21.507 4.347 1.576.101 3.139.051 4.607-.548 1.783-.747 3.525-1.678 3.686-3.847.162-2.469-2.169-2.227-3.632-2.856-4.683-1.944-9.054-4.306-11.764-8.864l.047.125zm-117.036 16.282c-4.215 3.164-9.214 5.499-13.017 8.735-6.686 5.668-14.913 9.411-20.475 16.391-2.081 1.315-3.018 3.166-2.702 5.653-.036 1.524.834 2.691 1.483 3.955-2.285 6.265-4.65 7.731-10.974 6.608a51.128 51.128 0 01-16.728-5.987c-3.059-1.719-6.024-3.189-10.065-2.612-3.95.556-3.181-3.169-2.823-5.798 4.242-3.131 8.799-2.307 13.406-1.089 4.317 1.128 8.249 3.685 13.606 3.422-2.3-4.756-6.163-7.695-9.379-11.107-1.97-2.117-3.71-4.151-3.476-7.331.283-3.954 3.046-5.499 6.199-6.765 2.816.287 5.36 1.474 7.901 2.691 4.997 2.396 10.235 3.888 16.303 3.997-1.456-3.353-2.695-6.174-3.932-9.025.329-7.932 2.748-9.931 11.578-9.601 2.699.844 5.414 1.241 8.53.929-.964-4.35-3.251-8.356-2.134-12.854 2.969-5.926 8.313-5.771 13.63-5.05 5.139.703 7.95-1.316 8.961-6.244 2.387-3.739 2.837-8.455 5.965-11.819 1.651.258 3.328.548 4.979.806 8.584 11.565 2.405 29.592-11.426 32.495-3.612.77-4.927 1.923-4.569 5.463.134 1.332-.547 2.729-.864 4.075l.023.062zM285.92 178.613c-.28-8.712.424-17.385 1.394-26.03 2.577-13.242 6.338-26.065 13.199-37.853 1.231-2.091 2.086-4.609 5.067-3.586 2.835.977 2.791 3.758 2.295 5.983-1.354 5.941-3.203 11.741-4.586 17.679-1.365 5.76-2.704 11.553-2.419 17.571-3.216 20.993 1.26 41.423 4.744 61.901 2.197 12.83 7.196 24.898 10.84 37.337-.691 1.787.913 4.555-1.543 5.443-2.331.84-4.032-1.279-5.696-2.587-3.27-2.579-5.306-6.11-7.182-9.745-9.307-17.987-12.896-37.427-14.973-57.313-.3-2.935-.718-5.882-1.107-8.826l-.033.026z" fill="#FDFDFD"/><path d="M397.454 276.362c-.65-1.264-1.516-2.46-1.483-3.954 6.234-.054 12.316 1.674 18.664 1.093 10.065-.921 20.049-2.51 30.237-2.28 3.047.071 3.158.741 2.771 3.366-2.871 20.25-5.565 40.518-8.32 60.809-3.563-3.537-6.443-7.603-8.94-11.9-4.592-7.834-10.35-14.799-15.848-21.977-4.1-6.197-6.814-13.361-12.558-18.408-2.172-1.898-1.436-5.596-4.523-6.749z" fill="#42E900"/><path d="M439.322 335.397c2.752-20.262 5.449-40.559 8.32-60.809.388-2.626.276-3.296-2.771-3.367-10.185-.259-20.172 1.359-30.237 2.28-6.348.581-12.43-1.146-18.664-1.093-.349-2.461.621-4.338 2.702-5.654 7.473-.167 14.925.173 22.38-1.283 10.111-1.965 20.495-1.895 30.665-3.255 9.806-1.307 19.633-1.354 29.462-1.131 4.271.106 7.065-.867 9.459-4.965 4.493-7.658 5.873-16.501 10.272-24.108 2.74 1.028 5.191 2.535 7.39 4.466-.569 1.47-1.105 2.912-1.674 4.381-.45 1.182-.496 2.226 1.176 2.276 4.953.175 9.847 1.812 14.847.644a1187.66 1187.66 0 009.532 3.726c-7.742 1.338-15.467 1.03-23.139-.381-3.173-.592-4.671.004-5.697 3.313-1.106 3.511-3.549 6.616-4.892 10.102-2.886 7.462-8.723 8.904-15.834 8.748-9.681-.208-19.345.006-28.97 1.301-1.699.216-2.65.449-2.732 2.716-.849 21.564-3.805 42.943-5.991 64.401-2.265.188-4.238-.432-5.598-2.367l-.006.059z" fill="#F800A2"/><path d="M681.218 239.267c8.294.006 16.497-.565 24.6-2.794a105.162 105.162 0 0136.731-3.415c2.137.187 4.855-.045 5.22 2.837.357 2.672-1.691 4.26-3.919 5.26a24.757 24.757 0 01-4.897 1.628c-11.91 2.56-23.852 5.146-35.808 7.581-5.78 1.178-11.533.622-17.227-.796-.904-.242-1.793-.632-2.711-.726-6.313-.643-6.842-1.326-5.399-7.557l1.941-1.419c.623.063 1.195.032 1.418-.694l-.009.089.06.006z" fill="#FDFDFD"/><path d="M337.647 122.403c.684-6.129 4.191-9.694 7.941-12.696 14.674-11.77 30.607-21.197 49.396-24.853 2.992-.564 7.44-1.608 8.413 1.486.904 2.877-3.719 4.172-6.17 5.3-12.823 5.94-25.232 12.522-37.144 20.113-3.811 2.426-7.474 5.167-11.128 7.82-1.52 1.102-3.064 2.442-3.322 4.392-.421 2.952-1.968 4.322-4.774 3.647-3.155-.771-2.99-3.569-3.183-5.206l-.029-.003z" fill="#004DF8"/><path d="M400.967 139.006c7.679 5.753 16.178 10.212 24.353 15.207 1.889 1.151 3.764 2.151 4.783 4.201-.721 3.25-3.196 3.447-5.849 3.327-5.664-.248-10.512-2.928-15.416-5.344-10.094-4.981-19.084-11.376-25.71-20.705-1.78-2.518-2.979-5.155-1.994-8.349.399-1.277 1.104-2.313 2.45-2.595 1.412-.335 2.382.423 3.104 1.574 3.567 5.544 8.89 9.141 14.217 12.708l.062-.024z" fill="#FDFDFD"/><path d="M594.833 231.278c-.576-4.041.725-5.646 5.102-4.811 4.61.889 9.362.984 13.845-.985 2.32-1.021 5.126-2.113 5.785-4.471 1.668-5.789 5.459-5.673 9.987-4.553-6.576 5.469-6.307 10.468.68 15.372 3.579 2.49 7.018 5.176 10.422 7.919 1.054.826 2.368 2.038 1.734 3.56-.741 1.691-2.459.917-3.763.785-12.976-1.382-25.41-4.835-37.293-10.178-2.118-.964-4.343-1.76-6.499-2.638z" fill="#004DF8"/><path d="M434.04 117.725c9.502 7.256 19.075 14.4 30.18 19.154 1.694.712 3.711 1.487 4.105 3.503.437 2.171-2.049 1.887-3.106 2.858-10.579-.509-19.689-4.851-27.942-11.141-7.474-5.703-14.743-11.654-22.078-17.551a12.071 12.071 0 01-2.21-2.412c-.757-1.095-.923-2.399-.091-3.512.936-1.253 2.153-.859 3.398-.433 6.458 2.155 11.952 6.129 17.744 9.534zm-80.222 86.668c-4.88.88-8.826-.959-12.294-4.247-6.116-5.804-10.345-12.793-13.479-20.538-1.116-5.504-2.567-10.952-1.718-16.645.3-2.066.438-4.297 2.991-4.666 2.704-.383 4.005 1.546 4.617 3.764 2.694 10.007 6.613 19.449 12.122 28.275 1.98 3.197 4.127 6.23 6.659 9.003 1.323 1.423 2.233 3.073 1.099 5.083l.003-.029zm12.589-54.805c4.069 6.793 9.374 12.334 16.624 15.828 1.685.8 4.341.891 4.022 3.733-.29 2.845-2.589 3.659-4.976 4.165-1.041.223-2.156.289-3.22.45-10.575-2.604-21.026-14.359-22.323-25.152-.198-1.577-.071-3.121.762-4.534.651-1.101 1.495-2.033 2.906-2.069 1.5-.027 2.206.973 2.678 2.219.746 2.082 1.751 3.981 3.524 5.39l.003-.03z" fill="#FDFDFD"/><path d="M631.069 194.49c2.126 2.942 1.654 6.098-.171 8.727-2.068 2.963-5.395 1.816-8.225 1.078-3.561-.901-6.313-3.278-9.211-5.4-3.124-2.264-6.533-3.78-9.607-.35-2.971 3.291-.949 6.372 1.435 9.13 1.124 1.312 2.284 2.568 3.343 3.934.716.911 2.19 1.72 1.39 3.106-.657 1.161-2.142 1.339-3.34 1.337-3.889-.037-7.784-.314-11.615-1.213 3.309-5.443 5.594-11.109 4.53-17.716-.446-2.68 1.761-2.006 3.181-1.831 7.596.983 15.228 1.311 22.845.32 1.85-.23 3.636-.707 5.471-1.089l-.026-.033z" fill="#004DF8"/><path d="M488.97 118.168c-14.419-4.254-28.693-8.763-40.184-19.126-1.287-1.18-3.636-2.227-2.031-4.46 1.498-2.063 3.535-.897 4.977.238 9.59 7.565 20.784 12.029 31.745 17.009 2.633 1.196 5.064 2.911 7.581 4.365l-2.117 1.971.029.003z" fill="#FDFDFD"/><path d="M564.297 248.863c4.536-1.904 8.066-4.509 9.868-9.565 1.431-4.047 4.937-.845 7.522-.941-.492 3.364.513 6.431 1.853 9.442 1.075 2.385.262 3.021-2.136 2.747-5.687-.61-11.384-1.13-17.107-1.683z" fill="#004DF8"/><path d="M522.646 243.809c-5 1.167-9.894-.469-14.847-.644-1.643-.048-1.626-1.094-1.176-2.276.569-1.47 1.105-2.912 1.674-4.381l14.349 7.301zM488.97 118.175c.695-.648 1.393-1.326 2.117-1.971 1.268.489 2.337 1.167 2.85 2.896-1.877.198-3.511.361-4.97-.896l.003-.029z" fill="#4CE400"/><path d="M681.195 239.178c-.223.726-.796.757-1.418.694.472-.222.947-.473 1.418-.694z" fill="#004DF8"/><path d="M483.236 313.49c1.773 1.109 3.308-.142 4.824-.617 14.696-4.641 28.496-11.351 42.154-18.434 2.783-1.453 5.616-2.811 8.686-3.547 1.165-.27 2.524-.97 3.425.469.722 1.151-.214 2.104-.755 3.007a17.27 17.27 0 01-4.693 5.212c-13.83 10.24-29.062 17.192-46.185 19.79-.762.132-1.548.202-2.328.212-5.276.061-6.261-1.147-5.03-6.172l-.066.053-.032.027zM218.477 208.723c.376-1.34.639-2.75 1.161-4.044.777-2.047 1.606-4.598 4.32-4.202 3.065.492 1.592 3.187 1.642 5.049.085 2.404.724 4.655 2.048 6.646 6.119 9.308 11.41 19.1 16.796 28.841 1.214 2.19 2.651 4.253 4.509 6 1.095 1.01 1.965 2.176.972 3.692-.851 1.291-2.265 1.656-3.744 1.475-2.786-.284-5.001-1.767-6.968-3.614-4.046-3.796-7.179-8.308-9.737-13.18a715.907 715.907 0 01-9.186-18.004c-1.344-2.682-2.281-5.533-1.783-8.656l-.03-.003zm-22.981-7.228c1.261-3.855.366-8.887 3.312-8.706 3.658.252 1.272 4.861 1.661 7.505 2.03 13.293 5.955 25.911 13.49 37.189 2.155 3.244 5.712 4.774 8.889 6.805 1.321.853 3.741 1.489 2.839 3.583-.667 1.549-2.853.967-4.317.638-5.473-1.246-10.478-3.553-13.831-8.266-8.456-11.941-11.012-25.647-12.07-38.781l.027.033zm68.238 36.48c-3.318-.638-6.117-2.271-8.412-4.72-7.272-7.688-10.593-17.13-12.341-27.31-.132-.762-.08-1.565.028-2.333.214-1.804.92-3.439 2.9-3.777 1.919-.313 2.752 1.209 3.315 2.734 2.381 6.321 5.806 12.09 9.169 17.883 2.721 4.739 5.344 9.557 10.453 12.324.965.517 1.874 1.299 1.714 2.57-.21 1.476-1.423 1.921-2.604 2.34-1.367.489-2.749.528-4.159.265l-.063.024zm8.502-33.719c.211-2.074.27-3.536 1.717-3.927 1.632-.433 2.174 1 2.534 2.174 3.981 12.653 10.701 23.998 16.851 35.645 1.255 2.373 3.754 5.772 1.16 7.424-2.178 1.396-4.184-2.432-5.811-4.395-8.193-9.818-13.932-20.793-15.986-33.55-.22-1.369-.378-2.763-.465-3.371zm41.582 156.178c-3.284-1.862-3.863-5.005-3.873-8.72-1.991.726-2.428 4.425-5.027 2.902-2.6-1.522-2.106-4.317-1.855-6.777.286-2.815 1.071-5.52 2.635-7.936.85-1.291 1.784-2.813 3.715-2.077 1.674.619 1.549 2.134 1.401 3.586l-.434 4.268c2.19-.046 2.019-1.89 2.78-2.891 1.066-1.359 1.971-3.183 4-2.527 1.973.62 1.972 2.686 1.889 4.385-.235 5.545-.246 11.234-5.479 14.983-.098.08.061.575.12.881l.065-.054.063-.023zm-28.683-70.002c-8.861-1.202-18.935-10.194-20.5-18.348-.252-1.344-.075-2.793.097-4.183.121-1.185.979-1.966 2.194-2.142 1.278-.199 2.285.502 2.561 1.608 1.88 8.008 8.037 12.827 13.38 18.282 1.222 1.233 2.728 2.614 2.298 4.786l-.03-.003zm169.077 84.598c-.16 1.571-.19 3.335-2.094 3.8-1.75.42-3.144-.59-3.963-1.961-2.89-4.846-4.211-10.102-3.187-15.747.326-1.733 1.047-3.516 3.199-3.477 1.912.045 2.434 1.686 2.748 3.305.925 4.735 3.659 9.056 3.264 14.107l.033-.027zm7.012-8.592c1.339.376 2.108 1.352 2.461 2.586.639 2.251 1.127 4.517 1.674 6.788.333 1.442.428 2.859-1.204 3.591-1.383.638-2.76.348-3.989-.526-2.49-1.721-3.104-9.509-.995-11.69.57-.601 1.202-.926 2.053-.749z" fill="#FDFDFD"/><path d="M247.607 74.722c6.869 2.826 14.648 2.3 21.468 5.9 3.805 2.035 6.905-1.932 10.416-2.891-.186-6.997-1.617-13.82-3.386-20.558-.989-3.814-1.352-7.594-.239-11.464-3.912-2.464-8.186-4.008-12.759-4.683-17.307.572-27.673 8.56-32.467 25.05-1.426 4.886.182 7.625 5.233 8.888 3.85-2.512 7.625-1.948 11.737-.272l-.003.03zm16.747-17.13c-.26 2.849-5.238 6.444-8.551 6.047-2.398-.274-3.723-1.667-3.381-4.148.361-2.658 5.705-5.437 9.308-4.95 1.968.08 2.791 1.122 2.624 3.052z" fill="#4CE400"/><path d="M321.923 5.693c.463.167.892.36 1.354.527 5.755 4.36 11.949 7.925 18.804 10.3 1.852.638 3.572 1.981 5.051 3.33 2.054 1.886 3.274 4.316 1.908 7.141-1.36 2.766-3.939 2.803-6.502 2.392-6.718-1.073-13.031-3.184-18.644-7.17-.977-.698-1.677-2.057-3.358-.252-4.812 5.2-9.066 5.216-14.488.53-.577-.507-1.181-1.048-1.692-1.609-2.417-2.732-3.525-1.557-4.177 1.311-.167.762-.334 1.523-.62 2.273-1.165 3.205-3.141 5.55-6.834 5.353-3.664-.194-5.387-2.675-6.279-5.97-1.461-5.36-2.394-5.604-6.321-1.453-1.476 1.557-2.914 3.327-3.83 5.27-.846 1.83-1.802 2.99-3.817 2.486-2.483-.613-2.989-2.7-2.623-4.82.8-4.62 3.335-8.344 6.466-11.738.808-.876 2.196-1.273 2.403-2.72l-.119-.012c.753.257 1.145-.063 1.22-.804l-.127.077c.992.251 1.547-.201 1.905-1.063l-.066.053c.623.063 1.006-.167 1.158-.78l-.095.05c.85.176 1.515-.175 2.002-.844l-.059-.006c5.984.34 11.898 1.96 17.993.335 2.34-.63 4.866.735 6.89 2.32 1.028.793 2.066 1.767 2.994.005 2.077-3.921 5.718-4.389 9.566-4.536l-.063.024zm5.226 33.677c6.679-1.774 13.026-.589 19.038 2.42 3.702 1.873 5.774 5.05 6.146 9.34 1.423 15.716-11.985 27.406-26.687 23.273 1.258-1.759 2.145-4.004 3.819-5.15 5.369-3.616 5.041-8.92 4.654-14.23-.168-2.472-1.15-4.878-1.321-7.321-.253-3.979-1.944-6.786-5.649-8.331z" fill="#FDFDFD"/><path d="M279.491 77.727c-.185-6.997-1.616-13.82-3.385-20.558-.989-3.814-1.353-7.594-.24-11.464 5.141-3.429 8.038-2.774 10.933 2.611 4.709 8.745 7.333 17.966 5.652 28.006-.291 1.677-.673 3.375-1.198 4.998-.823 2.492-2.102 4.757-5.045 4.846-3.181.066-4.591-2.264-5.579-4.91-.422-1.15-.778-2.355-1.164-3.562l.026.032z" fill="#F800A2"/><path d="M327.145 39.373c3.705 1.545 5.396 4.353 5.649 8.331.168 2.473 1.15 4.879 1.321 7.322.387 5.31.718 10.584-4.654 14.229-1.671 1.117-2.561 3.392-3.819 5.15-3.227 1.109-5.92.505-7.898-2.421-.981-4.772-.548-9.608-.836-14.429-.325-5.333-.419-10.583 2.924-15.184l-.098.08c.378-.47.788-.968 1.165-1.438 2.091-.536 4.152-1.075 6.243-1.61l.003-.03z" fill="#032363"/><path d="M319.839 42.373c-3.343 4.6-3.252 9.88-2.924 15.184.287 4.82-.146 9.657.836 14.429-9.886-3.193-14.648-10.536-11.509-18.421 2.412-6.043 7.298-9.618 13.597-11.192z" fill="#FDFDFD"/><path d="M320.906 41.014c-.377.47-.787.967-1.164 1.438.377-.47.787-.968 1.164-1.438z" fill="#FDFDFD"/><path d="M214.039 95.88c-.137.167-.27.303-.407.469l.03-.297c.098-.08.249-.094.374-.142l-.027-.032.03.003zM321.924 5.694c-3.821.18-7.489.614-9.565 4.535-.928 1.762-1.967.788-2.994-.005-2.025-1.584-4.551-2.95-6.891-2.32-6.124 1.623-12.008.005-17.992-.335 12.352-3.383 24.724-5.776 37.442-1.875zM281.541 9.09c-.327.865-.912 1.315-1.905 1.064.228-1.055.966-1.25 1.905-1.064z" fill="#004DF8"/><path d="M284.576 7.55c-.49.698-1.152 1.02-2.002.844.443-.824 1.152-1.021 2.002-.845zm-4.781 2.534c-.075.74-.467 1.06-1.22.804.103-.708.518-.966 1.22-.804z" fill="#004DF8"/><path d="M282.64 8.334c-.152.614-.538.874-1.157.78.126-.645.538-.873 1.157-.78z" fill="#004DF8"/><path d="M397.493 243.369c1.24 2.821 2.476 5.672 3.931 9.024-6.035-.135-11.305-1.601-16.302-3.996-2.541-1.217-5.058-2.372-7.901-2.691l-11.853-14.743c10.297 5.331 20.428 10.825 32.095 12.403l.03.003zm17.971-21.532c-1.117 4.498 1.17 8.504 2.135 12.855-3.116.311-5.834-.056-8.53-.929-.293-6.528-4.719-10.992-8.796-16.827 5.673 1.925 10.287 3.953 15.194 4.872l-.003.029zm28.56-23.082c-3.157 3.362-3.578 8.08-5.965 11.82-.219-6.67-4.129-11.5-7.922-16.888 4.647 1.702 9.266 3.4 13.917 5.071l-.03-.003zM331.683 222.35l.346.425c-.086-.039-.205-.051-.228-.113-.05-.095-.035-.244-.053-.365l-.065.053z" fill="#032363"/><path d="M261.762 54.517c1.969.08 2.791 1.122 2.624 3.052-.26 2.848-5.238 6.444-8.551 6.046-2.398-.274-3.723-1.667-3.381-4.147.361-2.659 5.705-5.438 9.308-4.951z" fill="#F800A2"/><path d="M5.155 399.669c1.758-17.862 8.574-32.376 17.182-48.178 15.324-28.135 34.413-51.081 61.18-68.952 12.783-8.535 25.922-13.962 40.565-18.058 3.06-.856-4.675 8.665-5.231 9.493-4.766 7.086-.126 1.389 3.06-1.226 3.124-2.563 12.106-6.467 13.624-10.306.173-.438-18.459.649-19.451.573-6.989-.538-13.967-1.375-20.943-2.062M4.406 414.176c.333 2.576.75 5.171.84 7.773.005.141-.046 1.221-.039 1.153.122-1.238.128-2.558.445-3.764.525-1.993 2.488-5.609 5.142-5.206 1.319.201.858 4.888 1.52 5.787.534.725.518.021.854-.513.773-1.228 2.385-2.818 3.666-3.484 1.471-.766 5.116-1.667 6.203.125.83 1.369 1.243 3.185 1.21 4.785-.013.566.038 2.344.633 1.146 1.868-3.764 4.81-6.688 8.968-7.667 1.698-.4 3.082-.294 4.79-.126l.537.053c-1.324-.13-6.102-1.325-6.605.731-.696 2.844-.13 6.087 2.079 8.082 1.605 1.45 4.106 1.649 5.064-.621.704-1.67.917-3.4 1.922-4.926.746-1.132 1.38.695 1.847 1.339 1.343 1.858 2.613 3.53 4.727 4.498 1.024.468 3.56 1.466 4.623.641 1.045-.811 2.506-8.252 2.675-8.211.557.136.976 3.343 1.185 3.887.53 1.386 1.252 2.263 2.293 3.25 1.633 1.549 2.123 1.339 3.726-.305m-5.091-19.987c-.569 1.524-1.628 2.884-1.79 4.528" stroke="#014DFB" stroke-width="3" stroke-linecap="round"/><path d="M61.243 423.803c.19-1.927 2.31-2.918 3.463-4.27 2.727-3.199 4.897-6.724 7.499-9.995.864-1.086 8.679-10.681 4.619-11.081-1.722-.169-3.075-.531-4.365.914-1.832 2.053-3.697 5.609-4.418 8.283-3.275 12.153 11.148 15.564 20.053 16.44m-74.237 16.884c-.01 2.638.146 5.345-.113 7.978l.066-.666c.252-2.565.19-4.674 2.07-6.628 3.242-3.367 6.433 1.43 6.196 4.567-.125 1.658-.683 2.812.356.558 1.222-2.652 3.707-4.512 6.491-5.26 1.368-.367 4.079-.522 4.785 1.069.79 1.776.454 3.737.272 5.589-.186 1.886-.364 1.782.987.396 2.919-2.992 6.555-5.621 10.45-7.166.856-.34 12.19-3.604 10.697.176-.467 1.181-3.496-.182-3.958-.371-1.889-.776-4.228-1.196-6.294-1.105-1.402.061-1.492 3.387-1.402 4.379.158 1.746 1.616 3.085 3.194 3.581 3.806 1.196 5.785-1.607 7.057-4.943.12-.315.848 3.116 1.16 3.773.682 1.44 1.895 2.084 3.25 2.635 3.661 1.489 4.41-4.026 6.478-5.896.628-.567 1.982 4.273 2.144 4.766.108.326.861 3.848 1.2 2.993 1.166-2.952 7.207-9.626 10.962-7.452 1.527.884.864 7.622 2.914 6.428 3.27-1.904 6.042-4.733 9.602-6.148 3.487-1.386 7.436-1.172 11.093-.812 2.343.231-4.74-.962-7.045-.488-3.316.682-4.87 3.068-3.81 6.27.403 1.214 1.48 3.38 2.837 3.807 3.485 1.1 5.25-4.027 6.186-6.521.796-2.126 1.559 1.716 1.84 2.16.691 1.087 1.808 3.793 3.251 4.146 1.28.313 2.143-.229 3.057-1.099 3.593-3.417 7.576-6.543 12.421-7.849 1.127-.304 6.611-1.895 7.647-.703.619.711.738 1.603-.297 1.501-3.035-.299-9.06-.305-9.654 4.015-.354 2.577 2.118 3.309 4.189 2.204 2.771-1.477 4.74-3.853 5.608-6.914.078-.275.16-1.162.111-.363-.109 1.775.283 3.745.485 5.499.322 2.789.729 5.552 1.007 8.35.19 1.903.964 4.675-.171 6.479-.953 1.514-2.281.918-2.923-.456-.767-1.644-1.909-5.92-.858-7.589 1.348-2.141 7.324-2.045 9.294-2.445 2.889-.587 7.988-1.603 8.787-5.071.154-.671.756-3.076.024-3.656-1.356-1.073-5.435-1.652-6.485.071-1.642 2.699-.785 5.78 1.249 7.982 1.714 1.854 3.909 3.505 6.24 4.497 1.975.839 2.597-.709 3.398-2.279 1.499-2.937 2.794-6.094 3.856-9.215.846-2.485 2.102 3.446 2.336 4.15.559 1.686.812 3.465 1.534 5.079.259.578 1.664-4.386 1.917-5.057 1.526-4.047 3.327-8.726 8.296-8.237 1.398.138 2.353.129 3.428 1.01" stroke="#014DFB" stroke-width="3" stroke-linecap="round"/></symbol><symbol id="mask-usage" viewBox="0 0 8 13"><path fill-rule="evenodd" clip-rule="evenodd" d="M7.41 11.09L2.83 6.5l4.58-4.59L6 .5l-6 6 6 6 1.41-1.41z" fill="#E35205"/></symbol><symbol id="photo-usage" viewBox="0 0 46 38"><path d="M43.97.03H2.03C.912.03 0 .94 0 2.06v33.88c0 1.12.911 2.03 2.03 2.03h41.94c1.119 0 2.03-.91 2.03-2.03V2.06C46 .94 45.089.03 43.97.03zm0 35.909l-41.94.001V2.061h41.94v33.878z" fill="#E35205"/><path d="M40.158 4.857H5.842c-.561 0-1.016.454-1.016 1.015v22.443c0 .56.455 1.015 1.016 1.015h34.316c.56 0 1.015-.454 1.015-1.015V5.872c0-.56-.455-1.015-1.015-1.015zm-33.3 2.03h32.284v17.19l-6.4-6.398a1.016 1.016 0 00-1.435 0l-3.901 3.901-8.945-8.945a1.016 1.016 0 00-1.436 0L6.857 22.802V6.887zm0 20.412v-1.625l10.885-10.885 12.51 12.51H6.857zm32.284 0h-6.017l-4.283-4.283 3.183-3.183 6.884 6.883c.07.07.15.128.233.174v.41z" fill="#E35205"/><path d="M27.343 8.814a3.843 3.843 0 00-3.839 3.839 3.843 3.843 0 003.84 3.839 3.843 3.843 0 003.838-3.84 3.843 3.843 0 00-3.839-3.838zm0 5.647a1.81 1.81 0 01-1.808-1.808 1.81 1.81 0 011.808-1.808 1.81 1.81 0 011.808 1.808 1.81 1.81 0 01-1.808 1.808zM14.674 31.619H5.842a1.016 1.016 0 000 2.03h8.832a1.015 1.015 0 000-2.03zm6.951 0h-2.317a1.016 1.016 0 000 2.03h2.317a1.016 1.016 0 000-2.03z" fill="#E35205"/></symbol><symbol id="red7-usage" viewBox="0 0 113 157"><path d="M113 0v44.857L67.8 157H0V0h113z" fill="#E30613"/><path d="M18.51 37.381l-4.197-12.816h-3.336V37.38H7.426V7.476h6.78c4.52 0 7.103 1.923 7.103 8.544 0 4.166-.969 6.622-3.66 7.797l4.628 13.564H18.51zm-4.197-26.7h-3.228v10.68h3.228c2.798 0 3.444-2.137 3.444-5.34-.107-3.205-.646-5.34-3.444-5.34zm12.377 26.7V7.476h11.622v3.204H30.35v10.04h6.887v3.31H30.35v10.147h7.963v3.204H26.69zm28.196-2.136c-1.184 1.175-2.798 2.136-5.166 2.136h-6.995V7.476h6.995c2.475 0 4.09.855 5.166 2.136 2.045 2.243 2.152 5.554 2.152 12.817 0 7.262-.107 10.68-2.152 12.816zm-2.69-23.39c-.539-.64-1.4-1.175-2.584-1.175h-3.228v23.497h3.228c1.184 0 2.045-.427 2.583-1.175 1.077-1.388 1.184-3.738 1.184-10.573 0-6.836-.107-9.185-1.184-10.574zm9.254-4.379v8.544h3.66v-5.34h6.349L60.697 37.381h3.874l10.762-26.808V7.476H61.45z" fill="#fff"/></symbol><symbol id="video-usage" viewBox="0 0 42 46"><path d="M41.223 16.894a1.027 1.027 0 00-1.014-.023l-6.64 3.574v-3.063c0-.567-.459-1.026-1.026-1.026h-1.67a9.191 9.191 0 003.416-7.151C34.29 4.129 30.16 0 25.085 0c-4.332 0-7.975 3.009-8.948 7.046a6.93 6.93 0 00-5.346-2.519 6.949 6.949 0 00-6.94 6.941c0 1.905.77 3.632 2.017 4.888H4.93c-.567 0-1.026.46-1.026 1.027v4.66h-2.6c-.567 0-1.027.46-1.027 1.027v4.038c0 .567.46 1.027 1.027 1.027h2.6v4.661c0 .567.46 1.027 1.026 1.027h12.114L11.478 44.5a1.027 1.027 0 101.82.95l5.438-10.432 5.438 10.431a1.027 1.027 0 101.821-.95L20.43 33.824h12.113c.567 0 1.027-.46 1.027-1.027v-3.062l6.64 3.573a1.027 1.027 0 001.513-.904V17.775c0-.361-.19-.696-.5-.881zM3.903 26.08H2.332v-1.984h1.573v1.984zM25.086 2.054c3.943 0 7.15 3.208 7.15 7.15 0 3.944-3.207 7.152-7.15 7.152-3.943 0-7.151-3.208-7.151-7.151 0-3.943 3.208-7.151 7.15-7.151zM17.244 14.02a9.272 9.272 0 002.053 2.336h-3.583a6.965 6.965 0 001.53-2.336zM10.79 6.58a4.893 4.893 0 014.887 4.888 4.893 4.893 0 01-4.887 4.888 4.893 4.893 0 01-4.887-4.888 4.893 4.893 0 014.887-4.887zm20.726 25.19H5.957V18.41h25.56v13.36zm8.153-1.085l-6.1-3.283v-4.624l6.1-3.283v11.19z" fill="#E35205"/><path d="M10.791 8.35c-1.72 0-3.119 1.398-3.119 3.118s1.4 3.12 3.12 3.12c1.72 0 3.119-1.4 3.119-3.12 0-1.72-1.4-3.119-3.12-3.119zm0 4.389c-.7 0-1.27-.57-1.27-1.271 0-.7.57-1.27 1.27-1.27.701 0 1.271.57 1.271 1.27 0 .7-.57 1.27-1.27 1.27zm14.294-8.014c-2.47 0-4.48 2.01-4.48 4.48 0 2.47 2.01 4.479 4.48 4.479 2.47 0 4.48-2.01 4.48-4.48 0-2.47-2.01-4.479-4.48-4.479zm0 6.905a2.428 2.428 0 01-2.426-2.425 2.429 2.429 0 012.426-2.426 2.429 2.429 0 012.425 2.426 2.428 2.428 0 01-2.425 2.425zm-3.312 9.765H10.609a.975.975 0 00-.976.975v5.438c0 .538.437.975.976.975h11.164a.975.975 0 00.975-.975V22.37a.975.975 0 00-.975-.975zm-.976 5.437h-9.213v-3.486h9.213v3.486zm6.361-2.408a1.027 1.027 0 100-2.054 1.027 1.027 0 000 2.054zm0 3.383a1.027 1.027 0 100-2.053 1.027 1.027 0 000 2.053z" fill="#E35205"/></symbol></defs><view id="view-arrow-usage" viewBox="10 10 40 20"></view><view id="view-close-usage" viewBox="70 10 20 20"></view><view id="view-compass-usage" viewBox="110 10 11.28 20"></view><view id="view-designer-usage" viewBox="150 10 29.59 20"></view><view id="view-mask-usage" viewBox="210 10 12.31 20"></view><view id="view-photo-usage" viewBox="250 10 24.21 20"></view><view id="view-red7-usage" viewBox="310 10 14.39 20"></view><view id="view-video-usage" viewBox="350 10 18.26 20"></view><use id="arrow-usage" xlink:href="#arrow-usage" width="40" height="20" x="10" y="10"></use><use id="close-usage" xlink:href="#close-usage" width="20" height="20" x="70" y="10"></use><use id="compass-usage" xlink:href="#compass-usage" width="11.28" height="20" x="110" y="10"></use><use id="designer-usage" xlink:href="#designer-usage" width="29.59" height="20" x="150" y="10"></use><use id="mask-usage" xlink:href="#mask-usage" width="12.31" height="20" x="210" y="10"></use><use id="photo-usage" xlink:href="#photo-usage" width="24.21" height="20" x="250" y="10"></use><use id="red7-usage" xlink:href="#red7-usage" width="14.39" height="20" x="310" y="10"></use><use id="video-usage" xlink:href="#video-usage" width="18.26" height="20" x="350" y="10"></use></svg>