<svg width="42px" height="42px" viewBox="0 0 33 33" fill="none" xmlns="http://www.w3.org/2000/svg">
<g filter="url(#filter0_d)">
<path fill-rule="evenodd" clip-rule="evenodd" d="M14.412 2.53998C21.039 2.53998 26.412 7.91198 26.412 14.54C26.412 21.167 21.039 26.54 14.412 26.54C7.78399 26.54 2.41199 21.167 2.41199 14.54C2.41199 7.91198 7.78399 2.53998 14.412 2.53998Z" fill="white"/>
</g>
<path fill-rule="evenodd" clip-rule="evenodd" d="M12.304 10.663H16.519L16.52 10.404C16.52 10.344 16.495 10.29 16.459 10.249L16.453 10.243C16.411 10.201 16.352 10.174 16.288 10.174H12.535C12.471 10.174 12.412 10.201 12.371 10.243L12.364 10.249C12.328 10.29 12.303 10.344 12.303 10.404L12.304 10.663ZM14.412 10.97H8.39198C8.22198 10.97 8.06898 11.038 7.95898 11.149C7.84698 11.26 7.77898 11.414 7.77898 11.582C7.77898 13.057 7.77898 14.533 7.77898 16.008L9.98998 17.148V16.689C9.98998 16.605 10.057 16.536 10.14 16.536H11.74C11.824 16.536 11.891 16.605 11.891 16.689V17.148H16.932V16.689C16.932 16.605 17 16.536 17.084 16.536H18.683C18.767 16.536 18.833 16.605 18.833 16.689V17.148L21.044 16.008C21.044 14.533 21.044 13.057 21.044 11.582C21.044 11.414 20.976 11.26 20.864 11.149C20.754 11.038 20.601 10.97 20.431 10.97H14.412ZM14.412 17.455H11.891V18.308C11.891 18.392 11.823 18.461 11.739 18.461H10.141C10.058 18.461 9.98998 18.391 9.98998 18.307V17.455C9.25298 17.075 8.51598 16.695 7.77898 16.314V20.267C7.77898 20.435 7.84798 20.589 7.95898 20.7C8.06998 20.81 8.22298 20.88 8.39198 20.88L14.412 20.879L20.431 20.88C20.6 20.88 20.754 20.81 20.864 20.7C20.975 20.589 21.044 20.435 21.044 20.267V16.314C20.307 16.695 19.57 17.075 18.833 17.455V18.307C18.833 18.391 18.765 18.461 18.682 18.461H17.084C17 18.461 16.932 18.392 16.932 18.308V17.455H14.412ZM14.412 21.186L8.39198 21.185C8.13898 21.185 7.90798 21.083 7.74198 20.916C7.57598 20.75 7.47198 20.52 7.47198 20.267V11.582C7.47198 11.331 7.57598 11.101 7.74198 10.934L7.74398 10.933L7.74498 10.931C7.91098 10.765 8.13998 10.663 8.39198 10.663H9.71098V7.38698C9.71098 7.24398 9.76699 7.11399 9.85899 7.01799L9.86898 7.00699C9.96598 6.91099 10.098 6.85098 10.245 6.85098H10.956C11.104 6.85098 11.237 6.91098 11.333 7.00798C11.431 7.10498 11.491 7.23998 11.491 7.38698V10.663H12V10.404C12 10.261 12.056 10.132 12.148 10.035L12.158 10.024C12.255 9.92899 12.387 9.86798 12.534 9.86798H16.289C16.436 9.86798 16.569 9.92899 16.665 10.024L16.676 10.035C16.767 10.132 16.823 10.261 16.823 10.404V10.663H17.332V7.38698C17.332 7.23998 17.393 7.10498 17.49 7.00798C17.587 6.91098 17.719 6.85098 17.867 6.85098H18.578C18.725 6.85098 18.857 6.91099 18.954 7.00699L18.965 7.01799C19.056 7.11399 19.112 7.24398 19.112 7.38698V10.663H20.431C20.683 10.663 20.912 10.765 21.078 10.931L21.079 10.933L21.081 10.934C21.247 11.101 21.351 11.331 21.351 11.582V20.267C21.351 20.52 21.247 20.75 21.081 20.916C20.915 21.083 20.684 21.185 20.431 21.185L14.412 21.186ZM18.531 17.322C18.53 17.316 18.529 17.309 18.529 17.301C18.53 17.294 18.529 17.287 18.531 17.279V16.842H17.236V17.279C17.237 17.287 17.237 17.294 17.237 17.301C17.238 17.309 17.236 17.316 17.235 17.323L17.236 18.154H18.531V17.322ZM17.635 10.663V7.38698C17.635 7.32398 17.662 7.26699 17.703 7.22499L17.702 7.22598C17.745 7.18298 17.803 7.15799 17.867 7.15799L18.577 7.15698C18.641 7.15698 18.7 7.18398 18.742 7.22598L18.748 7.23198C18.785 7.27298 18.809 7.32698 18.809 7.38698V10.663H17.635ZM10.292 17.322C10.293 17.316 10.295 17.309 10.295 17.301C10.293 17.294 10.294 17.287 10.293 17.279L10.292 16.842H11.588V17.279C11.586 17.287 11.586 17.294 11.586 17.301C11.585 17.309 11.588 17.316 11.588 17.323V18.154H10.292V17.322ZM11.188 10.663V7.38698C11.188 7.32398 11.161 7.26699 11.121 7.22499V7.22598C11.078 7.18298 11.02 7.15799 10.956 7.15799L10.246 7.15698C10.182 7.15698 10.123 7.18398 10.081 7.22598L10.075 7.23198C10.039 7.27298 10.014 7.32698 10.014 7.38698L10.015 10.663H11.188Z" fill="#ED1C24"/>
<defs>
<filter id="filter0_d" x="0.411987" y="0.539978" width="32" height="32" filterUnits="userSpaceOnUse" color-interpolation-filters="sRGB">
<feFlood flood-opacity="0" result="BackgroundImageFix"/>
<feColorMatrix in="SourceAlpha" type="matrix" values="0 0 0 0 0 0 0 0 0 0 0 0 0 0 0 0 0 0 127 0"/>
<feOffset dx="2" dy="2"/>
<feGaussianBlur stdDeviation="2"/>
<feColorMatrix type="matrix" values="0 0 0 0 0 0 0 0 0 0 0 0 0 0 0 0 0 0 0.134567 0"/>
<feBlend mode="normal" in2="BackgroundImageFix" result="effect1_dropShadow"/>
<feBlend mode="normal" in="SourceGraphic" in2="effect1_dropShadow" result="shape"/>
</filter>
</defs>
</svg>
