<svg width="42px" height="42px" viewBox="0 0 33 33" fill="none" xmlns="http://www.w3.org/2000/svg">
<g filter="url(#filter0_d)">
<path fill-rule="evenodd" clip-rule="evenodd" d="M14.412 2.53998C21.039 2.53998 26.412 7.91198 26.412 14.54C26.412 21.167 21.039 26.54 14.412 26.54C7.78399 26.54 2.41199 21.167 2.41199 14.54C2.41199 7.91198 7.78399 2.53998 14.412 2.53998Z" fill="white"/>
</g>
<path fill-rule="evenodd" clip-rule="evenodd" d="M7.48299 11.731H21.341V11.051L14.412 7.70999L7.48299 11.051V11.731ZM7.32399 19.082H8.26199V13.225H7.98699C7.90099 13.225 7.82899 13.154 7.82899 13.066V12.052H7.32399C7.23399 12.052 7.16199 11.98 7.16199 11.892L7.16299 10.951H7.16399C7.16399 10.891 7.19499 10.834 7.25299 10.806L14.343 7.38899C14.386 7.36899 14.436 7.36699 14.481 7.38899L21.56 10.802C21.62 10.824 21.661 10.883 21.661 10.951L21.662 11.891C21.662 11.98 21.589 12.053 21.501 12.053L20.994 12.052V13.065C20.994 13.153 20.924 13.225 20.836 13.225H20.563V19.082H21.502C21.591 19.082 21.661 19.154 21.661 19.243L21.662 20.231C21.662 20.319 21.589 20.392 21.501 20.392H7.32399C7.23399 20.392 7.16199 20.319 7.16199 20.231L7.16299 19.242C7.16299 19.154 7.23399 19.083 7.32299 19.083L7.32399 19.082ZM11.457 12.052V13.065C11.457 13.153 11.387 13.225 11.3 13.225H11.027V19.082H13.03V13.225H12.756C12.67 13.225 12.597 13.154 12.597 13.066L12.598 12.052H11.457ZM16.227 12.052V13.065C16.227 13.153 16.155 13.225 16.068 13.225H15.794V19.082H17.797V13.225H17.524C17.437 13.225 17.366 13.154 17.366 13.066V12.052H16.227ZM17.682 12.905H20.679V12.052H17.682V12.905ZM12.914 12.905H15.911V12.052H12.914V12.905ZM8.14599 12.905H11.142V12.052H8.14599V12.905ZM8.58199 19.082H10.705V13.225H8.58199V19.082ZM13.351 19.082H15.474V13.225H13.351V19.082ZM18.119 19.082H20.243V13.225H18.119V19.082ZM7.48299 20.071H21.341V19.404H7.48299V20.071Z" fill="#ED1C24"/>
<defs>
<filter id="filter0_d" x="0.411987" y="0.539978" width="32" height="32" filterUnits="userSpaceOnUse" color-interpolation-filters="sRGB">
<feFlood flood-opacity="0" result="BackgroundImageFix"/>
<feColorMatrix in="SourceAlpha" type="matrix" values="0 0 0 0 0 0 0 0 0 0 0 0 0 0 0 0 0 0 127 0"/>
<feOffset dx="2" dy="2"/>
<feGaussianBlur stdDeviation="2"/>
<feColorMatrix type="matrix" values="0 0 0 0 0 0 0 0 0 0 0 0 0 0 0 0 0 0 0.134567 0"/>
<feBlend mode="normal" in2="BackgroundImageFix" result="effect1_dropShadow"/>
<feBlend mode="normal" in="SourceGraphic" in2="effect1_dropShadow" result="shape"/>
</filter>
</defs>
</svg>
