<svg width="42px" height="42px" viewBox="0 0 33 33" fill="none" xmlns="http://www.w3.org/2000/svg">
<g filter="url(#filter0_d)">
<path fill-rule="evenodd" clip-rule="evenodd" d="M14.412 2.53798C21.039 2.53798 26.412 7.91098 26.412 14.538C26.412 21.165 21.039 26.538 14.412 26.538C7.78399 26.538 2.41199 21.165 2.41199 14.538C2.41199 7.91098 7.78399 2.53798 14.412 2.53798Z" fill="#ED1C24"/>
</g>
<path fill-rule="evenodd" clip-rule="evenodd" d="M11.829 8.16199L9.66499 10.167H11.759C11.798 10.167 11.829 10.132 11.829 10.094V8.16199ZM19.577 14.052C19.577 14.146 19.501 14.222 19.408 14.222C19.314 14.222 19.238 14.146 19.238 14.052V11.92C19.238 11.406 19.408 11.052 19.889 10.901V10.07H21.017V11.72C21.164 12.65 21.199 13.659 21.199 14.598C21.199 15.018 21.204 18.072 20.636 18.58V18.932C20.636 19.026 20.56 19.102 20.466 19.102C20.373 19.102 20.297 19.026 20.297 18.932V18.58C19.73 18.073 19.736 15.018 19.736 14.598C19.736 13.668 19.747 12.642 19.889 11.722V11.265C19.64 11.383 19.577 11.598 19.577 11.92V14.052ZM20.229 12.297H20.678V10.41H20.229V12.297ZM20.786 12.636H20.129C20.117 12.8 20.107 12.966 20.1 13.132H20.822C20.812 12.966 20.8 12.801 20.786 12.636ZM20.416 18.311H20.438C20.783 17.966 20.859 15.068 20.859 14.598C20.859 14.231 20.854 13.852 20.838 13.471H20.088C20.077 13.854 20.075 14.234 20.075 14.598C20.075 15.068 20.151 17.966 20.416 18.311ZM10.849 18.898H16.838C16.931 18.898 17.008 18.975 17.008 19.068C17.008 19.162 16.931 19.238 16.838 19.238H10.849C10.756 19.238 10.68 19.162 10.68 19.068C10.68 18.975 10.756 18.898 10.849 18.898ZM10.849 17.387H16.838C16.931 17.387 17.008 17.464 17.008 17.557C17.008 17.651 16.931 17.727 16.838 17.727H10.849C10.756 17.727 10.68 17.651 10.68 17.557C10.68 17.464 10.756 17.387 10.849 17.387ZM10.849 15.879H16.838C16.931 15.879 17.008 15.955 17.008 16.049C17.008 16.142 16.931 16.218 16.838 16.218H10.849C10.756 16.218 10.68 16.142 10.68 16.049C10.68 15.955 10.756 15.879 10.849 15.879ZM10.849 14.368H16.838C16.931 14.368 17.008 14.444 17.008 14.538C17.008 14.632 16.931 14.708 16.838 14.708H10.849C10.756 14.708 10.68 14.632 10.68 14.538C10.68 14.444 10.756 14.368 10.849 14.368ZM10.849 12.857H16.838C16.931 12.857 17.008 12.934 17.008 13.027C17.008 13.121 16.931 13.197 16.838 13.197H10.849C10.756 13.197 10.68 13.121 10.68 13.027C10.68 12.934 10.756 12.857 10.849 12.857ZM10.849 11.347H16.838C16.931 11.347 17.008 11.423 17.008 11.516C17.008 11.61 16.931 11.686 16.838 11.686H10.849C10.756 11.686 10.68 11.61 10.68 11.516C10.68 11.423 10.756 11.347 10.849 11.347ZM11.932 7.60298H18.215C18.441 7.60298 18.625 7.78998 18.625 8.01498V21.061C18.625 21.286 18.441 21.473 18.215 21.473H9.47198C9.24598 21.473 9.06198 21.286 9.06198 21.061V10.263L11.932 7.60298ZM9.40099 10.506V21.061C9.40099 21.099 9.43298 21.133 9.47198 21.133H18.215C18.254 21.133 18.286 21.099 18.286 21.061L18.285 8.01498C18.285 7.97698 18.254 7.94298 18.215 7.94298H12.169V10.094C12.169 10.32 11.985 10.506 11.759 10.506H9.40099Z" fill="white"/>
<defs>
<filter id="filter0_d" x="0.411987" y="0.537979" width="32" height="32" filterUnits="userSpaceOnUse" color-interpolation-filters="sRGB">
<feFlood flood-opacity="0" result="BackgroundImageFix"/>
<feColorMatrix in="SourceAlpha" type="matrix" values="0 0 0 0 0 0 0 0 0 0 0 0 0 0 0 0 0 0 127 0"/>
<feOffset dx="2" dy="2"/>
<feGaussianBlur stdDeviation="2"/>
<feColorMatrix type="matrix" values="0 0 0 0 0 0 0 0 0 0 0 0 0 0 0 0 0 0 0.134567 0"/>
<feBlend mode="normal" in2="BackgroundImageFix" result="effect1_dropShadow"/>
<feBlend mode="normal" in="SourceGraphic" in2="effect1_dropShadow" result="shape"/>
</filter>
</defs>
</svg>
