<svg width="42px" height="42px" viewBox="0 0 33 33" fill="none" xmlns="http://www.w3.org/2000/svg">
<g filter="url(#filter0_d)">
<path fill-rule="evenodd" clip-rule="evenodd" d="M14.412 2.53998C21.039 2.53998 26.412 7.91298 26.412 14.54C26.412 21.167 21.039 26.54 14.412 26.54C7.78399 26.54 2.41199 21.167 2.41199 14.54C2.41199 7.91298 7.78399 2.53998 14.412 2.53998Z" fill="white"/>
</g>
<path fill-rule="evenodd" clip-rule="evenodd" d="M17.838 18.728L19.097 19.456V19.455L21.91 21.081C21.986 21.125 22.012 21.224 21.967 21.3L21.587 21.957C21.544 22.033 21.444 22.061 21.368 22.016L20.206 21.344H8.61799L7.45499 22.016C7.37899 22.061 7.27999 22.033 7.23599 21.957L6.85599 21.3C6.81099 21.224 6.83699 21.125 6.91299 21.081L9.72599 19.455V19.456L10.985 18.728L10.316 18.729C10.051 18.729 9.80999 18.621 9.63599 18.447V18.446C9.46199 18.272 9.35299 18.03 9.35299 17.766L9.35399 17.018C9.35399 16.765 9.44999 16.535 9.61199 16.362V9.09899C9.61199 8.83399 9.71999 8.59199 9.89399 8.41799C10.068 8.24399 10.309 8.13599 10.573 8.13599H13.051C13.188 7.50999 13.745 7.04199 14.412 7.04199C15.078 7.04199 15.635 7.50999 15.773 8.13599H18.25C18.514 8.13599 18.755 8.24399 18.929 8.41799C19.103 8.59199 19.211 8.83399 19.211 9.09899V16.362C19.373 16.535 19.469 16.765 19.469 17.018L19.471 17.766C19.471 18.03 19.362 18.272 19.187 18.446V18.447C19.013 18.621 18.772 18.729 18.507 18.729L17.838 18.728ZM13.541 21.023H15.282L20.247 21.022V21.024C20.275 21.024 20.301 21.031 20.327 21.046L21.391 21.659L21.501 21.468L21.611 21.278L18.974 19.755L17.197 18.728H16.316L16.94 19.089C16.994 19.116 17.03 19.171 17.03 19.234C17.031 19.321 16.958 19.395 16.87 19.395L14.513 19.394H14.31L11.953 19.395C11.865 19.395 11.792 19.321 11.793 19.234C11.793 19.171 11.829 19.116 11.883 19.089L12.507 18.728H11.626L9.84899 19.755H9.84999L7.21199 21.278L7.32299 21.468L7.43199 21.659L8.49599 21.046C8.52199 21.031 8.54899 21.024 8.57699 21.024V21.022L13.541 21.023ZM9.98999 20.183L9.54999 20.437C9.52999 20.447 9.51199 20.461 9.49799 20.478L9.49199 20.476L9.49499 20.481C9.47299 20.509 9.45999 20.543 9.45999 20.581C9.45999 20.668 9.53199 20.742 9.62099 20.742H13.377H15.446H19.203C19.291 20.742 19.364 20.668 19.363 20.581C19.363 20.543 19.35 20.509 19.328 20.481L19.331 20.476L19.325 20.478C19.311 20.461 19.293 20.447 19.273 20.437L18.833 20.183V20.182L18.104 19.762L18.092 19.755L17.994 19.698C17.968 19.684 17.942 19.676 17.914 19.676V19.675H14.881H13.942H10.909V19.676C10.882 19.676 10.855 19.684 10.829 19.698L10.731 19.755L10.719 19.762L9.98999 20.182V20.183ZM13.377 20.419H10.22L10.62 20.188L10.951 19.997H17.872L18.204 20.188L18.603 20.419H13.377ZM14.31 19.072H16.272L15.676 18.728H13.147L12.552 19.072H14.31ZM14.412 18.408H18.508C18.685 18.408 18.844 18.337 18.96 18.22L18.961 18.219C19.077 18.103 19.149 17.944 19.149 17.766L19.15 17.017C19.15 16.841 19.076 16.681 18.96 16.565C18.862 16.464 18.73 16.398 18.583 16.38H18.579L18.562 16.378H18.557L18.553 16.377H18.532L18.531 16.376H10.292L10.291 16.377H10.27L10.267 16.378H10.261L10.244 16.38H10.24C10.094 16.398 9.96099 16.464 9.86299 16.565C9.74699 16.681 9.67299 16.841 9.67299 17.017L9.67399 17.766C9.67399 17.944 9.74599 18.103 9.86199 18.219L9.86299 18.22C9.97899 18.337 10.138 18.408 10.315 18.408H14.412ZM14.412 16.055H18.547L18.553 16.057H18.571L18.576 16.058H18.582L18.588 16.059H18.6L18.605 16.06H18.606L18.615 16.061H18.621L18.627 16.063H18.632L18.638 16.064C18.727 16.075 18.811 16.1 18.89 16.135L18.891 9.09799C18.891 8.92199 18.819 8.76199 18.702 8.64499C18.586 8.52899 18.426 8.45699 18.249 8.45699H15.485V8.43499C15.485 7.84199 15.004 7.36099 14.412 7.36099C13.819 7.36099 13.338 7.84199 13.338 8.43499L13.339 8.45699H10.574C10.398 8.45699 10.238 8.52899 10.121 8.64499C10.005 8.76199 9.93199 8.92199 9.93199 9.09799L9.93299 16.135C10.012 16.1 10.096 16.075 10.185 16.064L10.191 16.063H10.197L10.203 16.061H10.208L10.217 16.06H10.219L10.224 16.059H10.235L10.241 16.058H10.247L10.253 16.057H10.27L10.277 16.055H14.412ZM14.412 7.68099C13.983 7.68099 13.635 8.02899 13.635 8.45699C13.635 8.88599 13.983 9.23399 14.412 9.23399C14.841 9.23399 15.188 8.88599 15.188 8.45699C15.188 8.02899 14.841 7.68099 14.412 7.68099ZM14.412 8.91199C14.16 8.91199 13.957 8.70899 13.957 8.45699C13.957 8.20599 14.16 8.00199 14.412 8.00199C14.663 8.00199 14.867 8.20599 14.867 8.45699C14.867 8.70899 14.663 8.91199 14.412 8.91199ZM12.66 14.045C12.749 14.045 12.82 14.117 12.82 14.206V15.251C12.82 15.34 12.749 15.412 12.66 15.412H10.761C10.672 15.412 10.601 15.34 10.601 15.252V14.205C10.601 14.117 10.672 14.045 10.761 14.045H12.66ZM10.921 15.091H12.499V14.366H10.921V15.091ZM14.412 13.43H10.921V9.83399H17.902V13.43H14.412ZM14.412 9.51299L10.761 9.51399C10.672 9.51399 10.601 9.58599 10.601 9.67299V13.591C10.601 13.68 10.672 13.751 10.761 13.751H18.062C18.151 13.751 18.222 13.68 18.222 13.591V9.67299C18.222 9.58599 18.151 9.51399 18.062 9.51399L14.412 9.51299ZM16.163 14.045C16.074 14.045 16.003 14.117 16.003 14.206V15.251C16.003 15.34 16.074 15.412 16.163 15.412H18.062C18.151 15.412 18.222 15.34 18.222 15.252V14.205C18.222 14.117 18.151 14.045 18.062 14.045H16.163ZM16.324 15.091H17.902V14.366H16.324V15.091Z" fill="#ED1C24"/>
<defs>
<filter id="filter0_d" x="0.411987" y="0.539978" width="32" height="32" filterUnits="userSpaceOnUse" color-interpolation-filters="sRGB">
<feFlood flood-opacity="0" result="BackgroundImageFix"/>
<feColorMatrix in="SourceAlpha" type="matrix" values="0 0 0 0 0 0 0 0 0 0 0 0 0 0 0 0 0 0 127 0"/>
<feOffset dx="2" dy="2"/>
<feGaussianBlur stdDeviation="2"/>
<feColorMatrix type="matrix" values="0 0 0 0 0 0 0 0 0 0 0 0 0 0 0 0 0 0 0.134567 0"/>
<feBlend mode="normal" in2="BackgroundImageFix" result="effect1_dropShadow"/>
<feBlend mode="normal" in="SourceGraphic" in2="effect1_dropShadow" result="shape"/>
</filter>
</defs>
</svg>
